<svg width="312" height="319" viewBox="0 0 312 319" fill="none" xmlns="http://www.w3.org/2000/svg">
<rect x="2" y="2" width="308" height="315" rx="50" fill="#10454F" stroke="#CA8923" stroke-width="4"/>
<path d="M72.8462 190.5V229H86.1012V222.125H80.5462V190.5H72.8462ZM88.6538 190.5V229H101.909V222.125H96.3538V190.5H88.6538ZM123.986 229L118.926 190.5H108.421L103.361 229H110.346L110.896 223.39H115.736L116.341 229H123.986ZM110.951 188.575H116.176L120.521 183.35H113.426L110.951 188.575ZM113.316 199.905L115.021 216.68H111.611L113.316 199.905ZM135.199 229H142.459L145.374 203.81V229H152.964V190.5H141.799L139.434 213.82L137.234 190.5H126.124V229H132.284V203.535L135.199 229ZM175.743 229L170.683 190.5H160.178L155.118 229H162.103L162.653 223.39H167.493L168.098 229H175.743ZM165.073 199.905L166.778 216.68H163.368L165.073 199.905ZM196.69 229V190.5H190.035L190.09 198.475L190.2 209.585L185.745 190.5H177.88V229H184.535L184.425 217.835L184.315 208.045L189.21 229H196.69ZM219.058 222.18V197.32C219.058 192.535 216.693 190.17 211.908 190.17H206.958C202.173 190.17 199.808 192.535 199.808 197.32V222.18C199.808 226.965 202.173 229.33 206.958 229.33H211.908C216.693 229.33 219.058 226.965 219.058 222.18ZM211.358 198.145V221.355C211.358 222.29 210.918 222.73 209.983 222.73H208.883C207.948 222.73 207.508 222.29 207.508 221.355V198.145C207.508 197.21 207.948 196.77 208.883 196.77H209.983C210.918 196.77 211.358 197.21 211.358 198.145ZM237.515 209.035L230.915 204.14C229.98 203.48 229.595 202.875 229.595 201.665V198.035C229.595 197.1 230.035 196.66 230.97 196.66H231.575C232.51 196.66 232.95 197.1 232.95 198.035V204.36H240.485V197.32C240.485 192.535 238.12 190.17 233.335 190.17H229.155C224.37 190.17 222.005 192.535 222.005 197.32V203.425C222.005 206.175 222.72 207.77 225.085 209.475L231.685 214.37C232.62 215.03 233.005 215.635 233.005 216.845V221.465C233.005 222.4 232.565 222.84 231.63 222.84H230.915C229.98 222.84 229.54 222.4 229.54 221.465V213.985H222.005V222.18C222.005 226.965 224.37 229.33 229.155 229.33H233.445C238.23 229.33 240.595 226.965 240.595 222.18V215.085C240.595 212.225 239.88 210.74 237.515 209.035Z" fill="#CA8923"/>
<path d="M93.0674 251.775H95.4174V249.225H97.9174V247H95.4174V244.45H93.0674V247H90.5674V249.225H93.0674V251.775ZM103.879 239.425H101.329L101.029 239.825C100.454 240.575 100.004 240.95 99.0287 241.05L98.8037 241.075V243.5H100.454V257H103.879V239.425ZM112.756 239.35C110.581 239.35 109.506 240.425 109.506 242.6V245.3C109.506 246.8 110.031 247.55 110.956 247.9C109.906 248.2 109.456 248.875 109.456 250.15V253.9C109.456 256.075 110.531 257.15 112.706 257.15H114.706C116.881 257.15 117.956 256.075 117.956 253.9V250.15C117.956 248.875 117.506 248.2 116.456 247.9C117.381 247.55 117.906 246.8 117.906 245.3V242.6C117.906 240.425 116.831 239.35 114.656 239.35H112.756ZM112.881 250.125C112.881 249.7 113.081 249.5 113.506 249.5H113.906C114.331 249.5 114.531 249.7 114.531 250.125V253.575C114.531 254 114.331 254.2 113.906 254.2H113.506C113.081 254.2 112.881 254 112.881 253.575V250.125ZM113.531 246.6C113.106 246.6 112.906 246.4 112.906 245.975V242.925C112.906 242.5 113.106 242.3 113.531 242.3H113.881C114.306 242.3 114.506 242.5 114.506 242.925V245.975C114.506 246.4 114.306 246.6 113.881 246.6H113.531ZM123.003 242.975C123.003 242.55 123.203 242.35 123.628 242.35H123.953C124.378 242.35 124.578 242.55 124.578 242.975V245H127.953V242.6C127.953 240.425 126.878 239.35 124.703 239.35H122.778C120.603 239.35 119.528 240.425 119.528 242.6V253.9C119.528 256.075 120.603 257.15 122.778 257.15H124.778C126.953 257.15 128.028 256.075 128.028 253.9V249.075C128.028 247.35 126.978 246.175 125.203 246.175H125.078C124.278 246.175 123.603 246.375 123.003 246.65V242.975ZM123.003 249.35C123.203 249.275 123.578 249.2 123.953 249.2C124.453 249.2 124.578 249.375 124.578 249.775V253.525C124.578 253.95 124.378 254.15 123.953 254.15H123.628C123.203 254.15 123.003 253.95 123.003 253.525V249.35ZM133.098 242.975C133.098 242.55 133.298 242.35 133.723 242.35H134.048C134.473 242.35 134.673 242.55 134.673 242.975V245H138.048V242.6C138.048 240.425 136.973 239.35 134.798 239.35H132.873C130.698 239.35 129.623 240.425 129.623 242.6V253.9C129.623 256.075 130.698 257.15 132.873 257.15H134.873C137.048 257.15 138.123 256.075 138.123 253.9V249.075C138.123 247.35 137.073 246.175 135.298 246.175H135.173C134.373 246.175 133.698 246.375 133.098 246.65V242.975ZM133.098 249.35C133.298 249.275 133.673 249.2 134.048 249.2C134.548 249.2 134.673 249.375 134.673 249.775V253.525C134.673 253.95 134.473 254.15 134.048 254.15H133.723C133.298 254.15 133.098 253.95 133.098 253.525V249.35ZM147.086 242.975C147.086 242.55 147.286 242.35 147.711 242.35H148.036C148.461 242.35 148.661 242.55 148.661 242.975V245H152.036V242.6C152.036 240.425 150.961 239.35 148.786 239.35H146.861C144.686 239.35 143.611 240.425 143.611 242.6V253.9C143.611 256.075 144.686 257.15 146.861 257.15H148.861C151.036 257.15 152.111 256.075 152.111 253.9V249.075C152.111 247.35 151.061 246.175 149.286 246.175H149.161C148.361 246.175 147.686 246.375 147.086 246.65V242.975ZM147.086 249.35C147.286 249.275 147.661 249.2 148.036 249.2C148.536 249.2 148.661 249.375 148.661 249.775V253.525C148.661 253.95 148.461 254.15 148.036 254.15H147.711C147.286 254.15 147.086 253.95 147.086 253.525V249.35ZM154.956 250.125C153.881 251.475 153.556 252.35 153.556 253.65V257H161.831V253.875H157.006V253.75C157.006 253.2 157.181 252.85 157.606 252.3L160.431 248.75C161.506 247.4 161.831 246.475 161.831 245.225V242.6C161.831 240.425 160.756 239.35 158.581 239.35H156.856C154.681 239.35 153.606 240.425 153.606 242.6V245.875H156.906V242.975C156.906 242.55 157.106 242.35 157.531 242.35H157.756C158.181 242.35 158.381 242.55 158.381 242.975V245.125C158.381 245.675 158.206 246.025 157.781 246.575L154.956 250.125ZM171.712 248.225C171.712 246.475 170.687 245.4 169.062 245.4H169.012C167.887 245.4 167.287 245.775 166.612 246.375L166.662 242.625H171.462V239.5H163.412V249.3H166.587C166.962 248.825 167.237 248.575 167.637 248.575C168.087 248.575 168.262 248.85 168.262 249.3V253.525C168.262 253.95 168.062 254.15 167.637 254.15H167.312C166.887 254.15 166.687 253.95 166.687 253.525V250.725H163.312V253.9C163.312 256.075 164.387 257.15 166.562 257.15H168.462C170.637 257.15 171.712 256.075 171.712 253.9V248.225ZM178.404 250.125C177.329 251.475 177.004 252.35 177.004 253.65V257H185.279V253.875H180.454V253.75C180.454 253.2 180.629 252.85 181.054 252.3L183.879 248.75C184.954 247.4 185.279 246.475 185.279 245.225V242.6C185.279 240.425 184.204 239.35 182.029 239.35H180.304C178.129 239.35 177.054 240.425 177.054 242.6V245.875H180.354V242.975C180.354 242.55 180.554 242.35 180.979 242.35H181.204C181.629 242.35 181.829 242.55 181.829 242.975V245.125C181.829 245.675 181.654 246.025 181.229 246.575L178.404 250.125ZM186.119 254.35H190.619V257H193.769V254.35H195.044V251.325H193.769V239.5H188.994L186.119 250.825V254.35ZM190.619 251.325H188.769L190.619 243.85V251.325ZM203.315 239.35C201.14 239.35 200.065 240.425 200.065 242.6V245.3C200.065 246.8 200.59 247.55 201.515 247.9C200.465 248.2 200.015 248.875 200.015 250.15V253.9C200.015 256.075 201.09 257.15 203.265 257.15H205.265C207.44 257.15 208.515 256.075 208.515 253.9V250.15C208.515 248.875 208.065 248.2 207.015 247.9C207.94 247.55 208.465 246.8 208.465 245.3V242.6C208.465 240.425 207.39 239.35 205.215 239.35H203.315ZM203.44 250.125C203.44 249.7 203.64 249.5 204.065 249.5H204.465C204.89 249.5 205.09 249.7 205.09 250.125V253.575C205.09 254 204.89 254.2 204.465 254.2H204.065C203.64 254.2 203.44 254 203.44 253.575V250.125ZM204.09 246.6C203.665 246.6 203.465 246.4 203.465 245.975V242.925C203.465 242.5 203.665 242.3 204.09 242.3H204.44C204.865 242.3 205.065 242.5 205.065 242.925V245.975C205.065 246.4 204.865 246.6 204.44 246.6H204.09ZM209.787 254.35H214.287V257H217.437V254.35H218.712V251.325H217.437V239.5H212.662L209.787 250.825V254.35ZM214.287 251.325H212.437L214.287 243.85V251.325ZM67.9348 277.325H67.4598C66.6098 277.325 66.1848 276.9 66.1848 276V273.775H64.2598V276C64.2598 278.2 65.2598 279.15 67.4598 279.15H67.9348C70.1098 279.15 71.1848 278.075 71.1848 275.9V264.6C71.1848 262.425 70.1098 261.35 67.9348 261.35H67.4848C65.3098 261.35 64.2348 262.425 64.2348 264.6V269.175C64.2348 270.9 65.2848 272.075 67.0598 272.075H67.1348C67.9098 272.075 68.6098 271.875 69.2098 271.55V276C69.2098 276.9 68.7848 277.325 67.9348 277.325ZM69.2098 269.85C68.8098 270.05 68.1098 270.225 67.5098 270.225C66.6598 270.225 66.1848 269.8 66.1848 268.8V264.5C66.1848 263.6 66.6098 263.175 67.4598 263.175H67.9348C68.7848 263.175 69.2098 263.6 69.2098 264.5V269.85ZM84.4541 279L81.7541 261.45H79.2041L76.5041 279H78.4291L78.8291 276.075H82.0541L82.4791 279H84.4541ZM80.4291 264.575L81.8041 274.275H79.0791L80.4291 264.575ZM93.9182 261.5L91.6932 275.3L89.4682 261.5H86.3182V279H88.2182V264.525L90.6182 279H92.6682L95.0682 264.525V279H97.0182V261.5H93.9182ZM102.369 271.1V272.9H106.719V271.1H102.369ZM115.673 277.325H115.198C114.348 277.325 113.923 276.9 113.923 276V273.775H111.998V276C111.998 278.2 112.998 279.15 115.198 279.15H115.673C117.848 279.15 118.923 278.075 118.923 275.9V264.6C118.923 262.425 117.848 261.35 115.673 261.35H115.223C113.048 261.35 111.973 262.425 111.973 264.6V269.175C111.973 270.9 113.023 272.075 114.798 272.075H114.873C115.648 272.075 116.348 271.875 116.948 271.55V276C116.948 276.9 116.523 277.325 115.673 277.325ZM116.948 269.85C116.548 270.05 115.848 270.225 115.248 270.225C114.398 270.225 113.923 269.8 113.923 268.8V264.5C113.923 263.6 114.348 263.175 115.198 263.175H115.673C116.523 263.175 116.948 263.6 116.948 264.5V269.85ZM126.767 272.425H128.217C130.392 272.425 131.467 271.35 131.467 269.175V264.75C131.467 262.575 130.392 261.5 128.217 261.5H124.767V279H126.767V272.425ZM129.467 264.65V269.275C129.467 270.175 129.042 270.6 128.142 270.6H126.767V263.325H128.142C129.042 263.325 129.467 263.75 129.467 264.65ZM141.193 261.5L138.968 275.3L136.743 261.5H133.593V279H135.493V264.525L137.893 279H139.943L142.343 264.525V279H144.293V261.5H141.193ZM150.193 261.5V279H155.743V277.15H152.193V270.975H155.568V269.15H152.193V263.35H155.693V261.5H150.193ZM163.145 270.1L160.72 268.35C160.145 267.925 159.82 267.55 159.82 266.675V264.475C159.82 263.575 160.245 263.15 161.145 263.15H161.495C162.395 263.15 162.82 263.575 162.82 264.475V267.7H164.77V264.55C164.77 262.425 163.72 261.35 161.57 261.35H161.07C158.895 261.35 157.82 262.425 157.82 264.6V266.7C157.82 268.125 158.195 269.025 159.495 269.95L161.945 271.725C162.52 272.15 162.82 272.525 162.82 273.4V276.025C162.82 276.925 162.395 277.35 161.495 277.35H161.095C160.195 277.35 159.77 276.925 159.77 276.025V272.275H157.82V275.95C157.82 278.075 158.87 279.15 161.02 279.15H161.57C163.745 279.15 164.82 278.075 164.82 275.9V273.35C164.82 271.85 164.42 271.025 163.145 270.1ZM170.768 279V263.35H173.393V261.5H166.143V263.35H168.768V279H170.768ZM182.685 260.7H180.985L177.735 279.8H179.435L182.685 260.7ZM192.589 276C192.589 276.9 192.164 277.325 191.264 277.325H190.764C189.864 277.325 189.439 276.9 189.439 276V273.175H187.489V275.95C187.489 278.1 188.539 279.15 190.689 279.15H191.339C193.514 279.15 194.589 278.075 194.589 275.9V272.2C194.589 270.925 194.139 270.25 193.089 269.95C194.014 269.6 194.539 268.85 194.539 267.35V264.6C194.539 262.425 193.464 261.35 191.289 261.35H190.789C188.614 261.35 187.539 262.425 187.539 264.6V267H189.489V264.5C189.489 263.6 189.914 263.175 190.764 263.175H191.264C192.114 263.175 192.539 263.6 192.539 264.5V267.85C192.539 268.75 192.114 269.175 191.264 269.175H189.289V271.025H191.314C192.164 271.025 192.589 271.45 192.589 272.35V276ZM198.831 264.5C198.831 263.6 199.256 263.175 200.106 263.175H200.581C201.431 263.175 201.856 263.6 201.856 264.5V266.925H203.781V264.5C203.781 262.325 202.806 261.35 200.631 261.35H200.106C197.931 261.35 196.856 262.425 196.856 264.6V275.9C196.856 278.075 197.931 279.15 200.106 279.15H200.606C202.781 279.15 203.856 278.075 203.856 275.9V271.525C203.856 269.8 202.806 268.625 201.031 268.625H200.906C200.106 268.625 199.431 268.85 198.831 269.175V264.5ZM198.831 270.85C199.231 270.65 199.956 270.475 200.556 270.475C201.456 270.475 201.906 270.9 201.906 271.9V276C201.906 276.9 201.481 277.325 200.631 277.325H200.106C199.256 277.325 198.831 276.9 198.831 276V270.85ZM212.946 270.875C212.946 269.075 211.846 268 210.246 268C209.296 268 208.596 268.35 207.996 268.825L208.046 263.35H212.696V261.5H206.196V270.85H207.871C208.596 270.1 209.146 269.85 209.796 269.85C210.596 269.85 210.946 270.3 210.946 271.25V276C210.946 276.9 210.521 277.325 209.671 277.325H209.321C208.471 277.325 208.046 276.9 208.046 276V272.925H206.096V275.95C206.096 278.1 207.146 279.15 209.246 279.15H209.746C211.871 279.15 212.946 278.075 212.946 275.9V270.875ZM218.719 279H222.019C224.644 279 225.894 277.75 225.894 275.125V265.375C225.894 262.75 224.644 261.5 222.019 261.5H218.719V279ZM220.719 263.325H221.919C223.269 263.325 223.894 264 223.894 265.35V275.15C223.894 276.5 223.269 277.175 221.919 277.175H220.719V263.325ZM230.277 261.5H228.277V279H230.277V261.5ZM228.602 260.375H229.877L231.577 258.25H229.652L228.602 260.375ZM240.132 279L237.432 261.45H234.882L232.182 279H234.107L234.507 276.075H237.732L238.157 279H240.132ZM236.107 264.575L237.482 274.275H234.757L236.107 264.575ZM247.124 270.1L244.699 268.35C244.124 267.925 243.799 267.55 243.799 266.675V264.475C243.799 263.575 244.224 263.15 245.124 263.15H245.474C246.374 263.15 246.799 263.575 246.799 264.475V267.7H248.749V264.55C248.749 262.425 247.699 261.35 245.549 261.35H245.049C242.874 261.35 241.799 262.425 241.799 264.6V266.7C241.799 268.125 242.174 269.025 243.474 269.95L245.924 271.725C246.499 272.15 246.799 272.525 246.799 273.4V276.025C246.799 276.925 246.374 277.35 245.474 277.35H245.074C244.174 277.35 243.749 276.925 243.749 276.025V272.275H241.799V275.95C241.799 278.075 242.849 279.15 244.999 279.15H245.549C247.724 279.15 248.799 278.075 248.799 275.9V273.35C248.799 271.85 248.399 271.025 247.124 270.1Z" fill="#FFF6D2"/>
<rect x="102.5" y="56.5" width="108" height="108" rx="54" stroke="#FFF6D2" stroke-width="5"/>
<g clip-path="url(#clip0_4941_33552)">
<path d="M141.018 87.6481C140.808 87.3823 140.542 87.1635 140.239 87.0062C139.936 86.849 139.603 86.7569 139.261 86.736C138.919 86.7152 138.576 86.7661 138.256 86.8853C137.935 87.0045 137.644 87.1894 137.402 87.4276L133.718 91.0501C131.998 92.7441 131.364 95.1416 132.115 97.2451C135.235 105.952 140.31 113.856 146.964 120.373C153.597 126.91 161.643 131.896 170.505 134.961C172.646 135.7 175.086 135.077 176.81 133.386L180.494 129.767C180.736 129.529 180.925 129.243 181.046 128.928C181.167 128.614 181.219 128.277 181.198 127.941C181.177 127.605 181.083 127.277 180.923 126.98C180.763 126.682 180.54 126.421 180.27 126.215L172.051 119.936C171.762 119.715 171.426 119.562 171.068 119.488C170.71 119.415 170.339 119.421 169.985 119.509L162.183 121.423C161.141 121.679 160.05 121.665 159.016 121.384C157.981 121.102 157.039 120.562 156.28 119.817L147.53 111.217C146.771 110.472 146.22 109.546 145.933 108.529C145.646 107.513 145.632 106.441 145.891 105.418L147.844 97.7526C147.932 97.4039 147.939 97.0401 147.864 96.6884C147.789 96.3368 147.633 96.0065 147.409 95.7226L141.018 87.6481ZM134.712 84.7886C135.336 84.1759 136.085 83.7005 136.909 83.394C137.734 83.0875 138.616 82.9569 139.496 83.0109C140.376 83.0648 141.234 83.3021 142.014 83.707C142.794 84.1118 143.477 84.675 144.018 85.3591L150.409 93.4301C151.581 94.9106 151.994 96.8391 151.531 98.6591L149.582 106.324C149.481 106.721 149.487 107.137 149.598 107.531C149.709 107.926 149.922 108.285 150.216 108.575L158.969 117.174C159.264 117.464 159.631 117.673 160.033 117.782C160.435 117.892 160.859 117.897 161.264 117.797L169.062 115.883C169.976 115.658 170.93 115.641 171.852 115.832C172.774 116.023 173.64 116.417 174.384 116.985L182.599 123.264C185.553 125.522 185.823 129.809 183.18 132.403L179.496 136.022C176.86 138.612 172.92 139.749 169.247 138.479C159.846 135.229 151.311 129.941 144.274 123.009C137.218 116.096 131.836 107.712 128.528 98.4771C127.238 94.8721 128.396 90.9976 131.032 88.4076L134.716 84.7886H134.712Z" fill="#FFF6D2"/>
</g>
<defs>
<clipPath id="clip0_4941_33552">
<rect width="57" height="56" fill="white" transform="translate(128 83)"/>
</clipPath>
</defs>
</svg>
