<svg width="313" height="319" viewBox="0 0 313 319" fill="none" xmlns="http://www.w3.org/2000/svg">
<rect x="2" y="2" width="309" height="315" rx="50" fill="#114550" stroke="#E9993E" stroke-width="4"/>
<path d="M81.2385 190.5H88.4985L90.6985 210.96L92.6785 190.5H99.4985L94.8235 229H86.3535L84.3185 211.455L82.3935 229H73.9235L69.2485 190.5H77.0585L79.0385 211.125L81.2385 190.5ZM109.483 206.01H113.333V190.5H121.033V229H113.333V212.885H109.483V229H101.783V190.5H109.483V206.01ZM143.83 229H136.185L135.58 223.39H130.74L130.19 229H123.205L128.265 190.5H138.77L143.83 229ZM133.16 199.905L131.455 216.68H134.865L133.16 199.905ZM155.315 229H147.615V197.375H142.94V190.5H159.99V197.375H155.315V229ZM177.441 209.035C179.806 210.74 180.521 212.225 180.521 215.085V222.18C180.521 226.965 178.156 229.33 173.371 229.33H169.081C164.296 229.33 161.931 226.965 161.931 222.18V213.985H169.466V221.465C169.466 222.4 169.906 222.84 170.841 222.84H171.556C172.491 222.84 172.931 222.4 172.931 221.465V216.845C172.931 215.635 172.546 215.03 171.611 214.37L165.011 209.475C162.646 207.77 161.931 206.175 161.931 203.425V197.32C161.931 192.535 164.296 190.17 169.081 190.17H173.261C178.046 190.17 180.411 192.535 180.411 197.32V204.36H172.876V198.035C172.876 197.1 172.436 196.66 171.501 196.66H170.896C169.961 196.66 169.521 197.1 169.521 198.035V201.665C169.521 202.875 169.906 203.48 170.841 204.14L177.441 209.035ZM202.586 229H194.941L194.336 223.39H189.496L188.946 229H181.961L187.021 190.5H197.526L202.586 229ZM191.916 199.905L190.211 216.68H193.621L191.916 199.905ZM212.423 215.635V229H204.723V190.5H215.998C220.783 190.5 223.148 192.865 223.148 197.65V208.485C223.148 213.27 220.783 215.635 215.998 215.635H212.423ZM215.448 198.475C215.448 197.54 215.008 197.1 214.073 197.1H212.423V209.035H214.073C215.008 209.035 215.448 208.595 215.448 207.66V198.475ZM233.494 215.635V229H225.794V190.5H237.069C241.854 190.5 244.219 192.865 244.219 197.65V208.485C244.219 213.27 241.854 215.635 237.069 215.635H233.494ZM236.519 198.475C236.519 197.54 236.079 197.1 235.144 197.1H233.494V209.035H235.144C236.079 209.035 236.519 208.595 236.519 207.66V198.475Z" fill="#E9993E"/>
<path d="M96.1392 251.775V249.225H93.6392V247H96.1392V244.45H98.4892V247H100.989V249.225H98.4892V251.775H96.1392ZM106.951 239.425V257H103.526V243.5H101.876V241.075L102.101 241.05C103.076 240.95 103.526 240.575 104.101 239.825L104.401 239.425H106.951ZM120.978 248.225V253.9C120.978 256.075 119.903 257.15 117.728 257.15H115.828C113.653 257.15 112.578 256.075 112.578 253.9V250.725H115.953V253.525C115.953 253.95 116.153 254.15 116.578 254.15H116.903C117.328 254.15 117.528 253.95 117.528 253.525V249.3C117.528 248.85 117.353 248.575 116.903 248.575C116.503 248.575 116.228 248.825 115.853 249.3H112.678V239.5H120.728V242.625H115.928L115.878 246.375C116.553 245.775 117.153 245.4 118.278 245.4H118.328C119.953 245.4 120.978 246.475 120.978 248.225ZM131.177 253.9C131.177 256.075 130.102 257.15 127.927 257.15H125.777C123.602 257.15 122.527 256.075 122.527 253.9V242.6C122.527 240.425 123.602 239.35 125.777 239.35H127.927C130.102 239.35 131.177 240.425 131.177 242.6V253.9ZM127.702 242.975C127.702 242.55 127.502 242.35 127.077 242.35H126.627C126.202 242.35 126.002 242.55 126.002 242.975V253.525C126.002 253.95 126.202 254.15 126.627 254.15H127.077C127.502 254.15 127.702 253.95 127.702 253.525V242.975ZM136.042 239.35H137.942C140.117 239.35 141.192 240.425 141.192 242.6V245.3C141.192 246.8 140.667 247.55 139.742 247.9C140.792 248.2 141.242 248.875 141.242 250.15V253.9C141.242 256.075 140.167 257.15 137.992 257.15H135.992C133.817 257.15 132.742 256.075 132.742 253.9V250.15C132.742 248.875 133.192 248.2 134.242 247.9C133.317 247.55 132.792 246.8 132.792 245.3V242.6C132.792 240.425 133.867 239.35 136.042 239.35ZM136.167 250.125V253.575C136.167 254 136.367 254.2 136.792 254.2H137.192C137.617 254.2 137.817 254 137.817 253.575V250.125C137.817 249.7 137.617 249.5 137.192 249.5H136.792C136.367 249.5 136.167 249.7 136.167 250.125ZM136.817 246.6H137.167C137.592 246.6 137.792 246.4 137.792 245.975V242.925C137.792 242.5 137.592 242.3 137.167 242.3H136.817C136.392 242.3 136.192 242.5 136.192 242.925V245.975C136.192 246.4 136.392 246.6 136.817 246.6ZM151.057 254.15C151.482 254.15 151.682 253.95 151.682 253.525V250.075C151.082 250.35 150.407 250.525 149.632 250.525H149.507C147.732 250.525 146.682 249.35 146.682 247.625V242.6C146.682 240.425 147.757 239.35 149.932 239.35H151.907C154.082 239.35 155.157 240.425 155.157 242.6V253.9C155.157 256.075 154.082 257.15 151.907 257.15H149.957C147.782 257.15 146.707 256.075 146.707 253.9V251.7H150.082V253.525C150.082 253.95 150.282 254.15 150.707 254.15H151.057ZM151.682 247.35V242.975C151.682 242.55 151.482 242.35 151.057 242.35H150.757C150.332 242.35 150.132 242.55 150.132 242.975V246.925C150.132 247.325 150.257 247.5 150.757 247.5C151.132 247.5 151.482 247.425 151.682 247.35ZM161.152 254.15C161.577 254.15 161.777 253.95 161.777 253.525V250.075C161.177 250.35 160.502 250.525 159.727 250.525H159.602C157.827 250.525 156.777 249.35 156.777 247.625V242.6C156.777 240.425 157.852 239.35 160.027 239.35H162.002C164.177 239.35 165.252 240.425 165.252 242.6V253.9C165.252 256.075 164.177 257.15 162.002 257.15H160.052C157.877 257.15 156.802 256.075 156.802 253.9V251.7H160.177V253.525C160.177 253.95 160.377 254.15 160.802 254.15H161.152ZM161.777 247.35V242.975C161.777 242.55 161.577 242.35 161.152 242.35H160.852C160.427 242.35 160.227 242.55 160.227 242.975V246.925C160.227 247.325 160.352 247.5 160.852 247.5C161.227 247.5 161.577 247.425 161.777 247.35ZM171.247 254.15C171.672 254.15 171.872 253.95 171.872 253.525V250.075C171.272 250.35 170.597 250.525 169.822 250.525H169.697C167.922 250.525 166.872 249.35 166.872 247.625V242.6C166.872 240.425 167.947 239.35 170.122 239.35H172.097C174.272 239.35 175.347 240.425 175.347 242.6V253.9C175.347 256.075 174.272 257.15 172.097 257.15H170.147C167.972 257.15 166.897 256.075 166.897 253.9V251.7H170.272V253.525C170.272 253.95 170.472 254.15 170.897 254.15H171.247ZM171.872 247.35V242.975C171.872 242.55 171.672 242.35 171.247 242.35H170.947C170.522 242.35 170.322 242.55 170.322 242.975V246.925C170.322 247.325 170.447 247.5 170.947 247.5C171.322 247.5 171.672 247.425 171.872 247.35ZM185.51 239.425V257H182.085V243.5H180.435V241.075L180.66 241.05C181.635 240.95 182.085 240.575 182.66 239.825L182.96 239.425H185.51ZM191.894 239.425V257H188.469V243.5H186.819V241.075L187.044 241.05C188.019 240.95 188.469 240.575 189.044 239.825L189.344 239.425H191.894ZM206.196 253.9C206.196 256.075 205.121 257.15 202.946 257.15H200.796C198.621 257.15 197.546 256.075 197.546 253.9V242.6C197.546 240.425 198.621 239.35 200.796 239.35H202.946C205.121 239.35 206.196 240.425 206.196 242.6V253.9ZM202.721 242.975C202.721 242.55 202.521 242.35 202.096 242.35H201.646C201.221 242.35 201.021 242.55 201.021 242.975V253.525C201.021 253.95 201.221 254.15 201.646 254.15H202.096C202.521 254.15 202.721 253.95 202.721 253.525V242.975ZM207.536 254.35V250.825L210.411 239.5H215.186V251.325H216.461V254.35H215.186V257H212.036V254.35H207.536ZM212.036 251.325V243.85L210.186 251.325H212.036ZM66.3435 277.325C67.1935 277.325 67.6185 276.9 67.6185 276V271.55C67.0185 271.875 66.3185 272.075 65.5435 272.075H65.4685C63.6935 272.075 62.6435 270.9 62.6435 269.175V264.6C62.6435 262.425 63.7185 261.35 65.8935 261.35H66.3435C68.5185 261.35 69.5935 262.425 69.5935 264.6V275.9C69.5935 278.075 68.5185 279.15 66.3435 279.15H65.8685C63.6685 279.15 62.6685 278.2 62.6685 276V273.775H64.5935V276C64.5935 276.9 65.0185 277.325 65.8685 277.325H66.3435ZM67.6185 269.85V264.5C67.6185 263.6 67.1935 263.175 66.3435 263.175H65.8685C65.0185 263.175 64.5935 263.6 64.5935 264.5V268.8C64.5935 269.8 65.0685 270.225 65.9185 270.225C66.5185 270.225 67.2185 270.05 67.6185 269.85ZM82.8629 279H80.8879L80.4629 276.075H77.2379L76.8379 279H74.9129L77.6129 261.45H80.1629L82.8629 279ZM78.8379 264.575L77.4879 274.275H80.2129L78.8379 264.575ZM92.3269 261.5H95.4269V279H93.4769V264.525L91.0769 279H89.0269L86.6269 264.525V279H84.7269V261.5H87.8769L90.1019 275.3L92.3269 261.5ZM100.778 271.15H109.128V272.85H100.778V271.15ZM118.086 277.325C118.936 277.325 119.361 276.9 119.361 276V271.55C118.761 271.875 118.061 272.075 117.286 272.075H117.211C115.436 272.075 114.386 270.9 114.386 269.175V264.6C114.386 262.425 115.461 261.35 117.636 261.35H118.086C120.261 261.35 121.336 262.425 121.336 264.6V275.9C121.336 278.075 120.261 279.15 118.086 279.15H117.611C115.411 279.15 114.411 278.2 114.411 276V273.775H116.336V276C116.336 276.9 116.761 277.325 117.611 277.325H118.086ZM119.361 269.85V264.5C119.361 263.6 118.936 263.175 118.086 263.175H117.611C116.761 263.175 116.336 263.6 116.336 264.5V268.8C116.336 269.8 116.811 270.225 117.661 270.225C118.261 270.225 118.961 270.05 119.361 269.85ZM129.18 272.425V279H127.18V261.5H130.63C132.805 261.5 133.88 262.575 133.88 264.75V269.175C133.88 271.35 132.805 272.425 130.63 272.425H129.18ZM131.88 264.65C131.88 263.75 131.455 263.325 130.555 263.325H129.18V270.6H130.555C131.455 270.6 131.88 270.175 131.88 269.275V264.65ZM143.605 261.5H146.705V279H144.755V264.525L142.355 279H140.305L137.905 264.525V279H136.005V261.5H139.155L141.38 275.3L143.605 261.5ZM152.606 261.5H158.106V263.35H154.606V269.15H157.981V270.975H154.606V277.15H158.156V279H152.606V261.5ZM165.558 270.1C166.833 271.025 167.233 271.85 167.233 273.35V275.9C167.233 278.075 166.158 279.15 163.983 279.15H163.433C161.283 279.15 160.233 278.075 160.233 275.95V272.275H162.183V276.025C162.183 276.925 162.608 277.35 163.508 277.35H163.908C164.808 277.35 165.233 276.925 165.233 276.025V273.4C165.233 272.525 164.933 272.15 164.358 271.725L161.908 269.95C160.608 269.025 160.233 268.125 160.233 266.7V264.6C160.233 262.425 161.308 261.35 163.483 261.35H163.983C166.133 261.35 167.183 262.425 167.183 264.55V267.7H165.233V264.475C165.233 263.575 164.808 263.15 163.908 263.15H163.558C162.658 263.15 162.233 263.575 162.233 264.475V266.675C162.233 267.55 162.558 267.925 163.133 268.35L165.558 270.1ZM173.18 279H171.18V263.35H168.555V261.5H175.805V263.35H173.18V279ZM185.097 260.7L181.847 279.8H180.147L183.397 260.7H185.097ZM195.002 276V272.35C195.002 271.45 194.577 271.025 193.727 271.025H191.702V269.175H193.677C194.527 269.175 194.952 268.75 194.952 267.85V264.5C194.952 263.6 194.527 263.175 193.677 263.175H193.177C192.327 263.175 191.902 263.6 191.902 264.5V267H189.952V264.6C189.952 262.425 191.027 261.35 193.202 261.35H193.702C195.877 261.35 196.952 262.425 196.952 264.6V267.35C196.952 268.85 196.427 269.6 195.502 269.95C196.552 270.25 197.002 270.925 197.002 272.2V275.9C197.002 278.075 195.927 279.15 193.752 279.15H193.102C190.952 279.15 189.902 278.1 189.902 275.95V273.175H191.852V276C191.852 276.9 192.277 277.325 193.177 277.325H193.677C194.577 277.325 195.002 276.9 195.002 276ZM201.244 264.5V269.175C201.844 268.85 202.519 268.625 203.319 268.625H203.444C205.219 268.625 206.269 269.8 206.269 271.525V275.9C206.269 278.075 205.194 279.15 203.019 279.15H202.519C200.344 279.15 199.269 278.075 199.269 275.9V264.6C199.269 262.425 200.344 261.35 202.519 261.35H203.044C205.219 261.35 206.194 262.325 206.194 264.5V266.925H204.269V264.5C204.269 263.6 203.844 263.175 202.994 263.175H202.519C201.669 263.175 201.244 263.6 201.244 264.5ZM201.244 270.85V276C201.244 276.9 201.669 277.325 202.519 277.325H203.044C203.894 277.325 204.319 276.9 204.319 276V271.9C204.319 270.9 203.869 270.475 202.969 270.475C202.369 270.475 201.644 270.65 201.244 270.85ZM215.359 270.875V275.9C215.359 278.075 214.284 279.15 212.159 279.15H211.659C209.559 279.15 208.509 278.1 208.509 275.95V272.925H210.459V276C210.459 276.9 210.884 277.325 211.734 277.325H212.084C212.934 277.325 213.359 276.9 213.359 276V271.25C213.359 270.3 213.009 269.85 212.209 269.85C211.559 269.85 211.009 270.1 210.284 270.85H208.609V261.5H215.109V263.35H210.459L210.409 268.825C211.009 268.35 211.709 268 212.659 268C214.259 268 215.359 269.075 215.359 270.875ZM221.131 279V261.5H224.431C227.056 261.5 228.306 262.75 228.306 265.375V275.125C228.306 277.75 227.056 279 224.431 279H221.131ZM223.131 263.325V277.175H224.331C225.681 277.175 226.306 276.5 226.306 275.15V265.35C226.306 264 225.681 263.325 224.331 263.325H223.131ZM232.689 261.5V279H230.689V261.5H232.689ZM231.014 260.375L232.064 258.25H233.989L232.289 260.375H231.014ZM242.544 279H240.569L240.144 276.075H236.919L236.519 279H234.594L237.294 261.45H239.844L242.544 279ZM238.519 264.575L237.169 274.275H239.894L238.519 264.575ZM249.536 270.1C250.811 271.025 251.211 271.85 251.211 273.35V275.9C251.211 278.075 250.136 279.15 247.961 279.15H247.411C245.261 279.15 244.211 278.075 244.211 275.95V272.275H246.161V276.025C246.161 276.925 246.586 277.35 247.486 277.35H247.886C248.786 277.35 249.211 276.925 249.211 276.025V273.4C249.211 272.525 248.911 272.15 248.336 271.725L245.886 269.95C244.586 269.025 244.211 268.125 244.211 266.7V264.6C244.211 262.425 245.286 261.35 247.461 261.35H247.961C250.111 261.35 251.161 262.425 251.161 264.55V267.7H249.211V264.475C249.211 263.575 248.786 263.15 247.886 263.15H247.536C246.636 263.15 246.211 263.575 246.211 264.475V266.675C246.211 267.55 246.536 267.925 247.111 268.35L249.536 270.1Z" fill="#FFF6D2"/>
<path d="M100.735 162.172L100.736 162.171L107.376 137.428L107.441 137.188L107.323 136.969C102.945 128.866 100.651 119.722 100.651 110.474C100.651 79.6684 125.773 54.625 156.683 54.625C187.594 54.625 212.716 79.6684 212.716 110.474C212.716 141.279 187.594 166.322 156.683 166.322C147.248 166.322 138.022 163.984 129.786 159.516L129.565 159.396L129.321 159.463L104.867 166.24L104.862 166.241C104.538 166.334 104.28 166.375 103.979 166.375C103.092 166.375 102.249 166.021 101.627 165.402C100.778 164.555 100.427 163.313 100.735 162.172ZM113.927 135.111L113.929 135.114C114.373 135.866 114.505 136.797 114.285 137.63C114.285 137.631 114.285 137.631 114.285 137.632L109.015 157.277L108.732 158.332L109.785 158.041L129.18 152.683L129.196 152.679L129.211 152.674C129.457 152.592 129.759 152.548 130.015 152.548C130.569 152.548 131.151 152.717 131.721 152.999C139.244 157.409 147.884 159.745 156.683 159.745C183.906 159.745 206.06 137.666 206.06 110.526C206.06 83.3871 183.906 61.3077 156.683 61.3077C129.461 61.3077 107.307 83.3871 107.307 110.526C107.307 119.2 109.603 127.661 113.927 135.111Z" fill="#FFF6D2" stroke="#114550" stroke-width="1.25"/>
<g clip-path="url(#clip0_12804_10985)">
<path d="M141.135 88.8511C140.924 88.5856 140.657 88.3671 140.353 88.21C140.049 88.0529 139.714 87.9609 139.37 87.9401C139.027 87.9192 138.683 87.9701 138.361 88.0892C138.039 88.2083 137.747 88.3929 137.504 88.6309L133.804 92.2495C132.076 93.9417 131.439 96.3367 132.194 98.438C135.327 107.135 140.424 115.032 147.106 121.541C153.768 128.071 161.848 133.052 170.748 136.114C172.899 136.852 175.349 136.229 177.081 134.541L180.78 130.925C181.024 130.688 181.213 130.402 181.335 130.088C181.457 129.773 181.509 129.437 181.487 129.101C181.466 128.766 181.372 128.438 181.211 128.141C181.05 127.844 180.827 127.583 180.555 127.377L172.301 121.104C172.011 120.884 171.673 120.732 171.314 120.658C170.954 120.584 170.582 120.591 170.226 120.678L162.391 122.59C161.345 122.846 160.249 122.832 159.21 122.551C158.171 122.27 157.225 121.73 156.462 120.986L147.675 112.395C146.912 111.651 146.36 110.726 146.071 109.71C145.783 108.695 145.768 107.624 146.029 106.602L147.99 98.9449C148.079 98.5967 148.086 98.2332 148.011 97.8819C147.935 97.5306 147.779 97.2007 147.554 96.9171L141.135 88.8511ZM134.802 85.9947C135.428 85.3826 136.181 84.9078 137.009 84.6016C137.837 84.2954 138.723 84.165 139.606 84.2189C140.49 84.2728 141.352 84.5098 142.135 84.9142C142.918 85.3187 143.604 85.8812 144.147 86.5646L150.566 94.627C151.743 96.1059 152.158 98.0324 151.693 99.8505L149.736 107.507C149.635 107.904 149.64 108.319 149.752 108.713C149.863 109.107 150.077 109.466 150.373 109.755L159.163 118.346C159.46 118.635 159.828 118.845 160.232 118.954C160.635 119.063 161.061 119.068 161.468 118.968L169.299 117.056C170.217 116.831 171.176 116.814 172.102 117.005C173.028 117.196 173.897 117.59 174.645 118.157L182.895 124.429C185.861 126.684 186.133 130.967 183.478 133.558L179.779 137.173C177.131 139.761 173.174 140.897 169.485 139.628C160.044 136.381 151.472 131.1 144.405 124.174C137.319 117.269 131.914 108.893 128.591 99.6686C127.296 96.0675 128.459 92.1971 131.106 89.6098L134.806 85.9947H134.802Z" fill="#FFF6D2"/>
</g>
<defs>
<clipPath id="clip0_12804_10985">
<rect width="57.2447" height="55.9406" fill="white" transform="translate(128.061 84.208)"/>
</clipPath>
</defs>
</svg>
