<svg width="312" height="319" viewBox="0 0 312 319" fill="none" xmlns="http://www.w3.org/2000/svg">
<rect x="2" y="2" width="308" height="315" rx="50" fill="#E9993E" stroke="#114550" stroke-width="4"/>
<path d="M72.8462 190.5H80.5462V222.125H86.1012V229H72.8462V190.5ZM88.6538 190.5H96.3538V222.125H101.909V229H88.6538V190.5ZM123.986 229H116.341L115.736 223.39H110.896L110.346 229H103.361L108.421 190.5H118.926L123.986 229ZM110.951 188.575L113.426 183.35H120.521L116.176 188.575H110.951ZM113.316 199.905L111.611 216.68H115.021L113.316 199.905ZM135.199 229L132.284 203.535V229H126.124V190.5H137.234L139.434 213.82L141.799 190.5H152.964V229H145.374V203.81L142.459 229H135.199ZM175.743 229H168.098L167.493 223.39H162.653L162.103 229H155.118L160.178 190.5H170.683L175.743 229ZM165.073 199.905L163.368 216.68H166.778L165.073 199.905ZM196.69 229H189.21L184.315 208.045L184.425 217.835L184.535 229H177.88V190.5H185.745L190.2 209.585L190.09 198.475L190.035 190.5H196.69V229ZM219.058 222.18C219.058 226.965 216.693 229.33 211.908 229.33H206.958C202.173 229.33 199.808 226.965 199.808 222.18V197.32C199.808 192.535 202.173 190.17 206.958 190.17H211.908C216.693 190.17 219.058 192.535 219.058 197.32V222.18ZM211.358 198.145C211.358 197.21 210.918 196.77 209.983 196.77H208.883C207.948 196.77 207.508 197.21 207.508 198.145V221.355C207.508 222.29 207.948 222.73 208.883 222.73H209.983C210.918 222.73 211.358 222.29 211.358 221.355V198.145ZM237.515 209.035C239.88 210.74 240.595 212.225 240.595 215.085V222.18C240.595 226.965 238.23 229.33 233.445 229.33H229.155C224.37 229.33 222.005 226.965 222.005 222.18V213.985H229.54V221.465C229.54 222.4 229.98 222.84 230.915 222.84H231.63C232.565 222.84 233.005 222.4 233.005 221.465V216.845C233.005 215.635 232.62 215.03 231.685 214.37L225.085 209.475C222.72 207.77 222.005 206.175 222.005 203.425V197.32C222.005 192.535 224.37 190.17 229.155 190.17H233.335C238.12 190.17 240.485 192.535 240.485 197.32V204.36H232.95V198.035C232.95 197.1 232.51 196.66 231.575 196.66H230.97C230.035 196.66 229.595 197.1 229.595 198.035V201.665C229.595 202.875 229.98 203.48 230.915 204.14L237.515 209.035Z" fill="#114550"/>
<path d="M97.6753 251.775V249.225H95.1753V247H97.6753V244.45H100.025V247H102.525V249.225H100.025V251.775H97.6753ZM108.487 239.425V257H105.062V243.5H103.412V241.075L103.637 241.05C104.612 240.95 105.062 240.575 105.637 239.825L105.937 239.425H108.487ZM122.514 248.225V253.9C122.514 256.075 121.439 257.15 119.264 257.15H117.364C115.189 257.15 114.114 256.075 114.114 253.9V250.725H117.489V253.525C117.489 253.95 117.689 254.15 118.114 254.15H118.439C118.864 254.15 119.064 253.95 119.064 253.525V249.3C119.064 248.85 118.889 248.575 118.439 248.575C118.039 248.575 117.764 248.825 117.389 249.3H114.214V239.5H122.264V242.625H117.464L117.414 246.375C118.089 245.775 118.689 245.4 119.814 245.4H119.864C121.489 245.4 122.514 246.475 122.514 248.225ZM132.713 253.9C132.713 256.075 131.638 257.15 129.463 257.15H127.313C125.138 257.15 124.063 256.075 124.063 253.9V242.6C124.063 240.425 125.138 239.35 127.313 239.35H129.463C131.638 239.35 132.713 240.425 132.713 242.6V253.9ZM129.238 242.975C129.238 242.55 129.038 242.35 128.613 242.35H128.163C127.738 242.35 127.538 242.55 127.538 242.975V253.525C127.538 253.95 127.738 254.15 128.163 254.15H128.613C129.038 254.15 129.238 253.95 129.238 253.525V242.975ZM137.578 239.35H139.478C141.653 239.35 142.728 240.425 142.728 242.6V245.3C142.728 246.8 142.203 247.55 141.278 247.9C142.328 248.2 142.778 248.875 142.778 250.15V253.9C142.778 256.075 141.703 257.15 139.528 257.15H137.528C135.353 257.15 134.278 256.075 134.278 253.9V250.15C134.278 248.875 134.728 248.2 135.778 247.9C134.853 247.55 134.328 246.8 134.328 245.3V242.6C134.328 240.425 135.403 239.35 137.578 239.35ZM137.703 250.125V253.575C137.703 254 137.903 254.2 138.328 254.2H138.728C139.153 254.2 139.353 254 139.353 253.575V250.125C139.353 249.7 139.153 249.5 138.728 249.5H138.328C137.903 249.5 137.703 249.7 137.703 250.125ZM138.353 246.6H138.703C139.128 246.6 139.328 246.4 139.328 245.975V242.925C139.328 242.5 139.128 242.3 138.703 242.3H138.353C137.928 242.3 137.728 242.5 137.728 242.925V245.975C137.728 246.4 137.928 246.6 138.353 246.6ZM152.593 254.15C153.018 254.15 153.218 253.95 153.218 253.525V250.075C152.618 250.35 151.943 250.525 151.168 250.525H151.043C149.268 250.525 148.218 249.35 148.218 247.625V242.6C148.218 240.425 149.293 239.35 151.468 239.35H153.443C155.618 239.35 156.693 240.425 156.693 242.6V253.9C156.693 256.075 155.618 257.15 153.443 257.15H151.493C149.318 257.15 148.243 256.075 148.243 253.9V251.7H151.618V253.525C151.618 253.95 151.818 254.15 152.243 254.15H152.593ZM153.218 247.35V242.975C153.218 242.55 153.018 242.35 152.593 242.35H152.293C151.868 242.35 151.668 242.55 151.668 242.975V246.925C151.668 247.325 151.793 247.5 152.293 247.5C152.668 247.5 153.018 247.425 153.218 247.35ZM162.688 254.15C163.113 254.15 163.313 253.95 163.313 253.525V250.075C162.713 250.35 162.038 250.525 161.263 250.525H161.138C159.363 250.525 158.313 249.35 158.313 247.625V242.6C158.313 240.425 159.388 239.35 161.563 239.35H163.538C165.713 239.35 166.788 240.425 166.788 242.6V253.9C166.788 256.075 165.713 257.15 163.538 257.15H161.588C159.413 257.15 158.338 256.075 158.338 253.9V251.7H161.713V253.525C161.713 253.95 161.913 254.15 162.338 254.15H162.688ZM163.313 247.35V242.975C163.313 242.55 163.113 242.35 162.688 242.35H162.388C161.963 242.35 161.763 242.55 161.763 242.975V246.925C161.763 247.325 161.888 247.5 162.388 247.5C162.763 247.5 163.113 247.425 163.313 247.35ZM172.783 254.15C173.208 254.15 173.408 253.95 173.408 253.525V250.075C172.808 250.35 172.133 250.525 171.358 250.525H171.233C169.458 250.525 168.408 249.35 168.408 247.625V242.6C168.408 240.425 169.483 239.35 171.658 239.35H173.633C175.808 239.35 176.883 240.425 176.883 242.6V253.9C176.883 256.075 175.808 257.15 173.633 257.15H171.683C169.508 257.15 168.433 256.075 168.433 253.9V251.7H171.808V253.525C171.808 253.95 172.008 254.15 172.433 254.15H172.783ZM173.408 247.35V242.975C173.408 242.55 173.208 242.35 172.783 242.35H172.483C172.058 242.35 171.858 242.55 171.858 242.975V246.925C171.858 247.325 171.983 247.5 172.483 247.5C172.858 247.5 173.208 247.425 173.408 247.35ZM187.046 239.425V257H183.621V243.5H181.971V241.075L182.196 241.05C183.171 240.95 183.621 240.575 184.196 239.825L184.496 239.425H187.046ZM193.43 239.425V257H190.005V243.5H188.355V241.075L188.58 241.05C189.555 240.95 190.005 240.575 190.58 239.825L190.88 239.425H193.43ZM207.732 253.9C207.732 256.075 206.657 257.15 204.482 257.15H202.332C200.157 257.15 199.082 256.075 199.082 253.9V242.6C199.082 240.425 200.157 239.35 202.332 239.35H204.482C206.657 239.35 207.732 240.425 207.732 242.6V253.9ZM204.257 242.975C204.257 242.55 204.057 242.35 203.632 242.35H203.182C202.757 242.35 202.557 242.55 202.557 242.975V253.525C202.557 253.95 202.757 254.15 203.182 254.15H203.632C204.057 254.15 204.257 253.95 204.257 253.525V242.975ZM209.072 254.35V250.825L211.947 239.5H216.722V251.325H217.997V254.35H216.722V257H213.572V254.35H209.072ZM213.572 251.325V243.85L211.722 251.325H213.572ZM67.9348 277.325C68.7848 277.325 69.2098 276.9 69.2098 276V271.55C68.6098 271.875 67.9098 272.075 67.1348 272.075H67.0598C65.2848 272.075 64.2348 270.9 64.2348 269.175V264.6C64.2348 262.425 65.3098 261.35 67.4848 261.35H67.9348C70.1098 261.35 71.1848 262.425 71.1848 264.6V275.9C71.1848 278.075 70.1098 279.15 67.9348 279.15H67.4598C65.2598 279.15 64.2598 278.2 64.2598 276V273.775H66.1848V276C66.1848 276.9 66.6098 277.325 67.4598 277.325H67.9348ZM69.2098 269.85V264.5C69.2098 263.6 68.7848 263.175 67.9348 263.175H67.4598C66.6098 263.175 66.1848 263.6 66.1848 264.5V268.8C66.1848 269.8 66.6598 270.225 67.5098 270.225C68.1098 270.225 68.8098 270.05 69.2098 269.85ZM84.4541 279H82.4791L82.0541 276.075H78.8291L78.4291 279H76.5041L79.2041 261.45H81.7541L84.4541 279ZM80.4291 264.575L79.0791 274.275H81.8041L80.4291 264.575ZM93.9182 261.5H97.0182V279H95.0682V264.525L92.6682 279H90.6182L88.2182 264.525V279H86.3182V261.5H89.4682L91.6932 275.3L93.9182 261.5ZM102.369 271.1H106.719V272.9H102.369V271.1ZM115.673 277.325C116.523 277.325 116.948 276.9 116.948 276V271.55C116.348 271.875 115.648 272.075 114.873 272.075H114.798C113.023 272.075 111.973 270.9 111.973 269.175V264.6C111.973 262.425 113.048 261.35 115.223 261.35H115.673C117.848 261.35 118.923 262.425 118.923 264.6V275.9C118.923 278.075 117.848 279.15 115.673 279.15H115.198C112.998 279.15 111.998 278.2 111.998 276V273.775H113.923V276C113.923 276.9 114.348 277.325 115.198 277.325H115.673ZM116.948 269.85V264.5C116.948 263.6 116.523 263.175 115.673 263.175H115.198C114.348 263.175 113.923 263.6 113.923 264.5V268.8C113.923 269.8 114.398 270.225 115.248 270.225C115.848 270.225 116.548 270.05 116.948 269.85ZM126.767 272.425V279H124.767V261.5H128.217C130.392 261.5 131.467 262.575 131.467 264.75V269.175C131.467 271.35 130.392 272.425 128.217 272.425H126.767ZM129.467 264.65C129.467 263.75 129.042 263.325 128.142 263.325H126.767V270.6H128.142C129.042 270.6 129.467 270.175 129.467 269.275V264.65ZM141.193 261.5H144.293V279H142.343V264.525L139.943 279H137.893L135.493 264.525V279H133.593V261.5H136.743L138.968 275.3L141.193 261.5ZM150.193 261.5H155.693V263.35H152.193V269.15H155.568V270.975H152.193V277.15H155.743V279H150.193V261.5ZM163.145 270.1C164.42 271.025 164.82 271.85 164.82 273.35V275.9C164.82 278.075 163.745 279.15 161.57 279.15H161.02C158.87 279.15 157.82 278.075 157.82 275.95V272.275H159.77V276.025C159.77 276.925 160.195 277.35 161.095 277.35H161.495C162.395 277.35 162.82 276.925 162.82 276.025V273.4C162.82 272.525 162.52 272.15 161.945 271.725L159.495 269.95C158.195 269.025 157.82 268.125 157.82 266.7V264.6C157.82 262.425 158.895 261.35 161.07 261.35H161.57C163.72 261.35 164.77 262.425 164.77 264.55V267.7H162.82V264.475C162.82 263.575 162.395 263.15 161.495 263.15H161.145C160.245 263.15 159.82 263.575 159.82 264.475V266.675C159.82 267.55 160.145 267.925 160.72 268.35L163.145 270.1ZM170.768 279H168.768V263.35H166.143V261.5H173.393V263.35H170.768V279ZM182.685 260.7L179.435 279.8H177.735L180.985 260.7H182.685ZM192.589 276V272.35C192.589 271.45 192.164 271.025 191.314 271.025H189.289V269.175H191.264C192.114 269.175 192.539 268.75 192.539 267.85V264.5C192.539 263.6 192.114 263.175 191.264 263.175H190.764C189.914 263.175 189.489 263.6 189.489 264.5V267H187.539V264.6C187.539 262.425 188.614 261.35 190.789 261.35H191.289C193.464 261.35 194.539 262.425 194.539 264.6V267.35C194.539 268.85 194.014 269.6 193.089 269.95C194.139 270.25 194.589 270.925 194.589 272.2V275.9C194.589 278.075 193.514 279.15 191.339 279.15H190.689C188.539 279.15 187.489 278.1 187.489 275.95V273.175H189.439V276C189.439 276.9 189.864 277.325 190.764 277.325H191.264C192.164 277.325 192.589 276.9 192.589 276ZM198.831 264.5V269.175C199.431 268.85 200.106 268.625 200.906 268.625H201.031C202.806 268.625 203.856 269.8 203.856 271.525V275.9C203.856 278.075 202.781 279.15 200.606 279.15H200.106C197.931 279.15 196.856 278.075 196.856 275.9V264.6C196.856 262.425 197.931 261.35 200.106 261.35H200.631C202.806 261.35 203.781 262.325 203.781 264.5V266.925H201.856V264.5C201.856 263.6 201.431 263.175 200.581 263.175H200.106C199.256 263.175 198.831 263.6 198.831 264.5ZM198.831 270.85V276C198.831 276.9 199.256 277.325 200.106 277.325H200.631C201.481 277.325 201.906 276.9 201.906 276V271.9C201.906 270.9 201.456 270.475 200.556 270.475C199.956 270.475 199.231 270.65 198.831 270.85ZM212.946 270.875V275.9C212.946 278.075 211.871 279.15 209.746 279.15H209.246C207.146 279.15 206.096 278.1 206.096 275.95V272.925H208.046V276C208.046 276.9 208.471 277.325 209.321 277.325H209.671C210.521 277.325 210.946 276.9 210.946 276V271.25C210.946 270.3 210.596 269.85 209.796 269.85C209.146 269.85 208.596 270.1 207.871 270.85H206.196V261.5H212.696V263.35H208.046L207.996 268.825C208.596 268.35 209.296 268 210.246 268C211.846 268 212.946 269.075 212.946 270.875ZM218.719 279V261.5H222.019C224.644 261.5 225.894 262.75 225.894 265.375V275.125C225.894 277.75 224.644 279 222.019 279H218.719ZM220.719 263.325V277.175H221.919C223.269 277.175 223.894 276.5 223.894 275.15V265.35C223.894 264 223.269 263.325 221.919 263.325H220.719ZM230.277 261.5V279H228.277V261.5H230.277ZM228.602 260.375L229.652 258.25H231.577L229.877 260.375H228.602ZM240.132 279H238.157L237.732 276.075H234.507L234.107 279H232.182L234.882 261.45H237.432L240.132 279ZM236.107 264.575L234.757 274.275H237.482L236.107 264.575ZM247.124 270.1C248.399 271.025 248.799 271.85 248.799 273.35V275.9C248.799 278.075 247.724 279.15 245.549 279.15H244.999C242.849 279.15 241.799 278.075 241.799 275.95V272.275H243.749V276.025C243.749 276.925 244.174 277.35 245.074 277.35H245.474C246.374 277.35 246.799 276.925 246.799 276.025V273.4C246.799 272.525 246.499 272.15 245.924 271.725L243.474 269.95C242.174 269.025 241.799 268.125 241.799 266.7V264.6C241.799 262.425 242.874 261.35 245.049 261.35H245.549C247.699 261.35 248.749 262.425 248.749 264.55V267.7H246.799V264.475C246.799 263.575 246.374 263.15 245.474 263.15H245.124C244.224 263.15 243.799 263.575 243.799 264.475V266.675C243.799 267.55 244.124 267.925 244.699 268.35L247.124 270.1Z" fill="#FFF6D2"/>
<rect x="102.5" y="56.5" width="108" height="108" rx="54" stroke="#FFF6D2" stroke-width="5"/>
<g clip-path="url(#clip0_12804_10907)">
<path d="M141.018 87.6481C140.808 87.3823 140.542 87.1635 140.239 87.0062C139.936 86.849 139.603 86.7569 139.261 86.736C138.919 86.7152 138.576 86.7661 138.256 86.8853C137.935 87.0045 137.644 87.1894 137.402 87.4276L133.719 91.0501C131.998 92.7441 131.364 95.1416 132.115 97.2451C135.235 105.952 140.31 113.856 146.964 120.373C153.597 126.91 161.643 131.896 170.505 134.961C172.646 135.7 175.086 135.077 176.811 133.386L180.494 129.767C180.737 129.529 180.925 129.243 181.046 128.928C181.167 128.614 181.219 128.277 181.198 127.941C181.177 127.605 181.083 127.277 180.923 126.98C180.763 126.682 180.54 126.421 180.27 126.215L172.051 119.936C171.762 119.715 171.426 119.562 171.068 119.488C170.71 119.415 170.34 119.421 169.985 119.509L162.183 121.423C161.141 121.679 160.05 121.665 159.016 121.384C157.982 121.102 157.039 120.562 156.28 119.817L147.53 111.217C146.771 110.472 146.22 109.546 145.933 108.529C145.646 107.513 145.632 106.441 145.892 105.418L147.844 97.7526C147.933 97.4039 147.94 97.0401 147.864 96.6884C147.789 96.3368 147.633 96.0065 147.409 95.7226L141.018 87.6481ZM134.712 84.7886C135.336 84.1759 136.085 83.7005 136.91 83.394C137.734 83.0875 138.616 82.9569 139.496 83.0109C140.376 83.0648 141.235 83.3021 142.014 83.707C142.794 84.1118 143.477 84.675 144.018 85.3591L150.409 93.4301C151.581 94.9106 151.994 96.8391 151.531 98.6591L149.582 106.324C149.482 106.721 149.487 107.137 149.598 107.531C149.709 107.926 149.922 108.285 150.216 108.575L158.97 117.174C159.265 117.464 159.631 117.673 160.033 117.782C160.435 117.892 160.859 117.897 161.264 117.797L169.062 115.883C169.976 115.658 170.93 115.641 171.853 115.832C172.775 116.023 173.64 116.417 174.384 116.985L182.6 123.264C185.553 125.522 185.824 129.809 183.18 132.403L179.497 136.022C176.86 138.612 172.92 139.749 169.247 138.479C159.847 135.229 151.311 129.941 144.274 123.009C137.218 116.096 131.836 107.712 128.528 98.4771C127.238 94.8721 128.396 90.9976 131.032 88.4076L134.716 84.7886H134.712Z" fill="#FFF6D2"/>
</g>
<defs>
<clipPath id="clip0_12804_10907">
<rect width="57" height="56" fill="white" transform="translate(128 83)"/>
</clipPath>
</defs>
</svg>
