<svg width="312" height="319" viewBox="0 0 312 319" fill="none" xmlns="http://www.w3.org/2000/svg">
<rect x="2" y="2" width="308" height="315" rx="50" fill="#E9993E" stroke="#114550" stroke-width="4"/>
<path d="M59.2944 194.5H73.5944V201.375H66.9944V210.01H73.3194V216.885H66.9944V226.125H73.7044V233H59.2944V194.5ZM91.7885 213.035C94.1535 214.74 94.8685 216.225 94.8685 219.085V226.18C94.8685 230.965 92.5035 233.33 87.7185 233.33H83.4285C78.6435 233.33 76.2785 230.965 76.2785 226.18V217.985H83.8135V225.465C83.8135 226.4 84.2535 226.84 85.1885 226.84H85.9035C86.8385 226.84 87.2785 226.4 87.2785 225.465V220.845C87.2785 219.635 86.8935 219.03 85.9585 218.37L79.3585 213.475C76.9935 211.77 76.2785 210.175 76.2785 207.425V201.32C76.2785 196.535 78.6435 194.17 83.4285 194.17H87.6085C92.3935 194.17 94.7585 196.535 94.7585 201.32V208.36H87.2235V202.035C87.2235 201.1 86.7835 200.66 85.8485 200.66H85.2435C84.3085 200.66 83.8685 201.1 83.8685 202.035V205.665C83.8685 206.875 84.2535 207.48 85.1885 208.14L91.7885 213.035ZM109.007 216.005H116.597V226.18C116.597 230.965 114.232 233.33 109.447 233.33H104.717C99.9322 233.33 97.5672 230.965 97.5672 226.18V201.32C97.5672 196.535 99.9322 194.17 104.717 194.17H109.337C114.122 194.17 116.487 196.535 116.487 201.32V210.34H108.897V202.145C108.897 201.21 108.457 200.77 107.522 200.77H106.642C105.707 200.77 105.267 201.21 105.267 202.145V225.355C105.267 226.29 105.707 226.73 106.642 226.73H107.632C108.567 226.73 109.007 226.29 109.007 225.355V216.005ZM135.007 214.795C137.372 215.455 138.362 216.94 138.362 219.745V233H130.662V219.8C130.662 218.865 130.222 218.425 129.287 218.425H127.362V233H119.662V194.5H131.157C135.942 194.5 138.307 196.865 138.307 201.65V209.075C138.307 212.375 137.097 214.025 135.007 214.795ZM130.607 202.585C130.607 201.65 130.167 201.21 129.232 201.21H127.362V211.88H129.232C130.167 211.88 130.607 211.44 130.607 210.505V202.585ZM149.186 194.5V233H141.486V194.5H149.186ZM142.641 192.575L145.116 187.35H152.211L147.866 192.575H142.641ZM167.802 213.09C170.112 213.75 171.102 215.235 171.102 218.04V225.85C171.102 230.635 168.737 233 163.952 233H152.512V194.5H163.842C168.627 194.5 170.992 196.865 170.992 201.65V207.37C170.992 210.67 169.837 212.32 167.802 213.09ZM163.347 202.475C163.347 201.54 162.907 201.1 161.972 201.1H160.157V210.23H161.972C162.907 210.23 163.347 209.79 163.347 208.855V202.475ZM160.157 216.665V226.4H162.082C163.017 226.4 163.457 225.96 163.457 225.025V218.04C163.457 217.105 163.017 216.665 162.082 216.665H160.157ZM174.067 194.5H188.367V201.375H181.767V210.01H188.092V216.885H181.767V226.125H188.477V233H174.067V194.5ZM210.242 233H202.762L197.867 212.045L197.977 221.835L198.087 233H191.432V194.5H199.297L203.752 213.585L203.642 202.475L203.587 194.5H210.242V233ZM232.61 226.18C232.61 230.965 230.245 233.33 225.46 233.33H220.51C215.725 233.33 213.36 230.965 213.36 226.18V201.32C213.36 196.535 215.725 194.17 220.51 194.17H225.46C230.245 194.17 232.61 196.535 232.61 201.32V226.18ZM224.91 202.145C224.91 201.21 224.47 200.77 223.535 200.77H222.435C221.5 200.77 221.06 201.21 221.06 202.145V225.355C221.06 226.29 221.5 226.73 222.435 226.73H223.535C224.47 226.73 224.91 226.29 224.91 225.355V202.145ZM251.067 213.035C253.432 214.74 254.147 216.225 254.147 219.085V226.18C254.147 230.965 251.782 233.33 246.997 233.33H242.707C237.922 233.33 235.557 230.965 235.557 226.18V217.985H243.092V225.465C243.092 226.4 243.532 226.84 244.467 226.84H245.182C246.117 226.84 246.557 226.4 246.557 225.465V220.845C246.557 219.635 246.172 219.03 245.237 218.37L238.637 213.475C236.272 211.77 235.557 210.175 235.557 207.425V201.32C235.557 196.535 237.922 194.17 242.707 194.17H246.887C251.672 194.17 254.037 196.535 254.037 201.32V208.36H246.502V202.035C246.502 201.1 246.062 200.66 245.127 200.66H244.522C243.587 200.66 243.147 201.1 243.147 202.035V205.665C243.147 206.875 243.532 207.48 244.467 208.14L251.067 213.035Z" fill="#114550"/>
<path d="M53.2629 254.11C54.5529 255.04 54.9429 255.85 54.9429 257.41V261.28C54.9429 263.89 53.6529 265.18 51.0429 265.18H48.7029C46.0929 265.18 44.8029 263.89 44.8029 261.28V256.81H48.9129V260.89C48.9129 261.4 49.1529 261.64 49.6629 261.64H50.0529C50.5629 261.64 50.8029 261.4 50.8029 260.89V258.37C50.8029 257.71 50.5929 257.38 50.0829 257.02L46.4829 254.35C45.1929 253.42 44.8029 252.55 44.8029 251.05V247.72C44.8029 245.11 46.0929 243.82 48.7029 243.82H50.9829C53.5929 243.82 54.8829 245.11 54.8829 247.72V251.56H50.7729V248.11C50.7729 247.6 50.5329 247.36 50.0229 247.36H49.6929C49.1829 247.36 48.9429 247.6 48.9429 248.11V250.09C48.9429 250.75 49.1529 251.08 49.6629 251.44L53.2629 254.11ZM67.0221 244V261.28C67.0221 263.89 65.7321 265.18 63.1221 265.18H60.5721C57.9621 265.18 56.6721 263.89 56.6721 261.28V244H60.8721V260.83C60.8721 261.34 61.1121 261.58 61.6221 261.58H62.0721C62.5821 261.58 62.8221 261.34 62.8221 260.83V244H67.0221ZM73.1795 257.71V265H68.9795V244H75.1295C77.7395 244 79.0295 245.29 79.0295 247.9V253.81C79.0295 256.42 77.7395 257.71 75.1295 257.71H73.1795ZM74.8295 248.35C74.8295 247.84 74.5895 247.6 74.0795 247.6H73.1795V254.11H74.0795C74.5895 254.11 74.8295 253.87 74.8295 253.36V248.35ZM84.9002 257.71V265H80.7002V244H86.8502C89.4602 244 90.7502 245.29 90.7502 247.9V253.81C90.7502 256.42 89.4602 257.71 86.8502 257.71H84.9002ZM86.5502 248.35C86.5502 247.84 86.3102 247.6 85.8002 247.6H84.9002V254.11H85.8002C86.3102 254.11 86.5502 253.87 86.5502 253.36V248.35ZM102.861 261.28C102.861 263.89 101.571 265.18 98.9609 265.18H96.2609C93.6509 265.18 92.3609 263.89 92.3609 261.28V247.72C92.3609 245.11 93.6509 243.82 96.2609 243.82H98.9609C101.571 243.82 102.861 245.11 102.861 247.72V261.28ZM98.6609 248.17C98.6609 247.66 98.4209 247.42 97.9109 247.42H97.3109C96.8009 247.42 96.5609 247.66 96.5609 248.17V260.83C96.5609 261.34 96.8009 261.58 97.3109 261.58H97.9109C98.4209 261.58 98.6609 261.34 98.6609 260.83V248.17ZM113.185 255.07C114.475 255.43 115.015 256.24 115.015 257.77V265H110.815V257.8C110.815 257.29 110.575 257.05 110.065 257.05H109.015V265H104.815V244H111.085C113.695 244 114.985 245.29 114.985 247.9V251.95C114.985 253.75 114.325 254.65 113.185 255.07ZM110.785 248.41C110.785 247.9 110.545 247.66 110.035 247.66H109.015V253.48H110.035C110.545 253.48 110.785 253.24 110.785 252.73V248.41ZM123.071 265H118.871V247.75H116.321V244H125.621V247.75H123.071V265ZM138.273 264.19H136.893C135.843 264.19 135.153 263.83 134.703 263.08C133.893 263.86 133.293 264.22 132.303 264.22C130.983 264.22 130.113 263.38 130.113 261.79V258.43C130.113 256.72 130.623 255.88 132.093 255.37L134.493 254.56V252.13C134.493 251.8 134.343 251.65 134.013 251.65H133.773C133.443 251.65 133.293 251.8 133.293 252.13V254.05H130.263V251.59C130.263 249.79 131.253 248.89 133.173 248.89H134.763C136.653 248.89 137.613 249.79 137.613 251.59V262.54C137.613 262.99 137.793 263.17 138.243 263.17H138.333C139.113 263.17 139.533 262.78 139.533 261.64V250.81C139.533 247.99 138.393 246.91 135.933 246.91H131.913C129.453 246.91 128.313 247.99 128.313 250.81V262.33C128.313 265.15 129.453 266.23 131.913 266.23H139.473V267.25H131.913C128.733 267.25 127.233 265.84 127.233 262.33V250.81C127.233 247.3 128.733 245.89 131.913 245.89H135.933C139.113 245.89 140.613 247.3 140.613 250.81V261.64C140.613 263.35 139.893 264.19 138.273 264.19ZM133.833 261.28C134.163 261.28 134.283 261.22 134.493 261.16V257.32L133.713 257.65C133.293 257.83 133.143 258.13 133.143 258.64V260.68C133.143 261.1 133.353 261.28 133.833 261.28ZM142.673 244H146.873V261.25H149.903V265H142.673V244ZM162.172 265H158.002L157.672 261.94H155.032L154.732 265H150.922L153.682 244H159.412L162.172 265ZM156.352 249.13L155.422 258.28H157.282L156.352 249.13ZM169.599 255.73H173.739V261.28C173.739 263.89 172.449 265.18 169.839 265.18H167.259C164.649 265.18 163.359 263.89 163.359 261.28V247.72C163.359 245.11 164.649 243.82 167.259 243.82H169.779C172.389 243.82 173.679 245.11 173.679 247.72V252.64H169.539V248.17C169.539 247.66 169.299 247.42 168.789 247.42H168.309C167.799 247.42 167.559 247.66 167.559 248.17V260.83C167.559 261.34 167.799 261.58 168.309 261.58H168.849C169.359 261.58 169.599 261.34 169.599 260.83V255.73ZM186.141 265H181.971L181.641 261.94H179.001L178.701 265H174.891L177.651 244H183.381L186.141 265ZM180.321 249.13L179.391 258.28H181.251L180.321 249.13ZM197.708 244V261.28C197.708 263.89 196.418 265.18 193.808 265.18H191.258C188.648 265.18 187.358 263.89 187.358 261.28V244H191.558V260.83C191.558 261.34 191.798 261.58 192.308 261.58H192.758C193.268 261.58 193.508 261.34 193.508 260.83V244H197.708ZM208.005 254.11C209.295 255.04 209.685 255.85 209.685 257.41V261.28C209.685 263.89 208.395 265.18 205.785 265.18H203.445C200.835 265.18 199.545 263.89 199.545 261.28V256.81H203.655V260.89C203.655 261.4 203.895 261.64 204.405 261.64H204.795C205.305 261.64 205.545 261.4 205.545 260.89V258.37C205.545 257.71 205.335 257.38 204.825 257.02L201.225 254.35C199.935 253.42 199.545 252.55 199.545 251.05V247.72C199.545 245.11 200.835 243.82 203.445 243.82H205.725C208.335 243.82 209.625 245.11 209.625 247.72V251.56H205.515V248.11C205.515 247.6 205.275 247.36 204.765 247.36H204.435C203.925 247.36 203.685 247.6 203.685 248.11V250.09C203.685 250.75 203.895 251.08 204.405 251.44L208.005 254.11ZM221.948 265H217.778L217.448 261.94H214.808L214.508 265H210.698L213.458 244H219.188L221.948 265ZM216.128 249.13L215.198 258.28H217.058L216.128 249.13ZM227.031 260.38V265H223.131V260.38H227.031ZM235.001 255.73H239.141V261.28C239.141 263.89 237.851 265.18 235.241 265.18H232.661C230.051 265.18 228.761 263.89 228.761 261.28V247.72C228.761 245.11 230.051 243.82 232.661 243.82H235.181C237.791 243.82 239.081 245.11 239.081 247.72V252.64H234.941V248.17C234.941 247.66 234.701 247.42 234.191 247.42H233.711C233.201 247.42 232.961 247.66 232.961 248.17V260.83C232.961 261.34 233.201 261.58 233.711 261.58H234.251C234.761 261.58 235.001 261.34 235.001 260.83V255.73ZM251.48 261.28C251.48 263.89 250.19 265.18 247.58 265.18H244.88C242.27 265.18 240.98 263.89 240.98 261.28V247.72C240.98 245.11 242.27 243.82 244.88 243.82H247.58C250.19 243.82 251.48 245.11 251.48 247.72V261.28ZM247.28 248.17C247.28 247.66 247.04 247.42 246.53 247.42H245.93C245.42 247.42 245.18 247.66 245.18 248.17V260.83C245.18 261.34 245.42 261.58 245.93 261.58H246.53C247.04 261.58 247.28 261.34 247.28 260.83V248.17ZM258.385 265L256.795 251.11V265H253.435V244H259.495L260.695 256.72L261.985 244H268.075V265H263.935V251.26L262.345 265H258.385Z" fill="#FFF6D2"/>
<rect x="102.5" y="56.5" width="108" height="108" rx="54" stroke="#FFF6D2" stroke-width="5"/>
<path fill-rule="evenodd" clip-rule="evenodd" d="M132.875 90.8438C129.613 90.8438 126.969 93.4881 126.969 96.75V128.25C126.969 131.512 129.613 134.156 132.875 134.156H180.125C183.387 134.156 186.031 131.512 186.031 128.25V96.75C186.031 93.4881 183.387 90.8438 180.125 90.8438H132.875ZM130.906 97.2947V128.25C130.906 129.337 131.788 130.219 132.875 130.219H180.125C181.212 130.219 182.094 129.337 182.094 128.25V97.2948L163.195 112.293C163.172 112.311 163.149 112.329 163.125 112.346C159.211 115.176 153.789 115.176 149.875 112.346C149.851 112.329 149.828 112.311 149.805 112.293L130.906 97.2947ZM178.927 94.7812H134.073L152.216 109.18C154.74 110.982 158.261 110.982 160.784 109.18L178.927 94.7812Z" fill="#FFF6D2"/>
</svg>
