<svg width="315" height="319" viewBox="0 0 315 319" fill="none" xmlns="http://www.w3.org/2000/svg">
<rect x="2" y="2" width="311" height="315" rx="50" fill="#E9993E" stroke="#114550" stroke-width="4"/>
<path d="M82.2413 190.5H89.5013L91.7013 210.96L93.6813 190.5H100.501L95.8263 229H87.3563L85.3213 211.455L83.3963 229H74.9263L70.2513 190.5H78.0613L80.0413 211.125L82.2413 190.5ZM110.486 206.01H114.336V190.5H122.036V229H114.336V212.885H110.486V229H102.786V190.5H110.486V206.01ZM144.833 229H137.188L136.583 223.39H131.743L131.193 229H124.208L129.268 190.5H139.773L144.833 229ZM134.163 199.905L132.458 216.68H135.868L134.163 199.905ZM156.318 229H148.618V197.375H143.943V190.5H160.993V197.375H156.318V229ZM178.443 209.035C180.808 210.74 181.523 212.225 181.523 215.085V222.18C181.523 226.965 179.158 229.33 174.373 229.33H170.083C165.298 229.33 162.933 226.965 162.933 222.18V213.985H170.468V221.465C170.468 222.4 170.908 222.84 171.843 222.84H172.558C173.493 222.84 173.933 222.4 173.933 221.465V216.845C173.933 215.635 173.548 215.03 172.613 214.37L166.013 209.475C163.648 207.77 162.933 206.175 162.933 203.425V197.32C162.933 192.535 165.298 190.17 170.083 190.17H174.263C179.048 190.17 181.413 192.535 181.413 197.32V204.36H173.878V198.035C173.878 197.1 173.438 196.66 172.503 196.66H171.898C170.963 196.66 170.523 197.1 170.523 198.035V201.665C170.523 202.875 170.908 203.48 171.843 204.14L178.443 209.035ZM203.589 229H195.944L195.339 223.39H190.499L189.949 229H182.964L188.024 190.5H198.529L203.589 229ZM192.919 199.905L191.214 216.68H194.624L192.919 199.905ZM213.426 215.635V229H205.726V190.5H217.001C221.786 190.5 224.151 192.865 224.151 197.65V208.485C224.151 213.27 221.786 215.635 217.001 215.635H213.426ZM216.451 198.475C216.451 197.54 216.011 197.1 215.076 197.1H213.426V209.035H215.076C216.011 209.035 216.451 208.595 216.451 207.66V198.475ZM234.497 215.635V229H226.797V190.5H238.072C242.857 190.5 245.222 192.865 245.222 197.65V208.485C245.222 213.27 242.857 215.635 238.072 215.635H234.497ZM237.522 198.475C237.522 197.54 237.082 197.1 236.147 197.1H234.497V209.035H236.147C237.082 209.035 237.522 208.595 237.522 207.66V198.475Z" fill="#114550"/>
<path d="M99.0886 251.775V249.225H96.5886V247H99.0886V244.45H101.439V247H103.939V249.225H101.439V251.775H99.0886ZM109.9 239.425V257H106.475V243.5H104.825V241.075L105.05 241.05C106.025 240.95 106.475 240.575 107.05 239.825L107.35 239.425H109.9ZM123.927 248.225V253.9C123.927 256.075 122.852 257.15 120.677 257.15H118.777C116.602 257.15 115.527 256.075 115.527 253.9V250.725H118.902V253.525C118.902 253.95 119.102 254.15 119.527 254.15H119.852C120.277 254.15 120.477 253.95 120.477 253.525V249.3C120.477 248.85 120.302 248.575 119.852 248.575C119.452 248.575 119.177 248.825 118.802 249.3H115.627V239.5H123.677V242.625H118.877L118.827 246.375C119.502 245.775 120.102 245.4 121.227 245.4H121.277C122.902 245.4 123.927 246.475 123.927 248.225ZM134.126 253.9C134.126 256.075 133.051 257.15 130.876 257.15H128.726C126.551 257.15 125.476 256.075 125.476 253.9V242.6C125.476 240.425 126.551 239.35 128.726 239.35H130.876C133.051 239.35 134.126 240.425 134.126 242.6V253.9ZM130.651 242.975C130.651 242.55 130.451 242.35 130.026 242.35H129.576C129.151 242.35 128.951 242.55 128.951 242.975V253.525C128.951 253.95 129.151 254.15 129.576 254.15H130.026C130.451 254.15 130.651 253.95 130.651 253.525V242.975ZM138.991 239.35H140.891C143.066 239.35 144.141 240.425 144.141 242.6V245.3C144.141 246.8 143.616 247.55 142.691 247.9C143.741 248.2 144.191 248.875 144.191 250.15V253.9C144.191 256.075 143.116 257.15 140.941 257.15H138.941C136.766 257.15 135.691 256.075 135.691 253.9V250.15C135.691 248.875 136.141 248.2 137.191 247.9C136.266 247.55 135.741 246.8 135.741 245.3V242.6C135.741 240.425 136.816 239.35 138.991 239.35ZM139.116 250.125V253.575C139.116 254 139.316 254.2 139.741 254.2H140.141C140.566 254.2 140.766 254 140.766 253.575V250.125C140.766 249.7 140.566 249.5 140.141 249.5H139.741C139.316 249.5 139.116 249.7 139.116 250.125ZM139.766 246.6H140.116C140.541 246.6 140.741 246.4 140.741 245.975V242.925C140.741 242.5 140.541 242.3 140.116 242.3H139.766C139.341 242.3 139.141 242.5 139.141 242.925V245.975C139.141 246.4 139.341 246.6 139.766 246.6ZM154.007 254.15C154.432 254.15 154.632 253.95 154.632 253.525V250.075C154.032 250.35 153.357 250.525 152.582 250.525H152.457C150.682 250.525 149.632 249.35 149.632 247.625V242.6C149.632 240.425 150.707 239.35 152.882 239.35H154.857C157.032 239.35 158.107 240.425 158.107 242.6V253.9C158.107 256.075 157.032 257.15 154.857 257.15H152.907C150.732 257.15 149.657 256.075 149.657 253.9V251.7H153.032V253.525C153.032 253.95 153.232 254.15 153.657 254.15H154.007ZM154.632 247.35V242.975C154.632 242.55 154.432 242.35 154.007 242.35H153.707C153.282 242.35 153.082 242.55 153.082 242.975V246.925C153.082 247.325 153.207 247.5 153.707 247.5C154.082 247.5 154.432 247.425 154.632 247.35ZM164.101 254.15C164.526 254.15 164.726 253.95 164.726 253.525V250.075C164.126 250.35 163.451 250.525 162.676 250.525H162.551C160.776 250.525 159.726 249.35 159.726 247.625V242.6C159.726 240.425 160.801 239.35 162.976 239.35H164.951C167.126 239.35 168.201 240.425 168.201 242.6V253.9C168.201 256.075 167.126 257.15 164.951 257.15H163.001C160.826 257.15 159.751 256.075 159.751 253.9V251.7H163.126V253.525C163.126 253.95 163.326 254.15 163.751 254.15H164.101ZM164.726 247.35V242.975C164.726 242.55 164.526 242.35 164.101 242.35H163.801C163.376 242.35 163.176 242.55 163.176 242.975V246.925C163.176 247.325 163.301 247.5 163.801 247.5C164.176 247.5 164.526 247.425 164.726 247.35ZM174.196 254.15C174.621 254.15 174.821 253.95 174.821 253.525V250.075C174.221 250.35 173.546 250.525 172.771 250.525H172.646C170.871 250.525 169.821 249.35 169.821 247.625V242.6C169.821 240.425 170.896 239.35 173.071 239.35H175.046C177.221 239.35 178.296 240.425 178.296 242.6V253.9C178.296 256.075 177.221 257.15 175.046 257.15H173.096C170.921 257.15 169.846 256.075 169.846 253.9V251.7H173.221V253.525C173.221 253.95 173.421 254.15 173.846 254.15H174.196ZM174.821 247.35V242.975C174.821 242.55 174.621 242.35 174.196 242.35H173.896C173.471 242.35 173.271 242.55 173.271 242.975V246.925C173.271 247.325 173.396 247.5 173.896 247.5C174.271 247.5 174.621 247.425 174.821 247.35ZM188.459 239.425V257H185.034V243.5H183.384V241.075L183.609 241.05C184.584 240.95 185.034 240.575 185.609 239.825L185.909 239.425H188.459ZM194.843 239.425V257H191.418V243.5H189.768V241.075L189.993 241.05C190.968 240.95 191.418 240.575 191.993 239.825L192.293 239.425H194.843ZM209.146 253.9C209.146 256.075 208.071 257.15 205.896 257.15H203.746C201.571 257.15 200.496 256.075 200.496 253.9V242.6C200.496 240.425 201.571 239.35 203.746 239.35H205.896C208.071 239.35 209.146 240.425 209.146 242.6V253.9ZM205.671 242.975C205.671 242.55 205.471 242.35 205.046 242.35H204.596C204.171 242.35 203.971 242.55 203.971 242.975V253.525C203.971 253.95 204.171 254.15 204.596 254.15H205.046C205.471 254.15 205.671 253.95 205.671 253.525V242.975ZM210.486 254.35V250.825L213.361 239.5H218.136V251.325H219.411V254.35H218.136V257H214.986V254.35H210.486ZM214.986 251.325V243.85L213.136 251.325H214.986ZM67.3461 277.325C68.1961 277.325 68.6211 276.9 68.6211 276V271.55C68.0211 271.875 67.3211 272.075 66.5461 272.075H66.4711C64.6961 272.075 63.6461 270.9 63.6461 269.175V264.6C63.6461 262.425 64.7211 261.35 66.8961 261.35H67.3461C69.5211 261.35 70.5961 262.425 70.5961 264.6V275.9C70.5961 278.075 69.5211 279.15 67.3461 279.15H66.8711C64.6711 279.15 63.6711 278.2 63.6711 276V273.775H65.5961V276C65.5961 276.9 66.0211 277.325 66.8711 277.325H67.3461ZM68.6211 269.85V264.5C68.6211 263.6 68.1961 263.175 67.3461 263.175H66.8711C66.0211 263.175 65.5961 263.6 65.5961 264.5V268.8C65.5961 269.8 66.0711 270.225 66.9211 270.225C67.5211 270.225 68.2211 270.05 68.6211 269.85ZM83.8654 279H81.8904L81.4654 276.075H78.2404L77.8404 279H75.9154L78.6154 261.45H81.1654L83.8654 279ZM79.8404 264.575L78.4904 274.275H81.2154L79.8404 264.575ZM93.3295 261.5H96.4295V279H94.4795V264.525L92.0795 279H90.0295L87.6295 264.525V279H85.7295V261.5H88.8795L91.1045 275.3L93.3295 261.5ZM101.78 271.15H110.13V272.85H101.78V271.15ZM119.088 277.325C119.938 277.325 120.363 276.9 120.363 276V271.55C119.763 271.875 119.063 272.075 118.288 272.075H118.213C116.438 272.075 115.388 270.9 115.388 269.175V264.6C115.388 262.425 116.463 261.35 118.638 261.35H119.088C121.263 261.35 122.338 262.425 122.338 264.6V275.9C122.338 278.075 121.263 279.15 119.088 279.15H118.613C116.413 279.15 115.413 278.2 115.413 276V273.775H117.338V276C117.338 276.9 117.763 277.325 118.613 277.325H119.088ZM120.363 269.85V264.5C120.363 263.6 119.938 263.175 119.088 263.175H118.613C117.763 263.175 117.338 263.6 117.338 264.5V268.8C117.338 269.8 117.813 270.225 118.663 270.225C119.263 270.225 119.963 270.05 120.363 269.85ZM130.183 272.425V279H128.183V261.5H131.633C133.808 261.5 134.883 262.575 134.883 264.75V269.175C134.883 271.35 133.808 272.425 131.633 272.425H130.183ZM132.883 264.65C132.883 263.75 132.458 263.325 131.558 263.325H130.183V270.6H131.558C132.458 270.6 132.883 270.175 132.883 269.275V264.65ZM144.608 261.5H147.708V279H145.758V264.525L143.358 279H141.308L138.908 264.525V279H137.008V261.5H140.158L142.383 275.3L144.608 261.5ZM153.608 261.5H159.108V263.35H155.608V269.15H158.983V270.975H155.608V277.15H159.158V279H153.608V261.5ZM166.561 270.1C167.836 271.025 168.236 271.85 168.236 273.35V275.9C168.236 278.075 167.161 279.15 164.986 279.15H164.436C162.286 279.15 161.236 278.075 161.236 275.95V272.275H163.186V276.025C163.186 276.925 163.611 277.35 164.511 277.35H164.911C165.811 277.35 166.236 276.925 166.236 276.025V273.4C166.236 272.525 165.936 272.15 165.361 271.725L162.911 269.95C161.611 269.025 161.236 268.125 161.236 266.7V264.6C161.236 262.425 162.311 261.35 164.486 261.35H164.986C167.136 261.35 168.186 262.425 168.186 264.55V267.7H166.236V264.475C166.236 263.575 165.811 263.15 164.911 263.15H164.561C163.661 263.15 163.236 263.575 163.236 264.475V266.675C163.236 267.55 163.561 267.925 164.136 268.35L166.561 270.1ZM174.183 279H172.183V263.35H169.558V261.5H176.808V263.35H174.183V279ZM186.1 260.7L182.85 279.8H181.15L184.4 260.7H186.1ZM196.004 276V272.35C196.004 271.45 195.579 271.025 194.729 271.025H192.704V269.175H194.679C195.529 269.175 195.954 268.75 195.954 267.85V264.5C195.954 263.6 195.529 263.175 194.679 263.175H194.179C193.329 263.175 192.904 263.6 192.904 264.5V267H190.954V264.6C190.954 262.425 192.029 261.35 194.204 261.35H194.704C196.879 261.35 197.954 262.425 197.954 264.6V267.35C197.954 268.85 197.429 269.6 196.504 269.95C197.554 270.25 198.004 270.925 198.004 272.2V275.9C198.004 278.075 196.929 279.15 194.754 279.15H194.104C191.954 279.15 190.904 278.1 190.904 275.95V273.175H192.854V276C192.854 276.9 193.279 277.325 194.179 277.325H194.679C195.579 277.325 196.004 276.9 196.004 276ZM202.246 264.5V269.175C202.846 268.85 203.521 268.625 204.321 268.625H204.446C206.221 268.625 207.271 269.8 207.271 271.525V275.9C207.271 278.075 206.196 279.15 204.021 279.15H203.521C201.346 279.15 200.271 278.075 200.271 275.9V264.6C200.271 262.425 201.346 261.35 203.521 261.35H204.046C206.221 261.35 207.196 262.325 207.196 264.5V266.925H205.271V264.5C205.271 263.6 204.846 263.175 203.996 263.175H203.521C202.671 263.175 202.246 263.6 202.246 264.5ZM202.246 270.85V276C202.246 276.9 202.671 277.325 203.521 277.325H204.046C204.896 277.325 205.321 276.9 205.321 276V271.9C205.321 270.9 204.871 270.475 203.971 270.475C203.371 270.475 202.646 270.65 202.246 270.85ZM216.362 270.875V275.9C216.362 278.075 215.287 279.15 213.162 279.15H212.662C210.562 279.15 209.512 278.1 209.512 275.95V272.925H211.462V276C211.462 276.9 211.887 277.325 212.737 277.325H213.087C213.937 277.325 214.362 276.9 214.362 276V271.25C214.362 270.3 214.012 269.85 213.212 269.85C212.562 269.85 212.012 270.1 211.287 270.85H209.612V261.5H216.112V263.35H211.462L211.412 268.825C212.012 268.35 212.712 268 213.662 268C215.262 268 216.362 269.075 216.362 270.875ZM222.134 279V261.5H225.434C228.059 261.5 229.309 262.75 229.309 265.375V275.125C229.309 277.75 228.059 279 225.434 279H222.134ZM224.134 263.325V277.175H225.334C226.684 277.175 227.309 276.5 227.309 275.15V265.35C227.309 264 226.684 263.325 225.334 263.325H224.134ZM233.692 261.5V279H231.692V261.5H233.692ZM232.017 260.375L233.067 258.25H234.992L233.292 260.375H232.017ZM243.547 279H241.572L241.147 276.075H237.922L237.522 279H235.597L238.297 261.45H240.847L243.547 279ZM239.522 264.575L238.172 274.275H240.897L239.522 264.575ZM250.539 270.1C251.814 271.025 252.214 271.85 252.214 273.35V275.9C252.214 278.075 251.139 279.15 248.964 279.15H248.414C246.264 279.15 245.214 278.075 245.214 275.95V272.275H247.164V276.025C247.164 276.925 247.589 277.35 248.489 277.35H248.889C249.789 277.35 250.214 276.925 250.214 276.025V273.4C250.214 272.525 249.914 272.15 249.339 271.725L246.889 269.95C245.589 269.025 245.214 268.125 245.214 266.7V264.6C245.214 262.425 246.289 261.35 248.464 261.35H248.964C251.114 261.35 252.164 262.425 252.164 264.55V267.7H250.214V264.475C250.214 263.575 249.789 263.15 248.889 263.15H248.539C247.639 263.15 247.214 263.575 247.214 264.475V266.675C247.214 267.55 247.539 267.925 248.114 268.35L250.539 270.1Z" fill="#FFF6D2"/>
<path d="M101.37 162.173L101.37 162.172L108.054 137.429L108.12 137.187L108 136.967C103.594 128.864 101.286 119.721 101.286 110.474C101.286 79.6722 126.568 54.625 157.685 54.625C188.801 54.625 214.083 79.6722 214.083 110.474C214.083 141.275 188.801 166.322 157.685 166.322C148.186 166.322 138.9 163.984 130.61 159.515L130.389 159.396L130.148 159.463L105.534 166.24L105.53 166.241C105.203 166.334 104.942 166.375 104.639 166.375C103.744 166.375 102.894 166.02 102.268 165.4C101.412 164.553 101.061 163.312 101.37 162.173ZM114.656 135.112L114.658 135.116C115.104 135.867 115.237 136.797 115.016 137.63C115.016 137.63 115.016 137.63 115.016 137.631L109.712 157.276L109.427 158.331L110.481 158.042L130.001 152.683L130.017 152.679L130.032 152.674C130.28 152.592 130.585 152.548 130.844 152.548C131.403 152.548 131.99 152.718 132.564 153C140.135 157.409 148.83 159.745 157.685 159.745C185.077 159.745 207.377 137.669 207.377 110.526C207.377 83.3833 185.077 61.3077 157.685 61.3077C130.292 61.3077 107.993 83.3833 107.993 110.526C107.993 119.201 110.303 127.662 114.656 135.112Z" fill="#FFF6D2" stroke="#E9993E" stroke-width="1.25"/>
<g clip-path="url(#clip0_12804_10861)">
<path d="M142.036 88.8511C141.823 88.5856 141.555 88.3671 141.248 88.21C140.942 88.0529 140.605 87.9609 140.259 87.9401C139.914 87.9192 139.567 87.9701 139.243 88.0892C138.919 88.2083 138.625 88.3929 138.381 88.6309L134.657 92.2495C132.918 93.9417 132.277 96.3367 133.037 98.438C136.19 107.135 141.32 115.032 148.046 121.541C154.75 128.071 162.883 133.052 171.841 136.114C174.005 136.852 176.471 136.229 178.214 134.541L181.938 130.925C182.183 130.688 182.373 130.402 182.496 130.088C182.618 129.773 182.671 129.437 182.649 129.101C182.628 128.766 182.533 128.438 182.371 128.141C182.209 127.844 181.984 127.583 181.711 127.377L173.403 121.104C173.111 120.884 172.771 120.732 172.41 120.658C172.048 120.584 171.674 120.591 171.315 120.678L163.429 122.59C162.376 122.846 161.273 122.832 160.228 122.551C159.182 122.27 158.229 121.73 157.462 120.986L148.618 112.395C147.85 111.651 147.294 110.726 147.004 109.71C146.714 108.695 146.699 107.624 146.962 106.602L148.935 98.9449C149.025 98.5967 149.032 98.2332 148.956 97.8819C148.88 97.5306 148.722 97.2007 148.496 96.9171L142.036 88.8511ZM135.662 85.9947C136.292 85.3826 137.049 84.9078 137.883 84.6016C138.716 84.2954 139.608 84.165 140.497 84.2189C141.387 84.2728 142.254 84.5098 143.042 84.9142C143.83 85.3187 144.521 85.8812 145.068 86.5646L151.528 94.627C152.712 96.1059 153.13 98.0324 152.662 99.8505L150.692 107.507C150.59 107.904 150.596 108.319 150.708 108.713C150.82 109.107 151.036 109.466 151.333 109.755L160.181 118.346C160.479 118.635 160.849 118.845 161.256 118.954C161.662 119.063 162.091 119.068 162.5 118.968L170.382 117.056C171.306 116.831 172.271 116.814 173.203 117.005C174.135 117.196 175.01 117.59 175.762 118.157L184.066 124.429C187.051 126.684 187.325 130.967 184.653 133.558L180.929 137.173C178.265 139.761 174.282 140.897 170.569 139.628C161.067 136.381 152.44 131.1 145.327 124.174C138.194 117.269 132.754 108.893 129.411 99.6686C128.107 96.0675 129.277 92.1971 131.942 89.6098L135.665 85.9947H135.662Z" fill="#FFF6D2"/>
</g>
<defs>
<clipPath id="clip0_12804_10861">
<rect width="57.6152" height="55.9406" fill="white" transform="translate(128.877 84.208)"/>
</clipPath>
</defs>
</svg>
