<svg width="942" height="155" viewBox="0 0 942 155" fill="none" xmlns="http://www.w3.org/2000/svg">
<path d="M756.977 104.91C756.977 104.91 753.774 110.674 746.089 110.674C737.55 110.674 732 105.337 732 95.9437C732 86.5508 736.91 81.2139 745.235 81.2139C756.123 81.2139 757.19 90.1799 757.19 92.1012L750.145 93.1686C750.145 93.1686 750.145 87.8317 745.235 87.8317C741.82 87.8317 739.685 90.6068 739.685 95.9437C739.685 101.281 742.887 104.056 746.303 104.056C749.932 104.056 752.494 100.427 752.494 100.427L756.977 104.91Z" fill="#E9993E"/>
<path d="M777.044 110.247V99.5728H768.078V110.247H760.607V81.2139H768.078V93.5955H777.044V81.2139H784.516V110.247H777.044Z" fill="#E9993E"/>
<path d="M789.851 110.247V81.2139H797.323V110.247H789.851Z" fill="#E9993E"/>
<path d="M826.357 104.91C826.357 104.91 823.155 110.674 815.469 110.674C806.93 110.674 801.38 105.337 801.38 95.9437C801.38 86.5508 806.29 81.2139 814.616 81.2139C825.503 81.2139 826.57 90.1799 826.57 92.1012L819.526 93.1686C819.526 93.1686 819.525 87.8317 814.616 87.8317C811.2 87.8317 809.065 90.6068 809.065 95.9437C809.065 101.281 812.267 104.056 815.683 104.056C819.312 104.056 822.087 100.427 822.087 100.427L826.357 104.91Z" fill="#E9993E"/>
<path d="M846.421 103.842H837.242L835.107 110.247H827.208L837.882 81.2139H845.567L856.241 110.247H848.343L846.421 103.842ZM839.163 98.2919H844.714L841.938 89.7529L839.163 98.2919Z" fill="#E9993E"/>
<path d="M875.028 110.247L866.489 95.5167V110.247H859.018V81.2139H866.489L875.028 96.7977V81.2139H882.5V110.247H875.028Z" fill="#E9993E"/>
<path d="M886.556 95.7299C886.556 86.1235 892.32 81 900.005 81C907.69 81 913.454 86.1235 913.454 95.7299C913.454 105.336 907.477 110.46 900.005 110.46C892.32 110.46 886.556 105.55 886.556 95.7299ZM905.556 95.7299C905.556 89.7525 902.994 87.6177 900.005 87.6177C896.803 87.6177 894.455 89.7525 894.455 95.7299C894.455 101.707 896.803 104.055 900.005 104.055C903.207 104.055 905.556 101.921 905.556 95.7299Z" fill="#E9993E"/>
<path d="M933.522 90.1799C933.522 90.1799 931.815 87.1913 927.972 87.1913C926.051 87.1913 924.77 88.0452 924.77 89.326C924.77 94.236 938.859 91.0338 938.859 101.921C938.859 105.977 935.871 110.46 927.545 110.46C918.152 110.46 915.164 104.269 915.164 104.269L919.647 100.213C919.647 100.213 922.635 104.696 927.545 104.696C929.68 104.696 930.747 103.842 930.747 102.348C930.747 96.7976 916.444 100.854 916.444 89.5395C916.444 85.0565 920.287 81.2139 927.332 81.2139C936.511 81.2139 938.646 87.1913 938.646 87.1913L933.522 90.1799Z" fill="#E9993E"/>
<path d="M830.837 139.492C830.837 139.492 827.635 145.255 819.95 145.255C811.411 145.255 805.861 139.919 805.861 130.526C805.861 121.133 810.771 115.796 819.096 115.796C829.984 115.796 831.051 124.762 831.051 126.683L824.006 127.751C824.006 127.751 824.006 122.414 819.096 122.414C815.681 122.414 813.546 125.189 813.546 130.526C813.546 135.863 816.748 138.638 820.164 138.638C823.793 138.638 826.568 135.009 826.568 135.009L830.837 139.492Z" fill="#E9993E"/>
<path d="M850.904 138.424H841.725L839.59 144.829H831.691L842.365 115.796H850.05L860.724 144.829H852.825L850.904 138.424ZM843.646 132.874H849.196L846.421 124.335L843.646 132.874Z" fill="#E9993E"/>
<path d="M877.592 116.01H885.063V132.874C885.063 142.054 879.726 145.256 873.536 145.256C867.345 145.256 861.794 142.267 861.794 132.874V116.01H869.266V133.515C869.266 135.863 869.906 138.425 873.322 138.425C876.738 138.425 877.378 135.863 877.378 133.515V116.01H877.592Z" fill="#E9993E"/>
<path d="M906.407 124.976C906.407 124.976 904.7 121.987 900.857 121.987C898.936 121.987 897.655 122.841 897.655 124.122C897.655 129.032 911.744 125.83 911.744 136.717C911.744 140.773 908.756 145.256 900.43 145.256C891.037 145.256 888.049 139.065 888.049 139.065L892.532 135.009C892.532 135.009 895.52 139.492 900.43 139.492C902.565 139.492 903.632 138.638 903.632 137.144C903.632 131.593 889.329 135.649 889.329 124.335C889.329 119.852 893.172 116.01 900.217 116.01C909.396 116.01 911.531 121.987 911.531 121.987L906.407 124.976Z" fill="#E9993E"/>
<path d="M931.388 138.424H922.208L920.073 144.829H912.175L922.849 115.796H930.534L941.208 144.829H933.309L931.388 138.424ZM924.13 132.874H929.68L926.905 124.335L924.13 132.874Z" fill="#E9993E"/>
<path d="M737.979 132.02V119.212H742.675C745.877 119.212 748.012 120.706 748.012 123.695C748.012 126.684 745.664 128.178 743.102 128.178H741.181V132.02H737.979ZM742.462 125.616C743.743 125.616 744.596 124.976 744.596 123.695C744.596 122.627 743.956 121.774 742.248 121.774H741.181V125.616H742.462Z" fill="#E9993E"/>
<path d="M748.653 125.616C748.653 121.347 751.215 119.212 754.63 119.212C758.046 119.212 760.607 121.347 760.607 125.616C760.607 129.886 758.046 132.02 754.63 132.02C751.215 132.02 748.653 129.886 748.653 125.616ZM756.978 125.616C756.978 123.054 755.911 121.987 754.417 121.987C753.136 121.987 751.855 122.841 751.855 125.616C751.855 128.391 752.922 129.245 754.417 129.245C755.911 129.245 756.978 128.391 756.978 125.616Z" fill="#E9993E"/>
<path d="M772.349 132.021C772.349 132.021 771.922 132.235 770.641 132.235C766.372 132.235 767.866 127.752 765.304 127.752H764.664V132.235H761.248V119.426H765.945C769.36 119.426 771.068 120.494 771.068 123.696C771.068 125.617 769.787 126.471 769.147 126.898C770.214 128.179 770.001 129.673 771.495 129.673H772.135V132.021H772.349ZM765.945 125.19C767.225 125.19 768.293 124.55 768.293 123.482C768.293 122.415 767.439 121.774 766.158 121.774H764.877V124.977H765.945V125.19Z" fill="#E9993E"/>
<path d="M777.471 132.02V119.212H780.887V129.245H786.01V131.807H777.471V132.02Z" fill="#E9993E"/>
<path d="M794.979 129.032H790.923L790.069 131.807H786.653L791.35 118.999H794.765L799.462 131.807H796.046L794.979 129.032ZM791.777 126.684H794.125L792.844 123.055L791.777 126.684Z" fill="#E9993E"/>
<path d="M799.673 136.29H737.979V140.346H799.673V136.29Z" fill="#E9993E"/>
<path d="M727.516 107.285C727.516 101.811 727.221 97.5212 726.481 93.9708C725.593 89.6808 723.966 86.1304 721.303 83.1718C720.712 82.5801 720.268 81.9883 719.676 81.3966C716.274 78.1421 712.575 76.2191 707.693 75.1835C704.735 74.5918 701.332 74.2959 697.486 74.148C695.415 74.148 693.196 74 690.977 74C690.238 74 689.498 74 688.758 74C688.019 74 687.279 74 686.539 74C684.172 74 681.953 74.0001 680.03 74.148C676.184 74.2959 672.782 74.4439 669.823 75.1835C664.941 76.2191 661.095 78.1421 657.84 81.3966C657.249 81.9883 656.657 82.5801 656.213 83.1718C653.55 86.1304 651.923 89.6808 651.036 93.9708C650.296 97.5212 650 101.959 650 107.285C650 109.208 650 120.155 650 121.93C650.148 125.924 650.296 129.474 651.036 132.433C652.071 137.315 653.994 141.161 657.249 144.564C658.284 145.599 659.468 146.635 660.651 147.374C663.314 149.297 666.273 150.629 669.823 151.369C673.077 152.108 676.924 152.404 681.362 152.404C683.137 152.404 685.06 152.404 687.131 152.404C687.723 152.404 688.314 152.404 689.054 152.404C689.646 152.404 690.385 152.404 690.977 152.404C693.048 152.404 694.823 152.404 696.747 152.404C701.185 152.256 705.031 152.108 708.285 151.369C711.836 150.629 714.794 149.297 717.457 147.374C718.64 146.487 719.824 145.599 720.859 144.564C724.114 141.309 726.185 137.463 727.073 132.433C727.664 129.474 727.96 125.924 728.108 121.93C727.516 120.155 727.516 109.06 727.516 107.285ZM657.692 84.5032C657.84 84.3553 658.136 84.0594 658.284 83.9115L658.58 83.6156C658.728 83.4676 658.728 83.4677 658.876 83.3198C659.32 82.876 659.616 82.5801 660.059 82.1363C660.207 81.9883 660.355 81.9883 660.503 82.1363L664.202 86.5742C664.349 86.7222 664.349 86.8701 664.202 86.8701C663.906 87.166 663.61 87.4619 663.314 87.7577C663.166 87.7577 663.166 87.9056 663.018 87.9056L662.87 88.0535C662.722 88.2015 662.574 88.3495 662.426 88.4974C661.835 89.0891 661.391 89.6808 660.947 90.4205C660.947 90.5684 660.799 90.5684 660.651 90.4205L655.769 87.4619C655.621 87.4619 655.621 87.166 655.769 87.0181C656.213 86.2784 656.953 85.3908 657.692 84.5032ZM669.823 83.6156C669.823 83.7635 669.823 83.9115 669.675 83.9115C668.048 84.3553 666.568 85.095 665.237 85.9825C665.089 85.9825 664.941 85.9825 664.941 85.8346L661.687 81.2487C661.539 81.1008 661.687 80.9528 661.835 80.9528C662.722 80.3611 663.758 79.7693 664.793 79.1776C665.829 78.7338 666.864 78.29 667.9 77.9942C668.048 77.9942 668.196 77.9942 668.196 78.1422L669.823 83.6156ZM669.675 77.4025C670.711 77.1066 671.746 76.9587 672.782 76.8107C673.817 76.6628 674.853 76.5149 675.888 76.5149C676.036 76.5149 676.184 76.6628 676.184 76.6628L676.628 82.4321C676.628 82.5801 676.48 82.728 676.48 82.728C675.592 82.876 674.705 82.876 673.817 83.0239C672.93 83.1718 672.042 83.3198 671.302 83.4677C671.154 83.4677 671.006 83.4677 671.006 83.3198L669.527 77.6983C669.527 77.5504 669.527 77.4025 669.675 77.4025ZM660.059 91.456C660.207 91.456 660.207 91.6039 660.207 91.7518C659.911 92.4915 659.616 93.2312 659.32 93.9708L659.172 94.5626L659.024 95.1543C658.876 95.5981 658.876 96.0419 658.728 96.4857C658.728 96.6336 658.58 96.6337 658.432 96.6337L652.811 95.5981C652.663 95.5981 652.663 95.4502 652.663 95.3022C652.811 94.7105 652.811 94.2668 652.959 93.675L653.107 92.9354L653.403 92.1957C653.698 91.1602 654.142 90.1246 654.586 89.0891C654.586 88.9411 654.882 88.9412 654.882 88.9412L660.059 91.456ZM658.136 97.965C658.284 97.965 658.432 98.113 658.284 98.2609C658.284 98.7047 658.136 99.1485 658.136 99.5923C658.136 100.036 657.988 100.48 657.988 100.924C657.84 101.811 657.84 102.847 657.84 103.734C657.84 103.882 657.693 104.03 657.545 104.03L651.775 103.882C651.627 103.882 651.479 103.734 651.479 103.586C651.479 102.551 651.627 101.515 651.627 100.48C651.627 100.036 651.775 99.4443 651.775 99.0005C651.775 98.4088 651.923 97.9651 651.923 97.3733C651.923 97.2254 652.071 97.0774 652.219 97.0774L658.136 97.965ZM657.84 104.918V121.486H651.775V104.918H657.84ZM652.219 128.883C652.071 128.291 652.071 127.847 652.071 127.256C652.071 126.812 651.923 126.22 651.923 125.776C651.775 124.741 651.775 123.705 651.775 122.67C651.775 122.522 651.923 122.374 652.071 122.374L657.84 122.226C657.988 122.226 658.136 122.374 658.136 122.522C658.136 123.409 658.284 124.445 658.284 125.332C658.284 125.776 658.432 126.22 658.432 126.664C658.432 127.108 658.58 127.551 658.58 127.995C658.58 128.143 658.432 128.291 658.432 128.291L652.811 129.179C652.367 129.179 652.219 129.031 652.219 128.883ZM652.811 130.51L658.432 129.474C658.58 129.474 658.728 129.475 658.728 129.622C658.876 130.066 658.876 130.51 659.024 130.954L659.172 131.546L659.32 132.137C659.616 132.877 659.911 133.617 660.207 134.356C660.207 134.504 660.207 134.652 660.059 134.652L654.882 137.315C654.734 137.315 654.586 137.315 654.586 137.167C654.142 136.131 653.698 135.096 653.403 134.06L653.107 133.321L652.959 132.581C652.811 131.989 652.663 131.546 652.663 130.954C652.515 130.658 652.663 130.51 652.811 130.51ZM655.621 138.646L660.503 135.688C660.651 135.688 660.799 135.688 660.799 135.688C661.243 136.427 661.687 137.019 662.278 137.611C662.426 137.759 662.574 137.907 662.722 138.055L662.87 138.203C662.87 138.203 663.018 138.35 663.166 138.35C663.462 138.646 663.758 138.942 664.054 139.238C664.201 139.386 664.201 139.386 664.054 139.534L660.355 143.972C660.207 144.12 660.059 144.12 659.911 143.972C659.468 143.676 659.024 143.232 658.728 142.788C658.58 142.64 658.58 142.641 658.432 142.493L658.136 142.197C657.988 142.049 657.693 141.753 657.545 141.605C656.805 140.717 656.065 139.83 655.474 138.794C655.474 138.794 655.621 138.646 655.621 138.646ZM664.941 140.274C665.089 140.126 665.089 140.126 665.237 140.126C666.568 141.013 668.048 141.753 669.675 142.197C669.823 142.197 669.823 142.345 669.823 142.493L668.196 147.966C668.196 148.114 668.048 148.114 667.9 148.114C666.864 147.818 665.829 147.374 664.793 146.931C663.758 146.487 662.722 145.895 661.835 145.155C661.687 145.007 661.687 144.859 661.687 144.859L664.941 140.274ZM669.675 148.854C669.527 148.854 669.379 148.706 669.527 148.558L671.006 142.936C671.006 142.788 671.154 142.788 671.302 142.788C672.19 142.936 672.93 143.232 673.817 143.232C674.705 143.38 675.592 143.528 676.48 143.528C676.628 143.528 676.776 143.676 676.628 143.824L676.184 149.593C676.184 149.741 676.036 149.889 675.888 149.741C674.853 149.593 673.817 149.593 672.782 149.445C671.746 149.297 670.711 149.002 669.675 148.854ZM674.557 130.214C668.787 130.066 663.906 125.185 663.906 119.563C663.758 113.646 668.491 108.764 674.409 108.616C674.557 108.616 674.705 108.764 674.705 108.912V112.61C674.705 112.758 674.557 112.906 674.409 112.906C670.858 113.054 668.048 116.161 668.196 119.711C668.344 123.113 671.006 125.776 674.409 125.924C678.107 126.072 681.066 123.261 681.214 119.711C681.214 119.563 681.362 119.415 681.51 119.415H685.356C685.504 119.415 685.652 119.563 685.652 119.711C685.356 125.628 680.474 130.362 674.557 130.214ZM689.942 94.5626C687.575 94.5626 685.504 96.4857 685.504 99.0005V117.492C685.504 117.64 685.356 117.936 685.06 117.936H681.51C681.362 117.936 681.066 117.788 681.066 117.492V99.0005C681.066 94.1188 685.356 90.1246 690.238 90.4205C694.823 90.7164 698.522 94.5626 698.374 99.2964C698.226 104.03 694.38 107.729 689.794 107.729H687.279C686.983 107.729 686.835 107.581 686.835 107.285V103.882C686.835 103.734 686.983 103.439 687.279 103.439H689.942C692.456 103.439 694.528 101.811 694.528 99.1484C694.676 96.4857 692.604 94.5626 689.942 94.5626ZM688.462 143.972C689.498 143.972 690.385 143.972 691.421 143.972C691.569 143.972 691.717 144.12 691.717 144.268V150.037C691.717 150.185 691.569 150.333 691.421 150.333C690.385 150.333 689.498 150.333 688.462 150.333H685.504C685.356 150.333 685.208 150.185 685.208 150.037V144.268C685.208 144.12 685.356 143.972 685.504 143.972H688.462ZM685.356 76.367C685.356 76.219 685.504 76.0711 685.652 76.0711C686.687 76.0711 687.575 76.0711 688.61 76.0711H691.569C691.717 76.0711 691.865 76.219 691.865 76.367V82.1363C691.865 82.2842 691.717 82.4321 691.569 82.4321H688.61C687.575 82.4321 686.687 82.4321 685.652 82.4321C685.504 82.4321 685.356 82.2842 685.356 82.1363V76.367ZM693.196 82.2842C693.048 82.2842 692.9 82.1363 692.9 81.9884V76.219C692.9 76.071 693.048 75.9232 693.196 75.9232C695.119 75.9232 697.19 76.0711 699.261 76.0711C699.409 76.0711 699.557 76.219 699.557 76.367L699.113 82.1363C699.113 82.2842 698.965 82.4321 698.818 82.4321C696.894 82.4321 695.119 82.4322 693.196 82.2842ZM683.729 76.0711C683.876 76.0711 684.024 76.219 684.024 76.367V82.1363C684.024 82.2842 683.876 82.4321 683.729 82.4321C681.805 82.4321 679.882 82.5801 678.107 82.5801C677.959 82.5801 677.811 82.4322 677.811 82.2842L677.367 76.5149C677.367 76.3669 677.515 76.219 677.663 76.219C679.734 76.219 681.805 76.0711 683.729 76.0711ZM677.959 143.972C677.959 143.824 678.107 143.676 678.255 143.676C680.178 143.824 681.953 143.824 683.876 143.824C684.024 143.824 684.172 143.972 684.172 144.12V149.889C684.172 150.037 684.024 150.185 683.876 150.185C681.953 150.185 679.882 150.037 677.811 150.037C677.663 150.037 677.515 149.889 677.515 149.741L677.959 143.972ZM693.196 150.185C693.048 150.185 692.9 150.037 692.9 149.889V144.12C692.9 143.972 693.048 143.824 693.196 143.824C695.119 143.824 697.042 143.676 698.818 143.676C698.965 143.676 699.113 143.824 699.113 143.972L699.557 149.741C699.557 149.889 699.409 150.037 699.261 150.037C697.19 150.037 695.267 150.037 693.196 150.185ZM687.427 131.398C687.279 131.398 686.983 131.25 686.983 130.954V109.504C686.983 109.356 687.131 109.06 687.427 109.06H690.829C691.125 109.06 691.273 109.208 691.273 109.504V126.664C691.273 126.96 691.421 127.108 691.717 127.108H699.409C699.705 127.108 699.853 127.256 699.853 127.551V130.954C699.853 131.25 699.705 131.398 699.409 131.398H687.427ZM692.752 115.125C692.604 109.208 697.19 104.474 703.108 104.178C703.403 104.178 703.699 104.326 703.699 104.77V108.172C703.699 108.468 703.551 108.616 703.256 108.616C699.705 108.912 697.042 111.871 697.19 115.421C697.338 118.823 700.001 121.486 703.404 121.634C707.102 121.782 710.06 118.971 710.208 115.421C710.208 115.273 710.356 115.125 710.504 115.125H714.203C714.35 115.125 714.498 115.273 714.498 115.421C714.35 121.338 709.469 125.924 703.551 125.924C697.634 125.776 692.9 121.042 692.752 115.125ZM718.788 83.9115C718.936 84.0594 719.232 84.3553 719.38 84.5032C720.12 85.3908 720.859 86.2784 721.451 87.3139C721.599 87.4618 721.451 87.6098 721.451 87.7577L716.569 90.7164C716.421 90.7164 716.274 90.7164 716.274 90.7164C715.83 89.9767 715.386 89.3849 714.794 88.7932C714.646 88.6453 714.498 88.4974 714.35 88.3494L714.203 88.2015C714.203 88.2015 714.055 88.0535 713.907 88.0535C713.611 87.7577 713.315 87.4618 713.019 87.166C712.871 87.166 712.871 87.018 713.019 86.8701L716.717 82.4321C716.865 82.2842 717.013 82.2842 717.161 82.4321C717.605 82.728 718.049 83.1718 718.345 83.6156C718.493 83.7635 718.493 83.7635 718.64 83.9115H718.788ZM724.706 97.2253C724.854 97.8171 724.854 98.2609 724.854 98.8526C724.854 99.2964 725.002 99.8882 725.002 100.332C725.149 101.367 725.15 102.403 725.15 103.439C725.15 103.586 725.002 103.734 724.854 103.734L719.084 103.882C718.936 103.882 718.788 103.734 718.788 103.586C718.788 102.699 718.64 101.663 718.64 100.776C718.64 100.332 718.493 99.8881 718.493 99.4443C718.493 99.0005 718.345 98.5568 718.345 98.113C718.345 97.9651 718.345 97.8171 718.493 97.8171L724.114 96.9295C724.558 97.0774 724.706 97.0774 724.706 97.2253ZM725.15 104.918V121.486H719.084V104.918H725.15ZM724.262 95.746L718.64 96.7816C718.493 96.7816 718.345 96.7816 718.345 96.6337C718.197 96.1899 718.197 95.746 718.049 95.3022L717.901 94.7105L717.753 94.1188C717.457 93.3791 717.161 92.6395 716.865 91.8998C716.865 91.7519 716.865 91.6039 717.013 91.6039L722.191 88.9412C722.339 88.9412 722.487 88.9411 722.487 89.0891C722.93 90.1246 723.374 91.1602 723.818 92.1957L724.114 92.9354L724.262 93.675C724.41 94.2668 724.558 94.7105 724.558 95.3022C724.41 95.5981 724.41 95.5981 724.262 95.746ZM715.386 81.2487L711.984 85.9825C711.836 86.1305 711.836 86.1304 711.688 86.1304C710.356 85.2428 708.877 84.5032 707.25 84.0594C707.102 84.0594 707.102 83.9115 707.102 83.7636L708.729 78.2901C708.729 78.1421 708.877 78.1422 709.025 78.1422C710.06 78.438 711.096 78.8818 712.131 79.3256C713.167 79.7694 714.202 80.3611 715.09 81.1008C715.386 80.9529 715.386 81.1008 715.386 81.2487ZM707.546 77.6983L706.066 83.3198C706.066 83.4677 705.918 83.4677 705.77 83.4677C704.883 83.3198 704.143 83.0239 703.256 83.0239C702.368 82.876 701.48 82.728 700.593 82.728C700.445 82.728 700.297 82.5801 700.445 82.4321L700.889 76.6628C700.889 76.5149 701.037 76.3669 701.185 76.5149C702.22 76.6628 703.256 76.6628 704.291 76.8107C705.327 76.9587 706.362 77.1066 707.398 77.4025C707.398 77.4025 707.546 77.5504 707.546 77.6983ZM700.445 143.528C701.332 143.38 702.22 143.38 703.108 143.232C703.995 143.084 704.883 142.936 705.622 142.788C705.77 142.788 705.918 142.788 705.918 142.936L707.398 148.558C707.398 148.706 707.398 148.854 707.25 148.854C706.214 149.15 705.179 149.297 704.143 149.445C703.108 149.593 702.072 149.741 701.037 149.741C700.889 149.741 700.741 149.593 700.741 149.593L700.297 143.824C700.297 143.676 700.445 143.528 700.445 143.528ZM707.102 142.64C707.102 142.493 707.102 142.345 707.25 142.345C708.877 141.901 710.356 141.161 711.688 140.274C711.836 140.274 711.984 140.274 711.984 140.422L715.386 145.155C715.534 145.303 715.386 145.451 715.238 145.451C714.35 146.043 713.315 146.635 712.279 147.226C711.244 147.67 710.208 148.114 709.173 148.41C709.025 148.41 708.877 148.41 708.877 148.262L707.102 142.64ZM712.871 139.682C712.723 139.534 712.723 139.386 712.871 139.386C713.167 139.09 713.463 138.794 713.759 138.498C713.907 138.498 713.907 138.35 714.055 138.35L714.203 138.203C714.35 138.055 714.498 137.907 714.646 137.759C715.238 137.167 715.682 136.575 716.126 135.836C716.126 135.688 716.274 135.688 716.422 135.836L721.303 138.794C721.451 138.794 721.451 139.09 721.303 139.238C720.712 140.274 719.972 141.161 719.232 142.049C719.084 142.197 718.788 142.493 718.64 142.64L718.345 142.936C718.197 143.084 718.197 143.084 718.049 143.232C717.605 143.676 717.309 143.972 716.865 144.416C716.717 144.564 716.569 144.564 716.422 144.416L712.871 139.682ZM716.865 134.652C716.717 134.652 716.717 134.504 716.717 134.356C717.013 133.617 717.309 132.877 717.605 132.137L717.753 131.546L717.901 130.954C718.049 130.51 718.049 130.066 718.197 129.622C718.197 129.475 718.345 129.474 718.493 129.474L724.114 130.51C724.262 130.51 724.262 130.658 724.262 130.806C724.114 131.398 724.114 131.841 723.966 132.433L723.818 133.173L723.522 133.912C723.226 134.948 722.783 135.984 722.191 137.019C722.191 137.167 721.895 137.167 721.895 137.167L716.865 134.652ZM718.788 128.291C718.64 128.291 718.493 128.143 718.64 127.995C718.64 127.551 718.788 127.108 718.788 126.664C718.788 126.22 718.936 125.776 718.936 125.332C719.084 124.445 719.084 123.409 719.084 122.522C719.084 122.374 719.232 122.226 719.38 122.226L725.15 122.374C725.297 122.374 725.445 122.522 725.445 122.67C725.445 123.705 725.297 124.741 725.297 125.776C725.297 126.22 725.15 126.812 725.15 127.256C725.15 127.847 725.002 128.291 725.002 128.883C725.002 129.031 724.854 129.179 724.706 129.179L718.788 128.291Z" fill="#E9993E"/>
<path d="M657.398 133.183C657.102 132.444 656.806 131.704 656.658 130.964L655.918 131.112C656.066 131.408 656.066 131.704 656.214 131.852L656.362 132.296C656.362 132.444 656.51 132.592 656.51 132.74L655.771 133.035C655.475 132.296 655.179 131.408 655.031 130.521L657.398 129.929C657.694 130.964 657.99 131.852 658.285 132.74L658.877 132.444C658.433 131.408 658.137 130.225 657.842 129.041L654.143 129.929C654.439 131.26 654.883 132.592 655.475 133.923L657.398 133.183Z" fill="#E9993E"/>
<path d="M704.735 143.391L705.179 145.758C704.735 145.906 704.291 145.906 703.995 145.906C703.551 145.906 703.108 146.054 702.812 146.054L702.664 145.166C702.96 145.166 703.255 145.166 703.551 145.018C703.847 145.018 704.143 144.87 704.439 144.87L704.291 144.13C703.847 144.13 703.551 144.278 703.108 144.278C702.664 144.278 702.368 144.426 701.924 144.426L702.22 146.645C703.551 146.497 704.883 146.349 706.214 146.054L705.474 142.355C704.291 142.651 703.108 142.799 701.776 142.947L701.924 143.687C702.664 143.687 703.699 143.539 704.735 143.391Z" fill="#E9993E"/>
<path d="M712.574 143.095C711.835 143.539 711.095 143.835 710.207 144.279L709.911 143.539C710.207 143.391 710.503 143.391 710.651 143.243L711.095 143.095L711.539 142.947L711.243 142.356C710.503 142.651 709.764 143.095 709.024 143.243L709.764 145.314L710.207 145.166L710.651 145.018C710.947 144.87 711.243 144.722 711.687 144.574C712.278 144.279 713.018 143.983 713.61 143.539L711.539 140.284C711.095 140.58 710.503 140.876 710.059 141.172C709.764 141.32 709.468 141.468 709.32 141.468L708.876 141.616L708.432 141.764L708.728 142.503C709.616 142.208 710.503 141.764 711.391 141.32L712.574 143.095Z" fill="#E9993E"/>
<path d="M657.099 97.2366L656.36 97.0886C656.212 98.1241 656.212 99.1597 656.064 100.195L653.697 100.047V99.4555V98.8638C653.697 98.42 653.697 97.9762 653.845 97.6803L654.732 97.8282L654.584 98.7159V99.6034H655.324C655.324 98.8638 655.472 97.9762 655.62 97.2366L653.401 96.9407C653.253 98.2721 653.105 99.6035 653.105 100.935L656.951 101.083C656.803 99.7514 656.951 98.5679 657.099 97.2366Z" fill="#E9993E"/>
<path d="M661.392 86.2893L661.687 85.9934C661.835 85.8455 661.835 85.8455 661.983 85.6975C662.131 85.5496 662.131 85.5497 662.279 85.4018C662.427 85.2538 662.427 85.2538 662.575 85.1059L662.131 84.5141C661.983 84.662 661.835 84.81 661.54 85.1059C661.392 85.2538 661.244 85.4017 661.096 85.6975L660.8 85.9934L660.504 86.2893C660.356 86.4372 660.208 86.7331 660.06 86.8811L658.137 85.4018C658.729 84.6621 659.32 84.0703 659.912 83.4786L660.504 84.0703C660.06 84.5141 659.764 84.81 659.321 85.2538L659.912 85.6975C660.356 85.1058 660.948 84.5141 661.54 84.0703L660.06 82.4431C659.912 82.591 659.764 82.7389 659.616 82.7389C659.468 82.8868 659.32 83.0348 659.173 83.1828C659.025 83.3307 658.877 83.4786 658.729 83.6266L658.433 84.0703C657.989 84.6621 657.545 85.1058 657.102 85.6975L660.208 87.9165C660.652 87.1769 661.096 86.7331 661.392 86.2893Z" fill="#E9993E"/>
<path d="M664.35 79.9285C665.09 79.4847 665.829 79.1888 666.717 78.745L667.013 79.4847C666.717 79.6326 666.421 79.6325 666.273 79.7805L665.829 79.9285L665.385 80.0763L665.681 80.6681C666.421 80.3722 667.161 79.9284 667.9 79.7805L667.161 77.7095L666.717 77.8574L666.125 78.1533C665.829 78.3012 665.533 78.4491 665.09 78.597C664.498 78.8929 663.758 79.1888 663.167 79.6326L665.238 82.8871C665.681 82.5912 666.273 82.2953 666.717 81.9994C667.013 81.8515 667.309 81.7037 667.457 81.7037L667.9 81.5557L668.344 81.4078L668.048 80.6681C667.161 80.964 666.273 81.4078 665.385 81.8516L664.35 79.9285Z" fill="#E9993E"/>
<path d="M694.084 143.392V144.131C695.12 144.131 696.155 144.131 697.191 143.983L697.339 146.35H696.155H694.972V145.463C695.564 145.463 696.008 145.463 696.599 145.463V144.723C696.155 144.723 695.86 144.723 695.416 144.723C694.972 144.723 694.676 144.723 694.232 144.723V146.942C695.564 146.942 696.895 146.942 698.227 146.794L698.079 142.948C696.747 143.392 695.416 143.392 694.084 143.392Z" fill="#E9993E"/>
<path d="M657.692 93.8341C657.988 92.6506 658.284 91.4672 658.728 90.4317L658.136 90.1358C657.692 91.0234 657.396 92.0589 657.248 92.9465L654.881 92.3548C655.029 91.4672 655.325 90.7276 655.621 89.84L656.361 90.1358C656.361 90.2837 656.213 90.4317 656.213 90.5796L656.065 91.0234C655.917 91.3193 655.917 91.6152 655.769 91.7631L656.509 91.911C656.657 91.1713 656.953 90.4317 657.248 89.692L655.177 88.8044C654.586 90.1358 654.142 91.4672 653.846 92.7986L657.692 93.8341Z" fill="#E9993E"/>
<path d="M655.621 125.935C655.473 125.196 655.473 124.308 655.325 123.568H654.586V124.456L654.733 125.344L653.846 125.492C653.846 125.048 653.698 124.604 653.698 124.308V123.716V123.125L656.065 122.977C656.065 124.012 656.213 125.048 656.361 126.083L657.1 125.935C656.952 124.752 656.805 123.421 656.805 122.237L652.958 122.385C652.958 123.716 653.106 125.048 653.254 126.379L655.621 125.935Z" fill="#E9993E"/>
<path d="M658.876 139.692C659.024 139.84 659.172 139.988 659.32 140.136C659.468 140.284 659.616 140.432 659.763 140.58C659.911 140.728 660.059 140.876 660.207 140.876L661.687 139.249C661.095 138.657 660.503 138.213 660.059 137.621L659.468 138.065C659.763 138.509 660.207 138.953 660.651 139.249L660.059 139.84C659.468 139.249 658.876 138.657 658.284 137.917L660.207 136.438C660.355 136.586 660.503 136.882 660.651 137.03L660.947 137.325L661.243 137.621C661.391 137.769 661.539 137.917 661.687 138.213C661.834 138.361 661.982 138.509 662.278 138.805L662.722 138.213C662.574 138.065 662.574 138.065 662.426 137.917C662.278 137.769 662.278 137.769 662.13 137.621C661.982 137.473 661.982 137.473 661.834 137.325L661.539 137.03C661.095 136.586 660.799 136.142 660.503 135.698L657.396 137.917C657.84 138.509 658.284 139.101 658.728 139.544L658.876 139.692Z" fill="#E9993E"/>
<path d="M666.125 144.722L666.569 144.87L667.013 145.018L667.752 142.947C667.013 142.651 666.273 142.355 665.533 142.06L665.238 142.651L665.681 142.799L666.125 142.947C666.421 143.095 666.569 143.243 666.865 143.243L666.569 143.983C665.829 143.687 664.942 143.243 664.202 142.799L665.385 140.728C666.273 141.172 667.161 141.616 668.048 141.912L668.344 141.172L667.9 141.024L667.457 140.876C667.161 140.728 666.865 140.58 666.717 140.58C666.125 140.284 665.681 139.988 665.238 139.693L663.167 142.947C663.758 143.391 664.35 143.687 665.09 143.983C665.533 144.426 665.829 144.574 666.125 144.722Z" fill="#E9993E"/>
<path d="M675.296 144.575C674.852 144.575 674.557 144.427 674.113 144.427C673.669 144.427 673.373 144.279 672.929 144.279L672.781 145.018C673.077 145.018 673.373 145.166 673.669 145.166C673.965 145.166 674.261 145.314 674.557 145.314L674.409 146.202C673.965 146.202 673.521 146.054 673.225 146.054C672.781 146.054 672.338 145.906 672.042 145.906L672.485 143.539C673.521 143.687 674.557 143.835 675.592 143.983L675.74 143.243C674.557 143.095 673.225 142.947 672.042 142.651L671.302 146.35C672.633 146.646 673.965 146.793 675.296 146.941V144.575Z" fill="#E9993E"/>
<path d="M690.385 143.539C689.053 143.539 687.87 143.539 686.538 143.539V144.279H689.645V146.646H687.13V145.758H688.757V145.019H686.39V147.238C687.722 147.238 689.053 147.238 690.237 147.238L690.385 143.539Z" fill="#E9993E"/>
<path d="M682.84 145.019C682.396 145.019 682.1 145.019 681.656 145.019C681.213 145.019 680.917 145.019 680.473 145.019V145.758C681.065 145.758 681.508 145.758 682.1 145.758V146.646H680.917H679.733L679.881 144.279C680.917 144.279 681.952 144.427 682.988 144.427V143.687C681.656 143.687 680.473 143.687 679.142 143.539L678.994 147.386C680.325 147.386 681.656 147.533 682.988 147.533L682.84 145.019Z" fill="#E9993E"/>
<path d="M719.823 125.639L720.562 125.787C720.71 124.751 720.71 123.716 720.858 122.68L723.225 122.828V123.42V124.012C723.225 124.456 723.225 124.899 723.077 125.195L722.189 125.047L722.337 124.16V123.272H721.598C721.598 124.012 721.45 124.899 721.45 125.639L723.669 125.935C723.817 124.603 723.965 123.272 723.965 121.941L720.118 121.793C720.118 123.272 719.97 124.455 719.823 125.639Z" fill="#E9993E"/>
<path d="M675.444 79.9286L675.296 79.1889C674.26 79.3368 673.225 79.4848 672.189 79.6327L671.746 77.2658C672.189 77.1179 672.633 77.1178 672.929 77.1178C673.373 77.1178 673.817 76.9699 674.112 76.9699L674.26 77.8575C673.965 77.8575 673.669 77.8575 673.373 78.0055C673.077 78.0055 672.781 78.1534 672.485 78.1534L672.633 78.893C673.077 78.893 673.373 78.7451 673.817 78.7451C674.26 78.7451 674.556 78.5972 675 78.5972L674.704 76.3782C673.373 76.5261 672.041 76.6741 670.71 76.9699L671.45 80.6682C672.929 80.2244 674.26 80.0765 675.444 79.9286Z" fill="#E9993E"/>
<path d="M701.774 78.4488C702.218 78.4488 702.514 78.5966 702.957 78.5966C703.401 78.5966 703.697 78.7446 704.141 78.7446L704.289 78.005C703.993 78.005 703.697 77.857 703.401 77.857C703.105 77.857 702.809 77.7091 702.514 77.7091L702.662 76.8214C703.105 76.8214 703.549 76.9694 703.845 76.9694C704.289 76.9694 704.733 77.1173 705.028 77.1173L704.585 79.4843C703.549 79.3364 702.514 79.1884 701.478 79.0404L701.33 79.7801C702.514 79.928 703.845 80.076 705.028 80.3719L705.768 76.6736C704.437 76.3777 703.105 76.2297 701.774 76.0818V78.4488Z" fill="#E9993E"/>
<path d="M710.799 78.1535L710.355 78.0057L709.911 77.8577L709.172 79.9287C709.911 80.2246 710.651 80.5204 711.391 80.8163L711.687 80.2246L711.243 80.0766L710.799 79.9287C710.503 79.7808 710.355 79.6329 710.059 79.6329L710.355 78.8932C711.095 79.1891 711.982 79.6328 712.722 80.0766L711.539 82.1477C710.651 81.7039 709.764 81.2602 708.876 80.9643L708.58 81.704L709.024 81.8518L709.468 81.9997C709.763 82.1477 710.059 82.2956 710.207 82.2956C710.799 82.5915 711.243 82.8874 711.687 83.1833L713.758 79.9287C713.166 79.485 712.574 79.1891 711.835 78.8932C711.539 78.4494 711.095 78.3015 710.799 78.1535Z" fill="#E9993E"/>
<path d="M717.753 82.8871C717.605 82.7392 717.457 82.5913 717.309 82.4433C717.161 82.2954 717.013 82.1475 716.865 82.1475L715.386 83.7747C715.977 84.3664 716.569 84.8103 717.013 85.402L717.605 84.9581C717.309 84.5143 716.865 84.0705 716.421 83.7747L717.013 83.183C717.605 83.7747 718.196 84.3664 718.788 85.1061L716.865 86.5854C716.717 86.4375 716.569 86.1416 716.421 85.9937L716.125 85.6978L715.829 85.402C715.681 85.2541 715.534 85.1061 715.386 84.8102C715.238 84.6623 715.09 84.5143 714.794 84.2185L714.35 84.8102C714.498 84.9582 714.498 84.9582 714.646 85.1061C714.794 85.254 714.794 85.2541 714.942 85.402C715.09 85.5499 715.09 85.5498 715.238 85.6978L715.534 85.9937C715.977 86.4375 716.273 86.8813 716.569 87.3251L719.676 85.1061C719.232 84.5144 718.788 83.9226 718.344 83.4788L718.048 83.035C717.9 83.1829 717.753 83.0351 717.753 82.8871Z" fill="#E9993E"/>
<path d="M719.675 89.8393C719.971 90.5789 720.267 91.3186 720.415 92.0582L721.155 91.9103C721.007 91.6144 721.007 91.3185 720.859 91.1706L720.711 90.7268C720.711 90.5789 720.563 90.431 720.563 90.283L721.303 89.9872C721.598 90.7268 721.894 91.6144 722.042 92.502L719.675 93.0937C719.38 92.0582 719.084 91.1706 718.788 90.283L718.196 90.5789C718.64 91.6145 718.936 92.7979 719.232 93.9813L722.93 93.0937C722.634 91.7623 722.19 90.431 721.598 89.0996L719.675 89.8393Z" fill="#E9993E"/>
<path d="M721.45 97.0886C721.598 97.8282 721.598 98.7159 721.598 99.4555H722.337V98.5679L722.189 97.6803L723.077 97.5323C723.077 97.9761 723.225 98.42 723.225 98.7159V99.3075V99.8993L720.858 100.343C720.858 99.3076 720.71 98.2721 720.562 97.2366L719.823 97.3845C719.97 98.5679 720.118 99.8993 720.118 101.083L723.965 100.935C723.965 99.6035 723.817 98.2721 723.669 96.9407L721.45 97.0886Z" fill="#E9993E"/>
<path d="M717.011 137.474C716.568 138.066 715.976 138.658 715.384 139.101L716.863 140.729C717.011 140.581 717.159 140.433 717.307 140.433C717.455 140.285 717.603 140.137 717.751 139.989C717.899 139.841 718.047 139.693 718.195 139.545L718.491 139.101C718.935 138.51 719.378 138.066 719.822 137.474L716.716 135.255C716.42 135.699 715.976 136.143 715.68 136.587L715.384 136.882C715.236 137.03 715.236 137.03 715.088 137.178C714.94 137.326 714.94 137.326 714.792 137.474C714.645 137.622 714.645 137.622 714.497 137.77L714.94 138.362C715.088 138.214 715.236 138.066 715.532 137.77C715.68 137.622 715.828 137.474 715.976 137.178L716.272 136.882L716.568 136.587C716.716 136.439 716.864 136.143 717.011 135.995L718.935 137.474C718.343 138.214 717.751 138.806 717.159 139.397L716.568 138.806C717.011 138.362 717.307 138.066 717.751 137.622L717.011 137.474Z" fill="#E9993E"/>
<path d="M682.841 79.4845V78.7448C681.805 78.7448 680.77 78.7448 679.734 78.8927L679.586 76.5258H680.77H681.953V77.4134C681.362 77.4134 680.918 77.4134 680.326 77.4134V78.1531C680.77 78.1531 681.066 78.1531 681.509 78.1531C681.953 78.1531 682.249 78.1531 682.693 78.1531V75.9341C681.362 75.9341 680.03 75.934 678.699 76.082L678.847 79.9283C680.326 79.6324 681.657 79.6324 682.841 79.4845Z" fill="#E9993E"/>
<path d="M694.082 78.0051C694.525 78.0051 694.821 78.0051 695.265 78.0051C695.709 78.0051 696.005 78.0051 696.448 78.0051V77.2654C695.857 77.2654 695.413 77.2654 694.821 77.2654V76.3778H696.005H697.188L697.04 78.7448C696.005 78.7448 694.969 78.5968 693.934 78.5968V79.3364C695.265 79.3364 696.448 79.3365 697.78 79.4844L697.928 75.6381C696.596 75.6381 695.265 75.4902 693.934 75.4902L694.082 78.0051Z" fill="#E9993E"/>
<path d="M719.378 129.189C719.082 130.373 718.786 131.556 718.343 132.592L718.934 132.888C719.378 132 719.674 130.965 719.822 130.077L722.189 130.669C722.041 131.556 721.745 132.296 721.449 133.184L720.709 132.888C720.709 132.74 720.857 132.592 720.857 132.444L721.005 132C721.153 131.704 721.153 131.408 721.301 131.261L720.562 131.113C720.414 131.852 720.118 132.592 719.822 133.332L721.893 134.219C722.485 132.888 722.928 131.556 723.224 130.225L719.378 129.189Z" fill="#E9993E"/>
<path d="M690.386 79.4844V78.7448H687.28V76.3778H689.795V77.2655H688.167V78.0051H690.534V75.7861C689.203 75.7861 687.871 75.7861 686.688 75.7861V79.6323C687.871 79.4844 689.203 79.4844 690.386 79.4844Z" fill="#E9993E"/>
<path d="M620.742 128C620.371 128 620 127.901 620 127.802V99.1979C620 99.099 620.371 99 620.742 99C621.113 99 621.484 99.099 621.484 99.1979V127.753C621.484 127.901 621.113 128 620.742 128Z" fill="#E9993E"/>
<path d="M564.042 88.9985C567.881 107.535 571.68 126.03 575.52 144.566C571.102 144.566 566.767 144.566 562.349 144.566C561.771 141.853 561.234 139.097 560.656 136.3C560.491 136.3 560.367 136.258 560.243 136.258C554.422 136.258 548.641 136.258 542.82 136.258C542.407 136.258 542.407 136.258 542.242 136.676C541.375 139.097 540.508 141.519 539.64 143.898C539.599 144.024 539.517 144.149 539.517 144.316C539.475 144.524 539.351 144.608 539.145 144.608C539.021 144.608 538.897 144.608 538.773 144.608C534.232 144.608 529.69 144.608 525.19 144.608C524.983 144.608 524.777 144.608 524.529 144.608C524.612 144.399 524.653 144.232 524.735 144.065C527.873 136.509 531.011 128.952 534.149 121.354C537.535 113.213 540.92 105.072 544.265 96.9308C544.719 95.8036 545.214 94.6764 545.669 93.5492C546.04 92.6724 546.536 91.8375 547.196 91.1277C548.311 89.917 549.756 89.3325 551.325 89.1655C551.903 89.082 552.522 89.0403 553.1 89.0403C556.569 89.0403 560.037 89.0403 563.505 89.0403C563.629 88.9985 563.794 88.9985 564.042 88.9985ZM554.009 104.237C553.967 104.362 553.926 104.446 553.885 104.529C552.233 109.121 550.582 113.714 548.889 118.306C548.187 120.31 547.444 122.272 546.701 124.276C546.618 124.443 546.577 124.652 546.536 124.861C550.458 124.861 554.339 124.861 558.179 124.861C558.22 124.485 554.215 104.821 554.009 104.237Z" fill="#E9993E"/>
<path d="M427.539 144.483C427.415 144.107 427.333 143.731 427.25 143.356C425.268 135.757 423.245 128.117 421.263 120.519C419.199 112.67 417.135 104.78 415.07 96.9308C415.07 96.8891 415.029 96.8056 415.029 96.7638C414.988 96.3463 414.74 96.0958 414.41 95.9288C410.033 93.4239 405.409 91.587 400.578 90.2927C400.454 90.251 400.289 90.2093 400.165 90.1675C400.124 90.1675 400.083 90.1258 400.041 90.084C400.041 90.0423 400 90.0005 400 90.0005C400.206 88.8315 400.124 89.0403 401.073 89.0403C408.258 89.0403 415.4 89.0403 422.585 89.0403C423.493 89.0403 424.36 89.1238 425.227 89.3325C427.415 89.8335 428.819 91.1695 429.397 93.3822C429.686 94.5511 429.893 95.8036 430.14 96.9726C431.214 102.358 432.246 107.744 433.278 113.129C433.608 114.841 433.939 116.595 434.269 118.306C434.806 120.978 435.343 123.692 435.879 126.364C435.879 126.447 435.921 126.531 435.962 126.739C436.044 126.489 436.127 126.364 436.168 126.197C437.613 122.231 439.1 118.264 440.545 114.298C443.6 106.032 446.614 97.7658 449.67 89.4995C449.711 89.416 449.752 89.2908 449.793 89.2073C449.835 89.0403 449.959 88.9985 450.124 88.9985C450.248 88.9985 450.371 88.9985 450.495 88.9985C455.078 88.9985 459.703 88.9985 464.285 88.9985C464.451 88.9985 464.657 88.9985 464.905 88.9985C464.822 89.2073 464.781 89.3743 464.74 89.5413C462.758 94.4676 460.776 99.3522 458.794 104.279C455.698 112.002 452.56 119.726 449.463 127.407C447.234 132.96 445.004 138.471 442.774 144.024C442.568 144.483 442.568 144.483 442.114 144.483C437.407 144.483 432.7 144.483 427.993 144.483C427.869 144.524 427.704 144.524 427.539 144.483Z" fill="#E9993E"/>
<path d="M484.885 142.521C485.546 138.304 486.206 134.213 486.867 130.038C487.074 130.121 487.239 130.205 487.404 130.246C489.055 131.04 490.707 131.791 492.441 132.376C494.712 133.169 497.024 133.628 499.419 133.753C500.368 133.795 501.359 133.837 502.309 133.837C503.96 133.837 505.571 133.545 507.098 132.877C507.883 132.543 508.585 132.125 509.204 131.499C510.03 130.706 510.525 129.704 510.608 128.535C510.649 127.575 510.36 126.698 509.782 125.946C509.328 125.32 508.791 124.819 508.172 124.36C506.727 123.274 505.116 122.398 503.506 121.604C501.442 120.602 499.419 119.475 497.561 118.139C496.116 117.096 494.794 115.927 493.68 114.549C492.152 112.67 491.161 110.583 490.872 108.161C490.624 105.99 490.831 103.903 491.45 101.816C492.482 98.3086 494.547 95.5114 497.396 93.257C499.914 91.253 502.804 89.9588 505.901 89.1239C508.254 88.4976 510.649 88.1636 513.085 88.0384C516.801 87.8714 520.476 88.2471 524.109 89.2074C525.1 89.4578 526.091 89.8336 527.082 90.1676C527.247 90.2093 527.412 90.2928 527.577 90.3763C526.916 94.3842 526.297 98.3504 525.637 102.358C525.306 102.233 525.1 102.108 524.852 102.024C522.705 101.022 520.434 100.271 518.081 99.9368C516.718 99.7281 515.356 99.6446 513.993 99.6863C512.837 99.6863 511.64 99.7281 510.525 100.02C509.452 100.271 508.419 100.647 507.511 101.273C506.892 101.69 506.396 102.191 506.066 102.817C505.405 104.028 505.405 105.239 506.231 106.366C506.561 106.825 507.016 107.285 507.47 107.66C508.502 108.537 509.658 109.205 510.855 109.831C512.342 110.625 513.869 111.376 515.397 112.211C517.42 113.296 519.319 114.549 521.012 116.135C522.746 117.764 524.15 119.684 524.935 121.98C525.554 123.775 525.719 125.654 525.595 127.575C525.471 129.453 525.1 131.29 524.398 133.044C523.077 136.342 520.888 138.888 518.04 140.892C515.645 142.521 513.044 143.648 510.236 144.358C508.337 144.859 506.438 145.151 504.497 145.318C502.391 145.527 500.286 145.527 498.18 145.36C494.505 145.109 490.872 144.525 487.363 143.397C486.454 143.105 485.711 142.813 484.885 142.521Z" fill="#E9993E"/>
<path d="M484.889 89.0825C481.917 107.577 478.985 126.072 476.012 144.525C475.476 144.65 462.181 144.608 461.768 144.483C464.741 126.03 467.672 107.535 470.645 89.0825C471.058 88.999 484.353 88.9572 484.889 89.0825Z" fill="#E9993E"/>
<path d="M575.445 89.6651V88H584.742V89.6651H581.321V99.8013H578.885V89.6651H575.445Z" fill="#E9993E"/>
<path d="M595.304 88H598.707L599.048 99.8013H596.648L596.451 90.7159L593.531 98.3948H591.417L588.784 90.9746L588.605 99.8013H586.204L586.527 88H589.948L592.51 95.4526L595.304 88Z" fill="#E9993E"/>
<path d="M383.742 127.66C383.371 127.66 383 127.562 383 127.464V99.1956C383 99.0978 383.371 99 383.742 99C384.113 99 384.484 99.0978 384.484 99.1956V127.415C384.484 127.562 384.113 127.66 383.742 127.66Z" fill="#E9993E"/>
<path d="M192.291 134.562V88.3901H150.755V99.8867H180.795V112.496C177.272 108.973 172.821 106.748 164.848 106.748C150.755 106.748 144.265 115.648 144.265 126.403C144.265 136.973 150.755 146.059 164.848 146.059C172.821 146.059 177.457 143.833 180.795 140.31V146.059H199.152V134.562H192.291ZM168.186 134.562C159.841 134.562 155.576 132.893 155.576 126.589C155.576 120.284 159.656 118.615 168.186 118.615C176.53 118.615 180.795 120.284 180.795 126.589C180.795 132.893 176.53 134.562 168.186 134.562Z" fill="#E9993E"/>
<path d="M226.78 88.3901C241.8 88.3901 250.701 97.6616 250.701 110.271H239.204C238.833 104.337 236.237 99.8867 227.337 99.8867C216.582 99.8867 212.502 103.41 212.502 117.132C212.502 131.039 216.582 134.377 227.337 134.377C236.237 134.377 238.833 129.926 239.204 123.992H250.701C250.701 136.602 241.8 145.873 226.78 145.873C209.906 145.873 201.006 134.006 201.006 117.132C200.82 100.258 209.721 88.3901 226.78 88.3901Z" fill="#E9993E"/>
<path d="M285.56 88.3905C277.587 88.3905 271.839 91.5427 268.316 95.2513V72.9998H257.004V146.059H268.501V139.198C272.024 143.092 277.587 146.059 285.746 146.059C304.474 146.059 310.964 134.191 310.964 117.317C310.779 100.258 304.289 88.3905 285.56 88.3905ZM283.892 134.562C272.58 134.562 268.501 131.039 268.501 117.317C268.501 103.41 272.58 100.072 283.892 100.072C295.203 100.072 299.282 103.596 299.282 117.317C299.282 131.039 295.203 134.562 283.892 134.562Z" fill="#E9993E"/>
<path d="M352.499 73.1855H326.539V84.6822H352.499V73.1855Z" fill="#E9993E"/>
<path d="M129.986 114.536L109.218 109.529C107.364 108.973 106.807 108.602 106.807 106.933V101.926C106.807 99.5159 108.476 98.2179 111.629 98.2179H122.013C126.463 98.2179 126.834 100.628 126.834 102.297V106.933H138.33V103.039C138.33 93.5821 132.767 88.3901 122.569 88.3901H111.072C100.688 88.3901 94.9399 93.3967 94.9399 102.297V107.86C94.9399 113.609 97.9067 117.317 103.84 118.8L124.979 123.992C126.834 124.549 127.39 125.29 127.39 126.774V132.337C127.39 134.191 126.834 136.231 122.569 136.231H110.887C106.436 136.231 106.066 133.82 106.066 132.151V126.589H94.3835V131.41C94.3835 140.681 100.132 146.059 110.33 146.059H123.125C133.695 146.059 139.257 141.237 139.257 132.151V125.29C139.443 119.728 136.105 116.019 129.986 114.536Z" fill="#E9993E"/>
<path d="M361.772 120.84V104.522C361.772 94.1384 356.024 88.3901 345.825 88.3901H333.031C322.647 88.3901 316.898 94.1384 316.898 104.522V129.926C316.898 140.31 322.647 146.059 333.031 146.059H345.825C356.024 146.059 361.772 140.496 361.772 130.297V126.589H350.09V131.039C350.09 134.377 348.607 135.86 345.083 135.86H333.587C330.249 135.86 328.58 134.191 328.58 131.039V120.655H361.772V120.84ZM328.951 103.224C328.951 99.8868 330.62 98.4032 333.958 98.4032H345.454C348.792 98.4032 350.461 99.8868 350.461 103.224V111.012H329.137V103.224H328.951Z" fill="#E9993E"/>
<path d="M76.3969 131.225C65.0857 129.556 52.1057 126.589 38.5693 121.768C43.9468 132.152 49.6951 141.98 55.8142 151.066C51.7348 152.92 47.4699 154.033 42.8342 154.403C36.9004 145.317 31.523 135.861 26.331 125.662C23.5495 134.006 21.8807 142.165 20.7681 150.139C16.3178 147.913 12.4238 144.947 9.27146 141.423C10.9403 132.152 13.5363 122.695 17.4303 112.867C11.4966 109.9 5.74831 106.563 0 102.854C1.11258 98.5893 2.96686 94.6953 5.37744 91.1722C7.97345 92.841 10.5695 94.5098 13.1655 96.1787C11.8675 92.8409 10.5695 89.5033 9.27146 86.1655C12.2383 82.8278 15.7615 80.0463 19.841 78.0066C21.8807 83.5695 23.9204 89.1324 26.1455 94.5099C29.8541 87.4636 34.3044 80.2317 39.6819 73C40.2381 73 40.609 73 41.1653 73C45.6156 73.1854 49.695 74.1127 53.5891 75.4107C48.397 82.457 43.7613 89.3178 39.8673 95.9933L66.7545 83.1986C70.0923 86.1655 72.8737 89.5033 74.9134 93.2118L41.5361 109.159C55.4433 114.165 68.7943 117.132 80.1055 118.801C79.3638 123.251 78.2512 127.516 76.3969 131.225Z" fill="#E9993E"/>
<path d="M265.543 16.5028C265.543 17.6154 265.357 18.7279 265.172 19.8405C264.987 20.9531 264.43 22.0657 263.689 23.1783C262.947 24.1054 262.02 25.0325 260.907 25.7742C259.609 26.516 258.126 26.7014 256.271 26.7014C254.417 26.7014 252.748 26.3305 251.636 25.7742C250.523 25.218 249.411 24.2909 248.854 23.1783C248.298 22.0657 247.742 21.1385 247.371 19.8405C247.185 18.7279 247 17.6154 247 16.5028V0.555908H249.596V16.3174C249.596 17.6154 249.781 18.5426 249.967 19.4697C250.152 20.3969 250.523 21.1385 250.894 21.6948C251.265 22.2511 251.821 22.8074 252.192 23.1783C252.748 23.5492 253.119 23.7345 253.675 23.92C254.232 24.1054 254.603 24.2908 255.159 24.2908C255.53 24.2908 256.086 24.2908 256.271 24.2908C256.642 24.2908 257.013 24.2908 257.384 24.2908C257.94 24.2908 258.311 24.1054 258.867 23.92C259.424 23.7345 259.795 23.5492 260.351 23.1783C260.907 22.8074 261.278 22.4365 261.649 21.6948C262.02 21.1385 262.391 20.3969 262.576 19.4697C262.761 18.5426 262.947 17.6154 262.947 16.3174V0.555908H265.543V16.5028Z" fill="#E9993E"/>
<path d="M303.556 22.2512V0.555908H306.152V26.1451H302.814L287.609 4.26449V26.1451H285.013V0.555908H288.351L303.556 22.2512Z" fill="#E9993E"/>
<path d="M349.171 0.555908H356.588C359.184 0.555908 361.224 1.11213 362.707 2.2247C364.191 3.33728 364.932 5.00623 364.932 7.41681C364.932 9.82739 364.191 11.4962 362.707 12.6088C361.224 13.7214 359.184 14.2776 356.588 14.2776H351.767V26.1451H349.171V0.555908ZM351.767 11.867H356.032C357.144 11.867 358.257 11.6816 358.999 11.4962C359.74 11.3107 360.482 10.9399 360.853 10.569C361.224 10.1982 361.595 9.6419 361.966 9.08561C362.151 8.52932 362.336 7.9731 362.336 7.41681C362.336 6.86053 362.151 6.30419 361.966 5.74791C361.78 5.19162 361.409 4.82078 360.853 4.26449C360.297 3.89364 359.74 3.52278 358.999 3.33735C358.257 3.15192 357.144 2.96647 356.032 2.96647H351.767V11.867Z" fill="#E9993E"/>
<path d="M385.517 26.1451H382.921V0.555908H390.709C393.305 0.555908 395.345 1.11213 396.828 2.2247C398.312 3.33728 399.054 5.00623 399.054 7.41681C399.054 9.27111 398.497 10.7545 397.385 11.867C396.272 13.1651 394.603 13.7214 392.563 13.9068L399.981 25.9597H396.828L389.782 14.0922H385.517V26.1451ZM385.517 11.867H390.153C391.265 11.867 392.378 11.6816 393.12 11.4962C393.861 11.3107 394.603 10.9399 394.974 10.569C395.345 10.1982 395.716 9.6419 396.087 9.08561C396.272 8.52932 396.458 7.9731 396.458 7.41681C396.458 6.86053 396.272 6.30419 396.087 5.74791C395.901 5.19162 395.53 4.82078 394.974 4.26449C394.418 3.89364 393.861 3.52278 393.12 3.33735C392.378 3.15192 391.265 2.96647 390.153 2.96647H385.517V11.867Z" fill="#E9993E"/>
<path d="M442.258 13.3508C442.258 15.3905 441.887 17.0594 441.331 18.7283C440.774 20.3972 439.662 21.6952 438.549 22.9932C437.437 24.1057 435.953 25.0329 434.284 25.7746C432.615 26.5163 430.947 26.7017 428.907 26.7017C426.867 26.7017 425.198 26.3309 423.529 25.7746C421.86 25.0329 420.562 24.1057 419.264 22.9932C418.152 21.8806 417.225 20.3972 416.483 18.7283C415.741 17.0594 415.556 15.2051 415.556 13.3508C415.556 11.3111 415.927 9.6423 416.483 7.97344C417.225 6.30457 418.152 5.00659 419.264 3.70859C420.377 2.59601 421.86 1.66886 423.529 0.927146C425.198 0.185429 426.867 0 428.907 0C430.947 0 432.615 0.370859 434.284 0.927146C435.953 1.66886 437.251 2.59601 438.549 3.70859C439.662 4.82116 440.589 6.30457 441.331 7.97344C441.887 9.6423 442.258 11.3111 442.258 13.3508ZM439.476 13.3508C439.476 11.8674 439.291 10.5694 438.735 9.08597C438.178 7.78796 437.622 6.49002 436.695 5.56288C435.768 4.63573 434.655 3.70849 433.357 3.15221C432.059 2.59592 430.576 2.22506 428.907 2.22506C427.238 2.22506 425.754 2.59592 424.456 3.15221C423.158 3.70849 422.046 4.63573 421.119 5.56288C420.192 6.49002 419.45 7.78796 419.079 9.08597C418.708 10.384 418.337 11.8674 418.337 13.3508C418.337 14.8343 418.523 16.1323 419.079 17.6158C419.635 18.9138 420.192 20.2117 421.119 21.1389C422.046 22.066 423.158 22.9931 424.456 23.5494C425.754 24.1057 427.238 24.4766 428.907 24.4766C430.576 24.4766 432.059 24.1057 433.357 23.5494C434.655 22.9931 435.768 22.066 436.695 21.1389C437.622 20.2117 438.364 18.9138 438.735 17.6158C439.291 16.1323 439.476 14.8343 439.476 13.3508Z" fill="#E9993E"/>
<path d="M479.342 5.19216C478.415 4.26501 477.488 3.52327 476.19 2.96699C475.077 2.4107 473.594 2.22522 471.925 2.22522C470.256 2.22522 468.773 2.59608 467.475 3.15237C466.177 3.70866 465.064 4.6359 464.137 5.56304C463.21 6.49019 462.468 7.78813 462.097 9.08613C461.726 10.3841 461.355 11.8675 461.355 13.351C461.355 14.8344 461.541 16.1325 462.097 17.6159C462.653 18.9139 463.21 20.2119 464.137 21.139C465.064 22.0662 466.177 22.9933 467.475 23.5496C468.773 24.1059 470.256 24.4767 471.925 24.4767C473.223 24.4767 474.521 24.2913 475.819 23.9205C477.117 23.5496 478.044 23.1787 479.157 22.6224V14.0927H473.037V11.6822H481.753V24.2914C480.269 25.2185 478.786 25.7748 476.931 26.1456C475.077 26.5165 473.594 26.8874 471.925 26.8874C470.071 26.8874 468.216 26.5166 466.547 25.9603C464.879 25.2185 463.581 24.2914 462.283 23.1788C461.17 22.0662 460.243 20.5827 459.501 18.9139C458.759 17.245 458.574 15.3908 458.574 13.5365C458.574 11.4968 458.945 9.82785 459.501 8.15898C460.243 6.49012 461.17 5.19214 462.283 3.89413C463.395 2.78156 464.879 1.85441 466.547 1.11269C468.216 0.370976 469.885 0.185547 471.925 0.185547C473.965 0.185547 475.819 0.556405 477.302 1.11269C478.786 1.66898 480.084 2.59617 481.196 3.70875L479.342 5.19216Z" fill="#E9993E"/>
<path d="M504.192 26.1451H501.596V0.555908H509.384C511.98 0.555908 514.02 1.11213 515.503 2.2247C516.987 3.33728 517.728 5.00623 517.728 7.41681C517.728 9.27111 517.172 10.7545 516.059 11.867C514.947 13.1651 513.278 13.7214 511.238 13.9068L518.655 25.9597H515.503L508.457 14.0922H504.192V26.1451ZM504.192 11.867H508.828C509.94 11.867 511.053 11.6816 511.795 11.4962C512.536 11.3107 513.278 10.9399 513.649 10.569C514.02 10.1982 514.391 9.6419 514.761 9.08561C514.947 8.52932 515.132 7.9731 515.132 7.41681C515.132 6.86053 514.947 6.30419 514.761 5.74791C514.576 5.19162 514.205 4.82078 513.649 4.26449C513.093 3.89364 512.536 3.52278 511.795 3.33735C511.053 3.15192 509.94 2.96647 508.828 2.96647H504.192V11.867Z" fill="#E9993E"/>
<path d="M535.528 26.1451H532.561L543.687 0.555908H546.283L557.409 26.1451H554.442L551.66 19.4697H538.495L535.528 26.1451ZM539.422 17.059H550.548L544.985 3.70823L539.422 17.059Z" fill="#E9993E"/>
<path d="M586.337 21.324L595.052 0.555908H598.946V26.1451H596.35V4.079L587.079 26.1451H585.781L576.509 4.079V26.1451H573.913V0.555908H577.807L586.337 21.324Z" fill="#E9993E"/>
<path d="M618.602 26.1451H615.635L626.761 0.555908H629.356L640.482 26.1451H637.515L634.734 19.4697H621.383L618.602 26.1451ZM622.31 17.059H633.436L627.873 3.70823L622.31 17.059Z" fill="#E9993E"/>
<path d="M679.42 0.555908H687.949C689.618 0.555908 691.102 0.74127 692.771 1.29756C694.439 1.85385 695.737 2.59565 697.035 3.70823C698.333 4.8208 699.446 6.11872 700.188 7.78758C700.929 9.45645 701.3 11.3107 701.3 13.3505C701.3 15.5756 700.929 17.4299 700.188 18.9133C699.446 20.5822 698.333 21.8802 697.035 22.9928C695.737 24.1054 694.254 24.8471 692.771 25.4034C691.102 25.9597 689.618 26.1451 687.949 26.1451H679.42V0.555908ZM682.016 23.7346H687.022C689.062 23.7346 690.731 23.3637 692.029 22.8074C693.512 22.2511 694.625 21.5094 695.552 20.3969C696.479 19.4697 697.221 18.357 697.592 17.059C697.963 15.761 698.333 14.4631 698.333 13.1651C698.333 11.8671 698.148 10.5691 697.592 9.27111C697.221 7.9731 696.479 6.86044 695.552 5.93329C694.625 5.00614 693.327 4.26445 692.029 3.52273C690.545 2.96644 688.877 2.59558 687.022 2.59558H682.016V23.7346Z" fill="#E9993E"/>
<path d="M722.256 23.7346H735.978V26.1451H719.66V0.555908H735.607V2.96647H722.441V11.6817H734.865V14.0922H722.441V23.7346H722.256Z" fill="#E9993E"/>
</svg>
