<svg width="40" height="40" viewBox="0 0 40 40" fill="none" xmlns="http://www.w3.org/2000/svg">
<circle cx="20" cy="20" r="20" fill="#FFF6D2"/>
<path d="M23.9939 29.0421C22.8237 29.0421 21.7203 28.7412 20.6839 28.3066C19.4468 27.7716 18.31 27.0361 17.2735 26.1668C15.9027 25.0634 14.6991 23.8263 13.6626 22.3886C12.927 21.3856 12.3586 20.3157 12.0243 19.112C11.5228 17.2397 11.8571 15.5345 12.8936 13.9297C13.2948 13.2944 13.7963 12.6926 14.3647 12.1576C14.6322 11.8902 15.0668 11.8902 15.3343 12.1576C16.2371 13.0604 17.1732 13.9965 18.076 14.8993C18.3769 15.2002 18.3434 15.6014 18.0425 15.9023C17.307 16.6379 16.5714 17.3734 15.8358 18.1424C15.6018 18.3765 15.5684 18.644 15.8358 18.878C17.9757 21.0178 20.1155 23.1576 22.2553 25.2975C22.5228 25.5649 22.7568 25.5649 23.0243 25.2975C23.7599 24.5619 24.4954 23.8263 25.1975 23.1242C25.5319 22.7899 25.9331 22.7899 26.2675 23.1242C27.1702 24.0269 28.0395 24.8962 28.9422 25.799C29.2431 26.0999 29.2431 26.5011 28.9422 26.802C28.0729 27.7048 27.1033 28.3734 25.8997 28.7412C25.2978 28.9418 24.6626 29.0421 23.9939 29.0421Z" fill="#114550"/>
</svg>
