<svg width="162" height="162" viewBox="0 0 162 162" fill="none" xmlns="http://www.w3.org/2000/svg">
<path d="M67.6903 76.4995V61.9702H71.6417V72.8672H78.6363V76.4995H67.6903Z" fill="#FFF6D2"/>
<path d="M90.4658 76.4995L89.5087 73.7262H84.0847L83.1276 76.4995H79.0044L84.5019 61.9702H89.1405L94.6381 76.4995H90.4658ZM88.257 70.2166L86.7844 65.9216L85.2873 70.2166H88.257Z" fill="#FFF6D2"/>
<path d="M51.4429 84.2059L46.8779 86.7338C45.9453 85.1385 44.5709 84.3286 42.7057 84.3286C40.055 84.3286 38.1407 86.3411 38.1407 89.2371C38.1407 92.4768 40.3986 94.1457 42.7302 94.1457C44.5464 94.1457 45.9698 93.3358 47.0006 91.765L51.222 94.7101C49.4304 97.3853 46.5343 99.0787 42.7793 99.0787C36.9136 99.0787 32.7659 95.0292 32.7659 89.2371C32.7659 83.4451 36.9136 79.3955 42.7793 79.3955C46.5098 79.3955 49.7739 81.1871 51.4429 84.2059Z" fill="#FFF6D2"/>
<path d="M66.4632 98.7106L65.2115 95.1028H58.1187L56.867 98.7106H51.4922L58.6586 79.7637H64.7207L71.8872 98.7106H66.4632ZM63.6163 90.5134L61.6774 84.9176L59.7385 90.5134H63.6163Z" fill="#FFF6D2"/>
<path d="M81.606 99.0789C76.1575 99.0789 73.2124 96.1583 73.2124 91.0043V79.7883H78.3664V90.8571C78.3664 93.0414 79.5935 94.1703 81.606 94.1703C83.6185 94.1703 84.8456 93.0414 84.8456 90.8571V79.7883H89.9996V91.0043C89.9996 96.1338 87.0545 99.0789 81.606 99.0789Z" fill="#FFF6D2"/>
<path d="M100.823 84.034C99.4482 84.034 98.3929 84.4021 98.3929 85.2611C98.3929 86.3164 100.332 86.4637 102.271 86.8073L102.884 86.93C106.836 87.6908 108.799 89.5561 108.799 92.4766C108.799 97.287 104.749 99.0541 100.724 99.0541C97.313 99.0541 94.2452 98.2442 92.0609 96.698L94.5888 92.5012C96.1105 93.3847 97.9021 94.4401 100.798 94.4401C102.172 94.4401 103.203 94.0719 103.203 93.1148C103.203 92.133 102.001 91.9367 99.6691 91.544L98.9574 91.4213C94.5888 90.6605 92.7726 88.8198 92.8708 85.4329C92.969 81.8006 95.9877 79.3708 100.553 79.3708C103.031 79.3708 105.265 79.6163 108.554 81.3588L106.345 85.5801C105.019 84.942 103.179 84.034 100.823 84.034Z" fill="#FFF6D2"/>
<path d="M123.745 98.7106L122.494 95.1028H115.401L114.149 98.7106H108.774L115.941 79.7637H122.003L129.169 98.7106H123.745ZM120.874 90.5134L118.935 84.9176L116.996 90.5134H120.874Z" fill="#FFF6D2"/>
<path d="M79.1032 143.673L79.0541 145.612L80.6739 145.661H80.6984L82.3183 145.612L82.171 139.623L80.9193 139.648C80.8457 139.648 80.7721 139.648 80.6984 139.648L79.2259 139.599L79.1768 141.538L80.6984 141.587V143.697L79.1032 143.673Z" fill="#FFF6D2"/>
<path d="M77.9739 13.4249L80.1582 13.3758L80.6736 13.3512L81.189 13.3758L83.3733 13.4249L83.4469 11.486L81.2135 11.4124H80.6981H80.1336L77.9003 11.486L77.9739 13.4249Z" fill="#FFF6D2"/>
<path d="M67.5099 150.141L67.2031 151.881L68.9433 152.188L69.2501 150.448L67.5099 150.141Z" fill="#FFF6D2"/>
<path d="M66.8747 153.723L65.8308 159.644L67.571 159.951L68.6149 154.029L66.8747 153.723Z" fill="#FFF6D2"/>
<path d="M55.6147 146.814L55.0104 148.474L56.6709 149.078L57.2752 147.418L55.6147 146.814Z" fill="#FFF6D2"/>
<path d="M54.3676 150.197L52.3112 155.847L53.9717 156.451L56.0281 150.801L54.3676 150.197Z" fill="#FFF6D2"/>
<path d="M44.4634 141.454L43.5798 142.985L45.1101 143.868L45.9936 142.338L44.4634 141.454Z" fill="#FFF6D2"/>
<path d="M42.673 144.583L39.6665 149.79L41.1968 150.673L44.2033 145.466L42.673 144.583Z" fill="#FFF6D2"/>
<path d="M34.4423 134.239L33.3064 135.592L34.66 136.728L35.7959 135.375L34.4423 134.239Z" fill="#FFF6D2"/>
<path d="M32.1298 137.005L28.2646 141.612L29.6184 142.748L33.4835 138.141L32.1298 137.005Z" fill="#FFF6D2"/>
<path d="M25.842 125.392L24.4883 126.528L25.6242 127.882L26.9779 126.746L25.842 125.392Z" fill="#FFF6D2"/>
<path d="M23.054 127.705L18.4481 131.57L19.584 132.924L24.1899 129.059L23.054 127.705Z" fill="#FFF6D2"/>
<path d="M18.8523 115.176L17.322 116.06L18.2056 117.59L19.7358 116.706L18.8523 115.176Z" fill="#FFF6D2"/>
<path d="M15.7244 116.984L10.5172 119.991L11.4007 121.521L16.608 118.515L15.7244 116.984Z" fill="#FFF6D2"/>
<path d="M13.7816 103.91L12.1211 104.514L12.7254 106.174L14.386 105.57L13.7816 103.91Z" fill="#FFF6D2"/>
<path d="M10.3862 105.149L4.73584 107.205L5.34018 108.866L10.9906 106.809L10.3862 105.149Z" fill="#FFF6D2"/>
<path d="M10.7264 91.9462L8.98621 92.2529L9.29297 93.9931L11.0332 93.6864L10.7264 91.9462Z" fill="#FFF6D2"/>
<path d="M7.16668 92.5569L1.24512 93.6013L1.55206 95.3415L7.47362 94.2971L7.16668 92.5569Z" fill="#FFF6D2"/>
<path d="M9.81895 79.6165H8.05188V81.3835H9.81895V79.6165Z" fill="#FFF6D2"/>
<path d="M6.18679 79.6165H0.173828V81.3835H6.18679V79.6165Z" fill="#FFF6D2"/>
<path d="M9.28924 67.0242L8.9823 68.7644L10.7225 69.0713L11.0295 67.3311L9.28924 67.0242Z" fill="#FFF6D2"/>
<path d="M1.54761 65.6477L1.24084 67.3879L7.1624 68.4318L7.46917 66.6916L1.54761 65.6477Z" fill="#FFF6D2"/>
<path d="M12.7221 54.8278L12.1178 56.4883L13.7783 57.0926L14.3827 55.4321L12.7221 54.8278Z" fill="#FFF6D2"/>
<path d="M5.34299 52.1486L4.73865 53.8091L10.389 55.8655L10.9934 54.205L5.34299 52.1486Z" fill="#FFF6D2"/>
<path d="M18.2051 43.4238L17.3215 44.9541L18.8518 45.8376L19.7354 44.3074L18.2051 43.4238Z" fill="#FFF6D2"/>
<path d="M11.4117 39.489L10.5282 41.0193L15.7354 44.0258L16.619 42.4955L11.4117 39.489Z" fill="#FFF6D2"/>
<path d="M25.6194 33.1296L24.4835 34.4834L25.8373 35.6193L26.9732 34.2655L25.6194 33.1296Z" fill="#FFF6D2"/>
<path d="M19.594 28.0723L18.4581 29.426L23.0647 33.2912L24.2005 31.9374L19.594 28.0723Z" fill="#FFF6D2"/>
<path d="M34.666 24.2831L33.3123 25.4189L34.4481 26.7727L35.8019 25.6368L34.666 24.2831Z" fill="#FFF6D2"/>
<path d="M29.6202 18.2662L28.2666 19.4021L32.1317 24.008L33.4853 22.8721L29.6202 18.2662Z" fill="#FFF6D2"/>
<path d="M45.1145 17.1546L43.5842 18.0381L44.4678 19.5684L45.998 18.6848L45.1145 17.1546Z" fill="#FFF6D2"/>
<path d="M41.2025 10.3379L39.6722 11.2214L42.6787 16.4287L44.209 15.5451L41.2025 10.3379Z" fill="#FFF6D2"/>
<path d="M56.6628 11.9521L55.0023 12.5564L55.6067 14.2169L57.2672 13.6126L56.6628 11.9521Z" fill="#FFF6D2"/>
<path d="M53.9664 4.54996L52.3059 5.1543L54.3623 10.8047L56.0229 10.2003L53.9664 4.54996Z" fill="#FFF6D2"/>
<path d="M68.9463 8.81921L67.2061 9.12598L67.5128 10.8662L69.253 10.5594L68.9463 8.81921Z" fill="#FFF6D2"/>
<path d="M67.5725 1.06635L65.8323 1.37329L66.8767 7.29485L68.6169 6.98791L67.5725 1.06635Z" fill="#FFF6D2"/>
<path d="M79.7904 9.62083H80.6739H80.6985H81.5575V7.85376H80.6985H80.6739H79.7904V9.62083Z" fill="#FFF6D2"/>
<path d="M79.7904 0V6.01296H80.6739H81.5575V0H80.6985H79.7904Z" fill="#FFF6D2"/>
<path d="M82.2448 17.3517L82.2938 15.4129L80.674 15.3638H80.6495L79.0297 15.4129L79.2015 21.4013L80.4531 21.3767C80.5268 21.3767 80.6004 21.3767 80.674 21.3767L82.1466 21.4258L82.1957 19.4869L80.674 19.4379V17.3272L82.2448 17.3517Z" fill="#FFF6D2"/>
<path d="M83.3733 147.6L81.189 147.649H80.6981H80.1582L77.9739 147.6L77.9003 149.539L80.1336 149.588L80.6736 149.612L81.2135 149.588L83.4469 149.539L83.3733 147.6Z" fill="#FFF6D2"/>
<path d="M85.6805 149.416C86.4168 149.367 87.1776 149.318 87.9139 149.244L90.0737 148.974L91.1781 148.827L92.2825 148.63L94.4914 148.238L94.0987 146.323L91.9635 146.716L90.8836 146.912L89.8037 147.06L89.5337 145.072C90.6136 144.949 91.6689 144.728 92.7243 144.556L91.6199 138.666L90.3927 138.887L89.8037 138.985C89.4601 139.034 89.092 139.083 88.7238 139.132L88.4539 137.144L89.3619 137.022L90.27 136.85L92.0862 136.531C92.6997 136.408 93.2888 136.261 93.9023 136.114L94.8104 135.917C95.1049 135.844 95.3994 135.746 95.694 135.672L96.2093 137.611L95.4976 137.807C95.2522 137.881 95.0313 137.93 94.7859 137.979L93.3624 138.298L93.7796 140.212L95.2522 139.869C95.4976 139.82 95.743 139.771 95.9885 139.697L96.7248 139.501L98.5655 138.985C98.9336 138.887 99.2772 138.764 99.6208 138.642L100.283 140.654L99.5472 140.9C99.3017 140.973 99.0563 141.047 98.7863 141.12L97.2647 141.538L96.5039 141.759C96.2584 141.832 95.9885 141.881 95.743 141.93L94.2214 142.274L94.6386 144.188L96.2093 143.82C96.4793 143.746 96.7247 143.697 96.9947 143.624L97.7801 143.403L98.2955 145.342C97.9519 145.44 97.6083 145.538 97.2401 145.636L96.1848 145.882C95.4731 146.053 94.7613 146.201 94.0496 146.373L94.4423 148.287C95.1786 148.14 95.8903 147.968 96.6266 147.796L97.7065 147.551C98.0746 147.452 98.4182 147.354 98.7863 147.256L100.872 146.667C101.584 146.446 102.296 146.201 103.008 145.955C103.719 145.71 104.431 145.489 105.118 145.194L104.431 143.378C103.768 143.648 103.057 143.869 102.37 144.115C101.682 144.335 100.995 144.581 100.308 144.802L99.7189 142.887C100.75 142.568 101.756 142.2 102.787 141.857L100.75 136.212L99.5717 136.605L99.0072 136.801C98.6636 136.899 98.32 137.046 97.9764 137.144L97.3874 135.23C97.9764 135.058 98.5654 134.837 99.1545 134.641C99.7435 134.445 100.333 134.248 100.897 134.028L102.615 133.34C102.91 133.242 103.179 133.095 103.474 132.972L104.308 132.58L105.143 134.396L103.793 135.009C103.351 135.206 102.885 135.377 102.419 135.549L103.13 137.365C103.597 137.169 104.063 136.997 104.529 136.801L105.904 136.187C106.493 135.917 107.082 135.672 107.646 135.377L108.628 134.862L109.585 136.727L108.186 137.439C107.72 137.684 107.229 137.881 106.763 138.102L105.339 138.74C104.848 138.936 104.358 139.132 103.891 139.329L104.603 141.145C105.094 140.949 105.609 140.752 106.1 140.531L107.573 139.869L108.407 141.685L107.425 142.127C107.082 142.274 106.763 142.446 106.419 142.568L104.382 143.378L105.069 145.194L107.155 144.36C107.499 144.237 107.843 144.066 108.186 143.918L109.217 143.452C109.88 143.157 110.542 142.863 111.18 142.519L113.168 141.489C113.512 141.317 113.831 141.12 114.15 140.949L115.132 140.384L114.15 138.691L113.217 139.231C112.898 139.402 112.579 139.599 112.26 139.746L110.321 140.728L109.438 138.936L110.886 138.2L111.598 137.832L112.309 137.439L109.389 132.187L108.849 132.506C108.677 132.604 108.481 132.702 108.284 132.8L107.744 133.07L106.787 133.561L105.904 131.77L107.548 130.935C107.818 130.812 108.088 130.641 108.358 130.493L109.168 130.027C110.248 129.438 111.279 128.726 112.309 128.088L113.414 129.757L112.187 130.543L111.573 130.935L111.254 131.132L110.935 131.303L111.941 132.972L112.26 132.776L112.579 132.58L113.217 132.162L114.494 131.352C114.764 131.181 115.034 130.984 115.279 130.812L116.064 130.248L116.972 129.61L118.224 131.303L116.948 132.211L116.31 132.678C116.089 132.825 115.893 132.972 115.672 133.119L114.346 133.978L113.684 134.396L113.365 134.617L113.021 134.813L114.027 136.482L114.371 136.285L114.715 136.065L115.402 135.623L116.752 134.739L117.856 136.408C116.629 137.194 115.426 138.003 114.15 138.691L115.132 140.384C116.433 139.672 117.684 138.838 118.936 138.028C119.255 137.832 119.525 137.611 119.819 137.414L120.703 136.776C121.93 135.942 123.084 134.985 124.262 134.077L123.034 132.58C121.881 133.463 120.777 134.396 119.574 135.206L118.396 133.586C118.838 133.267 119.279 132.972 119.697 132.629L120.973 131.622L117.242 126.91L116.261 127.696C116.113 127.818 115.942 127.941 115.77 128.064L114.886 128.677L113.708 127.057C114.739 126.37 115.672 125.56 116.653 124.824C116.899 124.628 117.12 124.431 117.365 124.235L118.077 123.621C118.543 123.229 119.01 122.812 119.451 122.394L120.826 123.867L120.286 124.382L119.721 124.873L118.617 125.83L119.868 127.327L121.022 126.346L121.586 125.855L122.126 125.339L123.525 124.014C123.795 123.769 124.041 123.474 124.311 123.204L125.808 124.677C124.36 126.174 122.814 127.597 121.218 128.947L122.47 130.444L123.697 129.389L124.311 128.849L124.9 128.285L126.274 129.757C125.759 130.273 125.194 130.739 124.654 131.205L123.82 131.917C123.55 132.162 123.28 132.408 122.985 132.629L124.213 134.126C124.507 133.905 124.777 133.635 125.072 133.414L125.906 132.678C126.47 132.187 127.035 131.696 127.575 131.181L129.146 129.684C129.686 129.168 130.176 128.604 130.692 128.064L131.453 127.254C131.723 126.984 131.943 126.689 132.189 126.419L130.741 125.119C130.495 125.389 130.275 125.683 130.029 125.928L129.268 126.714C128.753 127.229 128.287 127.769 127.747 128.285L126.323 126.861C127.084 126.1 127.82 125.315 128.557 124.53L124.114 120.48L123.255 121.388L122.838 121.83C122.593 122.075 122.347 122.37 122.077 122.591L120.654 121.167C121.096 120.725 121.513 120.284 121.93 119.842L122.568 119.179C122.789 118.958 122.985 118.713 123.182 118.492L124.384 117.093C124.777 116.627 125.145 116.136 125.538 115.645L127.133 116.872L126.225 118.026C126.078 118.222 125.906 118.394 125.759 118.59L125.268 119.155L126.74 120.431L127.231 119.866C127.403 119.67 127.575 119.498 127.722 119.277L128.655 118.075L129.244 117.314C129.44 117.069 129.612 116.799 129.808 116.529L130.446 115.621L132.164 116.823L131.256 118.099L131.035 118.418L130.79 118.737L130.299 119.351L129.317 120.578C129.17 120.799 128.974 120.971 128.802 121.192L128.287 121.781L129.759 123.057L130.299 122.443C130.471 122.247 130.667 122.026 130.815 121.83L131.821 120.554L133.416 121.781C132.974 122.345 132.533 122.934 132.066 123.474L130.643 125.119L132.091 126.419L133.563 124.726C134.03 124.161 134.496 123.548 134.962 122.983L135.625 122.124C135.846 121.83 136.042 121.535 136.263 121.241L137.564 119.425C137.981 118.811 138.374 118.173 138.791 117.535L137.147 116.504C136.754 117.118 136.361 117.731 135.968 118.32L134.717 120.087L133.097 118.909L134.03 117.584C134.177 117.363 134.349 117.142 134.496 116.921L134.938 116.234L129.906 112.945C129.686 113.289 129.465 113.657 129.219 114.001L128.876 114.492L128.262 115.375L126.642 114.197L127.722 112.675C128.066 112.16 128.385 111.645 128.728 111.129L129.219 110.344C129.391 110.074 129.538 109.804 129.686 109.534L130.618 107.939L132.385 108.896C131.894 109.73 131.428 110.589 130.913 111.448L132.582 112.455C133.097 111.596 133.588 110.712 134.103 109.828C134.398 109.264 134.692 108.7 134.987 108.11L135.502 107.129L137.392 108.037C136.901 108.969 136.435 109.902 135.944 110.835C135.429 111.743 134.913 112.651 134.373 113.559L136.042 114.565C136.607 113.633 137.122 112.7 137.662 111.767L139.429 112.725L138.349 114.614C138.177 114.933 138.006 115.252 137.809 115.547L137.22 116.455L138.865 117.486L139.478 116.553C139.674 116.234 139.846 115.915 140.043 115.596L141.147 113.657C141.491 113.019 141.81 112.381 142.153 111.718L142.669 110.712C142.84 110.368 142.988 110.025 143.135 109.706L144.068 107.669L142.276 106.908L141.368 108.896C141.221 109.215 141.073 109.559 140.902 109.878L140.411 110.859L138.619 109.951L138.987 109.239C139.11 108.994 139.233 108.749 139.331 108.503L139.993 107.031L134.52 104.601L134.005 105.754C133.931 105.926 133.833 106.123 133.76 106.294L133.269 107.251L131.477 106.343L131.894 105.509C132.042 105.239 132.164 104.944 132.287 104.675L133.048 102.981C133.293 102.417 133.514 101.828 133.735 101.263L134.079 100.404C134.201 100.11 134.275 99.8151 134.373 99.5206L136.263 100.183L136.018 100.87L135.748 101.558L135.208 102.932L137.024 103.668L137.588 102.245L137.858 101.533L138.104 100.821L138.717 99.0052L138.815 98.7352L138.889 98.4652L139.036 97.9253L141.049 98.5143C140.46 100.527 139.748 102.49 138.963 104.429L140.754 105.165L141.343 103.668L141.638 102.907L141.908 102.147L143.798 102.809C143.675 103.153 143.577 103.496 143.429 103.84L143.037 104.846C142.767 105.509 142.521 106.196 142.227 106.859L144.018 107.62C144.313 106.932 144.583 106.221 144.853 105.534L145.27 104.478C145.417 104.135 145.516 103.766 145.638 103.423L146.326 101.361C146.448 101.018 146.546 100.65 146.645 100.281L146.939 99.2015C147.135 98.4898 147.356 97.778 147.504 97.0417L145.614 96.5754C145.467 97.2872 145.246 97.9744 145.049 98.6861L144.755 99.7414C144.657 100.085 144.558 100.453 144.436 100.772L142.521 100.159C142.62 99.9132 142.693 99.6433 142.767 99.3733L142.988 98.5879L143.429 97.0417L137.613 95.5201L137.269 96.7227L137.097 97.3117L136.95 97.8271L136.877 98.0971L136.778 98.3425L134.864 97.7289C134.962 97.4344 135.036 97.1399 135.134 96.8454L135.379 95.9619C135.551 95.3728 135.723 94.7838 135.846 94.1703L136.263 92.3786C136.337 92.0841 136.386 91.7651 136.435 91.4706L136.607 90.5625L138.57 90.9061L138.325 92.3541C138.226 92.8204 138.104 93.3113 138.006 93.7776L139.895 94.2193C140.018 93.7285 140.116 93.2376 140.239 92.7468L140.509 91.2497L140.681 90.2925L140.754 89.8262L140.828 89.3599L140.975 88.2555L143.061 88.5254L142.865 90.0716L142.595 91.6178L142.325 93.164C142.227 93.6794 142.104 94.1948 141.981 94.6857L143.871 95.1274C143.994 94.612 144.117 94.0721 144.239 93.5567L144.534 91.9614L146.497 92.305L146.301 93.3849C146.227 93.753 146.178 94.0966 146.08 94.4402L145.589 96.5509L147.479 97.0172L147.994 94.8329C148.093 94.4648 148.142 94.0966 148.215 93.7285L148.412 92.6241L148.608 91.5442L148.706 91.0043L148.78 90.4643C148.952 88.9918 149.197 87.4946 149.271 86.0221L147.332 85.8748C147.258 87.3228 147.037 88.7709 146.865 90.1943L144.877 89.8998L145.074 88.3046L145.172 87.4946L145.221 87.102L145.246 86.7093L139.282 86.1448C139.257 86.562 139.184 86.9793 139.135 87.3965L139.061 87.9855L138.914 89.0654L136.926 88.7709C137.073 87.5437 137.269 86.3166 137.318 85.0895C137.367 84.4759 137.417 83.8623 137.441 83.2488L137.49 81.3835L139.503 81.4081L139.454 82.8806C139.454 83.126 139.454 83.3715 139.429 83.6169L139.38 84.3532L141.319 84.4759L141.368 83.7151C141.392 83.4696 141.392 83.1997 141.392 82.9542L141.442 81.4326L141.466 80.4754L141.442 79.5183L141.417 78.4138L143.528 78.3402C143.552 79.3956 143.601 80.4263 143.552 81.4817L143.503 83.0524C143.503 83.3224 143.503 83.5678 143.479 83.8378L143.429 84.6232L145.368 84.7459L145.417 83.936C145.442 83.666 145.442 83.396 145.442 83.126L145.491 81.5062L147.504 81.5308L147.454 83.7151C147.43 84.4268 147.356 85.1631 147.307 85.8748L149.246 86.0221C149.295 85.2858 149.369 84.525 149.393 83.7887L149.442 81.5553L149.467 80.4754L149.442 79.3956L149.393 77.1622C149.369 76.4259 149.295 75.6651 149.246 74.9288L147.307 75.076C147.356 75.7878 147.43 76.5241 147.454 77.2358L147.504 79.4201L145.491 79.4446L145.442 77.8248C145.442 77.5549 145.442 77.2849 145.417 77.0149L145.368 76.205L139.38 76.5977C139.404 77.0149 139.454 77.4321 139.454 77.8494L139.478 78.4629L139.503 79.5428L137.49 79.5674L137.441 77.7021C137.417 77.0886 137.343 76.475 137.318 75.8614C137.245 74.6343 137.073 73.4071 136.926 72.18L138.914 71.8855L139.11 73.3335L139.208 74.0698L139.257 74.4379L139.282 74.8061L141.221 74.6343L141.196 74.2661L141.147 73.898L141.049 73.1372L140.852 71.6401L140.779 71.1738L140.705 70.7074L140.803 69.7503L140.607 68.6459L142.669 68.2286L142.939 69.7748C143.037 70.2902 143.135 70.8056 143.184 71.321L143.38 72.8672L143.479 73.6526L143.528 74.0453L143.552 74.4379L145.491 74.2661L145.467 73.8735L145.417 73.4808L145.319 72.6709L145.123 71.0756L147.111 70.7811C147.283 72.2291 147.504 73.6526 147.577 75.1006L149.516 74.9533C149.442 73.4562 149.222 71.9837 149.025 70.5111L148.952 69.9712L148.853 69.4312L148.657 68.3514L148.461 67.2469C148.387 66.8788 148.338 66.5106 148.24 66.1425L147.724 63.9582L145.835 64.4245L146.326 66.5352C146.424 66.8788 146.473 67.2469 146.546 67.6151L146.743 68.695L144.779 69.0386L144.485 67.4433C144.362 66.9279 144.239 66.3879 144.117 65.8725L138.276 67.2224L138.57 68.4495C138.619 68.6459 138.644 68.8422 138.693 69.0386L138.889 70.0939L136.926 70.4375L136.754 69.5294C136.705 69.2349 136.656 68.9158 136.582 68.6213L136.165 66.8297C136.042 66.2161 135.846 65.6271 135.699 65.0381L135.453 64.1546C135.355 63.86 135.306 63.5655 135.183 63.271L137.097 62.6575C137.171 62.8783 137.245 63.1238 137.318 63.3692L137.515 64.0809L137.907 65.5044L139.797 65.0136L139.38 63.5655L139.184 62.8292C139.11 62.5838 139.061 62.3384 138.963 62.093L138.349 60.2768C138.226 59.9332 138.128 59.5651 137.981 59.2215L139.944 58.4852C140.043 58.7306 140.141 58.976 140.214 59.2215L140.46 59.9578L140.951 61.4549C141.049 61.7003 141.098 61.9457 141.172 62.2157L141.392 62.9765L141.81 64.4982L143.699 64.0073L143.258 62.4611L143.037 61.6757C142.963 61.4058 142.89 61.1603 142.791 60.8904L144.706 60.2768C144.828 60.6204 144.927 60.964 145.025 61.3076L145.319 62.3629C145.516 63.0747 145.736 63.7619 145.884 64.4736L147.774 64.0073C147.626 63.271 147.405 62.5593 147.209 61.8475L146.915 60.7677C146.816 60.3995 146.718 60.0559 146.595 59.6878L145.908 57.6262C145.786 57.2826 145.687 56.9145 145.54 56.5709L145.123 55.5155C144.853 54.8283 144.583 54.1166 144.288 53.4294L142.497 54.1902C142.791 54.8529 143.037 55.5401 143.307 56.2027L143.699 57.209C143.847 57.5526 143.945 57.8962 144.068 58.2398L142.178 58.9024L141.908 58.1416L141.613 57.3808L141.024 55.8837L135.478 58.1661L135.944 59.3442L136.165 59.9087C136.312 60.2523 136.41 60.5959 136.533 60.9149L134.643 61.5776C134.545 61.2831 134.447 60.9885 134.349 60.694L134.005 59.835C133.784 59.2706 133.563 58.6815 133.318 58.1171L132.557 56.4236C132.434 56.1536 132.312 55.8591 132.164 55.5892L131.747 54.7547L133.539 53.8466L133.882 54.5093C134.005 54.7302 134.103 54.951 134.201 55.1719L134.815 56.5218L136.607 55.7364L135.993 54.362C135.895 54.1411 135.772 53.8957 135.674 53.6748L135.33 52.9876C135.036 52.4232 134.741 51.8341 134.447 51.2696L133.882 50.3125L135.699 49.2817C135.944 49.748 136.238 50.1898 136.459 50.6561L137.171 52.055L137.539 52.7422C137.662 52.9631 137.785 53.2085 137.883 53.4539L138.521 54.8774L140.313 54.0921L139.65 52.6195C139.552 52.3741 139.429 52.1286 139.306 51.8832L138.938 51.1715L140.73 50.2634L141.221 51.2451C141.392 51.5642 141.515 51.9078 141.687 52.2268L142.595 54.2148L144.387 53.4539L143.454 51.4169C143.307 51.0733 143.16 50.7297 142.988 50.4107L142.472 49.4044C142.129 48.7663 141.81 48.1036 141.466 47.4655L140.362 45.5267C140.165 45.2076 139.993 44.864 139.797 44.5695L139.184 43.6369L137.539 44.6677L138.128 45.5757C138.325 45.8703 138.496 46.2139 138.668 46.5084L139.748 48.3982L137.981 49.3553C137.441 48.4227 136.926 47.4901 136.361 46.5575L131.232 49.6989C131.453 50.0425 131.649 50.4107 131.87 50.7788L132.164 51.2942L132.704 52.2268L130.937 53.184L130.005 51.5887C129.857 51.3187 129.71 51.0488 129.538 50.7788L129.047 49.9934C128.704 49.478 128.385 48.9381 128.041 48.4472L126.961 46.9256L128.581 45.7475L129.44 46.9501C129.587 47.1465 129.735 47.3428 129.857 47.5637L130.25 48.1773L131.87 47.0974L131.453 46.4593C131.305 46.2384 131.158 46.0421 131.011 45.8457L130.127 44.6186C129.931 44.3486 129.759 44.1032 129.563 43.8332L128.974 43.0724L128.287 42.1889L129.931 40.8635C131.232 42.4834 132.483 44.1768 133.612 45.9439L135.232 44.864L134.79 44.1768C134.643 43.9559 134.471 43.735 134.324 43.5142L133.392 42.1889L135.011 41.0108L136.263 42.7779C136.68 43.3669 137.048 44.005 137.441 44.594L139.085 43.5387C138.668 42.9006 138.276 42.287 137.858 41.6489L136.558 39.8328C136.337 39.5382 136.14 39.2437 135.919 38.9492L135.257 38.0902C134.79 37.5012 134.349 36.9122 133.858 36.3477L132.385 34.6542L130.937 35.955L132.361 37.5994C132.827 38.1639 133.269 38.7283 133.711 39.2928L132.115 40.5199L131.109 39.2437C130.937 39.0228 130.765 38.8265 130.594 38.6302L130.054 38.0166L125.513 41.9189L126.323 42.876L126.691 43.3424L127.354 44.2014L125.759 45.4285C125.366 44.9376 124.998 44.4468 124.605 43.9805L123.403 42.5815C123.206 42.3607 123.01 42.1152 122.789 41.8943L122.151 41.2317C121.709 40.7899 121.317 40.3236 120.875 39.9064L122.298 38.4829C122.985 39.1701 123.648 39.9064 124.335 40.5936L125.783 39.2683C125.072 38.532 124.384 37.7957 123.673 37.084L122.274 35.7587C122.004 35.5132 121.734 35.2433 121.464 34.9978L122.863 33.4271L123.157 33.6725L123.452 33.9425L124.016 34.4825L125.145 35.5623C125.881 36.2986 126.593 37.084 127.329 37.8203L128.777 36.495C128.041 35.7096 127.305 34.9242 126.544 34.1634L127.968 32.7399C128.483 33.2553 128.974 33.7953 129.489 34.3107L130.25 35.096C130.495 35.366 130.741 35.636 130.962 35.9059L132.41 34.6052C132.164 34.3352 131.919 34.0407 131.674 33.7707L130.913 32.9608C130.397 32.4209 129.882 31.8809 129.367 31.341L127.796 29.8439C127.256 29.3285 126.691 28.8376 126.127 28.3468L125.292 27.6105C124.998 27.3651 124.728 27.1196 124.433 26.8988L123.206 28.3959C123.501 28.6167 123.771 28.8622 124.041 29.1076L124.875 29.8193C125.415 30.2857 125.98 30.752 126.495 31.2674L125.121 32.7399L124.532 32.1754L123.918 31.6355L122.691 30.5802L118.813 35.1696L119.77 36.0041L120.237 36.3968C120.507 36.6177 120.777 36.8876 121.022 37.1331L119.648 38.6056C119.206 38.1639 118.74 37.7712 118.273 37.3785L117.561 36.7649C117.316 36.5686 117.095 36.3477 116.85 36.1759C115.868 35.4151 114.935 34.6297 113.905 33.9425L115.083 32.3227C115.475 32.6172 115.893 32.8872 116.285 33.1817L117.439 34.0898L118.641 32.5681L117.439 31.6355C117.046 31.3164 116.629 31.0465 116.212 30.752L115.426 30.1875C115.156 30.0157 114.911 29.8193 114.641 29.6475L113.708 29.034L114.837 27.2669C115.279 27.5614 115.721 27.8314 116.163 28.1259L117.439 29.034C117.856 29.353 118.298 29.623 118.715 29.9421L119.942 30.9238L121.145 29.4021L119.868 28.3959C119.451 28.0768 118.985 27.7578 118.568 27.4387L119.746 25.8189C120.948 26.6288 122.077 27.5614 123.206 28.4449L124.433 26.9478C123.255 26.0398 122.102 25.0826 120.875 24.2482L119.991 23.61C119.697 23.4137 119.402 23.1928 119.108 22.9965C117.856 22.1866 116.604 21.3521 115.304 20.6404L114.322 20.0759C114.003 19.8796 113.684 19.7078 113.34 19.536L111.352 18.5052C110.714 18.1616 110.051 17.8916 109.389 17.5725L108.358 17.1062C108.014 16.959 107.671 16.7872 107.327 16.6645L105.241 15.83L104.48 17.7198L106.517 18.5297C106.861 18.6524 107.18 18.8242 107.524 18.9715L108.505 19.4132L107.671 21.2294L106.198 20.5668C105.707 20.3459 105.192 20.1741 104.701 19.9532L102.492 25.5244L103.67 25.9907C103.867 26.0643 104.038 26.1625 104.21 26.2361L105.192 26.6779L104.358 28.494L103.523 28.1014C103.229 27.9786 102.959 27.8314 102.664 27.7332L100.946 27.046C100.382 26.8006 99.7926 26.6288 99.2036 26.4325C98.6145 26.2361 98.05 26.0152 97.4365 25.8434L98.0255 23.9291C98.9581 24.2236 99.8907 24.5427 100.823 24.8617L101.486 23.021C100.529 22.702 99.5717 22.3584 98.6145 22.0639L96.7738 21.5485L96.2339 21.4012L95.9639 21.3276L95.694 21.2539L96.2093 19.2169C96.4548 19.266 96.7248 19.3396 96.9702 19.4132L97.731 19.6341L99.2526 20.0514C100.259 20.3704 101.241 20.714 102.222 21.0576L102.885 19.2169C101.854 18.8733 100.848 18.5052 99.8171 18.1861L100.406 16.2718C101.093 16.4681 101.781 16.7381 102.468 16.959C103.155 17.2044 103.842 17.4253 104.529 17.6953L105.217 15.8791C104.529 15.5846 103.818 15.3637 103.106 15.1183C102.394 14.8728 101.682 14.6274 100.971 14.4065L98.8845 13.8175C98.5164 13.7193 98.1728 13.5966 97.8046 13.523L96.7248 13.2776C95.9885 13.1058 95.2767 12.934 94.5404 12.7867L94.1478 14.701C94.8595 14.8483 95.5712 15.0201 96.283 15.1919L97.3383 15.4373C97.6819 15.511 98.0501 15.6337 98.3937 15.7318L97.8782 17.6707L97.0929 17.4498C96.8229 17.3762 96.5775 17.3271 96.3075 17.2535L94.7368 16.8853L93.4606 22.751L94.6877 23.0456L95.2767 23.1928L95.5467 23.2419L95.8167 23.3155L96.3321 23.4628L95.8167 25.4017C95.5222 25.328 95.2276 25.2299 94.9331 25.1562L94.0251 24.9599C93.4115 24.8126 92.8225 24.6654 92.2089 24.5427L90.3927 24.2236L89.4847 24.0518L88.5766 23.9291L88.8465 21.9411C89.8282 22.0393 90.7854 22.2357 91.7426 22.4075L92.1107 20.4931C91.1045 20.3213 90.1228 20.125 89.1165 20.0023L87.2022 19.7568C86.834 19.7078 86.4659 19.7078 86.0978 19.6587L86.2696 17.5725C87.3249 17.6216 88.3557 17.7934 89.3865 17.9161C90.4173 18.0143 91.4481 18.2352 92.4789 18.407L92.847 16.4927C91.7917 16.3209 90.7363 16.1 89.6564 15.9773L89.9264 13.9893L91.0063 14.1366L92.0862 14.3329L94.2214 14.7256L94.6141 12.8113L92.4052 12.4186L91.3008 12.2222L90.1964 12.075L88.0366 11.805C87.3004 11.7314 86.5395 11.6823 85.8033 11.6332C85.067 11.5841 84.3061 11.5105 83.5699 11.5105L83.4962 13.4494C84.2325 13.4494 84.9443 13.523 85.656 13.5721C86.3677 13.6212 87.104 13.6703 87.8157 13.7439L87.6194 15.7318C86.5395 15.6337 85.4597 15.56 84.4043 15.4864L84.0853 21.4748L85.3369 21.573L85.9505 21.6221C86.3186 21.6466 86.6623 21.6712 87.0304 21.7203L86.834 23.7082C86.2205 23.6346 85.6069 23.61 84.9933 23.561C84.3798 23.5119 83.7662 23.4628 83.1526 23.4628L81.2874 23.4137H80.8702H80.4284L78.5632 23.4628C77.9496 23.4628 77.336 23.5364 76.7225 23.561C76.1089 23.61 75.4953 23.6346 74.8818 23.7082L74.6854 21.7203C75.6671 21.6221 76.6488 21.573 77.606 21.4994L77.5078 19.5605C76.5016 19.6341 75.4953 19.7078 74.4891 19.8059L72.5747 20.0514C72.2066 20.1004 71.8385 20.1495 71.4703 20.1986L71.1513 18.1125C72.1821 17.9652 73.2374 17.8425 74.2682 17.7198C75.299 17.6216 76.3543 17.548 77.4097 17.4744L77.3115 15.5355C76.2316 15.6091 75.1517 15.6828 74.0964 15.7809L73.9 13.793C74.6118 13.7193 75.3481 13.6703 76.0598 13.6212C76.7715 13.5721 77.5078 13.4985 78.2196 13.4985L78.1459 11.5596C77.4097 11.5596 76.6488 11.6332 75.9126 11.6823C75.1763 11.7314 74.4154 11.7805 73.6792 11.8541L71.5194 12.1241L70.415 12.2713L69.3106 12.4677L67.1017 12.8603L67.4944 14.7747L69.6296 14.382L70.7095 14.1857L71.7894 14.0384L72.0593 16.0264C70.9795 16.1491 69.9241 16.3699 68.8688 16.5417L69.9732 22.432L71.2004 22.2111L71.7894 22.1129C72.133 22.0639 72.5011 22.0148 72.8693 21.9657L73.1392 23.9536L72.2312 24.0764L71.3231 24.2482L69.5069 24.5672C68.8933 24.6899 68.3043 24.8372 67.6908 24.9844L66.7827 25.1808C66.4882 25.2544 66.1936 25.3526 65.8991 25.4262L65.3837 23.4873L66.0955 23.291C66.3409 23.2174 66.5618 23.1683 66.8072 23.1192L68.2307 22.8001L67.8135 20.8858L66.3409 21.2294C66.0955 21.2785 65.8501 21.3276 65.6046 21.4012L64.8683 21.5975L63.0276 22.1129C62.6595 22.2111 62.3159 22.3338 61.9723 22.4565L61.3097 20.444L62.0459 20.1986C62.2914 20.125 62.5368 20.0514 62.8068 19.9777L64.3284 19.5605L65.0892 19.3396C65.3347 19.266 65.6046 19.2169 65.8501 19.1678L67.3717 18.8242L66.9545 16.9099L65.3837 17.278C65.1138 17.3517 64.8683 17.4007 64.5984 17.4744L63.813 17.6953L63.2976 15.7564C63.6412 15.6582 63.9848 15.56 64.3529 15.4619L65.4083 15.2164C66.12 15.0446 66.8318 14.8974 67.5435 14.7256L67.1508 12.8113C66.4145 12.9585 65.7028 13.1303 64.9665 13.3021L63.8866 13.5475C63.5185 13.6457 63.1749 13.7439 62.8068 13.8421L60.7206 14.4311C60.0089 14.652 59.2972 14.8974 58.5854 15.1428C57.8737 15.3882 57.1619 15.6091 56.4747 15.9036L57.1619 17.7198C57.8246 17.4498 58.5363 17.2289 59.2235 16.9835C59.9107 16.7626 60.5979 16.5172 61.2851 16.2963L61.8741 18.2107C60.8433 18.5297 59.8371 18.8978 58.8063 19.2414L60.8433 24.8863L62.0214 24.4936L62.5859 24.2972C62.9295 24.1991 63.2731 24.0518 63.6167 23.9536L64.2057 25.868C63.6167 26.0398 63.0276 26.2607 62.4386 26.457C61.8496 26.6533 61.2606 26.8497 60.6961 27.0706L58.9781 27.7578C58.6836 27.8559 58.4136 28.0032 58.1191 28.1259L57.2847 28.5186L56.4502 26.7024L57.8 26.0889C58.2418 25.8925 58.7081 25.7207 59.1744 25.5489L58.4627 23.7328C57.9964 23.9291 57.5301 24.1009 57.0638 24.2972L55.6894 24.9108C55.1004 25.1808 54.5113 25.4262 53.9469 25.7207L52.9651 26.2361L52.008 24.3709L53.4069 23.6591C53.8732 23.4137 54.3641 23.2174 54.8304 22.9965L56.2539 22.3584C56.7447 22.162 57.2356 21.9657 57.7019 21.7693L56.9901 19.9532C56.4993 20.1495 55.9839 20.3459 55.493 20.5668L54.0205 21.2294L53.186 19.4132L54.1677 18.9715C54.5113 18.8242 54.8304 18.6524 55.174 18.5297L57.211 17.7198L56.5238 15.9036L54.4377 16.7381C54.0941 16.8608 53.7505 17.0326 53.4069 17.1799L52.3761 17.6462C51.7135 17.9407 51.0508 18.2352 50.4127 18.5788L48.4247 19.6096C48.0812 19.7814 47.7621 19.9777 47.443 20.1495L46.4613 20.714L47.443 22.4075L48.3757 21.8675C48.6947 21.6957 49.0138 21.4994 49.3328 21.3521L51.2717 20.3704L52.1552 22.162L50.7072 22.8983L49.9955 23.2664L49.2837 23.6591L52.2043 28.9113L52.7443 28.5922C52.9161 28.494 53.1124 28.3959 53.3087 28.2977L53.8487 28.0277L54.8058 27.5369L55.6894 29.3285L54.045 30.1629C53.7751 30.2857 53.5051 30.4575 53.2351 30.6047L52.4252 31.071C51.3453 31.66 50.3145 32.3718 49.2837 33.0099L48.1793 31.341L49.4065 30.5556L50.02 30.1629L50.3391 29.9666L50.6581 29.7948L49.6519 28.1259L49.3328 28.3222L49.0138 28.5186L48.3757 28.9358L47.0994 29.7457C46.8295 29.9175 46.5595 30.1139 46.3141 30.2857L45.5287 30.8501L44.6206 31.4882L43.369 29.7948L44.6452 28.8867L45.2833 28.4204C45.5042 28.2732 45.7005 28.1259 45.9214 27.9786L47.2467 27.1196L47.9094 26.7024L48.2284 26.4815L48.572 26.2852L47.5658 24.6163L47.2222 24.8126L46.8786 25.0335L46.1914 25.4753L44.8415 26.3588L43.7371 24.6899C44.9642 23.9046 46.1668 23.0946 47.443 22.4075L46.4613 20.714C45.1606 21.4257 43.9089 22.2602 42.6572 23.0701C42.3382 23.2664 42.0682 23.4873 41.7737 23.6837L40.8901 24.3218C39.663 25.1562 38.5095 26.1134 37.3315 27.0215L38.5586 28.5186C39.7121 27.635 40.8165 26.7024 42.0191 25.8925L43.1972 27.5123C42.7554 27.8314 42.3136 28.1259 41.8964 28.4695L40.6202 29.4757L44.3507 34.1879L45.3324 33.4026C45.4796 33.2799 45.6514 33.1571 45.8232 33.0344L46.7068 32.4209L47.8848 34.0407C46.854 34.7279 45.9214 35.5378 44.9397 36.2741C44.6943 36.4704 44.4734 36.6667 44.2279 36.8631L43.5162 37.4767C43.0499 37.8693 42.5836 38.2866 42.1418 38.7038L40.7674 37.2312L41.3074 36.7158L41.8718 36.225L42.9763 35.2678L41.7246 33.7707L40.5711 34.7524L40.0066 35.2433L39.4667 35.7587L38.0677 37.084C37.7978 37.3294 37.5523 37.6239 37.2824 37.8939L35.7853 36.4213C37.2333 34.9242 38.7795 33.5007 40.3747 32.1509L39.1231 30.6538L37.8959 31.7091L37.2824 32.2491L36.6933 32.8135L35.319 31.341C35.8344 30.8256 36.3988 30.3593 36.9388 29.893L37.7732 29.1812C38.0432 28.9358 38.3132 28.6904 38.6077 28.4695L37.3805 26.9724C37.086 27.1933 36.8161 27.4632 36.5215 27.6841L35.6871 28.4204C35.1226 28.9113 34.5581 29.4021 34.0182 29.9175L32.4475 31.4146C31.9075 31.93 31.4167 32.4945 30.9013 33.0344L30.1405 33.8443C29.8705 34.1143 29.6496 34.4088 29.4042 34.6788L30.8522 35.9796C31.0976 35.7096 31.3185 35.4151 31.5639 35.1696L32.3247 34.3843C32.8401 33.8689 33.3065 33.3289 33.8464 32.8135L35.2699 34.237C34.509 34.9978 33.7728 35.7832 33.0365 36.5686L37.4787 40.6181L38.3377 39.71L38.7549 39.2683C39.0004 39.0228 39.2458 38.7283 39.5158 38.5074L40.9392 39.9309C40.4975 40.3727 40.0802 40.8145 39.663 41.2562L39.0249 41.9189C38.804 42.1398 38.6077 42.3852 38.4113 42.6061L37.2087 44.005C36.8161 44.4713 36.4479 44.9622 36.0552 45.453L34.46 44.2259L35.368 43.0724C35.5153 42.876 35.6871 42.7042 35.8343 42.5079L36.3252 41.9434L34.8526 40.6672L34.3618 41.2317C34.19 41.428 34.0182 41.5998 33.8709 41.8207L32.9383 43.0233L32.3493 43.7841C32.153 44.0296 31.9811 44.2995 31.7848 44.5695L31.1467 45.4776L29.4287 44.275L30.3368 42.9988L30.5577 42.6797L30.8031 42.3607L31.294 41.7471L32.2757 40.5199C32.4229 40.2991 32.6193 40.1273 32.7911 39.9064L33.3065 39.3174L31.8339 38.0411L31.294 38.6547C31.1222 38.851 30.9258 39.0719 30.7786 39.2683L29.7723 40.5445L28.177 39.3174C28.6188 38.7529 29.0606 38.1639 29.5269 37.6239L30.9504 35.9796L29.5023 34.6788L28.0298 36.3722C27.5635 36.9367 27.0972 37.5503 26.6308 38.1148L25.9682 38.9738C25.7473 39.2683 25.551 39.5628 25.3301 39.8573L24.0293 41.6735C23.6121 42.287 23.2194 42.9251 22.8022 43.5632L24.4465 44.6186C24.8392 44.005 25.2319 43.3914 25.6246 42.8024L26.8763 41.0353L28.4961 42.2134L27.5635 43.5387C27.4162 43.7596 27.2444 43.9805 27.0972 44.2014L26.6554 44.8886L31.6866 48.1773C31.9075 47.8337 32.1284 47.4655 32.3738 47.1219L32.7174 46.6311L33.331 45.7475L34.9508 46.9256L33.8709 48.4472C33.5273 48.9626 33.2083 49.478 32.8647 49.9934L32.3738 50.7788C32.202 51.0488 32.0548 51.3187 31.9075 51.5887L30.9749 53.184L29.2078 52.2268C29.6987 51.3924 30.165 50.5334 30.6804 49.6744L29.0115 48.6681C28.4961 49.5271 28.0052 50.4106 27.4898 51.2942C27.1953 51.8587 26.9008 52.4231 26.6063 53.0122L26.0909 53.9939L24.2011 53.0858C24.692 52.1532 25.1583 51.2206 25.6491 50.2879C26.1645 49.3799 26.6799 48.4718 27.2199 47.5637L25.551 46.5575C24.9865 47.4901 24.4711 48.4227 23.9311 49.3553L22.1641 48.3982L23.244 46.5084C23.4403 46.1893 23.5876 45.8703 23.7839 45.5757L24.3729 44.6677L22.7286 43.6369L22.115 44.5695C21.9186 44.8885 21.7469 45.2076 21.5505 45.5267L20.4461 47.4655C20.1025 48.1036 19.7834 48.7418 19.4398 49.4044L18.9244 50.4107C18.7526 50.7543 18.6054 51.0978 18.4581 51.4169L17.5255 53.4539L19.3171 54.2148L20.2252 52.2268C20.3725 51.9078 20.5197 51.5642 20.6915 51.2451L21.1824 50.2634L22.974 51.1715L22.6058 51.8832C22.4831 52.1286 22.3604 52.3741 22.2622 52.6195L21.5996 54.0921L27.0726 56.5218L27.588 55.3683C27.6616 55.1965 27.7598 55.0001 27.8334 54.8283L28.3243 53.8712L30.1159 54.7792L29.6987 55.6137C29.5514 55.8837 29.4287 56.1782 29.306 56.4481L28.5452 58.1416C28.2997 58.7061 28.0789 59.2951 27.858 59.8596L27.5144 60.7186C27.3917 61.0131 27.318 61.3076 27.2199 61.6021L25.3301 60.9395L25.5755 60.2523L25.8455 59.5651L26.3854 58.1907L24.5693 57.4544L24.0048 58.8779L23.7348 59.5896L23.4894 60.3014L22.8758 62.1175L22.7776 62.3875L22.704 62.6575L22.5568 63.1974L20.5443 62.6084C21.1333 60.5959 21.845 58.6324 22.6304 56.6936L20.8142 55.9573L20.2252 57.4544L19.9307 58.2152L19.6607 58.976L17.7709 58.3134C17.8937 57.9698 17.9918 57.6262 18.1391 57.2826L18.5318 56.2764C18.8017 55.6137 19.0472 54.9265 19.3417 54.2639L17.5501 53.503C17.2555 54.1902 16.9856 54.902 16.7156 55.5892L16.2984 56.6445C16.1511 56.9881 16.0529 57.3562 15.9302 57.6998L15.243 59.7614C15.1203 60.105 15.0222 60.4732 14.924 60.8413L14.6295 61.9212C14.4331 62.6329 14.2123 63.3446 14.065 64.0809L15.9548 64.5472C16.102 63.8355 16.3229 63.1483 16.5193 62.4366L16.8138 61.3812C16.9119 61.0376 17.0101 60.6695 17.1328 60.3504L19.0472 60.964C18.949 61.2094 18.8754 61.4794 18.8017 61.7494L18.5808 62.5347L18.1391 64.0809L23.9557 65.6026L24.2993 64.4L24.4711 63.811L24.6183 63.2956L24.692 63.0256L24.7901 62.7802L26.7045 63.3937C26.6063 63.6882 26.5327 63.9828 26.4345 64.2773L26.1891 65.1608C26.0173 65.7498 25.8455 66.3389 25.7228 66.9524L25.3055 68.744C25.2319 69.0385 25.1828 69.3576 25.1337 69.6521L24.9619 70.5602L22.9985 70.2166L23.244 68.7686C23.3421 68.3023 23.4648 67.8114 23.563 67.3451L21.6732 66.9033C21.5505 67.3942 21.4523 67.885 21.3296 68.3759L20.5443 69.7503L20.3725 70.7074L20.2988 71.1738L20.2252 71.6401L20.078 72.7445L17.9918 72.4745L18.1882 70.9283L18.4581 69.3821L18.7281 67.836C18.8263 67.3206 18.949 66.8052 19.0717 66.3143L17.1819 65.8725C17.0592 66.3879 16.9365 66.9279 16.8138 67.4433L16.5193 69.0386L14.5558 68.695L14.7522 67.6151C14.8258 67.2469 14.8749 66.9033 14.9731 66.5597L15.4639 64.4491L13.5741 63.9828L13.0587 66.1671C12.9606 66.5352 12.9115 66.9033 12.8379 67.2715L12.6415 68.3759L12.4452 69.4558L12.347 69.9957L12.2734 70.5357C12.1016 72.0082 11.8562 73.5053 11.7825 74.9779L13.7214 75.1251C13.795 73.6771 14.0159 72.2291 14.1877 70.8056L16.1757 71.1001L15.9793 72.6954L15.8812 73.5053L15.8321 73.898L15.8075 74.2907L21.7714 74.8552C21.7959 74.4379 21.8696 74.0207 21.9187 73.6035L21.9923 73.0145L22.1395 71.9346L24.1275 72.2291C23.9802 73.4562 23.7839 74.6834 23.7348 75.9105C23.6857 76.5241 23.6366 77.1376 23.6121 77.7512L23.563 79.6164L21.5505 79.5919L21.5996 78.1193C21.5996 77.8739 21.5996 77.6285 21.6241 77.3831L21.6732 76.6468L19.7344 76.5241L19.6853 77.2849C19.6607 77.5303 19.6607 77.8003 19.6607 78.0457L19.6116 79.5674L19.5871 80.5245L19.6116 81.4817L19.6362 82.5861L17.5255 82.6597C17.501 81.6044 17.4519 80.5736 17.501 79.5183L17.5501 77.9475C17.5501 77.6776 17.5501 77.4321 17.5746 77.1622L17.6237 76.3768L15.6848 76.2541L15.6357 77.064C15.6112 77.334 15.6112 77.604 15.6112 77.8739L15.5621 79.4937L13.5496 79.4692L13.5987 77.2849C13.6232 76.5486 13.6969 75.8369 13.7459 75.1251L11.8071 74.9779C11.758 75.7142 11.6844 76.475 11.6598 77.2113L11.6107 79.4446L11.5862 80.5245L11.6107 81.6044L11.6598 83.8378C11.6844 84.5741 11.758 85.3349 11.8071 86.0712L13.7459 85.9239C13.6969 85.2122 13.6232 84.4759 13.5987 83.7642L13.5496 81.5799L15.5621 81.5553L15.6112 83.1751C15.6112 83.4451 15.6112 83.7151 15.6357 83.985L15.6848 84.7949L21.6732 84.4023C21.6487 83.985 21.5996 83.5678 21.5996 83.1506L21.5751 82.537L21.5505 81.4571L23.563 81.4326L23.6121 83.2978C23.6366 83.9114 23.7103 84.525 23.7348 85.1385C23.8084 86.3657 23.9802 87.5928 24.1275 88.82L22.1395 89.1145L21.9432 87.6664L21.845 86.9302L21.7959 86.562L21.7714 86.1939L19.8325 86.3657L19.8571 86.7338L19.9061 87.102L20.0043 87.8628L20.2007 89.3599L20.2743 89.8262L20.3479 90.2925L20.5197 91.2497L20.7161 92.3541L18.6545 92.7713L18.3845 91.2251C18.2863 90.7097 18.1882 90.1943 18.1391 89.6789L17.9427 88.1328L17.8446 87.3474L17.7955 86.9547L17.7709 86.562L15.8321 86.7338L15.8566 87.1265L15.9057 87.5192L16.0039 88.3291L16.2002 89.9244L14.2122 90.2189C14.0404 88.7709 13.8196 87.3474 13.7459 85.8994L11.8071 86.0466C11.8807 87.5437 12.1016 89.0163 12.2979 90.4889L12.3715 91.0288L12.4697 91.5687L12.6661 92.6486L12.8624 93.753C12.936 94.1212 12.9851 94.4893 13.0833 94.8574L13.5987 97.0417L15.4885 96.5754L14.9976 94.4648C14.8994 94.1212 14.8504 93.753 14.7767 93.4094L14.5804 92.3296L16.5438 91.986L16.8383 93.5812C16.961 94.0966 17.0837 94.6366 17.2065 95.152L23.0476 93.8021L22.7531 92.575C22.704 92.3786 22.6795 92.1823 22.6304 91.986L22.4341 90.9306L24.3975 90.587L24.5693 91.4951C24.6183 91.7896 24.6674 92.1087 24.7411 92.4032L25.1583 94.1948C25.281 94.8084 25.4773 95.3974 25.6246 95.9864L25.87 96.8699C25.9682 97.1645 26.0173 97.459 26.14 97.7535L24.2257 98.3671C24.152 98.1462 24.0784 97.9007 24.0048 97.6553L23.8084 96.9436L23.4158 95.5201L21.526 96.011L21.9432 97.459L22.1395 98.1953C22.2132 98.4407 22.2622 98.6861 22.3604 98.9315L22.974 100.748C23.0967 101.091 23.1949 101.459 23.3421 101.803L21.3787 102.539C21.2805 102.294 21.1824 102.048 21.1087 101.803L20.8633 101.067L20.3725 99.5696C20.2743 99.3242 20.2252 99.0788 20.1516 98.8088L19.9307 98.048L19.5135 96.5264L17.6237 97.0172L18.0654 98.5634L18.2863 99.3488C18.36 99.6187 18.4336 99.8642 18.5318 100.134L16.6174 100.748C16.4947 100.404 16.3965 100.061 16.2984 99.7169L16.0039 98.6616C15.8075 97.9498 15.5866 97.2626 15.4394 96.5509L13.5496 97.0172C13.6969 97.7535 13.9177 98.4652 14.1141 99.177L14.4086 100.257C14.5068 100.625 14.6049 100.969 14.7276 101.337L15.4148 103.398C15.5376 103.742 15.6357 104.11 15.783 104.454L16.2002 105.509C16.4702 106.196 16.7401 106.908 17.0347 107.595L18.8263 106.834C18.5318 106.172 18.2863 105.484 18.0164 104.822L17.6237 103.816C17.4764 103.472 17.3783 103.128 17.2555 102.785L19.1453 102.122L19.4153 102.883L19.7098 103.644L20.2988 105.141L25.8455 102.858L25.3792 101.68L25.1583 101.116C25.011 100.772 24.9129 100.429 24.7901 100.11L26.6799 99.4469C26.7781 99.7414 26.8763 100.036 26.9744 100.33L27.318 101.189C27.5389 101.754 27.7598 102.343 28.0052 102.907L28.7661 104.601C28.8888 104.871 29.0115 105.165 29.1587 105.435L29.576 106.27L27.7844 107.178L27.4408 106.515C27.318 106.294 27.2199 106.073 27.1217 105.853L26.5081 104.503L24.7165 105.288L25.3301 106.662C25.4283 106.883 25.551 107.129 25.6491 107.35L25.9927 108.037C26.2873 108.601 26.5818 109.19 26.8763 109.755L27.4408 110.712L25.6246 111.743C25.3792 111.276 25.0847 110.835 24.8638 110.368L24.152 108.969L23.7839 108.282C23.6612 108.061 23.5385 107.816 23.4403 107.571L22.8022 106.147L21.0106 106.932L21.6732 108.405C21.7714 108.65 21.8941 108.896 22.0168 109.141L22.385 109.853L20.5933 110.761L20.1025 109.779C19.9307 109.46 19.808 109.117 19.6362 108.798L18.7281 106.81L16.9365 107.571L17.8691 109.608C18.0164 109.951 18.1636 110.295 18.3354 110.614L18.8508 111.62C19.1944 112.258 19.5135 112.921 19.8571 113.559L20.9615 115.498C21.1578 115.817 21.3296 116.16 21.526 116.455L22.1395 117.388L23.7839 116.332L23.1949 115.424C22.9985 115.13 22.8267 114.786 22.6549 114.492L21.5751 112.602L23.3421 111.645C23.8821 112.577 24.3975 113.51 24.9619 114.443L30.0914 111.301C29.8705 110.957 29.6741 110.589 29.4533 110.221L29.1587 109.706L28.6188 108.773L30.3859 107.816L31.3185 109.411C31.4658 109.681 31.613 109.951 31.7848 110.221L32.2757 111.007C32.6193 111.522 32.9383 112.062 33.2819 112.553L34.3618 114.074L32.742 115.252L31.883 114.05C31.7357 113.853 31.5885 113.657 31.4658 113.436L31.0731 112.823L29.4533 113.903L29.8705 114.541C30.0177 114.762 30.165 114.958 30.3122 115.154L31.1958 116.381C31.3921 116.651 31.5639 116.897 31.7603 117.167L32.3493 117.928L33.0365 118.811L31.3921 120.136C30.0914 118.517 28.8397 116.823 27.7107 115.056L26.0909 116.136L26.5327 116.823C26.6799 117.044 26.8517 117.265 26.999 117.486L27.9316 118.811L26.3118 119.989L25.0601 118.222C24.6429 117.633 24.2747 116.995 23.8821 116.406L22.2377 117.437C22.6549 118.075 23.0476 118.688 23.4648 119.327L24.7656 121.143C24.9865 121.437 25.1828 121.732 25.4037 122.026L26.0664 122.885C26.5327 123.474 26.9744 124.063 27.4653 124.628L28.9379 126.321L30.3859 125.02L28.9624 123.376C28.4961 122.812 28.0543 122.247 27.6125 121.683L29.2078 120.455L30.2141 121.732C30.3859 121.953 30.5577 122.149 30.7295 122.345L31.2694 122.959L35.8098 119.057L34.9999 118.099L34.6318 117.633L33.9691 116.774L35.5644 115.547C35.9571 116.038 36.3252 116.529 36.7179 116.995L37.9205 118.394C38.1168 118.615 38.3132 118.86 38.534 119.081L39.1722 119.744C39.6139 120.185 40.0066 120.652 40.4484 121.069L39.0249 122.493C38.3377 121.805 37.6751 121.069 36.9879 120.382L35.5398 121.707C36.2516 122.443 36.9388 123.18 37.6505 123.891L39.0494 125.217C39.3194 125.462 39.5894 125.732 39.8594 125.978L38.4604 127.548L38.1659 127.303L37.8714 127.033L37.3069 126.493L36.178 125.413C35.4417 124.677 34.7299 123.891 33.9936 123.155L32.5456 124.48C33.2819 125.266 34.0182 126.051 34.779 126.812L33.3555 128.235C32.8401 127.72 32.3493 127.18 31.8339 126.665L31.0731 125.879C30.8276 125.609 30.5822 125.339 30.3613 125.069L28.9133 126.37C29.1587 126.64 29.4042 126.935 29.6496 127.205L30.4104 128.015C30.9258 128.555 31.4412 129.094 31.9566 129.634L33.5273 131.132C34.0673 131.647 34.6318 132.138 35.1962 132.629L36.0307 133.365C36.3252 133.61 36.5952 133.856 36.8897 134.077L38.1168 132.58C37.8223 132.359 37.5523 132.113 37.2824 131.868L36.4479 131.156C35.908 130.69 35.3435 130.223 34.8281 129.708L36.2025 128.235L36.7915 128.8L37.4051 129.34L38.6322 130.395L42.51 125.806L41.5528 124.971L41.0865 124.579C40.8165 124.358 40.5465 124.088 40.3011 123.842L41.6755 122.37C42.1173 122.812 42.5836 123.204 43.0499 123.597L43.7616 124.211C44.0071 124.407 44.2279 124.628 44.4734 124.8C45.4551 125.56 46.3877 126.346 47.4185 127.033L46.2405 128.653C45.8478 128.358 45.4305 128.088 45.0379 127.794L43.8844 126.886L42.6818 128.407L43.8844 129.34C44.277 129.659 44.6943 129.929 45.1115 130.223L45.8968 130.788C46.1668 130.96 46.4122 131.156 46.6822 131.328L47.6148 131.941L46.4859 133.709C46.0441 133.414 45.6023 133.144 45.1606 132.85L43.8844 131.941C43.4671 131.622 43.0254 131.352 42.6081 131.033L41.381 130.052L40.1784 131.573L41.4546 132.58C41.8719 132.899 42.3382 133.218 42.7554 133.537L41.5773 135.157C40.3748 134.347 39.2458 133.414 38.1168 132.53L36.8897 134.028C38.0677 134.936 39.2212 135.893 40.4484 136.727L41.3319 137.365C41.6264 137.562 41.9209 137.783 42.2154 137.979C43.4671 138.789 44.7188 139.623 46.0196 140.335L47.0013 140.9C47.3203 141.096 47.6394 141.268 47.983 141.439L49.9709 142.47C50.609 142.814 51.2717 143.084 51.9343 143.403L52.9651 143.869C53.3087 144.016 53.6523 144.188 53.9959 144.311L56.0821 145.145L56.7693 143.329L54.7322 142.519C54.3886 142.397 54.0696 142.225 53.726 142.078L52.7443 141.636L53.5787 139.82L55.0513 140.482C55.5421 140.703 56.0575 140.875 56.5484 141.096L58.7572 135.525L57.5792 135.058C57.3828 134.985 57.211 134.887 57.0392 134.813L56.0575 134.371L56.892 132.555L57.7264 132.948C58.0209 133.07 58.2909 133.218 58.5854 133.316L60.3034 134.003C60.8679 134.248 61.4569 134.42 62.0459 134.617C62.635 134.813 63.1994 135.034 63.813 135.206L63.224 137.12C62.2914 136.825 61.3587 136.506 60.4261 136.187L59.7635 138.028C60.7206 138.347 61.6778 138.691 62.635 138.985L64.4757 139.501L65.0156 139.648L65.2856 139.721L65.5555 139.795L65.0401 141.832C64.7947 141.783 64.5247 141.709 64.2793 141.636L63.5185 141.415L61.9968 140.998C60.9906 140.679 60.0089 140.335 59.0272 139.991L58.3645 141.832C59.3953 142.176 60.4016 142.544 61.4324 142.863L60.8433 144.777C60.1562 144.581 59.469 144.311 58.7818 144.09C58.0946 143.845 57.4074 143.624 56.7202 143.354L56.033 145.17C56.7202 145.464 57.4319 145.685 58.1437 145.931C58.8554 146.176 59.5671 146.422 60.2789 146.643L62.365 147.232C62.7331 147.33 63.0767 147.452 63.4449 147.526L64.5247 147.771C65.261 147.943 65.9728 148.115 66.709 148.262L67.1017 146.348C66.39 146.201 65.6783 146.029 64.9665 145.857L63.9112 145.612C63.5676 145.538 63.1994 145.415 62.8558 145.317L63.3712 143.378L64.1566 143.599C64.4266 143.673 64.672 143.722 64.942 143.796L66.5127 144.164L67.7889 138.298L66.5618 138.003L65.9728 137.856L65.7028 137.807L65.4328 137.734L64.9174 137.586L65.4328 135.647C65.7273 135.721 66.0219 135.819 66.3164 135.893L67.2244 136.089C67.838 136.236 68.427 136.384 69.0406 136.506L70.8568 136.825L71.7648 136.997L72.6729 137.12L72.4029 139.108C71.4212 139.01 70.4641 138.813 69.5069 138.642L69.1388 140.556C70.145 140.728 71.1267 140.924 72.133 141.047L74.0473 141.292C74.4154 141.341 74.7836 141.341 75.1517 141.39L74.9799 143.477C73.9246 143.427 72.8938 143.256 71.863 143.133C70.8322 143.035 69.8014 142.814 68.7706 142.642L68.4025 144.556C69.4578 144.728 70.5132 144.949 71.593 145.072L71.3231 147.06L70.2432 146.912L69.1633 146.716L67.0281 146.323L66.6354 148.238L68.8443 148.63L69.9487 148.827L71.0531 148.974L73.2129 149.244C73.9491 149.318 74.71 149.367 75.4462 149.416C76.1825 149.465 76.9433 149.539 77.6796 149.539L77.7533 147.6C77.017 147.6 76.3052 147.526 75.5935 147.477C74.8818 147.428 74.1455 147.379 73.4337 147.305L73.6301 145.317C74.71 145.415 75.7898 145.489 76.8452 145.563L77.1642 139.574L75.9126 139.476L75.299 139.427C74.9308 139.402 74.5872 139.378 74.2191 139.329L74.4154 137.341C75.029 137.414 75.6426 137.439 76.2561 137.488C76.8697 137.537 77.4833 137.586 78.0968 137.586L79.9621 137.635H80.3793H80.8211L82.6863 137.586C83.2999 137.586 83.9135 137.513 84.527 137.488C85.1406 137.439 85.7542 137.414 86.3677 137.341L86.5641 139.329C85.5824 139.427 84.6007 139.476 83.6435 139.55L83.7417 141.489C84.7479 141.415 85.7542 141.341 86.7604 141.243L88.6747 140.998C89.0429 140.949 89.411 140.9 89.7792 140.85L90.0982 142.937C89.0674 143.084 88.0121 143.207 86.9813 143.329C85.9505 143.427 84.8952 143.501 83.8398 143.575L83.938 145.514C85.0179 145.44 86.0978 145.366 87.1531 145.268L87.3494 147.256C86.6377 147.33 85.9014 147.379 85.1897 147.428C84.478 147.477 83.7417 147.551 83.0299 147.551L83.1036 149.489C84.1834 149.539 84.9443 149.465 85.6805 149.416ZM104.971 24.4445L105.806 22.5056L107.229 23.1437L107.941 23.4628C108.186 23.561 108.407 23.7082 108.652 23.8064L110.051 24.5181L110.739 24.8863L111.426 25.2789L112.383 23.5855L111.671 23.1928L110.96 22.8247L109.511 22.0884L110.395 20.2968L112.334 21.2785C112.653 21.4503 112.972 21.6221 113.291 21.7939L114.224 22.3338C115.5 23.021 116.702 23.8555 117.93 24.6163L116.825 26.2852L115.451 25.4017L114.764 24.9599L114.42 24.739L114.076 24.5427L110.984 29.6966C111.352 29.893 111.696 30.1384 112.039 30.3593L112.555 30.6783L113.463 31.2674L112.358 32.9363C111.303 32.2736 110.297 31.5864 109.217 30.9974L108.407 30.5311C108.137 30.3838 107.867 30.212 107.597 30.0893L105.953 29.2549L106.836 27.4632L108.137 28.1259L108.8 28.4695L109.438 28.8376L110.395 27.1442L109.732 26.776L109.045 26.4325L107.695 25.7453C107.131 25.4507 106.542 25.2053 105.953 24.9353L104.971 24.4445ZM56.3766 136.555L55.5421 138.494L54.1186 137.856L53.4069 137.537C53.1615 137.439 52.9406 137.292 52.6952 137.194L51.2962 136.482L50.609 136.114L49.9219 135.721L48.9647 137.414L49.6764 137.807L50.3882 138.175L51.8362 138.912L50.9526 140.703L49.0138 139.721C48.6947 139.55 48.3757 139.378 48.0566 139.206L47.124 138.666C45.8478 137.979 44.6452 137.144 43.418 136.384L44.5225 134.715L45.8968 135.598L46.584 136.04L46.9276 136.261L47.2712 136.457L50.3636 131.303C49.9955 131.107 49.6519 130.862 49.3083 130.641L48.7929 130.322L47.8848 129.733L48.9892 128.064C50.0446 128.726 51.0508 129.414 52.1307 130.003L52.9406 130.469C53.2106 130.616 53.4805 130.788 53.7505 130.911L55.3949 131.745L54.5113 133.537L53.2106 132.874L52.5479 132.53L51.9098 132.162L50.9526 133.856L51.6153 134.224L52.3025 134.568L53.6523 135.255C54.2168 135.549 54.8058 135.795 55.3949 136.065L56.3766 136.555ZM86.4659 135.402C85.8769 135.451 85.2879 135.5 84.6743 135.549C84.0853 135.598 83.4962 135.647 82.8827 135.647L81.0911 135.696H80.6738H80.2321L78.4404 135.647C77.8514 135.647 77.2379 135.574 76.6488 135.549C76.0598 135.5 75.4462 135.476 74.8572 135.402L73.1392 135.181L72.2557 135.058L71.3722 134.911L69.6051 134.592C69.0161 134.469 68.4516 134.322 67.8625 134.199L66.979 134.003C66.6845 133.929 66.4145 133.831 66.12 133.758L64.4511 133.291C63.8866 133.119 63.3222 132.923 62.7577 132.727C62.1932 132.53 61.6287 132.359 61.0642 132.113L59.3953 131.451C59.1254 131.352 58.8554 131.205 58.5854 131.082L57.7755 130.714C57.2601 130.469 56.7202 130.248 56.2048 129.978L54.6095 129.168C54.3395 129.045 54.0941 128.874 53.8241 128.726L53.0388 128.285C51.9834 127.72 51.0017 127.033 49.9955 126.395C49.7501 126.248 49.5292 126.076 49.2837 125.904L48.572 125.389C47.5903 124.726 46.6577 123.941 45.7251 123.229C45.4796 123.057 45.2587 122.836 45.0379 122.64L44.3507 122.051C43.9089 121.658 43.4426 121.265 43.0254 120.848L41.7737 119.646C41.3565 119.228 40.9392 118.787 40.522 118.345L39.9084 117.707C39.6876 117.486 39.5158 117.265 39.3194 117.044L38.1414 115.694C37.7487 115.228 37.4051 114.762 37.0369 114.295L36.497 113.608C36.3252 113.387 36.1534 113.142 35.9816 112.896L34.9508 111.448C34.6072 110.957 34.3127 110.442 33.9691 109.951L33.4783 109.19C33.3065 108.945 33.1837 108.675 33.0365 108.43L32.1529 106.883C31.883 106.368 31.613 105.853 31.3676 105.337L30.9504 104.552C30.8031 104.282 30.7049 104.012 30.5822 103.742L29.8459 102.122C29.6005 101.582 29.4042 101.018 29.1833 100.453L28.8642 99.6187C28.7415 99.3488 28.6679 99.0542 28.5697 98.7843L28.0052 97.1399C27.9071 96.87 27.8334 96.5754 27.7598 96.2809L27.5144 95.4219C27.3671 94.8575 27.1708 94.2684 27.0481 93.704L26.6554 91.9614C26.5818 91.6669 26.5327 91.3724 26.4836 91.0779L26.3363 90.1943L26.1891 89.3353L26.1155 88.9181L26.0664 88.4763C25.9191 87.2983 25.7473 86.1202 25.6737 84.9177C25.6246 84.3286 25.5755 83.7396 25.551 83.126L25.5019 81.3344L25.4773 80.4754L25.5019 79.6164L25.551 77.8248C25.5755 77.2358 25.6491 76.6222 25.6737 76.0332C25.7228 74.8306 25.9191 73.6526 26.0664 72.4745L26.1155 72.0328L26.1891 71.6155L26.3363 70.7565L26.4836 69.873C26.5327 69.5785 26.5818 69.284 26.6554 68.9895L27.0481 67.2469C27.1708 66.6579 27.3426 66.0934 27.5144 65.5289L27.7598 64.6699C27.8334 64.3754 27.9071 64.1055 28.0052 63.811L28.5697 62.1666C28.6679 61.8966 28.7415 61.6021 28.8642 61.3321L29.1833 60.4977C29.4042 59.9332 29.6005 59.3933 29.8459 58.8288L30.5822 57.209C30.7049 56.939 30.8276 56.669 30.9504 56.3991L31.3676 55.6137C31.6376 55.0983 31.883 54.5829 32.1529 54.0675L33.0365 52.5213C33.1837 52.2759 33.331 52.0059 33.4783 51.7605L33.9691 50.9997C34.2882 50.5088 34.6072 49.9934 34.9508 49.5026L35.9816 48.0546C36.1534 47.8091 36.3007 47.5882 36.497 47.3428L37.0369 46.6556C37.4051 46.1893 37.7732 45.723 38.1414 45.2567L39.3194 43.9068C39.5158 43.686 39.7121 43.4405 39.9084 43.2442L40.522 42.6061C40.9392 42.1889 41.3319 41.7225 41.7737 41.3053L43.0254 40.1027C43.4426 39.6855 43.9089 39.2928 44.3507 38.9001L45.0379 38.3111C45.2587 38.1148 45.4796 37.9184 45.7251 37.7221C46.6577 36.9858 47.5903 36.225 48.572 35.5623L49.2837 35.0469C49.5292 34.8751 49.7501 34.7033 49.9955 34.5561C51.0017 33.918 51.9834 33.2553 53.0388 32.6663L53.8241 32.2245C54.0941 32.0773 54.3395 31.93 54.6095 31.7828L56.2048 30.9728C56.7202 30.7029 57.2356 30.482 57.7755 30.2366L58.5854 29.8684C58.8554 29.7457 59.1254 29.623 59.3953 29.5003L61.0642 28.8376C61.6042 28.6167 62.1932 28.4204 62.7577 28.2241C63.3222 28.0277 63.8866 27.8314 64.4511 27.6596L66.12 27.1933C66.4145 27.1196 66.6845 27.0215 66.979 26.9478L67.8625 26.7515C68.4516 26.6288 69.0161 26.4815 69.6051 26.3588L71.3722 26.0398L72.2557 25.8925L73.1392 25.7698L74.8572 25.5489C75.4462 25.4998 76.0353 25.4507 76.6488 25.4017C77.2379 25.3526 77.8269 25.3035 78.4404 25.3035L80.2321 25.2544H80.6493H81.0911L82.8827 25.3035C83.4717 25.3035 84.0853 25.3771 84.6743 25.4017C85.2633 25.4507 85.8769 25.4753 86.4659 25.5489L88.1839 25.7698L89.0674 25.8925L89.951 26.0398L91.718 26.3588C92.3071 26.4815 92.8715 26.6288 93.4606 26.7515L94.3441 26.9478C94.6386 27.0215 94.9086 27.1196 95.2031 27.1933L96.872 27.6596C97.4365 27.8314 98.001 28.0277 98.5655 28.2241C99.1299 28.4204 99.6944 28.5922 100.259 28.8376L101.928 29.5003C102.198 29.5985 102.468 29.7457 102.738 29.8684L103.548 30.2366C104.063 30.482 104.603 30.7029 105.118 30.9728L106.714 31.7828C106.984 31.9055 107.229 32.0773 107.499 32.2245L108.284 32.6663C109.34 33.2308 110.321 33.918 111.328 34.5561C111.573 34.7033 111.794 34.8751 112.039 35.0469L112.751 35.5623C113.733 36.225 114.665 37.0103 115.598 37.7221C115.843 37.8939 116.064 38.1148 116.285 38.3111L116.972 38.9001C117.414 39.2928 117.881 39.6855 118.298 40.1027L119.549 41.3053C119.967 41.7225 120.384 42.1643 120.801 42.6061L121.415 43.2442C121.636 43.4651 121.807 43.686 122.004 43.9068L123.182 45.2567C123.574 45.723 123.918 46.1893 124.286 46.6556L124.826 47.3428C124.998 47.5637 125.17 47.8091 125.342 48.0546L126.372 49.5026C126.716 49.9934 127.01 50.5088 127.354 50.9997L127.845 51.7605C128.017 52.0059 128.139 52.2759 128.287 52.5213L129.17 54.0675C129.44 54.5829 129.71 55.0983 129.956 55.6137L130.373 56.3991C130.52 56.669 130.618 56.939 130.741 57.209L131.477 58.8288C131.723 59.3687 131.919 59.9332 132.14 60.4977L132.459 61.3321C132.582 61.6021 132.655 61.8966 132.753 62.1666L133.318 63.811C133.416 64.0809 133.49 64.3754 133.563 64.6699L133.809 65.5289C133.956 66.0934 134.152 66.6824 134.275 67.2469L134.668 68.9895C134.741 69.284 134.79 69.5785 134.84 69.873L134.987 70.7565L135.134 71.6155L135.208 72.0328L135.257 72.4745C135.404 73.6526 135.576 74.8306 135.649 76.0332C135.699 76.6222 135.748 77.2113 135.772 77.8248L135.821 79.6164L135.846 80.4754L135.821 81.3344L135.772 83.126C135.748 83.7151 135.674 84.3286 135.649 84.9177C135.6 86.1202 135.404 87.2983 135.257 88.4763L135.208 88.9181L135.134 89.3353L134.987 90.1943L134.84 91.0779C134.79 91.3724 134.741 91.6669 134.668 91.9614L134.275 93.704C134.152 94.293 133.981 94.8575 133.809 95.4219L133.563 96.2809C133.49 96.5754 133.416 96.8454 133.318 97.1399L132.753 98.7843C132.655 99.0542 132.582 99.3488 132.459 99.6187L132.14 100.453C131.919 101.018 131.723 101.558 131.477 102.122L130.741 103.742C130.618 104.012 130.495 104.282 130.373 104.552L129.956 105.337C129.686 105.853 129.44 106.368 129.17 106.883L128.287 108.43C128.139 108.675 127.992 108.945 127.845 109.19L127.354 109.951C127.035 110.442 126.716 110.957 126.372 111.448L125.342 112.896C125.17 113.142 125.022 113.363 124.826 113.608L124.286 114.295C123.918 114.762 123.55 115.228 123.182 115.694L122.004 117.044C121.807 117.265 121.611 117.51 121.415 117.707L120.801 118.345C120.384 118.762 119.991 119.228 119.549 119.646L118.298 120.848C117.881 121.265 117.414 121.658 116.972 122.051L116.285 122.64C116.064 122.836 115.843 123.032 115.598 123.229C114.665 123.965 113.733 124.726 112.751 125.389L112.039 125.904C111.794 126.076 111.573 126.248 111.328 126.395C110.321 127.033 109.34 127.696 108.284 128.285L107.499 128.726C107.229 128.874 106.984 129.021 106.714 129.168L105.118 129.978C104.603 130.248 104.088 130.469 103.548 130.714L102.738 131.082C102.468 131.205 102.198 131.328 101.928 131.451L100.259 132.113C99.7189 132.334 99.1299 132.53 98.5655 132.727C98.001 132.923 97.4365 133.119 96.872 133.291L95.2031 133.758C94.9086 133.831 94.6386 133.929 94.3441 134.003L93.4606 134.199C92.8715 134.322 92.3071 134.469 91.718 134.592L89.951 134.911L89.0674 135.058L88.1839 135.181L86.4659 135.402Z" fill="#FFF6D2"/>
<path d="M92.42 8.82424L92.113 10.5645L93.8533 10.8714L94.1602 9.13118L92.42 8.82424Z" fill="#FFF6D2"/>
<path d="M93.7653 1.08235L92.7208 7.00391L94.461 7.31085L95.5055 1.38929L93.7653 1.08235Z" fill="#FFF6D2"/>
<path d="M104.69 11.9347L104.085 13.5952L105.746 14.1996L106.35 12.539L104.69 11.9347Z" fill="#FFF6D2"/>
<path d="M107.365 4.55617L105.309 10.2065L106.969 10.8109L109.026 5.16051L107.365 4.55617Z" fill="#FFF6D2"/>
<path d="M116.209 17.1658L115.326 18.696L116.856 19.5796L117.74 18.0493L116.209 17.1658Z" fill="#FFF6D2"/>
<path d="M120.159 10.3536L117.153 15.5608L118.683 16.4443L121.69 11.2371L120.159 10.3536Z" fill="#FFF6D2"/>
<path d="M126.673 24.2912L125.537 25.6448L126.891 26.7806L128.027 25.4271L126.673 24.2912Z" fill="#FFF6D2"/>
<path d="M131.731 18.2671L127.866 22.873L129.219 24.0089L133.084 19.403L131.731 18.2671Z" fill="#FFF6D2"/>
<path d="M135.747 33.139L134.394 34.2749L135.529 35.6287L136.883 34.4928L135.747 33.139Z" fill="#FFF6D2"/>
<path d="M141.767 28.0704L137.16 31.9355L138.296 33.2893L142.903 29.4242L141.767 28.0704Z" fill="#FFF6D2"/>
<path d="M143.147 43.4055L141.617 44.2891L142.5 45.8195L144.031 44.936L143.147 43.4055Z" fill="#FFF6D2"/>
<path d="M149.938 39.4791L144.731 42.4856L145.614 44.0159L150.821 41.0094L149.938 39.4791Z" fill="#FFF6D2"/>
<path d="M148.619 54.8285L146.959 55.4329L147.563 57.0934L149.224 56.489L148.619 54.8285Z" fill="#FFF6D2"/>
<path d="M156.001 52.1379L150.351 54.1943L150.955 55.8549L156.606 53.7984L156.001 52.1379Z" fill="#FFF6D2"/>
<path d="M152.049 67.0024L150.309 67.3093L150.616 69.0495L152.356 68.7426L152.049 67.0024Z" fill="#FFF6D2"/>
<path d="M159.794 65.6566L153.872 66.7004L154.179 68.4407L160.101 67.3968L159.794 65.6566Z" fill="#FFF6D2"/>
<path d="M153.295 79.6165H151.528V81.3835H153.295V79.6165Z" fill="#FFF6D2"/>
<path d="M161.174 79.6165H155.161V81.3835H161.174V79.6165Z" fill="#FFF6D2"/>
<path d="M150.609 91.9424L150.302 93.6826L152.042 93.9894L152.349 92.2492L150.609 91.9424Z" fill="#FFF6D2"/>
<path d="M154.165 92.5747L153.858 94.3149L159.78 95.3588L160.086 93.6186L154.165 92.5747Z" fill="#FFF6D2"/>
<path d="M147.557 103.912L146.953 105.573L148.613 106.177L149.217 104.517L147.557 103.912Z" fill="#FFF6D2"/>
<path d="M150.971 105.148L150.366 106.809L156.017 108.865L156.621 107.205L150.971 105.148Z" fill="#FFF6D2"/>
<path d="M142.485 115.181L141.601 116.712L143.131 117.595L144.015 116.065L142.485 115.181Z" fill="#FFF6D2"/>
<path d="M145.6 116.99L144.716 118.521L149.924 121.527L150.807 119.997L145.6 116.99Z" fill="#FFF6D2"/>
<path d="M135.538 125.4L134.402 126.754L135.756 127.89L136.892 126.536L135.538 125.4Z" fill="#FFF6D2"/>
<path d="M138.276 127.724L137.14 129.078L141.746 132.943L142.882 131.589L138.276 127.724Z" fill="#FFF6D2"/>
<path d="M126.91 134.234L125.556 135.369L126.692 136.723L128.045 135.587L126.91 134.234Z" fill="#FFF6D2"/>
<path d="M129.202 136.984L127.848 138.12L131.713 142.726L133.067 141.59L129.202 136.984Z" fill="#FFF6D2"/>
<path d="M116.847 141.439L115.317 142.323L116.2 143.853L117.731 142.969L116.847 141.439Z" fill="#FFF6D2"/>
<path d="M118.658 144.568L117.127 145.452L120.134 150.659L121.664 149.776L118.658 144.568Z" fill="#FFF6D2"/>
<path d="M105.741 146.817L104.08 147.421L104.685 149.082L106.345 148.477L105.741 146.817Z" fill="#FFF6D2"/>
<path d="M106.981 150.203L105.32 150.807L107.376 156.457L109.037 155.853L106.981 150.203Z" fill="#FFF6D2"/>
<path d="M93.8398 150.156L92.0996 150.463L92.4066 152.203L94.1468 151.896L93.8398 150.156Z" fill="#FFF6D2"/>
<path d="M94.4606 153.706L92.7203 154.013L93.7642 159.934L95.5044 159.628L94.4606 153.706Z" fill="#FFF6D2"/>
<path d="M81.5575 151.379H80.6985H80.6739H79.7904V153.146H80.6739H80.6985H81.5575V151.379Z" fill="#FFF6D2"/>
<path d="M81.5575 161.025V154.987H80.6985H79.7904V161.025H80.6739H81.5575Z" fill="#FFF6D2"/>
</svg>
