<svg width="142" height="13" viewBox="0 0 142 13" fill="none" xmlns="http://www.w3.org/2000/svg">
<path d="M135 0.45292V0H137.529V0.45292H136.598V3.21H135.935V0.45292H135Z" fill="#E9993E"/>
<path d="M140.402 0H141.327L141.42 3.21H140.767L140.714 0.73874L139.919 2.82744H139.344L138.628 0.8091L138.579 3.21H137.927L138.014 0H138.945L139.642 2.02714L140.402 0Z" fill="#E9993E"/>
<mask id="mask0_12782_26299" style="mask-type:luminance" maskUnits="userSpaceOnUse" x="102" y="2" width="35" height="11">
<path d="M136.32 2H102V12.4H136.32V2Z" fill="white"/>
</mask>
<g mask="url(#mask0_12782_26299)">
<path d="M124.349 2.01611C121.914 2.01611 119.739 3.19377 119.739 5.36957C119.739 7.8648 123.597 8.0372 123.597 9.2907C123.597 9.8185 122.949 10.291 121.842 10.291C120.271 10.291 119.097 9.6308 119.097 9.6308L118.595 11.8264C118.595 11.8264 119.947 12.3841 121.743 12.3841C124.404 12.3841 126.499 11.1486 126.499 8.9356C126.499 6.29892 122.624 6.1317 122.624 4.96821C122.624 4.55474 123.156 4.10171 124.26 4.10171C125.506 4.10171 126.522 4.58185 126.522 4.58185L127.013 2.46124C127.013 2.46124 125.908 2.01611 124.349 2.01611ZM102.076 2.17616L102.017 2.49625C102.017 2.49625 103.041 2.67119 103.964 3.02015C105.151 3.42031 105.236 3.65326 105.436 4.37679L107.616 12.219H110.538L115.039 2.17616H112.124L109.231 9.0044L108.051 3.21646C107.943 2.55404 107.395 2.17616 106.723 2.17616H102.076ZM116.211 2.17616L113.924 12.219H116.704L118.983 2.17616H116.211ZM131.716 2.17616C131.045 2.17616 130.69 2.51111 130.43 3.09642L126.357 12.219H129.272L129.836 10.6986H133.388L133.731 12.219H136.303L134.059 2.17616H131.716ZM132.095 4.88944L132.959 8.658H130.644L132.095 4.88944Z" fill="#E9993E"/>
</g>
<path d="M4.90344 10.9258L4.90039 11.0463L5.00105 11.0493H5.00259L5.10324 11.0463L5.09408 10.6741L5.0163 10.6757C5.01175 10.6757 5.00714 10.6757 5.00259 10.6757L4.91107 10.6726L4.90801 10.7931L5.00259 10.7961V10.9273L4.90344 10.9258Z" fill="#E9993E"/>
<path d="M4.83343 2.83381L4.96918 2.83076L5.00121 2.82923L5.03324 2.83076L5.16895 2.83381L5.17355 2.71332L5.03474 2.70874H5.00273H4.96765L4.82886 2.71332L4.83343 2.83381Z" fill="#E9993E"/>
<path d="M4.18337 11.3274L4.16431 11.4355L4.27245 11.4546L4.29151 11.3465L4.18337 11.3274Z" fill="#E9993E"/>
<path d="M4.14385 11.5498L4.07898 11.9178L4.18712 11.9369L4.25199 11.5689L4.14385 11.5498Z" fill="#E9993E"/>
<path d="M3.44417 11.1206L3.40662 11.2238L3.50981 11.2613L3.54737 11.1582L3.44417 11.1206Z" fill="#E9993E"/>
<path d="M3.36693 11.3308L3.23914 11.6819L3.34233 11.7195L3.47013 11.3684L3.36693 11.3308Z" fill="#E9993E"/>
<path d="M2.75156 10.7878L2.69666 10.8829L2.79175 10.9379L2.84666 10.8428L2.75156 10.7878Z" fill="#E9993E"/>
<path d="M2.64033 10.9822L2.45349 11.3058L2.54859 11.3607L2.73542 11.0371L2.64033 10.9822Z" fill="#E9993E"/>
<path d="M2.12881 10.3396L2.05823 10.4237L2.14234 10.4943L2.21293 10.4102L2.12881 10.3396Z" fill="#E9993E"/>
<path d="M1.98519 10.5115L1.745 10.7978L1.82912 10.8683L2.06932 10.5821L1.98519 10.5115Z" fill="#E9993E"/>
<path d="M1.59463 9.79004L1.5105 9.86062L1.58109 9.94476L1.66521 9.87418L1.59463 9.79004Z" fill="#E9993E"/>
<path d="M1.42149 9.93359L1.13525 10.1738L1.20584 10.2579L1.49208 10.0177L1.42149 9.93359Z" fill="#E9993E"/>
<path d="M1.16041 9.15552L1.06531 9.21039L1.12021 9.30549L1.21531 9.25061L1.16041 9.15552Z" fill="#E9993E"/>
<path d="M0.966298 9.26758L0.6427 9.45441L0.697605 9.54951L1.02121 9.36267L0.966298 9.26758Z" fill="#E9993E"/>
<path d="M0.845501 8.45557L0.74231 8.49308L0.779867 8.59628L0.883059 8.55871L0.845501 8.45557Z" fill="#E9993E"/>
<path d="M0.634467 8.53223L0.283325 8.66003L0.320882 8.76323L0.672019 8.63542L0.634467 8.53223Z" fill="#E9993E"/>
<path d="M0.65563 7.71216L0.547485 7.73122L0.566549 7.83937L0.674693 7.82031L0.65563 7.71216Z" fill="#E9993E"/>
<path d="M0.434642 7.75L0.0666504 7.81488L0.0857251 7.92303L0.453717 7.85815L0.434642 7.75Z" fill="#E9993E"/>
<path d="M0.599314 6.94604H0.489502V7.05585H0.599314V6.94604Z" fill="#E9993E"/>
<path d="M0.373672 6.94604H0V7.05585H0.373672V6.94604Z" fill="#E9993E"/>
<path d="M0.56632 6.16382L0.547241 6.27196L0.65539 6.29104L0.674464 6.18289L0.56632 6.16382Z" fill="#E9993E"/>
<path d="M0.0854699 6.07812L0.0664062 6.18627L0.434398 6.25114L0.453462 6.14299L0.0854699 6.07812Z" fill="#E9993E"/>
<path d="M0.779623 5.40601L0.742065 5.5092L0.845257 5.54675L0.882814 5.44356L0.779623 5.40601Z" fill="#E9993E"/>
<path d="M0.321125 5.23975L0.283569 5.34294L0.634707 5.47074L0.672264 5.36754L0.321125 5.23975Z" fill="#E9993E"/>
<path d="M1.12021 4.69751L1.06531 4.79261L1.16041 4.84752L1.21531 4.75242L1.12021 4.69751Z" fill="#E9993E"/>
<path d="M0.698343 4.45312L0.643433 4.54822L0.967035 4.73506L1.02194 4.63996L0.698343 4.45312Z" fill="#E9993E"/>
<path d="M1.58096 4.05786L1.51038 4.14199L1.5945 4.21258L1.66509 4.12845L1.58096 4.05786Z" fill="#E9993E"/>
<path d="M1.20645 3.7439L1.13586 3.82802L1.42213 4.06822L1.49272 3.98409L1.20645 3.7439Z" fill="#E9993E"/>
<path d="M2.14284 3.50854L2.05872 3.57914L2.1293 3.66327L2.21344 3.59267L2.14284 3.50854Z" fill="#E9993E"/>
<path d="M1.82936 3.13477L1.74524 3.20535L1.98543 3.49159L2.06955 3.421L1.82936 3.13477Z" fill="#E9993E"/>
<path d="M2.792 3.06543L2.6969 3.12033L2.7518 3.21543L2.8469 3.16053L2.792 3.06543Z" fill="#E9993E"/>
<path d="M2.54896 2.64209L2.45386 2.69699L2.64069 3.0206L2.73579 2.96569L2.54896 2.64209Z" fill="#E9993E"/>
<path d="M3.50932 2.74243L3.40613 2.77999L3.44368 2.88318L3.54687 2.84562L3.50932 2.74243Z" fill="#E9993E"/>
<path d="M3.34196 2.28247L3.23877 2.32003L3.36656 2.67117L3.46975 2.63361L3.34196 2.28247Z" fill="#E9993E"/>
<path d="M4.27245 2.54785L4.16431 2.56692L4.18337 2.67506L4.29151 2.656L4.27245 2.54785Z" fill="#E9993E"/>
<path d="M4.18725 2.06616L4.0791 2.08524L4.14401 2.45323L4.25216 2.43415L4.18725 2.06616Z" fill="#E9993E"/>
<path d="M4.94617 2.59785H5.00107H5.00262H5.056V2.48804H5.00262H5.00107H4.94617V2.59785Z" fill="#E9993E"/>
<path d="M4.94617 2V2.37367H5.00107H5.056V2H5.00262H4.94617Z" fill="#E9993E"/>
<path d="M5.09874 3.07789L5.10179 2.9574L5.00111 2.95435H4.99959L4.89893 2.9574L4.9096 3.32954L4.98739 3.32802C4.99196 3.32802 4.99654 3.32802 5.00111 3.32802L5.09263 3.33107L5.09569 3.21058L5.00111 3.20753V3.07636L5.09874 3.07789Z" fill="#E9993E"/>
<path d="M5.16895 11.1694L5.03324 11.1725H5.00273H4.96918L4.83343 11.1694L4.82886 11.2899L4.96765 11.293L5.00121 11.2945L5.03474 11.293L5.17355 11.2899L5.16895 11.1694Z" fill="#E9993E"/>
<path d="M5.31229 11.2825C5.35801 11.2795 5.40528 11.2764 5.451 11.2719L5.58522 11.2551L5.6538 11.246L5.72243 11.2338L5.85964 11.2094L5.83523 11.0904L5.70262 11.1148L5.63549 11.127L5.56841 11.1362L5.55165 11.0127C5.61873 11.0051 5.68431 10.9913 5.74984 10.9806L5.68126 10.6147L5.60502 10.6284L5.56841 10.6345C5.5471 10.6376 5.52419 10.6406 5.50133 10.6437L5.48457 10.5202L5.541 10.5125L5.59737 10.5019L5.71022 10.4821C5.74834 10.4744 5.78496 10.4653 5.82307 10.4562L5.87945 10.444C5.89776 10.4394 5.91607 10.4333 5.93437 10.4287L5.96639 10.5492L5.92217 10.5614C5.90691 10.5659 5.89321 10.569 5.87795 10.572L5.78951 10.5918L5.81542 10.7108L5.90691 10.6894C5.92217 10.6864 5.93743 10.6833 5.95263 10.6788L5.9984 10.6666L6.11276 10.6345C6.13562 10.6284 6.15698 10.6208 6.17834 10.6132L6.2195 10.7382L6.17373 10.7534C6.15848 10.758 6.14322 10.7626 6.12646 10.7672L6.03192 10.7931L5.98465 10.8068C5.96944 10.8114 5.95263 10.8144 5.93743 10.8175L5.84288 10.8388L5.86879 10.9578L5.96639 10.9349C5.98315 10.9303 5.9984 10.9273 6.01516 10.9227L6.06393 10.909L6.096 11.0294C6.07464 11.0355 6.05328 11.0416 6.03042 11.0477L5.96484 11.063C5.92062 11.0736 5.8764 11.0828 5.83218 11.0935L5.85659 11.2124C5.90236 11.2033 5.94653 11.1926 5.9923 11.1819L6.05938 11.1667C6.08224 11.1606 6.1036 11.1545 6.12646 11.1484L6.25607 11.1118C6.30029 11.0981 6.34451 11.0828 6.38873 11.0675C6.43295 11.0523 6.47717 11.0386 6.51984 11.0203L6.47717 10.9075C6.436 10.9242 6.39178 10.9379 6.34906 10.9532C6.30639 10.9669 6.26367 10.9821 6.221 10.9959L6.18439 10.877C6.24847 10.8571 6.31095 10.8343 6.37502 10.8129L6.24847 10.4622L6.17528 10.4866L6.14022 10.4988C6.11886 10.5049 6.0975 10.5141 6.07614 10.5202L6.03957 10.4012C6.07614 10.3906 6.11276 10.3769 6.14932 10.3647C6.18594 10.3525 6.22251 10.3403 6.25762 10.3266L6.36432 10.2838C6.38263 10.2777 6.39939 10.2686 6.41769 10.261L6.46952 10.2366L6.52139 10.3494L6.4375 10.3875C6.41009 10.3997 6.38108 10.4104 6.35211 10.421L6.39633 10.5339C6.4253 10.5217 6.45431 10.511 6.48327 10.4988L6.56866 10.4607C6.60523 10.444 6.64185 10.4287 6.67691 10.4104L6.73789 10.3784L6.79737 10.4943L6.71043 10.5384C6.68146 10.5537 6.651 10.5659 6.62199 10.5796L6.5336 10.6193C6.50308 10.6315 6.47257 10.6437 6.44361 10.6559L6.48783 10.7687C6.51834 10.7565 6.55035 10.7443 6.58082 10.7306L6.67231 10.6894L6.72418 10.8023L6.66316 10.8297C6.64185 10.8388 6.62199 10.8495 6.60068 10.8571L6.47412 10.9075L6.51679 11.0203L6.6464 10.9684C6.66776 10.9608 6.68912 10.9501 6.71043 10.941L6.77446 10.912C6.81563 10.8937 6.85679 10.8755 6.89646 10.8541L7.01997 10.7901C7.04133 10.7794 7.06114 10.7672 7.08095 10.7565L7.14192 10.7214L7.08095 10.6162L7.02302 10.6498C7.00321 10.6605 6.98335 10.6727 6.96354 10.6818L6.84309 10.7428L6.78821 10.6315L6.87815 10.5857L6.92237 10.5629L6.96659 10.5384L6.78516 10.2122L6.7516 10.232C6.74094 10.2381 6.72874 10.2442 6.71653 10.2503L6.68301 10.2671L6.62354 10.2976L6.56866 10.1862L6.67081 10.1344C6.68757 10.1268 6.70432 10.1161 6.72113 10.107L6.77145 10.078C6.83854 10.0414 6.90256 9.9972 6.96659 9.95753L7.03523 10.0612L6.95899 10.11L6.92087 10.1344L6.90101 10.1466L6.88121 10.1573L6.94373 10.261L6.96354 10.2488L6.98335 10.2366L7.02302 10.2106L7.10231 10.1603C7.11906 10.1497 7.13582 10.1375 7.15108 10.1268L7.1999 10.0917L7.25628 10.0521L7.33406 10.1573L7.25478 10.2137L7.21511 10.2427C7.2014 10.2518 7.1892 10.261 7.17549 10.2701L7.09315 10.3235L7.05198 10.3494L7.03217 10.3631L7.01081 10.3753L7.07334 10.479L7.09465 10.4668L7.11601 10.4531L7.15873 10.4256L7.24257 10.3708L7.3112 10.4744C7.23497 10.5232 7.16023 10.5736 7.08095 10.6162L7.14192 10.7214C7.22276 10.6772 7.3005 10.6254 7.37828 10.5751C7.39809 10.5629 7.41485 10.5492 7.43316 10.5369L7.48803 10.4973C7.56427 10.4455 7.63595 10.386 7.70913 10.3296L7.6329 10.2366C7.56126 10.2915 7.49263 10.3494 7.4179 10.3997L7.34472 10.2991C7.37218 10.2793 7.39964 10.261 7.42555 10.2396L7.50484 10.1771L7.27308 9.88435L7.21206 9.93317C7.20295 9.94078 7.19225 9.94838 7.18159 9.95603L7.12672 9.99415L7.05348 9.8935C7.11756 9.85083 7.17549 9.80051 7.23647 9.75474C7.25172 9.74259 7.26543 9.73038 7.28069 9.71817L7.32491 9.68006C7.35387 9.65565 7.38283 9.62973 7.4103 9.60382L7.49568 9.69531L7.46212 9.72733L7.42705 9.75779L7.35847 9.81727L7.43621 9.91026L7.50789 9.84928L7.54296 9.81882L7.57647 9.78676L7.66341 9.70447C7.68017 9.68921 7.69543 9.6709 7.71218 9.65415L7.80518 9.74564C7.71523 9.83863 7.61919 9.92707 7.5201 10.0109L7.59783 10.1039L7.67407 10.0384L7.71218 10.0048L7.7488 9.96974L7.83419 10.0612C7.80212 10.0932 7.76706 10.1222 7.73354 10.1512L7.68172 10.1954C7.66491 10.2106 7.64815 10.2259 7.62985 10.2396L7.70608 10.3327C7.72439 10.3189 7.74115 10.3021 7.75945 10.2884L7.81128 10.2427C7.84634 10.2122 7.88141 10.1817 7.91498 10.1497L8.01257 10.0567C8.04609 10.0246 8.0766 9.98955 8.10861 9.95603L8.15589 9.90571C8.17264 9.88895 8.1864 9.87064 8.20161 9.85389L8.11167 9.77305C8.09641 9.78981 8.0827 9.80812 8.06745 9.82337L8.02017 9.87214C7.98816 9.90421 7.9592 9.93772 7.92563 9.96974L7.83724 9.8813C7.88446 9.83403 7.93023 9.78526 7.97595 9.73648L7.69998 9.48487L7.6466 9.54129L7.62069 9.56876C7.60543 9.58401 7.59023 9.60227 7.57342 9.61603L7.48503 9.52759C7.51244 9.50013 7.53835 9.47266 7.56427 9.44525L7.60393 9.40408C7.61764 9.39038 7.62985 9.37512 7.64205 9.36136L7.71679 9.27447C7.74115 9.24551 7.76401 9.215 7.78842 9.18453L7.88751 9.26077L7.83114 9.3324C7.82198 9.3446 7.81128 9.35526 7.80212 9.36746L7.77166 9.40253L7.86315 9.48182L7.89362 9.44675C7.90432 9.43455 7.91498 9.42389 7.92413 9.41018L7.98206 9.33545L8.01867 9.28818C8.03088 9.27292 8.04153 9.25616 8.05374 9.23941L8.09336 9.18298L8.20011 9.25772L8.14368 9.337L8.12997 9.35681L8.11472 9.37662L8.0842 9.41474L8.02323 9.49097C8.01407 9.50473 8.00187 9.51538 7.99121 9.52909L7.9592 9.56571L8.05069 9.64499L8.0842 9.60687C8.09491 9.59467 8.10711 9.58096 8.11627 9.56876L8.17875 9.48947L8.27784 9.56571C8.25043 9.60077 8.22297 9.63734 8.194 9.6709L8.10556 9.77305L8.19555 9.85389L8.287 9.74864C8.31596 9.71357 8.34497 9.67545 8.37393 9.64039L8.4151 9.58706C8.42881 9.56876 8.44101 9.55045 8.45472 9.53214L8.53556 9.41934C8.56147 9.38122 8.58588 9.34155 8.61179 9.30194L8.50965 9.23786C8.48523 9.27597 8.46082 9.31409 8.43641 9.35071L8.35868 9.46051L8.25803 9.38732L8.31601 9.30499C8.32511 9.29123 8.33582 9.27752 8.34497 9.26382L8.37238 9.2211L8.05984 9.01681C8.04608 9.03812 8.03238 9.06103 8.01712 9.08234L7.99581 9.11285L7.9577 9.16772L7.85705 9.09454L7.92413 9C7.94549 8.96798 7.9653 8.93597 7.98666 8.90395L8.01712 8.85518C8.02783 8.83842 8.03698 8.82162 8.04608 8.80486L8.10406 8.70576L8.21381 8.76519C8.18335 8.81706 8.15438 8.87044 8.12232 8.92376L8.22602 8.98629C8.25803 8.93292 8.28855 8.87804 8.32056 8.82317C8.33887 8.7881 8.35713 8.75304 8.37544 8.71642L8.40745 8.65544L8.52485 8.71187C8.49439 8.76979 8.46543 8.82772 8.43491 8.88565C8.4029 8.94207 8.37088 8.9985 8.33732 9.05492L8.44102 9.1174C8.47608 9.05947 8.5081 9.00155 8.54166 8.94362L8.65141 9.00305L8.58433 9.12045C8.57367 9.14031 8.56297 9.16012 8.55081 9.17843L8.5142 9.2348L8.61634 9.29888L8.65446 9.24091C8.66667 9.2211 8.67732 9.20129 8.68953 9.18148L8.75816 9.06103C8.77952 9.02136 8.79933 8.98174 8.82069 8.94057L8.8527 8.87804C8.86336 8.85668 8.87251 8.83537 8.88166 8.81551L8.93959 8.68896L8.82829 8.64168L8.77187 8.76519C8.76271 8.78505 8.75356 8.80636 8.7429 8.82622L8.71239 8.8872L8.60109 8.83077L8.624 8.78655C8.6316 8.77129 8.63921 8.75609 8.64531 8.74083L8.68648 8.64934L8.34647 8.49837L8.31446 8.57005C8.30991 8.58071 8.3038 8.59291 8.2992 8.60357L8.26874 8.66304L8.15744 8.60662L8.18335 8.5548C8.1925 8.53804 8.20011 8.51973 8.20771 8.50297L8.25498 8.39777C8.27024 8.36271 8.28394 8.32609 8.2977 8.29103L8.31901 8.23765C8.32666 8.21934 8.33122 8.20108 8.33732 8.18278L8.45472 8.22394L8.43946 8.26661L8.42271 8.30933L8.38919 8.39472L8.50199 8.44044L8.53706 8.352L8.55382 8.30778L8.56907 8.26356L8.60719 8.15076L8.61329 8.13395L8.6179 8.1172L8.62705 8.08368L8.75206 8.12025C8.71544 8.2453 8.67122 8.36726 8.62245 8.48771L8.73375 8.53344L8.77036 8.44044L8.78867 8.39317L8.80543 8.3459L8.92283 8.38707C8.91518 8.40843 8.90908 8.42979 8.89997 8.4511L8.87556 8.51363C8.8588 8.5548 8.84355 8.59751 8.82524 8.63868L8.93654 8.68591C8.95485 8.64324 8.97161 8.59902 8.98836 8.55635L9.01433 8.49077C9.02348 8.46941 9.02953 8.44655 9.03719 8.42519L9.07986 8.29713C9.08751 8.27577 9.09361 8.25291 9.09971 8.23005L9.11797 8.16297C9.13018 8.11875 9.14393 8.07453 9.15304 8.02876L9.03564 7.99979C9.02648 8.04401 9.01277 8.08673 9.00057 8.1309L8.98231 8.19648C8.97621 8.21784 8.97011 8.2407 8.96245 8.26051L8.84355 8.22239C8.84965 8.20714 8.8542 8.19038 8.8588 8.17362L8.87251 8.12485L8.89997 8.02876L8.53861 7.93421L8.51725 8.00895L8.50659 8.04556L8.49744 8.07758L8.49284 8.09434L8.48674 8.10959L8.36783 8.07148C8.37393 8.05317 8.37849 8.03486 8.38459 8.01655L8.39985 7.96168C8.4105 7.92511 8.42121 7.88849 8.42881 7.85037L8.45472 7.73907C8.45932 7.72077 8.46237 7.70096 8.46543 7.68265L8.47608 7.62622L8.59804 7.64758L8.58283 7.73752C8.57673 7.76654 8.56907 7.797 8.56297 7.82596L8.68037 7.85343C8.68803 7.82291 8.69413 7.79245 8.70173 7.76193L8.71849 7.66894L8.7292 7.60947L8.73375 7.5805L8.73835 7.55154L8.7475 7.48291L8.87706 7.49966L8.86491 7.59576L8.8481 7.6918L8.83134 7.78785C8.82524 7.81986 8.81764 7.85188 8.80998 7.88239L8.92739 7.90985C8.93504 7.87784 8.94264 7.84427 8.95025 7.81226L8.96855 7.71316L9.09056 7.73447L9.07835 7.8016C9.07375 7.82446 9.0707 7.84582 9.06465 7.86713L9.03413 7.99829L9.15154 8.02726L9.18355 7.89154C9.18966 7.86868 9.19271 7.84582 9.19726 7.82291L9.20946 7.75433L9.22167 7.68725L9.22777 7.65369L9.23232 7.62012C9.24303 7.52868 9.25829 7.43564 9.26284 7.34414L9.14238 7.33504C9.13783 7.42498 9.12408 7.51492 9.11342 7.60336L8.98991 7.58505L9.00212 7.48596L9.00822 7.43564L9.01127 7.41127L9.01277 7.38686L8.64226 7.3518C8.64076 7.37771 8.63615 7.40362 8.6331 7.42953L8.62855 7.46615L8.6194 7.53323L8.49589 7.51492C8.50504 7.43869 8.51725 7.36245 8.5203 7.28622C8.52335 7.2481 8.5264 7.20998 8.5279 7.17187L8.53096 7.05601L8.65601 7.05751L8.65296 7.14901C8.65296 7.16426 8.65296 7.17947 8.65141 7.19473L8.64836 7.2405L8.76881 7.2481L8.77187 7.20083C8.77342 7.18557 8.77342 7.16881 8.77342 7.15356L8.77647 7.05906L8.77797 6.99958L8.77647 6.94011L8.77492 6.8715L8.90608 6.86692C8.90758 6.93249 8.91063 6.99653 8.90758 7.06207L8.90453 7.15966C8.90453 7.17647 8.90453 7.19167 8.90302 7.20848L8.89997 7.25725L9.02043 7.26486L9.02348 7.21459C9.02498 7.19778 9.02498 7.18102 9.02498 7.16426L9.02803 7.06362L9.15304 7.06512L9.14999 7.20083C9.14849 7.24505 9.14393 7.29082 9.14088 7.33504L9.26134 7.34414C9.26439 7.29842 9.26894 7.25115 9.27044 7.20543L9.27349 7.06667L9.27504 6.99958L9.27349 6.93249L9.27044 6.79374C9.26894 6.74799 9.26439 6.70073 9.26134 6.65499L9.14088 6.66414C9.14393 6.70835 9.14849 6.7541 9.14999 6.79831L9.15304 6.93401L9.02803 6.93554L9.02498 6.8349C9.02498 6.81813 9.02498 6.80136 9.02348 6.78459L9.02043 6.73427L8.64836 6.75867C8.64991 6.78459 8.65296 6.81051 8.65296 6.83643L8.65446 6.87455L8.65601 6.94164L8.53096 6.94316L8.5279 6.82728C8.5264 6.78916 8.5218 6.75104 8.5203 6.71293C8.5157 6.63669 8.50504 6.56045 8.49589 6.48422L8.6194 6.46592L8.6316 6.55588L8.6377 6.60162L8.64076 6.62449L8.64226 6.64736L8.76271 6.63669L8.76121 6.61382L8.75816 6.59095L8.75206 6.54368L8.73985 6.45067L8.7353 6.4217L8.7307 6.39273L8.7368 6.33327L8.72459 6.26466L8.8527 6.23874L8.86946 6.33479C8.87556 6.36681 8.88166 6.39883 8.88472 6.43085L8.89692 6.52691L8.90302 6.5757L8.90608 6.6001L8.90758 6.62449L9.02803 6.61382L9.02653 6.58942L9.02348 6.56503L9.01738 6.51471L9.00517 6.4156L9.12868 6.39731C9.13933 6.48726 9.15304 6.5757 9.15764 6.66566L9.2781 6.65651C9.27349 6.5635 9.25979 6.47202 9.24758 6.38054L9.24303 6.34699L9.23693 6.31345L9.22472 6.24636L9.21252 6.17775C9.20796 6.15487 9.20491 6.132 9.19881 6.10913L9.16679 5.97343L9.04939 6.0024L9.07986 6.13353C9.08596 6.15487 9.08901 6.17775 9.09361 6.20062L9.10582 6.2677L8.98381 6.28905L8.9655 6.18994C8.9579 6.15792 8.95025 6.12438 8.94264 6.09236L8.57978 6.17622L8.59804 6.25246C8.60109 6.26466 8.60264 6.27685 8.60569 6.28905L8.6179 6.35461L8.49589 6.37596L8.48524 6.31955C8.48218 6.30125 8.47913 6.28143 8.47453 6.26313L8.44862 6.15183C8.44101 6.11371 8.42881 6.07711 8.41966 6.04052L8.4044 5.98563C8.3983 5.96733 8.39524 5.94904 8.38764 5.93074L8.50659 5.89262C8.51115 5.90635 8.5157 5.92159 8.5203 5.93684L8.53251 5.98105L8.55687 6.06949L8.67427 6.039L8.64836 5.94903L8.63615 5.90329C8.6316 5.88805 8.62855 5.8728 8.62245 5.85755L8.58433 5.74472C8.57673 5.72338 8.57062 5.70051 8.56147 5.67916L8.68343 5.63342C8.68953 5.64867 8.69563 5.66391 8.70023 5.67916L8.71544 5.7249L8.74595 5.81791C8.75206 5.83316 8.75511 5.8484 8.75966 5.86518L8.77342 5.91244L8.79933 6.00698L8.91673 5.97648L8.88927 5.88042L8.87556 5.83163C8.87096 5.81486 8.86641 5.79961 8.86031 5.78284L8.97926 5.74472C8.98686 5.76607 8.99297 5.78742 8.99907 5.80876L9.01738 5.87433C9.02953 5.91854 9.04329 5.96123 9.05244 6.00545L9.16985 5.97648C9.16069 5.93074 9.14694 5.88652 9.13478 5.84231L9.11647 5.77522C9.11037 5.75235 9.10427 5.731 9.09666 5.70813L9.05394 5.58005C9.04634 5.55871 9.04024 5.53584 9.03108 5.51449L9.00517 5.44893C8.98836 5.40623 8.97161 5.36202 8.9533 5.31932L8.842 5.36659C8.86031 5.40776 8.87556 5.45045 8.89232 5.49162L8.91673 5.55413C8.92589 5.57548 8.93199 5.59682 8.93959 5.61817L8.82219 5.65934L8.80543 5.61207L8.78712 5.5648L8.75056 5.4718L8.40595 5.6136L8.43491 5.68679L8.44862 5.72185C8.45777 5.7432 8.46387 5.76455 8.47153 5.78436L8.35413 5.82553C8.34802 5.80724 8.34192 5.78894 8.33582 5.77064L8.31446 5.71728C8.30075 5.68221 8.28699 5.64562 8.27179 5.61055L8.22452 5.50534C8.21686 5.48857 8.20926 5.47027 8.20011 5.4535L8.17419 5.40166L8.28549 5.34524L8.30685 5.38641C8.31446 5.40013 8.32056 5.41386 8.32666 5.42758L8.36478 5.51144L8.47608 5.46265L8.43796 5.37726C8.43186 5.36354 8.42426 5.3483 8.41815 5.33457L8.3968 5.29188C8.37849 5.25681 8.36018 5.22022 8.34192 5.18515L8.30685 5.12568L8.41966 5.06165C8.43491 5.09061 8.45322 5.11806 8.46693 5.14703L8.51115 5.23394L8.53401 5.27663C8.54166 5.29035 8.54926 5.3056 8.55537 5.32085L8.59499 5.40928L8.70634 5.36049L8.66517 5.26901C8.65906 5.25376 8.65141 5.23851 8.64381 5.22326L8.62095 5.17905L8.73225 5.12263L8.76271 5.18362C8.77342 5.20345 8.78102 5.22479 8.79167 5.24461L8.8481 5.36812L8.9594 5.32085L8.90147 5.1943C8.89232 5.17295 8.88317 5.1516 8.87251 5.13178L8.8405 5.06927C8.81914 5.02963 8.79933 4.98846 8.77797 4.94881L8.70939 4.82836C8.69718 4.80854 8.68648 4.78719 8.67427 4.7689L8.63615 4.71096L8.53401 4.775L8.57062 4.83141C8.58283 4.84971 8.59348 4.87105 8.60414 4.88935L8.67127 5.00676L8.56147 5.06622C8.5279 5.00828 8.49589 4.95034 8.46082 4.8924L8.14218 5.08756C8.15589 5.10891 8.16809 5.13178 8.1818 5.15465L8.20011 5.18667L8.23367 5.24461L8.12387 5.30408L8.06594 5.20497C8.05679 5.1882 8.04764 5.17143 8.03698 5.15465L8.00647 5.10586C7.98511 5.07384 7.9653 5.0403 7.94394 5.0098L7.87686 4.91527L7.9775 4.84209L8.03088 4.91679C8.03998 4.929 8.04914 4.94119 8.05679 4.95491L8.08115 4.99303L8.1818 4.92594L8.15589 4.8863C8.14673 4.87258 8.13758 4.86038 8.12842 4.84818L8.07355 4.77194C8.06134 4.75518 8.05069 4.73992 8.03848 4.72316L8.00187 4.67589L7.9592 4.621L8.06134 4.53866C8.14218 4.63929 8.21991 4.7445 8.29005 4.85428L8.39069 4.7872L8.36323 4.7445C8.35413 4.73078 8.34342 4.71705 8.33427 4.70333L8.27634 4.621L8.37699 4.54781L8.45472 4.65759C8.48063 4.69418 8.50354 4.73383 8.5279 4.77042L8.6301 4.70486C8.60414 4.66522 8.57978 4.6271 8.55382 4.58745L8.47303 4.47462C8.45932 4.45633 8.44712 4.43803 8.43341 4.41973L8.39224 4.36637C8.36323 4.32977 8.33582 4.29318 8.3053 4.25811L8.21381 4.15291L8.12387 4.23372L8.21231 4.33588C8.24127 4.37094 8.26874 4.40601 8.29615 4.44108L8.19705 4.51732L8.13453 4.43803C8.12387 4.42431 8.11322 4.41211 8.10251 4.39991L8.069 4.36179L7.78692 4.60423L7.83724 4.66369L7.8601 4.69266L7.90127 4.74603L7.80212 4.82226C7.77776 4.79177 7.7549 4.76127 7.73049 4.7323L7.65576 4.64539C7.64355 4.63167 7.6314 4.61642 7.61764 4.6027L7.57802 4.56153C7.55056 4.53409 7.52615 4.50512 7.49874 4.4792L7.58718 4.39077C7.62985 4.43345 7.67101 4.4792 7.71373 4.52189L7.80367 4.43956C7.75945 4.39381 7.71679 4.34807 7.67257 4.30386L7.58563 4.22152C7.56887 4.20627 7.55211 4.1895 7.5353 4.17425L7.62224 4.07667L7.64055 4.09191L7.65881 4.10869L7.69388 4.14223L7.76401 4.20932C7.80978 4.25506 7.854 4.30386 7.89972 4.3496L7.98971 4.26726C7.94394 4.21847 7.89822 4.16968 7.85095 4.12241L7.93939 4.03398C7.9714 4.066 8.00186 4.09954 8.03393 4.13156L8.08115 4.18035C8.09641 4.19712 8.11166 4.2139 8.12537 4.23067L8.21536 4.14986C8.20011 4.13308 8.18485 4.11479 8.16959 4.09802L8.12232 4.0477C8.09031 4.01415 8.05829 3.98061 8.02628 3.94707L7.92868 3.85406C7.89517 3.82204 7.8601 3.79154 7.82503 3.76105L7.77316 3.71531C7.7549 3.70006 7.7381 3.68481 7.71984 3.67109L7.64355 3.7641C7.66186 3.77782 7.67867 3.79307 7.69543 3.80832L7.74725 3.85254C7.78081 3.8815 7.81588 3.91047 7.84789 3.94249L7.76251 4.03398L7.72589 3.99891L7.68777 3.96536L7.61154 3.8998L7.37063 4.18493L7.4301 4.23677L7.45907 4.26116C7.47588 4.27488 7.49263 4.29166 7.50789 4.3069L7.4225 4.39839C7.39504 4.37094 7.36608 4.34655 7.33711 4.32215L7.29289 4.28403C7.27764 4.27184 7.26393 4.25811 7.24867 4.24744C7.18769 4.20017 7.12977 4.15138 7.06569 4.10869L7.13887 4.00806C7.16328 4.02635 7.1892 4.04313 7.21361 4.06142L7.28529 4.11784L7.35997 4.0233L7.28529 3.96536C7.26088 3.94554 7.23497 3.92877 7.209 3.91047L7.16023 3.87541C7.14347 3.86473 7.12822 3.85254 7.11146 3.84186L7.05348 3.80374L7.12367 3.69396C7.15108 3.71226 7.17854 3.72903 7.206 3.74733L7.28529 3.80374C7.3112 3.82356 7.33861 3.84034 7.36458 3.86016L7.44081 3.92115L7.51549 3.82661L7.43621 3.7641C7.4103 3.74428 7.38133 3.72446 7.35542 3.70463L7.4286 3.604C7.50329 3.65432 7.57342 3.71226 7.64355 3.76715L7.71984 3.67414C7.6466 3.61772 7.57497 3.55826 7.49874 3.50642L7.44386 3.46678C7.42555 3.45458 7.40724 3.44086 7.38894 3.42866C7.3112 3.37834 7.23342 3.3265 7.15263 3.28229L7.0916 3.24722C7.07179 3.23502 7.05198 3.22434 7.03062 3.21367L6.90712 3.14964C6.8675 3.12829 6.82633 3.11151 6.78516 3.09169L6.72113 3.06273C6.69977 3.05358 6.67841 3.0429 6.65705 3.03528L6.52749 2.98344L6.48022 3.10084L6.60678 3.15116C6.62809 3.15878 6.64795 3.16945 6.66926 3.1786L6.73029 3.20605L6.67841 3.31888L6.58692 3.27771C6.55646 3.26399 6.52444 3.25332 6.49393 3.23959L6.35672 3.58571L6.4299 3.61468C6.44211 3.61925 6.45276 3.62535 6.46341 3.62992L6.52444 3.65737L6.47257 3.7702L6.42075 3.7458C6.40244 3.73818 6.38568 3.72903 6.36737 3.72293L6.26062 3.68024C6.22556 3.66499 6.18899 3.65432 6.15237 3.64212C6.11581 3.62992 6.08074 3.6162 6.04262 3.60553L6.07919 3.4866C6.13717 3.5049 6.19509 3.52472 6.25302 3.54454L6.29419 3.43018C6.23471 3.41036 6.17528 3.38901 6.11581 3.37072L6.00145 3.3387L5.96789 3.32955L5.95113 3.32498L5.93437 3.3204L5.96639 3.19385C5.98165 3.1969 5.9984 3.20147 6.01366 3.20605L6.06093 3.21977L6.15542 3.24569C6.21795 3.26551 6.27893 3.28686 6.33991 3.30821L6.38108 3.19385C6.31705 3.17251 6.25457 3.14964 6.19049 3.12981L6.22711 3.01088C6.26978 3.02308 6.3125 3.03986 6.35517 3.05358C6.39789 3.06882 6.44055 3.08255 6.48327 3.09932L6.52594 2.98649C6.48327 2.96819 6.43905 2.95447 6.39483 2.93922C6.35061 2.92397 6.30639 2.90873 6.26217 2.895L6.13256 2.85841C6.1097 2.85231 6.08834 2.84469 6.06548 2.84011L5.9984 2.82487C5.95263 2.81419 5.90841 2.80352 5.86269 2.79437L5.83828 2.9133C5.8825 2.92245 5.92672 2.93312 5.97094 2.9438L6.03652 2.95904C6.05788 2.96362 6.08074 2.97124 6.1021 2.97734L6.07004 3.09779L6.02126 3.08407C6.00451 3.0795 5.98925 3.07645 5.97249 3.07188L5.8749 3.049L5.79561 3.41341L5.87185 3.43171L5.90841 3.44086L5.92522 3.4439L5.94198 3.44848L5.97399 3.45763L5.94198 3.57808C5.92367 3.57351 5.90536 3.56741 5.8871 3.56283L5.83068 3.55064C5.79256 3.54149 5.75594 3.53234 5.71783 3.52472L5.60502 3.5049L5.5486 3.49422L5.49217 3.4866L5.50898 3.3631C5.56996 3.3692 5.62939 3.38139 5.68886 3.39207L5.71172 3.27314C5.64924 3.26246 5.58827 3.25027 5.52574 3.24264L5.40678 3.2274C5.38392 3.22434 5.36106 3.22434 5.3382 3.2213L5.34886 3.09169C5.41444 3.09475 5.47847 3.10542 5.5425 3.11304C5.60653 3.11914 5.67055 3.13286 5.73463 3.14353L5.75749 3.02461C5.69191 3.01393 5.62638 3.00021 5.55925 2.99259L5.57606 2.86908L5.64314 2.87823L5.71022 2.89043L5.84288 2.91482L5.86724 2.79589L5.73003 2.7715L5.66145 2.7593L5.59282 2.75015L5.45866 2.73338C5.41289 2.72881 5.36562 2.72576 5.31989 2.72271C5.27412 2.71966 5.2269 2.71509 5.18113 2.71509L5.17658 2.83554C5.2223 2.83554 5.26652 2.84011 5.31074 2.84316C5.35496 2.84621 5.40068 2.84926 5.4449 2.85384L5.4327 2.97734C5.36562 2.97124 5.29853 2.96667 5.23301 2.96209L5.21315 3.33412L5.29093 3.34023L5.32905 3.34327C5.35191 3.3448 5.37327 3.34633 5.39613 3.34937L5.38392 3.47288C5.34581 3.4683 5.30769 3.46678 5.26957 3.46373C5.23145 3.46068 5.19334 3.45763 5.15522 3.45763L5.03932 3.45458H5.01341H4.98597L4.8701 3.45763C4.83198 3.45763 4.79386 3.4622 4.75574 3.46373C4.71762 3.46678 4.6795 3.4683 4.64139 3.47288L4.62919 3.34937C4.69018 3.34327 4.75117 3.34023 4.81063 3.33565L4.80453 3.2152C4.74202 3.21977 4.6795 3.22434 4.61699 3.23044L4.49806 3.24569C4.47519 3.24874 4.45232 3.25179 4.42945 3.25484L4.40963 3.12524C4.47366 3.11609 4.53923 3.10847 4.60327 3.10084C4.66731 3.09475 4.73287 3.09017 4.79843 3.0856L4.79233 2.96514C4.72524 2.96971 4.65816 2.97429 4.59259 2.98039L4.5804 2.85689C4.62461 2.85231 4.67035 2.84926 4.71457 2.84621C4.75879 2.84316 4.80453 2.83859 4.84875 2.83859L4.84417 2.71813C4.79843 2.71813 4.75117 2.72271 4.70543 2.72576C4.65968 2.72881 4.61242 2.73186 4.56667 2.73643L4.4325 2.75321L4.36388 2.76235L4.29527 2.77455L4.15805 2.79895L4.18244 2.91788L4.31509 2.89348L4.38218 2.88128L4.44927 2.87213L4.46604 2.99564C4.39896 3.00326 4.33339 3.01698 4.26783 3.02766L4.33644 3.39359L4.41268 3.37987L4.44927 3.37377C4.47061 3.37072 4.49349 3.36767 4.51636 3.36462L4.53313 3.48812L4.47672 3.49575L4.4203 3.50642L4.30747 3.52624C4.26935 3.53387 4.23276 3.54301 4.19464 3.55216L4.13823 3.56436C4.11993 3.56894 4.10163 3.57503 4.08333 3.57961L4.05132 3.45916L4.09553 3.44696C4.11078 3.44238 4.1245 3.43933 4.13975 3.43628L4.22818 3.41646L4.20226 3.29753L4.11078 3.31888C4.09553 3.32193 4.08029 3.32498 4.06504 3.32955L4.0193 3.34175L3.90494 3.37377C3.88207 3.37987 3.86073 3.38749 3.83938 3.39512L3.79821 3.27009L3.84395 3.25484C3.8592 3.25027 3.87445 3.24569 3.89122 3.24112L3.98575 3.2152L4.03302 3.20147C4.04827 3.1969 4.06504 3.19385 4.08029 3.1908L4.17482 3.16945L4.1489 3.05053L4.05132 3.0734C4.03454 3.07797 4.0193 3.08102 4.00253 3.0856L3.95373 3.09932L3.92171 2.97886C3.94306 2.97277 3.96441 2.96667 3.98728 2.96057L4.05284 2.94532C4.09706 2.93465 4.14127 2.9255 4.18549 2.91482L4.1611 2.79589C4.11535 2.80504 4.07114 2.81572 4.0254 2.82639L3.95831 2.84164C3.93543 2.84774 3.91409 2.85384 3.89122 2.85993L3.76162 2.89653C3.7174 2.91025 3.67318 2.9255 3.62897 2.94075C3.58475 2.95599 3.54053 2.96971 3.49784 2.98801L3.54053 3.10084C3.5817 3.08407 3.62591 3.07035 3.66861 3.0551C3.7113 3.04138 3.75399 3.02613 3.79669 3.01241L3.83328 3.13134C3.76924 3.15116 3.70673 3.17403 3.64269 3.19538L3.76924 3.54607L3.84243 3.52167L3.8775 3.50947C3.89884 3.50337 3.92019 3.49422 3.94153 3.48812L3.97813 3.60705C3.94153 3.61772 3.90494 3.63145 3.86835 3.64365C3.83175 3.65585 3.79516 3.66804 3.76009 3.68176L3.65336 3.72446C3.63506 3.73055 3.61829 3.7397 3.6 3.74733L3.54815 3.77172L3.49631 3.65889L3.58017 3.62078C3.60762 3.60858 3.63659 3.5979 3.66556 3.58723L3.62134 3.4744C3.59237 3.4866 3.5634 3.49727 3.53443 3.50947L3.44905 3.54759C3.41245 3.56436 3.37586 3.57961 3.34079 3.5979L3.2798 3.62992L3.22034 3.51405L3.30725 3.46983C3.33622 3.45458 3.36671 3.44238 3.39568 3.42866L3.48411 3.38901C3.51461 3.37682 3.54511 3.36462 3.57408 3.35242L3.52986 3.23959C3.49936 3.25179 3.46734 3.26399 3.43685 3.27771L3.34537 3.31888L3.29352 3.20605L3.35452 3.1786C3.37586 3.16945 3.39568 3.15878 3.41703 3.15116L3.54358 3.10084L3.50089 2.98801L3.37129 3.03986C3.34994 3.04748 3.32859 3.05815 3.30725 3.0673L3.24321 3.09627C3.20204 3.11456 3.16087 3.13286 3.12123 3.15421L2.99773 3.21825C2.97638 3.22892 2.95656 3.24112 2.93674 3.25179L2.87575 3.28686L2.93674 3.39207L2.99468 3.35852C3.0145 3.34785 3.03432 3.33565 3.05414 3.3265L3.1746 3.26551L3.22949 3.37682L3.13953 3.42256L3.09531 3.44543L3.05109 3.46983L3.23253 3.79612L3.26608 3.7763C3.27675 3.7702 3.28895 3.7641 3.30115 3.758L3.33469 3.74123L3.39416 3.71074L3.44905 3.82204L3.34689 3.87388C3.33012 3.8815 3.31335 3.89218 3.29657 3.90133L3.24626 3.9303C3.17917 3.96689 3.11513 4.01111 3.05109 4.05075L2.98248 3.94707L3.05872 3.89828L3.09683 3.87388L3.11666 3.86168L3.13648 3.85101L3.07396 3.74733L3.05414 3.75953L3.03432 3.77172L2.99468 3.79765L2.91539 3.84796C2.89862 3.85863 2.88185 3.87083 2.8666 3.8815L2.81781 3.91657L2.7614 3.95622L2.68364 3.85101L2.76292 3.79459L2.80256 3.76563C2.81629 3.75648 2.82848 3.74733 2.84221 3.73818L2.92454 3.68481L2.96571 3.65889L2.98553 3.64517L3.00688 3.63298L2.94436 3.52929L2.92301 3.54149L2.90167 3.55521L2.85897 3.58266L2.77512 3.63755L2.70651 3.53387C2.78274 3.48507 2.85745 3.43476 2.93674 3.39207L2.87575 3.28686C2.79494 3.33108 2.71718 3.38292 2.63941 3.43323C2.6196 3.44543 2.60282 3.45916 2.58452 3.47135L2.52963 3.511C2.4534 3.56283 2.38174 3.6223 2.30855 3.67872L2.38478 3.77172C2.45645 3.71683 2.52506 3.65889 2.59977 3.60858L2.67296 3.70921C2.64551 3.72903 2.61807 3.74733 2.59215 3.76867L2.51286 3.83119L2.74462 4.12393L2.80561 4.07515C2.81476 4.06752 2.82543 4.0599 2.8361 4.05227L2.89099 4.01415L2.96418 4.11479C2.90014 4.15748 2.84221 4.2078 2.78121 4.25354C2.76597 4.26574 2.75225 4.27793 2.737 4.29013L2.69278 4.32825C2.66381 4.35264 2.63484 4.37856 2.6074 4.40449L2.52201 4.31301L2.55556 4.28099L2.59062 4.25049L2.65924 4.19102L2.58148 4.09802L2.50982 4.15901L2.47475 4.1895L2.4412 4.22152L2.35429 4.30386C2.33752 4.3191 2.32227 4.3374 2.3055 4.35417L2.21249 4.26269C2.30245 4.16968 2.39851 4.08124 2.49762 3.99738L2.41985 3.90437L2.34362 3.96994L2.3055 4.00348L2.26891 4.03855L2.18352 3.94707C2.21554 3.91505 2.25061 3.88608 2.28415 3.85711L2.336 3.81289C2.35277 3.79765 2.36954 3.7824 2.38784 3.76867L2.3116 3.67567C2.2933 3.68939 2.27653 3.70616 2.25823 3.71989L2.20639 3.76563C2.17132 3.79612 2.13626 3.82661 2.10271 3.85863L2.00513 3.95164C1.97159 3.98366 1.94109 4.01873 1.90907 4.05227L1.86181 4.10259C1.84503 4.11936 1.83131 4.13766 1.81606 4.15443L1.90602 4.23524C1.92127 4.21847 1.93499 4.20017 1.95024 4.18493L1.9975 4.13613C2.02952 4.10412 2.0585 4.07057 2.09204 4.03855L2.18047 4.12699C2.1332 4.17425 2.08746 4.22304 2.04172 4.27184L2.3177 4.52342L2.37106 4.467L2.39698 4.43956C2.41223 4.42431 2.42748 4.40601 2.44425 4.39229L2.53269 4.48072C2.50524 4.50817 2.47932 4.53561 2.4534 4.56306L2.41376 4.60423C2.40003 4.61795 2.38784 4.6332 2.37564 4.64692L2.30093 4.73383C2.27653 4.7628 2.25366 4.79329 2.22926 4.82379L2.13016 4.74755L2.18657 4.67589C2.19572 4.66369 2.20639 4.65301 2.21554 4.64082L2.24604 4.60575L2.15455 4.52647L2.12406 4.56153C2.11339 4.57373 2.10271 4.5844 2.09356 4.59812L2.03563 4.67284L1.99903 4.72011C1.98683 4.73535 1.97616 4.75212 1.96396 4.7689L1.92432 4.82531L1.81759 4.7506L1.874 4.67131L1.88772 4.65149L1.90297 4.63167L1.93347 4.59355L1.99446 4.51732C2.00361 4.50359 2.0158 4.49292 2.02648 4.4792L2.0585 4.4426L1.96701 4.36332L1.93347 4.40144C1.92279 4.41364 1.91059 4.42736 1.90145 4.43956L1.83894 4.51884L1.73983 4.4426C1.76727 4.40754 1.79472 4.37094 1.82368 4.3374L1.91212 4.23524L1.82216 4.15443L1.73068 4.25964C1.70171 4.29471 1.67273 4.33282 1.64377 4.3679L1.6026 4.42126C1.58888 4.43956 1.57668 4.45785 1.56296 4.47615L1.48215 4.58898C1.45623 4.6271 1.43183 4.66674 1.40591 4.70638L1.50807 4.77194C1.53246 4.73383 1.55686 4.69571 1.58125 4.65912L1.65901 4.54934L1.75965 4.62252L1.70171 4.70486C1.69256 4.71858 1.68188 4.7323 1.67274 4.74603L1.64529 4.78872L1.95786 4.99303C1.97159 4.97168 1.98531 4.94881 2.00055 4.92747L2.0219 4.89698L2.06002 4.84209L2.16065 4.91527L2.09356 5.0098C2.07222 5.04182 2.0524 5.07384 2.03105 5.10586L2.00055 5.15465C1.98988 5.17143 1.98074 5.1882 1.97159 5.20497L1.91364 5.30408L1.80386 5.24461C1.83436 5.19277 1.86333 5.13941 1.89535 5.08604L1.79166 5.02353C1.75965 5.07689 1.72915 5.13178 1.69713 5.18667C1.67884 5.22174 1.66054 5.25681 1.64224 5.2934L1.61022 5.35439L1.49282 5.29798C1.52331 5.24004 1.55229 5.1821 1.58278 5.12416C1.6148 5.06774 1.64682 5.01133 1.68036 4.95491L1.57668 4.8924C1.54161 4.95034 1.50959 5.00828 1.47605 5.06622L1.36627 5.00676L1.43336 4.88935C1.44555 4.86953 1.4547 4.84971 1.4669 4.83141L1.50349 4.775L1.40134 4.71096L1.36322 4.7689C1.35102 4.78872 1.34035 4.80854 1.32815 4.82836L1.25954 4.94881C1.23819 4.98846 1.21837 5.0281 1.19702 5.06927L1.165 5.13178C1.15433 5.15313 1.14518 5.17447 1.13603 5.1943L1.07809 5.32085L1.1894 5.36812L1.24582 5.24461C1.25496 5.22479 1.26411 5.20345 1.27478 5.18362L1.30528 5.12263L1.41658 5.17905L1.39371 5.22326C1.38609 5.23851 1.37847 5.25376 1.37237 5.26901L1.3312 5.36049L1.67121 5.51144L1.70323 5.43978C1.70781 5.4291 1.7139 5.41691 1.71848 5.40623L1.74897 5.34677L1.86028 5.40319L1.83436 5.45502C1.82521 5.4718 1.81759 5.4901 1.80996 5.50686L1.7627 5.61207C1.74745 5.64714 1.73373 5.68373 1.72001 5.7188L1.69866 5.77217C1.69103 5.79047 1.68646 5.80876 1.68036 5.82706L1.56296 5.78589L1.5782 5.7432L1.59497 5.70051L1.62852 5.61512L1.51569 5.56938L1.48062 5.65781L1.46385 5.70203L1.4486 5.74625L1.41049 5.85908L1.40439 5.87585L1.39981 5.89262L1.39066 5.92616L1.26563 5.88957C1.30223 5.76455 1.34645 5.64257 1.39524 5.52212L1.28241 5.47637L1.24582 5.56938L1.22752 5.61665L1.21074 5.66391L1.09334 5.62275C1.10096 5.6014 1.10706 5.58005 1.11621 5.55871L1.14061 5.49619C1.15738 5.45502 1.17263 5.41233 1.19093 5.37117L1.07962 5.3239C1.06132 5.36659 1.04455 5.41081 1.02778 5.4535L1.00185 5.51906C0.99271 5.54041 0.986608 5.56328 0.978984 5.58463L0.936295 5.7127C0.928671 5.73405 0.922569 5.75692 0.916471 5.77979L0.898177 5.84688C0.885977 5.8911 0.872256 5.93531 0.863107 5.98105L0.98051 6.01003C0.989659 5.96581 1.00338 5.92312 1.01558 5.8789L1.03387 5.81334C1.03998 5.79199 1.04607 5.76912 1.0537 5.7493L1.17263 5.78742C1.16653 5.80266 1.16195 5.81944 1.15738 5.83621L1.14365 5.885L1.11621 5.98105L1.47757 6.07559L1.49892 6.00088L1.50959 5.96429L1.51874 5.93227L1.52331 5.91549L1.52941 5.90025L1.64834 5.93836C1.64224 5.95666 1.63767 5.97496 1.63157 5.99325L1.61632 6.04814C1.60565 6.08474 1.59497 6.12133 1.58735 6.15945L1.56143 6.27076C1.55686 6.28905 1.55381 6.30887 1.55076 6.32717L1.54008 6.38359L1.41811 6.36224L1.43336 6.27228C1.43945 6.24331 1.44708 6.21281 1.45318 6.18385L1.33577 6.1564C1.32815 6.18689 1.32205 6.21739 1.31443 6.24789L1.26563 6.33327L1.25496 6.39273L1.25039 6.4217L1.24582 6.45067L1.23667 6.51928L1.10706 6.50252L1.11926 6.40646L1.13603 6.3104L1.1528 6.21434C1.15891 6.18232 1.16653 6.1503 1.17415 6.11981L1.05674 6.09236C1.04912 6.12438 1.0415 6.15792 1.03387 6.18994L1.01558 6.28905L0.8936 6.2677L0.905801 6.20062C0.910373 6.17775 0.913424 6.1564 0.919522 6.13505L0.950016 6.00393L0.832613 5.97496L0.800593 6.11066C0.794495 6.13353 0.791444 6.1564 0.786872 6.17927L0.774671 6.24789L0.762476 6.31497L0.756373 6.34852L0.751801 6.38206C0.741126 6.47354 0.725879 6.56655 0.721307 6.65804L0.841762 6.66719C0.846334 6.57723 0.860055 6.48726 0.87073 6.39883L0.994231 6.41713L0.982036 6.51624L0.975938 6.56655L0.972886 6.59095L0.971361 6.61534L1.34187 6.65041C1.3434 6.62449 1.34797 6.59857 1.35102 6.57265L1.3556 6.53606L1.36474 6.46897L1.48825 6.48726C1.4791 6.5635 1.4669 6.63974 1.46385 6.71598C1.4608 6.7541 1.45775 6.79221 1.45623 6.83033L1.45318 6.94621L1.32815 6.94469L1.3312 6.8532C1.3312 6.83795 1.3312 6.82271 1.33273 6.80746L1.33577 6.76172L1.21532 6.7541L1.21227 6.80136C1.21074 6.81661 1.21074 6.83338 1.21074 6.84863L1.20769 6.94316L1.20617 7.00264L1.20769 7.06207L1.20922 7.1307L1.07809 7.1353C1.07657 7.06972 1.07352 7.00569 1.07657 6.94011L1.07962 6.84253C1.07962 6.82576 1.07962 6.81051 1.08114 6.79374L1.08419 6.74495L0.963737 6.73732L0.960691 6.78764C0.959165 6.80441 0.959165 6.82118 0.959165 6.83795L0.956114 6.93858L0.831087 6.93706L0.834138 6.80136C0.835659 6.75562 0.840236 6.7114 0.843283 6.66719L0.722833 6.65804C0.719781 6.70378 0.715209 6.75104 0.713684 6.79678L0.710632 6.93554L0.709106 7.00264L0.710632 7.06972L0.713684 7.20848C0.715209 7.2542 0.719781 7.30147 0.722833 7.3472L0.843283 7.33804C0.840236 7.29387 0.835659 7.2481 0.834138 7.20388L0.831087 7.06817L0.956114 7.06667L0.959165 7.16731C0.959165 7.18407 0.959165 7.20083 0.960691 7.21764L0.963737 7.26791L1.33577 7.24355C1.33425 7.21764 1.3312 7.19167 1.3312 7.16576L1.32967 7.12765L1.32815 7.06056L1.45318 7.05906L1.45623 7.17492C1.45775 7.21303 1.46232 7.25115 1.46385 7.28927C1.46842 7.3655 1.4791 7.44174 1.48825 7.51797L1.36474 7.53628L1.35254 7.44634L1.34645 7.40057L1.3434 7.37771L1.34187 7.35485L1.22142 7.3655L1.22294 7.38836L1.22599 7.41127L1.23209 7.4585L1.24429 7.55154L1.24886 7.5805L1.25344 7.60947L1.26411 7.66894L1.27631 7.73752L1.14823 7.76348L1.13146 7.66739C1.12536 7.63538 1.11926 7.60336 1.11621 7.57135L1.10401 7.4753L1.09791 7.42648L1.09487 7.40212L1.09334 7.37771L0.972886 7.38836L0.974412 7.41278L0.977464 7.43719L0.983561 7.48751L0.995757 7.5866L0.872256 7.60491C0.861581 7.51492 0.84786 7.42648 0.843283 7.33654L0.722833 7.3457C0.727405 7.43869 0.741126 7.53018 0.753327 7.62167L0.757899 7.65519L0.764001 7.68875L0.776197 7.75583L0.788393 7.82446C0.79297 7.84732 0.796016 7.87018 0.802119 7.89304L0.834138 8.02876L0.951542 7.99979L0.921048 7.86868C0.914945 7.84732 0.911899 7.82446 0.907322 7.8031L0.895126 7.73602L1.0171 7.71466L1.0354 7.81376C1.04302 7.84582 1.05065 7.87934 1.05827 7.91135L1.42116 7.82751L1.40286 7.75128C1.39981 7.73907 1.39829 7.72687 1.39524 7.71466L1.38304 7.64913L1.50502 7.62777L1.51569 7.6842C1.51874 7.70246 1.52179 7.72232 1.52636 7.74057L1.55229 7.85188C1.55991 7.89004 1.5721 7.92661 1.58125 7.96323L1.5965 8.0181C1.6026 8.03641 1.60565 8.05467 1.61327 8.07298L1.49434 8.11109C1.48977 8.09739 1.48519 8.08213 1.48062 8.06687L1.46842 8.02265L1.44403 7.93421L1.32662 7.96473L1.35254 8.05467L1.36474 8.10044C1.36932 8.1157 1.37237 8.1309 1.37847 8.14616L1.41658 8.25901C1.42421 8.28037 1.4303 8.30323 1.43945 8.32459L1.31747 8.37031C1.31138 8.35505 1.30528 8.3398 1.30071 8.32459L1.28545 8.27882L1.25496 8.18583C1.24886 8.17057 1.24582 8.15531 1.24124 8.13856L1.22752 8.09128L1.2016 7.99674L1.08419 8.02726L1.11164 8.1233L1.12536 8.17207C1.12993 8.18888 1.13451 8.20414 1.14061 8.22089L1.02168 8.25901C1.01406 8.23765 1.00796 8.21629 1.00185 8.19498L0.983561 8.1294C0.971361 8.08518 0.95764 8.04251 0.94849 7.99829L0.831087 8.02726C0.840236 8.07298 0.853957 8.1172 0.866158 8.16142L0.884451 8.2285C0.890554 8.25136 0.896652 8.27272 0.904275 8.29558L0.946965 8.42369C0.954588 8.445 0.960691 8.46791 0.969835 8.48922L0.995757 8.5548C1.01253 8.59751 1.0293 8.64168 1.0476 8.6844L1.15891 8.63713C1.14061 8.59596 1.12536 8.55329 1.10859 8.51213L1.08419 8.4496C1.07504 8.42824 1.06895 8.40688 1.06132 8.38557L1.17873 8.3444L1.1955 8.39167L1.2138 8.43894L1.25039 8.53193L1.59497 8.39012L1.56601 8.31694L1.55229 8.28187C1.54314 8.26051 1.53704 8.2392 1.52941 8.21934L1.64682 8.17817C1.65292 8.19648 1.65901 8.21479 1.66512 8.2331L1.68646 8.28642C1.70018 8.32154 1.7139 8.35811 1.72915 8.39317L1.77642 8.49837C1.78404 8.51518 1.79166 8.53344 1.80081 8.55024L1.82674 8.60207L1.71543 8.65849L1.69408 8.61732C1.68646 8.60357 1.68036 8.58986 1.67426 8.57615L1.63614 8.49227L1.52484 8.54109L1.56296 8.62648C1.56906 8.64018 1.57668 8.65544 1.58278 8.66915L1.60412 8.71187C1.62242 8.74693 1.64072 8.7835 1.65901 8.81857L1.69408 8.87804L1.58125 8.94207C1.56601 8.91311 1.54771 8.88565 1.53399 8.85668L1.48977 8.76979L1.4669 8.72707C1.45928 8.71337 1.45165 8.69811 1.44555 8.68285L1.40591 8.59446L1.2946 8.64324L1.33577 8.73473C1.34187 8.74998 1.34949 8.76519 1.35712 8.78045L1.37999 8.82467L1.26869 8.88109L1.23819 8.82012C1.22752 8.80026 1.21989 8.77895 1.20922 8.75909L1.1528 8.63563L1.0415 8.68285L1.09944 8.80941C1.10859 8.83077 1.11774 8.85213 1.12841 8.87194L1.16043 8.93447C1.18178 8.97409 1.2016 9.01525 1.22294 9.05492L1.29156 9.17538C1.30375 9.19519 1.31443 9.21655 1.32662 9.2348L1.36474 9.29278L1.4669 9.2272L1.4303 9.17078C1.41811 9.15252 1.40743 9.13116 1.39676 9.11285L1.32967 8.99545L1.43945 8.93597C1.473 8.99395 1.50502 9.05187 1.54008 9.1098L1.85875 8.91466C1.84503 8.8933 1.83283 8.87044 1.81911 8.84753L1.80081 8.81551L1.76727 8.75759L1.87705 8.69811L1.93499 8.79726C1.94414 8.81401 1.95329 8.83077 1.96396 8.84753L1.99446 8.89635C2.0158 8.92836 2.03563 8.96188 2.05697 8.99239L2.12406 9.08694L2.02342 9.16012L1.97006 9.08539C1.96091 9.07323 1.95176 9.06103 1.94414 9.04727L1.91974 9.00915L1.81911 9.07623L1.84503 9.1159C1.85418 9.12961 1.86333 9.14181 1.87248 9.15402L1.92737 9.23025C1.93957 9.24701 1.95024 9.26227 1.96244 9.27902L1.99903 9.3263L2.04172 9.38122L1.93957 9.46356C1.85875 9.36291 1.78099 9.25771 1.71086 9.14791L1.61022 9.215L1.63767 9.25772C1.64682 9.27142 1.65749 9.28513 1.66664 9.29888L1.72458 9.38122L1.62395 9.4544L1.54619 9.3446C1.52027 9.30804 1.4974 9.26837 1.473 9.2318L1.37084 9.29583C1.39676 9.33545 1.42116 9.37357 1.44708 9.41324L1.52789 9.52604C1.54161 9.54435 1.55381 9.56265 1.56753 9.58096L1.6087 9.63429C1.63767 9.6709 1.66512 9.70747 1.69561 9.74259L1.78709 9.84778L1.87705 9.76695L1.78862 9.6648C1.75964 9.62973 1.7322 9.59467 1.70475 9.5596L1.80386 9.48337L1.86638 9.56265C1.87705 9.57636 1.88772 9.58857 1.8984 9.60077L1.93194 9.63889L2.21402 9.39643L2.1637 9.337L2.14083 9.30804L2.09966 9.25466L2.19877 9.17843C2.22317 9.20889 2.24604 9.23941 2.27043 9.26837L2.34514 9.35526C2.35734 9.36902 2.36954 9.38427 2.38326 9.39798L2.42291 9.43915C2.45035 9.46661 2.47475 9.49557 2.50219 9.52149L2.41376 9.60993C2.37106 9.56721 2.32989 9.52148 2.2872 9.47877L2.19724 9.5611C2.24146 9.60687 2.28415 9.65259 2.32837 9.69681L2.41528 9.77915C2.43205 9.79441 2.44882 9.81117 2.4656 9.82642L2.37869 9.92402L2.36039 9.90876L2.34209 9.892L2.30702 9.85844L2.23689 9.79136C2.19115 9.74564 2.14693 9.69681 2.10119 9.65109L2.01123 9.73343C2.05697 9.7822 2.10271 9.83098 2.14998 9.87825L2.06154 9.96669C2.02952 9.93467 1.99903 9.90116 1.96701 9.86909L1.91974 9.82032C1.9045 9.80356 1.88925 9.78681 1.87553 9.77L1.78557 9.85083C1.80081 9.86759 1.81606 9.8859 1.83131 9.90266L1.87858 9.95298C1.91059 9.9865 1.94261 10.0201 1.97463 10.0536L2.07222 10.1466C2.10576 10.1786 2.14083 10.2091 2.1759 10.2396L2.22774 10.2854C2.24604 10.3006 2.26281 10.3158 2.28111 10.3296L2.35734 10.2366C2.33904 10.2229 2.32227 10.2076 2.3055 10.1923L2.25366 10.1481C2.22011 10.1192 2.18505 10.0902 2.15303 10.0582L2.23841 9.96669L2.275 10.0018L2.31313 10.0353L2.38936 10.1009L2.63027 9.81577L2.5708 9.7639L2.54184 9.73953C2.52506 9.72578 2.50829 9.70902 2.49304 9.69376L2.57843 9.60227C2.60587 9.62973 2.63484 9.65415 2.66381 9.67851L2.70803 9.71662C2.72328 9.72883 2.737 9.74259 2.75225 9.75324C2.81323 9.80051 2.87118 9.84928 2.93521 9.892L2.86203 9.9926C2.83763 9.97434 2.81171 9.95753 2.78731 9.93928L2.71565 9.88285L2.64094 9.97739L2.71565 10.0353C2.74005 10.0551 2.76597 10.0719 2.79189 10.0902L2.84068 10.1253C2.85745 10.136 2.8727 10.1481 2.88947 10.1588L2.94741 10.1969L2.87727 10.3067C2.84983 10.2884 2.82238 10.2716 2.79494 10.2534L2.71565 10.1969C2.68973 10.1771 2.66229 10.1603 2.63637 10.1405L2.56013 10.0795L2.48542 10.1741L2.56471 10.2366C2.59062 10.2564 2.6196 10.2762 2.64551 10.296L2.57233 10.3967C2.49762 10.3464 2.42748 10.2884 2.35734 10.2335L2.28111 10.3266C2.35429 10.3829 2.42595 10.4424 2.50219 10.4943L2.55708 10.5339C2.57538 10.5461 2.59367 10.5598 2.61197 10.572C2.68973 10.6223 2.76749 10.6742 2.8483 10.7184L2.90929 10.7534C2.92912 10.7657 2.94894 10.7763 2.97028 10.787L3.09379 10.851C3.13343 10.8724 3.17459 10.8892 3.21576 10.909L3.2798 10.9379C3.30115 10.9471 3.3225 10.9578 3.34384 10.9654L3.47344 11.0172L3.51613 10.9044L3.38958 10.8541C3.36824 10.8465 3.34842 10.8358 3.32707 10.8266L3.26608 10.7992L3.31792 10.6864L3.40941 10.7275C3.4399 10.7412 3.47192 10.7519 3.50241 10.7657L3.63964 10.4195L3.56645 10.3906C3.55425 10.386 3.54358 10.3799 3.53291 10.3753L3.47192 10.3479L3.52376 10.2351L3.5756 10.2595C3.59389 10.2671 3.61067 10.2762 3.62897 10.2823L3.73569 10.325C3.77076 10.3403 3.80736 10.3509 3.84395 10.3631C3.88054 10.3753 3.91562 10.389 3.95373 10.3997L3.91714 10.5186C3.8592 10.5003 3.80126 10.4805 3.74332 10.4607L3.70215 10.5751C3.76162 10.5949 3.82108 10.6162 3.88054 10.6345L3.9949 10.6666L4.02844 10.6757L4.04521 10.6803L4.06199 10.6849L4.02997 10.8114C4.01472 10.8084 3.99795 10.8038 3.9827 10.7992L3.93543 10.7855L3.8409 10.7595C3.77839 10.7397 3.7174 10.7184 3.65641 10.697L3.61524 10.8114C3.67928 10.8327 3.7418 10.8556 3.80584 10.8755L3.76924 10.9944C3.72655 10.9822 3.68386 10.9654 3.64116 10.9517C3.59847 10.9364 3.55578 10.9227 3.51309 10.9059L3.47039 11.0188C3.51309 11.0371 3.5573 11.0508 3.60152 11.066C3.64574 11.0813 3.68995 11.0965 3.73417 11.1103L3.86377 11.1468C3.88664 11.1529 3.90799 11.1606 3.93086 11.1651L3.99795 11.1804C4.04369 11.191 4.08791 11.2017 4.13365 11.2109L4.15805 11.0919C4.11383 11.0828 4.06961 11.0721 4.0254 11.0614L3.95983 11.0462C3.93849 11.0416 3.91562 11.034 3.89427 11.0279L3.92629 10.9075L3.97508 10.9212C3.99185 10.9258 4.0071 10.9288 4.02387 10.9334L4.12145 10.9562L4.20074 10.5918L4.1245 10.5736L4.08791 10.5644L4.07114 10.5614L4.05436 10.5568L4.02234 10.5476L4.05436 10.4271C4.07266 10.4317 4.09096 10.4379 4.10925 10.4424L4.16567 10.4546C4.20379 10.4638 4.24038 10.4729 4.2785 10.4805L4.39133 10.5003L4.44774 10.511L4.50416 10.5186L4.48739 10.6421C4.4264 10.636 4.36694 10.6238 4.30747 10.6132L4.2846 10.7321C4.34711 10.7428 4.4081 10.755 4.47062 10.7626L4.58954 10.7779C4.61242 10.7809 4.63529 10.7809 4.65816 10.784L4.64748 10.9136C4.58192 10.9105 4.51788 10.8998 4.45385 10.8922C4.38981 10.8861 4.32577 10.8724 4.26173 10.8617L4.23886 10.9806C4.30442 10.9913 4.36998 11.0051 4.43707 11.0127L4.4203 11.1362L4.35321 11.127L4.28612 11.1148L4.15347 11.0904L4.12908 11.2094L4.2663 11.2338L4.33492 11.246L4.40353 11.2551L4.5377 11.2719C4.58344 11.2764 4.63071 11.2795 4.67645 11.2825C4.7222 11.2856 4.76946 11.2901 4.8152 11.2901L4.81978 11.1697C4.77404 11.1697 4.72982 11.1651 4.6856 11.1621C4.64139 11.159 4.59564 11.156 4.55142 11.1514L4.56363 11.0279C4.63071 11.034 4.6978 11.0386 4.76336 11.0432L4.78319 10.6711L4.70543 10.665L4.66731 10.662C4.64444 10.6605 4.62309 10.6589 4.60022 10.6559L4.61242 10.5324C4.65054 10.5369 4.68865 10.5384 4.72677 10.5415C4.76489 10.5446 4.803 10.5476 4.84113 10.5476L4.957 10.5507H4.98293H5.01035L5.12626 10.5476C5.16437 10.5476 5.20249 10.5431 5.24061 10.5415C5.27873 10.5384 5.31684 10.5369 5.35496 10.5324L5.36717 10.6559C5.30619 10.662 5.24516 10.665 5.18573 10.6696L5.19184 10.7901C5.25431 10.7855 5.31684 10.7809 5.37937 10.7748L5.49828 10.7595C5.52114 10.7565 5.54405 10.7534 5.56691 10.7504L5.58672 10.88C5.52269 10.8892 5.45711 10.8968 5.39308 10.9044C5.32905 10.9105 5.26347 10.9151 5.19789 10.9197L5.20399 11.0401C5.27112 11.0355 5.3382 11.031 5.40373 11.0249L5.41594 11.1484C5.37172 11.1529 5.326 11.156 5.28178 11.159C5.23756 11.1621 5.19184 11.1667 5.14762 11.1667L5.15217 11.2871C5.21925 11.2901 5.26652 11.2856 5.31229 11.2825ZM6.51069 3.51862L6.56256 3.39816L6.651 3.43781L6.69517 3.45763C6.71043 3.46373 6.72418 3.47288 6.73939 3.47898L6.82633 3.52319L6.869 3.54607L6.91172 3.57046L6.9712 3.46525L6.92698 3.44086L6.88276 3.41799L6.79277 3.37225L6.84769 3.26094L6.96814 3.32193C6.98795 3.3326 7.00776 3.34327 7.02757 3.35395L7.08555 3.38749C7.16483 3.43018 7.23952 3.48203 7.31575 3.52929L7.24717 3.63298L7.16178 3.57808L7.11906 3.55064L7.0977 3.53692L7.07639 3.52472L6.88426 3.84491C6.90712 3.85711 6.92848 3.87235 6.94984 3.88608L6.98185 3.9059L7.03828 3.94249L6.96965 4.04617C6.90407 4.005 6.84159 3.96232 6.77446 3.92572L6.72418 3.89675C6.70738 3.8876 6.69062 3.87693 6.67386 3.86931L6.57171 3.81746L6.62659 3.70616L6.70738 3.74733L6.74854 3.76867L6.78821 3.79154L6.84769 3.68634L6.80652 3.66347L6.7638 3.64212L6.67996 3.59943C6.6449 3.58113 6.60828 3.56589 6.57171 3.54911L6.51069 3.51862ZM3.49174 10.4836L3.4399 10.604L3.35146 10.5644L3.30725 10.5446C3.292 10.5384 3.27828 10.5293 3.26303 10.5232L3.17612 10.479L3.13343 10.4562L3.09074 10.4317L3.03127 10.5369L3.07549 10.5614L3.1197 10.5842L3.20966 10.6299L3.15477 10.7412L3.03432 10.6803C3.0145 10.6696 2.99468 10.6589 2.97486 10.6482L2.91692 10.6147C2.83763 10.572 2.76292 10.5202 2.68668 10.4729L2.7553 10.3692L2.84068 10.4241L2.88337 10.4516L2.90472 10.4653L2.92607 10.4775L3.11818 10.1573C3.09531 10.1451 3.07396 10.1299 3.05262 10.1161L3.0206 10.0963L2.96418 10.0597L3.03279 9.95603C3.09836 9.9972 3.16087 10.0399 3.22796 10.0765L3.27828 10.1055C3.29505 10.1146 3.31182 10.1253 3.32859 10.1329L3.43075 10.1847L3.37586 10.296L3.29505 10.2549L3.25388 10.2335L3.21424 10.2106L3.15477 10.3158L3.19594 10.3388L3.23863 10.3601L3.3225 10.4028C3.35756 10.421 3.39416 10.4363 3.43075 10.4531L3.49174 10.4836ZM5.36106 10.4119C5.32445 10.415 5.28788 10.418 5.24976 10.421C5.21315 10.4241 5.17658 10.4271 5.13846 10.4271L5.02716 10.4302H5.00122H4.97378L4.86247 10.4271C4.82588 10.4271 4.78776 10.4226 4.75117 10.421C4.71457 10.418 4.67645 10.4165 4.63986 10.4119L4.53313 10.3982L4.47824 10.3906L4.42335 10.3814L4.31357 10.3616C4.27697 10.354 4.2419 10.3448 4.20531 10.3372L4.15042 10.325C4.13212 10.3204 4.11535 10.3143 4.09706 10.3097L3.99338 10.2808C3.95831 10.2701 3.92324 10.2579 3.88817 10.2457C3.8531 10.2335 3.81803 10.2229 3.78297 10.2076L3.67928 10.1664C3.66251 10.1603 3.64574 10.1512 3.62897 10.1436L3.57865 10.1207C3.54663 10.1055 3.51309 10.0917 3.48107 10.0749L3.38196 10.0246C3.36519 10.017 3.34994 10.0064 3.33317 9.9972L3.28438 9.96974C3.21881 9.93467 3.15783 9.892 3.09531 9.85234C3.08006 9.84318 3.06634 9.83253 3.05109 9.82187L3.00688 9.78981C2.94588 9.74864 2.88795 9.69987 2.83001 9.65565C2.81476 9.64499 2.80104 9.63123 2.78731 9.61908L2.74462 9.58246C2.71718 9.55805 2.68821 9.53369 2.66229 9.50778L2.58452 9.43304C2.5586 9.40713 2.53269 9.37967 2.50676 9.35221L2.46865 9.31259C2.45493 9.29888 2.44425 9.28513 2.43205 9.27142L2.35887 9.18758C2.33447 9.15857 2.31313 9.12961 2.29025 9.10064L2.25671 9.05797C2.24604 9.04422 2.23536 9.02901 2.22469 9.01375L2.16065 8.92376C2.13931 8.8933 2.12101 8.86128 2.09966 8.83077L2.06917 8.7835C2.0585 8.76824 2.05087 8.75148 2.04172 8.73623L1.98683 8.64018C1.97006 8.60817 1.95329 8.57615 1.93804 8.54414L1.91212 8.49532C1.90297 8.47856 1.89687 8.4618 1.88925 8.44499L1.84351 8.3444C1.82826 8.31083 1.81606 8.27577 1.80234 8.2407L1.78252 8.18888C1.7749 8.17207 1.77032 8.15381 1.76422 8.137L1.72915 8.03486C1.72305 8.0181 1.71848 7.99979 1.7139 7.98148L1.69866 7.92816C1.68951 7.89304 1.67731 7.85648 1.66969 7.82141L1.64529 7.71316C1.64072 7.69485 1.63767 7.67655 1.63462 7.65824L1.62547 7.60336L1.61632 7.54999L1.61175 7.52408L1.6087 7.49661C1.59955 7.42343 1.58888 7.35025 1.5843 7.27556C1.58125 7.23895 1.5782 7.20238 1.57668 7.16426L1.57363 7.05296L1.5721 6.99958L1.57363 6.94621L1.57668 6.8349C1.5782 6.79831 1.58278 6.76019 1.5843 6.7236C1.58735 6.64889 1.59955 6.5757 1.6087 6.50252L1.61175 6.47507L1.61632 6.44915L1.62547 6.39578L1.63462 6.34089C1.63767 6.32259 1.64072 6.3043 1.64529 6.286L1.66969 6.17775C1.67731 6.14115 1.68799 6.10609 1.69866 6.07101L1.7139 6.01765C1.71848 5.99935 1.72305 5.98258 1.72915 5.96429L1.76422 5.86213C1.77032 5.84536 1.7749 5.82706 1.78252 5.81029L1.80234 5.75845C1.81606 5.72338 1.82826 5.68983 1.84351 5.65477L1.88925 5.55413C1.89687 5.53736 1.9045 5.52059 1.91212 5.50382L1.93804 5.45502C1.95481 5.42301 1.97006 5.39099 1.98683 5.35897L2.04172 5.26291C2.05087 5.24766 2.06002 5.23089 2.06917 5.21564L2.09966 5.16837C2.11948 5.13788 2.13931 5.10586 2.16065 5.07537L2.22469 4.98541C2.23536 4.97016 2.24451 4.95644 2.25671 4.94119L2.29025 4.8985C2.31313 4.86953 2.336 4.84056 2.35887 4.81159L2.43205 4.72773C2.44425 4.71401 2.45645 4.69876 2.46865 4.68656L2.50676 4.64692C2.53269 4.621 2.55708 4.59203 2.58452 4.56611L2.66229 4.4914C2.68821 4.46547 2.71718 4.44108 2.74462 4.41668L2.78731 4.38009C2.80104 4.3679 2.81476 4.35569 2.83001 4.3435C2.88795 4.29775 2.94588 4.25049 3.00688 4.20932L3.05109 4.1773C3.06634 4.16663 3.08006 4.15595 3.09531 4.14681C3.15783 4.10717 3.21881 4.066 3.28438 4.0294L3.33317 4.00196C3.34994 3.99281 3.36519 3.98366 3.38196 3.97451L3.48107 3.9242C3.51309 3.90743 3.54511 3.8937 3.57865 3.87845L3.62897 3.85558C3.64574 3.84796 3.66251 3.84033 3.67928 3.83271L3.78297 3.79154C3.81651 3.77782 3.8531 3.76563 3.88817 3.75343C3.92324 3.74123 3.95831 3.72903 3.99338 3.71836L4.09706 3.68939C4.11535 3.68481 4.13212 3.67872 4.15042 3.67414L4.20531 3.66194C4.2419 3.65432 4.27697 3.64517 4.31357 3.63755L4.42335 3.61772L4.47824 3.60858L4.53313 3.60096L4.63986 3.58723C4.67645 3.58418 4.71305 3.58113 4.75117 3.57808C4.78776 3.57503 4.82435 3.57198 4.86247 3.57198L4.97378 3.56894H4.9997H5.02716L5.13846 3.57198C5.17503 3.57198 5.21315 3.57656 5.24976 3.57808C5.28633 3.58113 5.32445 3.58266 5.36106 3.58723L5.46781 3.60096L5.52269 3.60858L5.57756 3.61772L5.68736 3.63755C5.72393 3.64517 5.75899 3.65432 5.79561 3.66194L5.85049 3.67414C5.86879 3.67872 5.88555 3.68481 5.90386 3.68939L6.00756 3.71836C6.04262 3.72903 6.07769 3.74123 6.11276 3.75343C6.14782 3.76563 6.18289 3.7763 6.21795 3.79154L6.32165 3.83271C6.33841 3.83881 6.35517 3.84796 6.37197 3.85558L6.42225 3.87845C6.45431 3.8937 6.48783 3.90743 6.51984 3.9242L6.61894 3.97451C6.63574 3.98213 6.651 3.99281 6.66776 4.00196L6.71653 4.0294C6.78211 4.06447 6.84309 4.10717 6.90562 4.14681C6.92087 4.15595 6.93458 4.16663 6.94984 4.1773L6.99406 4.20932C7.05503 4.25049 7.11296 4.29928 7.17089 4.3435C7.18614 4.35417 7.1999 4.3679 7.21361 4.38009L7.25628 4.41668C7.28374 4.44108 7.3127 4.46547 7.33861 4.4914L7.4164 4.56611C7.44231 4.59203 7.46822 4.61947 7.49413 4.64692L7.53225 4.68656C7.54601 4.70029 7.55666 4.71401 7.56887 4.72773L7.64205 4.81159C7.66646 4.84056 7.68777 4.86953 7.71068 4.8985L7.7442 4.94119C7.7549 4.95491 7.76556 4.97016 7.77621 4.98541L7.84029 5.07537C7.8616 5.10586 7.87991 5.13788 7.90127 5.16837L7.93173 5.21564C7.94244 5.23089 7.95004 5.24766 7.9592 5.26291L8.01407 5.35897C8.03088 5.39099 8.04764 5.42301 8.06289 5.45502L8.0888 5.50382C8.09796 5.52059 8.10406 5.53736 8.11167 5.55413L8.15744 5.65477C8.17264 5.68831 8.18485 5.72338 8.19855 5.75845L8.21841 5.81029C8.22602 5.82706 8.23062 5.84536 8.23672 5.86213L8.27179 5.96429C8.27784 5.98105 8.28244 5.99935 8.287 6.01765L8.30225 6.07101C8.31141 6.10609 8.32361 6.14268 8.33122 6.17775L8.35563 6.286C8.36018 6.3043 8.36323 6.32259 8.36628 6.34089L8.37544 6.39578L8.38459 6.44915L8.38919 6.47507L8.39224 6.50252C8.40135 6.5757 8.41205 6.64889 8.4166 6.7236C8.41966 6.76019 8.42271 6.79679 8.42426 6.8349L8.42731 6.94621L8.42881 6.99958L8.42731 7.05296L8.42426 7.16426C8.42271 7.20083 8.41815 7.23895 8.4166 7.27556C8.41355 7.35025 8.40135 7.42343 8.39224 7.49661L8.38919 7.52408L8.38459 7.54999L8.37544 7.60336L8.36628 7.65824C8.36323 7.67655 8.36018 7.69485 8.35563 7.71316L8.33122 7.82141C8.32361 7.85798 8.31296 7.89304 8.30225 7.92816L8.287 7.98148C8.28244 7.99979 8.27784 8.01655 8.27179 8.03486L8.23672 8.137C8.23062 8.15381 8.22602 8.17207 8.21841 8.18888L8.19855 8.2407C8.18485 8.27577 8.17264 8.30933 8.15744 8.3444L8.11167 8.44499C8.10406 8.4618 8.09641 8.47856 8.0888 8.49532L8.06289 8.54414C8.04609 8.57615 8.03088 8.60817 8.01407 8.64018L7.9592 8.73623C7.95004 8.75148 7.94089 8.76824 7.93173 8.7835L7.90127 8.83077C7.88141 8.86128 7.8616 8.8933 7.84029 8.92376L7.77621 9.01375C7.76556 9.02901 7.7564 9.04272 7.7442 9.05797L7.71068 9.10064C7.68777 9.12961 7.66491 9.15857 7.64205 9.18758L7.56887 9.27142C7.55666 9.28513 7.54446 9.30038 7.53225 9.31259L7.49413 9.35221C7.46822 9.37817 7.44386 9.40713 7.4164 9.43304L7.33861 9.50778C7.3127 9.53369 7.28374 9.55805 7.25628 9.58246L7.21361 9.61908C7.1999 9.63123 7.18614 9.64344 7.17089 9.65565C7.11296 9.70142 7.05503 9.74864 6.99406 9.78981L6.94984 9.82187C6.93458 9.83253 6.92087 9.84318 6.90562 9.85234C6.84309 9.892 6.78211 9.93317 6.71653 9.96974L6.66776 9.9972C6.651 10.0064 6.63574 10.0155 6.61894 10.0246L6.51984 10.0749C6.48783 10.0917 6.45581 10.1055 6.42225 10.1207L6.37197 10.1436C6.35517 10.1512 6.33841 10.1588 6.32165 10.1664L6.21795 10.2076C6.18439 10.2213 6.14782 10.2335 6.11276 10.2457C6.07769 10.2579 6.04262 10.2701 6.00756 10.2808L5.90386 10.3097C5.88555 10.3143 5.86879 10.3204 5.85049 10.325L5.79561 10.3372C5.75899 10.3448 5.72393 10.354 5.68736 10.3616L5.57756 10.3814L5.52269 10.3906L5.46781 10.3982L5.36106 10.4119Z" fill="#E9993E"/>
<path d="M5.73085 2.5481L5.71179 2.65624L5.81989 2.67531L5.839 2.56717L5.73085 2.5481Z" fill="#E9993E"/>
<path d="M5.81444 2.06714L5.74951 2.43513L5.85766 2.45421L5.92254 2.08621L5.81444 2.06714Z" fill="#E9993E"/>
<path d="M6.49301 2.74146L6.45544 2.84465L6.55864 2.8822L6.59621 2.77901L6.49301 2.74146Z" fill="#E9993E"/>
<path d="M6.6593 2.28271L6.53149 2.63385L6.63469 2.67141L6.7625 2.32027L6.6593 2.28271Z" fill="#E9993E"/>
<path d="M7.20873 3.06641L7.15381 3.1615L7.2489 3.21641L7.30383 3.12131L7.20873 3.06641Z" fill="#E9993E"/>
<path d="M7.45417 2.64307L7.26733 2.96666L7.36243 3.02157L7.54926 2.69797L7.45417 2.64307Z" fill="#E9993E"/>
<path d="M7.85879 3.50903L7.78821 3.59315L7.87235 3.66374L7.94293 3.57962L7.85879 3.50903Z" fill="#E9993E"/>
<path d="M8.17307 3.13477L7.93286 3.421L8.017 3.49159L8.25721 3.20535L8.17307 3.13477Z" fill="#E9993E"/>
<path d="M8.42264 4.05859L8.3385 4.12918L8.40908 4.21331L8.49322 4.14272L8.42264 4.05859Z" fill="#E9993E"/>
<path d="M8.79678 3.74365L8.5105 3.98385L8.58108 4.06797L8.86736 3.82778L8.79678 3.74365Z" fill="#E9993E"/>
<path d="M8.88232 4.69653L8.78723 4.75144L8.84216 4.84655L8.93725 4.79164L8.88232 4.69653Z" fill="#E9993E"/>
<path d="M9.30419 4.45264L8.98059 4.63948L9.03552 4.73458L9.35911 4.54774L9.30419 4.45264Z" fill="#E9993E"/>
<path d="M9.22234 5.40601L9.11914 5.44356L9.15671 5.54675L9.25985 5.5092L9.22234 5.40601Z" fill="#E9993E"/>
<path d="M9.68099 5.23901L9.32983 5.36681L9.3674 5.47L9.71856 5.34221L9.68099 5.23901Z" fill="#E9993E"/>
<path d="M9.43525 6.1626L9.32715 6.18167L9.34621 6.28982L9.45436 6.27074L9.43525 6.1626Z" fill="#E9993E"/>
<path d="M9.9166 6.07886L9.54858 6.14373L9.56764 6.25187L9.93566 6.187L9.9166 6.07886Z" fill="#E9993E"/>
<path d="M9.51275 6.94604H9.40295V7.05585H9.51275V6.94604Z" fill="#E9993E"/>
<path d="M10.0025 6.94604H9.62878V7.05585H10.0025V6.94604Z" fill="#E9993E"/>
<path d="M9.34596 7.71191L9.3269 7.82006L9.43505 7.83912L9.45411 7.73097L9.34596 7.71191Z" fill="#E9993E"/>
<path d="M9.56667 7.75122L9.54761 7.85932L9.91557 7.9242L9.93463 7.81605L9.56667 7.75122Z" fill="#E9993E"/>
<path d="M9.15622 8.45557L9.11865 8.55876L9.22185 8.59633L9.25942 8.49313L9.15622 8.45557Z" fill="#E9993E"/>
<path d="M9.36838 8.53223L9.33081 8.63542L9.68192 8.76323L9.71949 8.66003L9.36838 8.53223Z" fill="#E9993E"/>
<path d="M8.84113 9.15552L8.78625 9.25061L8.88135 9.30549L8.93622 9.21039L8.84113 9.15552Z" fill="#E9993E"/>
<path d="M9.03478 9.26782L8.97986 9.36292L9.30346 9.54975L9.35838 9.45466L9.03478 9.26782Z" fill="#E9993E"/>
<path d="M8.40957 9.79053L8.33899 9.87467L8.42313 9.94525L8.49371 9.86111L8.40957 9.79053Z" fill="#E9993E"/>
<path d="M8.57974 9.93481L8.50916 10.019L8.79539 10.2591L8.86597 10.175L8.57974 9.93481Z" fill="#E9993E"/>
<path d="M7.87357 10.3394L7.78943 10.4099L7.86001 10.4941L7.94415 10.4235L7.87357 10.3394Z" fill="#E9993E"/>
<path d="M8.01602 10.51L7.93188 10.5806L8.17209 10.8668L8.25623 10.7962L8.01602 10.51Z" fill="#E9993E"/>
<path d="M7.24854 10.7869L7.15344 10.8417L7.20837 10.9369L7.30346 10.882L7.24854 10.7869Z" fill="#E9993E"/>
<path d="M7.36101 10.9814L7.26587 11.0363L7.4527 11.3599L7.54785 11.305L7.36101 10.9814Z" fill="#E9993E"/>
<path d="M6.55852 11.1208L6.45532 11.1584L6.49289 11.2616L6.59609 11.224L6.55852 11.1208Z" fill="#E9993E"/>
<path d="M6.63542 11.3313L6.53223 11.3689L6.66003 11.72L6.76323 11.6824L6.63542 11.3313Z" fill="#E9993E"/>
<path d="M5.81909 11.3284L5.71094 11.3474L5.73005 11.4556L5.8382 11.4365L5.81909 11.3284Z" fill="#E9993E"/>
<path d="M5.85766 11.5488L5.74951 11.5679L5.81439 11.9359L5.92254 11.9168L5.85766 11.5488Z" fill="#E9993E"/>
<path d="M5.056 11.4045H5.00262H5.00107H4.94617V11.5143H5.00107H5.00262H5.056V11.4045Z" fill="#E9993E"/>
<path d="M5.056 12.0039V11.6287H5.00262H4.94617V12.0039H5.00107H5.056Z" fill="#E9993E"/>
<path d="M14 12V2H16.8879V9.5H22V12H14Z" fill="#E9993E"/>
<path d="M29.3312 12L28.719 10.0912H25.2496L24.6374 12H22L25.5165 2H28.4835L32 12H29.3312ZM27.9184 7.6757L26.9765 4.71959L26.0188 7.6757H27.9184Z" fill="#E9993E"/>
<path d="M46 4.44389L43.5558 5.72818C43.0565 4.91771 42.3206 4.50623 41.3219 4.50623C39.9028 4.50623 38.8778 5.52868 38.8778 7C38.8778 8.6459 40.0867 9.4938 41.3351 9.4938C42.3075 9.4938 43.0696 9.0823 43.6216 8.2843L45.8817 9.7806C44.9225 11.1397 43.3719 12 41.3614 12C38.2208 12 36 9.9426 36 7C36 4.05736 38.2208 2 41.3614 2C43.3587 2 45.1064 2.91023 46 4.44389Z" fill="#E9993E"/>
<path d="M54.8087 12L54.0722 10.0959H49.8989L49.1625 12H46L50.2166 2H53.7834L58 12H54.8087ZM53.1336 7.6736L51.9928 4.72021L50.852 7.6736H53.1336Z" fill="#E9993E"/>
<path d="M62 12C59.4035 12 58 10.486 58 7.8143V2H60.4561V7.7379C60.4561 8.8702 61.0409 9.4555 62 9.4555C62.9591 9.4555 63.5439 8.8702 63.5439 7.7379V2H66V7.8143C66 10.4733 64.5965 12 62 12Z" fill="#E9993E"/>
<path d="M72.1877 4.36908C71.5308 4.36908 71.0264 4.55611 71.0264 4.99252C71.0264 5.52868 71.9531 5.60349 72.8798 5.77805L73.173 5.8404C75.0616 6.22693 76 7.1746 76 8.6584C76 11.1022 74.0645 12 72.1408 12C70.5103 12 69.044 11.5885 68 10.803L69.2082 8.6708C69.9355 9.1197 70.7918 9.6559 72.176 9.6559C72.8328 9.6559 73.3255 9.4688 73.3255 8.9825C73.3255 8.4838 72.7507 8.384 71.6364 8.1845L71.2962 8.1222C69.2082 7.7357 68.3402 6.8005 68.3871 5.0798C68.434 3.23441 69.8768 2 72.0587 2C73.2434 2 74.3108 2.12469 75.8827 3.00997L74.827 5.15461C74.1935 4.83042 73.3138 4.36908 72.1877 4.36908Z" fill="#E9993E"/>
<path d="M84.8087 12L84.0722 10.0959H79.8989L79.1625 12H76L80.2166 2H83.7834L88 12H84.8087ZM83.1191 7.6736L81.9783 4.72021L80.8375 7.6736H83.1191Z" fill="#E9993E"/>
<path d="M95 4V9" stroke="#E9993E" stroke-linejoin="round"/>
</svg>
