<svg width="269" height="270" viewBox="0 0 269 270" fill="none" xmlns="http://www.w3.org/2000/svg">
<path d="M96.8394 0H86.0795V10.76H96.8394V0Z" fill="#114550"/>
<path d="M118.36 0H107.6V10.76H118.36V0Z" fill="#114550"/>
<path d="M182.919 0H172.159V10.76H182.919V0Z" fill="#114550"/>
<path d="M118.36 10.7539H107.6V21.5139H118.36V10.7539Z" fill="#114550"/>
<path d="M139.879 10.7539H129.119V21.5139H139.879V10.7539Z" fill="#114550"/>
<path d="M96.8393 21.5195H86.0793V32.2795H96.8393V21.5195Z" fill="#114550"/>
<path d="M150.639 21.5195H139.879V32.2795H150.639V21.5195Z" fill="#114550"/>
<path d="M161.399 21.5195H150.639V32.2795H161.399V21.5195Z" fill="#114550"/>
<path d="M182.919 21.5195H172.159V32.2795H182.919V21.5195Z" fill="#114550"/>
<path d="M107.6 32.2734H96.8397V43.0334H107.6V32.2734Z" fill="#114550"/>
<path d="M118.36 32.2734H107.6V43.0334H118.36V32.2734Z" fill="#114550"/>
<path d="M139.879 32.2734H129.119V43.0334H139.879V32.2734Z" fill="#114550"/>
<path d="M150.639 32.2734H139.88V43.0334H150.639V32.2734Z" fill="#114550"/>
<path d="M182.919 32.2734H172.159V43.0334H182.919V32.2734Z" fill="#114550"/>
<path d="M107.6 43.0352H96.8397V53.7951H107.6V43.0352Z" fill="#114550"/>
<path d="M118.36 43.0352H107.6V53.7951H118.36V43.0352Z" fill="#114550"/>
<path d="M150.639 43.0352H139.88V53.7951H150.639V43.0352Z" fill="#114550"/>
<path d="M182.919 43.0352H172.159V53.7951H182.919V43.0352Z" fill="#114550"/>
<path d="M96.8393 53.8047H86.0793V64.5646H96.8393V53.8047Z" fill="#114550"/>
<path d="M107.6 53.8047H96.8397V64.5646H107.6V53.8047Z" fill="#114550"/>
<path d="M118.36 53.8047H107.6V64.5646H118.36V53.8047Z" fill="#114550"/>
<path d="M129.119 53.8047H118.359V64.5646H129.119V53.8047Z" fill="#114550"/>
<path d="M150.639 53.8047H139.88V64.5646H150.639V53.8047Z" fill="#114550"/>
<path d="M182.919 53.8047H172.159V64.5646H182.919V53.8047Z" fill="#114550"/>
<path d="M96.8393 64.5547H86.0793V75.3146H96.8393V64.5547Z" fill="#114550"/>
<path d="M118.36 64.5547H107.6V75.3146H118.36V64.5547Z" fill="#114550"/>
<path d="M139.879 64.5547H129.119V75.3146H139.879V64.5547Z" fill="#114550"/>
<path d="M161.399 64.5547H150.639V75.3146H161.399V64.5547Z" fill="#114550"/>
<path d="M182.919 64.5547H172.159V75.3146H182.919V64.5547Z" fill="#114550"/>
<path d="M107.6 75.3164H96.8397V86.0764H107.6V75.3164Z" fill="#114550"/>
<path d="M10.76 86.0859H0V96.8459H10.76V86.0859Z" fill="#114550"/>
<path d="M32.2797 86.0859H21.5198V96.8459H32.2797V86.0859Z" fill="#114550"/>
<path d="M75.3198 86.0859H64.5598V96.8459H75.3198V86.0859Z" fill="#114550"/>
<path d="M86.0794 86.0859H75.3195V96.8459H86.0794V86.0859Z" fill="#114550"/>
<path d="M107.6 86.0859H96.8397V96.8459H107.6V86.0859Z" fill="#114550"/>
<path d="M129.119 86.0859H118.359V96.8459H129.119V86.0859Z" fill="#114550"/>
<path d="M161.399 86.0859H150.639V96.8459H161.399V86.0859Z" fill="#114550"/>
<path d="M215.199 86.0859H204.439V96.8459H215.199V86.0859Z" fill="#114550"/>
<path d="M247.479 86.0859H236.719V96.8459H247.479V86.0859Z" fill="#114550"/>
<path d="M268.999 86.0859H258.239V96.8459H268.999V86.0859Z" fill="#114550"/>
<path d="M10.76 96.8359H0V107.596H10.76V96.8359Z" fill="#114550"/>
<path d="M32.2797 96.8359H21.5198V107.596H32.2797V96.8359Z" fill="#114550"/>
<path d="M43.0401 96.8359H32.2802V107.596H43.0401V96.8359Z" fill="#114550"/>
<path d="M64.5599 96.8359H53.7999V107.596H64.5599V96.8359Z" fill="#114550"/>
<path d="M86.0797 96.8359H75.3197V107.596H86.0797V96.8359Z" fill="#114550"/>
<path d="M118.36 96.8359H107.6V107.596H118.36V96.8359Z" fill="#114550"/>
<path d="M139.879 96.8359H129.119V107.596H139.879V96.8359Z" fill="#114550"/>
<path d="M161.399 96.8359H150.639V107.596H161.399V96.8359Z" fill="#114550"/>
<path d="M172.16 96.8359H161.4V107.596H172.16V96.8359Z" fill="#114550"/>
<path d="M204.439 96.8359H193.679V107.596H204.439V96.8359Z" fill="#114550"/>
<path d="M215.199 96.8359H204.439V107.596H215.199V96.8359Z" fill="#114550"/>
<path d="M236.719 96.8359H225.959V107.596H236.719V96.8359Z" fill="#114550"/>
<path d="M258.239 96.8359H247.479V107.596H258.239V96.8359Z" fill="#114550"/>
<path d="M268.999 96.8359H258.239V107.596H268.999V96.8359Z" fill="#114550"/>
<path d="M21.5198 107.594H10.7599V118.354H21.5198V107.594Z" fill="#114550"/>
<path d="M53.8 107.594H43.04V118.354H53.8V107.594Z" fill="#114550"/>
<path d="M64.5599 107.594H53.7999V118.354H64.5599V107.594Z" fill="#114550"/>
<path d="M75.3198 107.594H64.5598V118.354H75.3198V107.594Z" fill="#114550"/>
<path d="M86.0794 107.594H75.3195V118.354H86.0794V107.594Z" fill="#114550"/>
<path d="M96.8393 107.594H86.0793V118.354H96.8393V107.594Z" fill="#114550"/>
<path d="M161.399 107.594H150.639V118.354H161.399V107.594Z" fill="#114550"/>
<path d="M172.159 107.594H161.399V118.354H172.159V107.594Z" fill="#114550"/>
<path d="M193.68 107.594H182.92V118.354H193.68V107.594Z" fill="#114550"/>
<path d="M204.439 107.594H193.679V118.354H204.439V107.594Z" fill="#114550"/>
<path d="M236.719 107.594H225.959V118.354H236.719V107.594Z" fill="#114550"/>
<path d="M247.479 107.594H236.719V118.354H247.479V107.594Z" fill="#114550"/>
<path d="M268.999 107.594H258.239V118.354H268.999V107.594Z" fill="#114550"/>
<path d="M21.5198 118.359H10.7599V129.119H21.5198V118.359Z" fill="#114550"/>
<path d="M32.2797 118.359H21.5198V129.119H32.2797V118.359Z" fill="#114550"/>
<path d="M53.8 118.359H43.04V129.119H53.8V118.359Z" fill="#114550"/>
<path d="M86.0794 118.359H75.3195V129.119H86.0794V118.359Z" fill="#114550"/>
<path d="M96.8393 118.359H86.0793V129.119H96.8393V118.359Z" fill="#114550"/>
<path d="M118.36 118.359H107.6V129.119H118.36V118.359Z" fill="#114550"/>
<path d="M161.399 118.359H150.639V129.119H161.399V118.359Z" fill="#114550"/>
<path d="M193.68 118.359H182.92V129.119H193.68V118.359Z" fill="#114550"/>
<path d="M215.199 118.359H204.439V129.119H215.199V118.359Z" fill="#114550"/>
<path d="M236.719 118.359H225.959V129.119H236.719V118.359Z" fill="#114550"/>
<path d="M10.76 129.121H0V139.881H10.76V129.121Z" fill="#114550"/>
<path d="M21.5198 129.121H10.7599V139.881H21.5198V129.121Z" fill="#114550"/>
<path d="M75.3198 129.121H64.5598V139.881H75.3198V129.121Z" fill="#114550"/>
<path d="M86.0794 129.121H75.3195V139.881H86.0794V129.121Z" fill="#114550"/>
<path d="M107.6 129.121H96.8397V139.881H107.6V129.121Z" fill="#114550"/>
<path d="M139.879 129.121H129.119V139.881H139.879V129.121Z" fill="#114550"/>
<path d="M161.399 129.121H150.639V139.881H161.399V129.121Z" fill="#114550"/>
<path d="M172.159 129.121H161.399V139.881H172.159V129.121Z" fill="#114550"/>
<path d="M193.68 129.121H182.92V139.881H193.68V129.121Z" fill="#114550"/>
<path d="M204.439 129.121H193.679V139.881H204.439V129.121Z" fill="#114550"/>
<path d="M268.999 129.121H258.239V139.881H268.999V129.121Z" fill="#114550"/>
<path d="M32.2797 139.875H21.5198V150.635H32.2797V139.875Z" fill="#114550"/>
<path d="M53.8 139.875H43.04V150.635H53.8V139.875Z" fill="#114550"/>
<path d="M96.8393 139.875H86.0793V150.635H96.8393V139.875Z" fill="#114550"/>
<path d="M107.6 139.875H96.8397V150.635H107.6V139.875Z" fill="#114550"/>
<path d="M118.36 139.875H107.6V150.635H118.36V139.875Z" fill="#114550"/>
<path d="M139.879 139.875H129.119V150.635H139.879V139.875Z" fill="#114550"/>
<path d="M161.399 139.875H150.639V150.635H161.399V139.875Z" fill="#114550"/>
<path d="M172.159 139.875H161.399V150.635H172.159V139.875Z" fill="#114550"/>
<path d="M204.439 139.875H193.679V150.635H204.439V139.875Z" fill="#114550"/>
<path d="M215.199 139.875H204.439V150.635H215.199V139.875Z" fill="#114550"/>
<path d="M258.239 139.875H247.479V150.635H258.239V139.875Z" fill="#114550"/>
<path d="M268.999 139.875H258.239V150.635H268.999V139.875Z" fill="#114550"/>
<path d="M10.76 150.641H0V161.401H10.76V150.641Z" fill="#114550"/>
<path d="M21.5198 150.641H10.7599V161.401H21.5198V150.641Z" fill="#114550"/>
<path d="M32.2797 150.641H21.5198V161.401H32.2797V150.641Z" fill="#114550"/>
<path d="M64.5599 150.641H53.7999V161.401H64.5599V150.641Z" fill="#114550"/>
<path d="M75.3198 150.641H64.5598V161.401H75.3198V150.641Z" fill="#114550"/>
<path d="M139.879 150.641H129.119V161.401H139.879V150.641Z" fill="#114550"/>
<path d="M172.159 150.641H161.399V161.401H172.159V150.641Z" fill="#114550"/>
<path d="M236.719 150.641H225.959V161.401H236.719V150.641Z" fill="#114550"/>
<path d="M247.479 150.641H236.719V161.401H247.479V150.641Z" fill="#114550"/>
<path d="M268.999 150.641H258.239V161.401H268.999V150.641Z" fill="#114550"/>
<path d="M32.2797 161.402H21.5198V172.162H32.2797V161.402Z" fill="#114550"/>
<path d="M53.8 161.402H43.04V172.162H53.8V161.402Z" fill="#114550"/>
<path d="M107.6 161.402H96.8397V172.162H107.6V161.402Z" fill="#114550"/>
<path d="M118.36 161.402H107.6V172.162H118.36V161.402Z" fill="#114550"/>
<path d="M129.119 161.402H118.359V172.162H129.119V161.402Z" fill="#114550"/>
<path d="M139.879 161.402H129.119V172.162H139.879V161.402Z" fill="#114550"/>
<path d="M161.399 161.402H150.639V172.162H161.399V161.402Z" fill="#114550"/>
<path d="M172.159 161.402H161.399V172.162H172.159V161.402Z" fill="#114550"/>
<path d="M182.919 161.402H172.159V172.162H182.919V161.402Z" fill="#114550"/>
<path d="M204.439 161.402H193.679V172.162H204.439V161.402Z" fill="#114550"/>
<path d="M215.199 161.402H204.439V172.162H215.199V161.402Z" fill="#114550"/>
<path d="M225.959 161.402H215.199V172.162H225.959V161.402Z" fill="#114550"/>
<path d="M236.719 161.402H225.959V172.162H236.719V161.402Z" fill="#114550"/>
<path d="M10.76 172.156H0V182.916H10.76V172.156Z" fill="#114550"/>
<path d="M21.5198 172.156H10.7599V182.916H21.5198V172.156Z" fill="#114550"/>
<path d="M53.8 172.156H43.04V182.916H53.8V172.156Z" fill="#114550"/>
<path d="M75.3198 172.156H64.5598V182.916H75.3198V172.156Z" fill="#114550"/>
<path d="M96.8393 172.156H86.0793V182.916H96.8393V172.156Z" fill="#114550"/>
<path d="M118.36 172.156H107.6V182.916H118.36V172.156Z" fill="#114550"/>
<path d="M139.879 172.156H129.119V182.916H139.879V172.156Z" fill="#114550"/>
<path d="M161.399 172.156H150.639V182.916H161.399V172.156Z" fill="#114550"/>
<path d="M182.919 172.156H172.159V182.916H182.919V172.156Z" fill="#114550"/>
<path d="M193.679 172.156H182.919V182.916H193.679V172.156Z" fill="#114550"/>
<path d="M204.439 172.156H193.679V182.916H204.439V172.156Z" fill="#114550"/>
<path d="M215.199 172.156H204.439V182.916H215.199V172.156Z" fill="#114550"/>
<path d="M225.959 172.156H215.199V182.916H225.959V172.156Z" fill="#114550"/>
<path d="M258.239 172.156H247.479V182.916H258.239V172.156Z" fill="#114550"/>
<path d="M96.8393 182.918H86.0793V193.678H96.8393V182.918Z" fill="#114550"/>
<path d="M150.639 182.918H139.88V193.678H150.639V182.918Z" fill="#114550"/>
<path d="M161.399 182.918H150.639V193.678H161.399V182.918Z" fill="#114550"/>
<path d="M182.919 182.918H172.159V193.678H182.919V182.918Z" fill="#114550"/>
<path d="M225.959 182.918H215.199V193.678H225.959V182.918Z" fill="#114550"/>
<path d="M268.999 182.918H258.239V193.678H268.999V182.918Z" fill="#114550"/>
<path d="M96.8393 193.68H86.0793V204.44H96.8393V193.68Z" fill="#114550"/>
<path d="M118.36 193.68H107.6V204.44H118.36V193.68Z" fill="#114550"/>
<path d="M129.119 193.68H118.359V204.44H129.119V193.68Z" fill="#114550"/>
<path d="M139.879 193.68H129.119V204.44H139.879V193.68Z" fill="#114550"/>
<path d="M150.639 193.68H139.88V204.44H150.639V193.68Z" fill="#114550"/>
<path d="M161.399 193.68H150.639V204.44H161.399V193.68Z" fill="#114550"/>
<path d="M182.919 193.68H172.159V204.44H182.919V193.68Z" fill="#114550"/>
<path d="M204.439 193.68H193.679V204.44H204.439V193.68Z" fill="#114550"/>
<path d="M225.959 193.68H215.199V204.44H225.959V193.68Z" fill="#114550"/>
<path d="M268.999 193.68H258.239V204.44H268.999V193.68Z" fill="#114550"/>
<path d="M118.36 204.438H107.6V215.197H118.36V204.438Z" fill="#114550"/>
<path d="M161.399 204.438H150.639V215.197H161.399V204.438Z" fill="#114550"/>
<path d="M182.919 204.438H172.159V215.197H182.919V204.438Z" fill="#114550"/>
<path d="M225.959 204.438H215.199V215.197H225.959V204.438Z" fill="#114550"/>
<path d="M258.239 204.438H247.479V215.197H258.239V204.438Z" fill="#114550"/>
<path d="M161.399 215.191H150.639V225.951H161.399V215.191Z" fill="#114550"/>
<path d="M172.159 215.191H161.399V225.951H172.159V215.191Z" fill="#114550"/>
<path d="M182.919 215.191H172.159V225.951H182.919V215.191Z" fill="#114550"/>
<path d="M193.68 215.191H182.92V225.951H193.68V215.191Z" fill="#114550"/>
<path d="M204.439 215.191H193.679V225.951H204.439V215.191Z" fill="#114550"/>
<path d="M215.199 215.191H204.439V225.951H215.199V215.191Z" fill="#114550"/>
<path d="M225.959 215.191H215.199V225.951H225.959V215.191Z" fill="#114550"/>
<path d="M258.239 215.191H247.479V225.951H258.239V215.191Z" fill="#114550"/>
<path d="M129.119 225.961H118.359V236.721H129.119V225.961Z" fill="#114550"/>
<path d="M150.639 225.961H139.88V236.721H150.639V225.961Z" fill="#114550"/>
<path d="M161.399 225.961H150.639V236.721H161.399V225.961Z" fill="#114550"/>
<path d="M172.159 225.961H161.399V236.721H172.159V225.961Z" fill="#114550"/>
<path d="M193.68 225.961H182.92V236.721H193.68V225.961Z" fill="#114550"/>
<path d="M225.959 225.961H215.199V236.721H225.959V225.961Z" fill="#114550"/>
<path d="M247.479 225.961H236.719V236.721H247.479V225.961Z" fill="#114550"/>
<path d="M258.239 225.961H247.479V236.721H258.239V225.961Z" fill="#114550"/>
<path d="M96.8393 236.723H86.0793V247.483H96.8393V236.723Z" fill="#114550"/>
<path d="M107.6 236.723H96.8397V247.483H107.6V236.723Z" fill="#114550"/>
<path d="M118.36 236.723H107.6V247.483H118.36V236.723Z" fill="#114550"/>
<path d="M129.119 236.723H118.359V247.483H129.119V236.723Z" fill="#114550"/>
<path d="M139.879 236.723H129.119V247.483H139.879V236.723Z" fill="#114550"/>
<path d="M150.639 236.723H139.88V247.483H150.639V236.723Z" fill="#114550"/>
<path d="M161.399 236.723H150.639V247.483H161.399V236.723Z" fill="#114550"/>
<path d="M182.919 236.723H172.159V247.483H182.919V236.723Z" fill="#114550"/>
<path d="M193.68 236.723H182.92V247.483H193.68V236.723Z" fill="#114550"/>
<path d="M215.199 236.723H204.439V247.483H215.199V236.723Z" fill="#114550"/>
<path d="M225.959 236.723H215.199V247.483H225.959V236.723Z" fill="#114550"/>
<path d="M236.719 236.723H225.959V247.483H236.719V236.723Z" fill="#114550"/>
<path d="M258.239 236.723H247.479V247.483H258.239V236.723Z" fill="#114550"/>
<path d="M268.999 236.723H258.239V247.483H268.999V236.723Z" fill="#114550"/>
<path d="M182.919 247.477H172.159V258.237H182.919V247.477Z" fill="#114550"/>
<path d="M193.68 247.477H182.92V258.237H193.68V247.477Z" fill="#114550"/>
<path d="M204.439 247.477H193.679V258.237H204.439V247.477Z" fill="#114550"/>
<path d="M215.199 247.477H204.439V258.237H215.199V247.477Z" fill="#114550"/>
<path d="M225.959 247.477H215.199V258.237H225.959V247.477Z" fill="#114550"/>
<path d="M96.8393 258.242H86.0793V269.002H96.8393V258.242Z" fill="#114550"/>
<path d="M107.6 258.242H96.8397V269.002H107.6V258.242Z" fill="#114550"/>
<path d="M129.119 258.242H118.359V269.002H129.119V258.242Z" fill="#114550"/>
<path d="M161.399 258.242H150.639V269.002H161.399V258.242Z" fill="#114550"/>
<path d="M182.919 258.242H172.159V269.002H182.919V258.242Z" fill="#114550"/>
<path d="M204.439 258.242H193.679V269.002H204.439V258.242Z" fill="#114550"/>
<path d="M236.719 258.242H225.959V269.002H236.719V258.242Z" fill="#114550"/>
<path d="M268.999 258.242H258.239V269.002H268.999V258.242Z" fill="#114550"/>
<path d="M64.022 0H11.2982H0.000244141V11.298V64.0217V75.3197H11.2982H64.022H75.3199V64.0217V11.298V0H64.022ZM64.022 64.0217H11.2982V11.298H64.022V64.0217Z" fill="#114550"/>
<path d="M257.701 0H204.977H193.679V11.298V64.0217V75.3197H204.977H257.701H268.999V64.0217V11.298V0H257.701ZM257.701 64.0217H204.977V11.298H257.701V64.0217Z" fill="#114550"/>
<path d="M64.022 193.68H11.2982H0.000244141V204.978V257.701V268.999H11.2982H64.022H75.3199V257.701V204.978V193.68H64.022ZM64.022 257.701H11.2982V204.978H64.022V257.701Z" fill="#114550"/>
<path d="M53.7996 21.5195H21.5198V53.7994H53.7996V21.5195Z" fill="#114550"/>
<path d="M247.479 21.5195H215.199V53.7994H247.479V21.5195Z" fill="#114550"/>
<path d="M53.7996 215.191H21.5198V247.471H53.7996V215.191Z" fill="#114550"/>
</svg>
