<svg width="224" height="69" viewBox="0 0 224 69" fill="none" xmlns="http://www.w3.org/2000/svg">
<rect x="1.5" y="1.5" width="221" height="66" rx="33" fill="#10454F" stroke="#CA8923" stroke-width="3"/>
<path fill-rule="evenodd" clip-rule="evenodd" d="M158.875 25.75C157.684 25.75 156.719 26.7574 156.719 28V40C156.719 41.2426 157.684 42.25 158.875 42.25H176.125C177.316 42.25 178.281 41.2426 178.281 40V28C178.281 26.7574 177.316 25.75 176.125 25.75H158.875ZM158.156 28.2075V40C158.156 40.4142 158.478 40.75 158.875 40.75H176.125C176.522 40.75 176.844 40.4142 176.844 40V28.2075L169.944 33.9212C169.936 33.9282 169.927 33.9349 169.919 33.9415C168.49 35.0195 166.51 35.0195 165.081 33.9415C165.073 33.9349 165.064 33.9282 165.056 33.9212L158.156 28.2075ZM175.688 27.25H159.312L165.936 32.7351C166.857 33.4217 168.143 33.4217 169.064 32.7351L175.688 27.25Z" fill="#FFF6D2"/>
<path d="M41.5 32.6996C42.86 33.0463 43.8333 33.5396 44.42 34.1796C45.0067 34.8196 45.3 35.7796 45.3 37.0596C45.3 38.3396 44.86 39.3663 43.98 40.1396C43.1 40.8996 41.8067 41.2796 40.1 41.2796C38.3933 41.2796 37.16 40.9196 36.4 40.1996C35.64 39.4663 35.1733 38.4063 35 37.0196L37.18 36.6796C37.26 37.4663 37.5267 38.0796 37.98 38.5196C38.4467 38.9463 39.0933 39.1596 39.92 39.1596C41.6933 39.1596 42.58 38.4863 42.58 37.1396C42.58 36.5663 42.4133 36.1329 42.08 35.8396C41.7467 35.5463 41.1067 35.2796 40.16 35.0396L39.02 34.7596C37.6867 34.4263 36.7333 33.9329 36.16 33.2796C35.5867 32.6263 35.3 31.6529 35.3 30.3596C35.3 29.0529 35.72 28.0196 36.56 27.2596C37.4 26.4996 38.64 26.1196 40.28 26.1196C41.9333 26.1196 43.12 26.4863 43.84 27.2196C44.5733 27.9396 45.0267 28.9929 45.2 30.3796L43.04 30.7196C42.8667 29.0663 42.0133 28.2396 40.48 28.2396C39.64 28.2396 39.02 28.4263 38.62 28.7996C38.22 29.1596 38.02 29.6396 38.02 30.2396C38.02 30.8396 38.1733 31.2863 38.48 31.5796C38.7867 31.8729 39.3733 32.1329 40.24 32.3596L41.5 32.6996Z" fill="#FFF7D2"/>
<path d="M52.0108 41.2796C50.1708 41.2796 48.8574 40.7863 48.0708 39.7996C47.2841 38.7996 46.8908 37.2929 46.8908 35.2796C46.8908 31.2796 48.5708 29.2796 51.9308 29.2796C53.8641 29.2796 55.1841 29.8796 55.8908 31.0796C56.5041 32.1063 56.8108 33.4396 56.8108 35.0796V35.7996H49.4908C49.5041 37.0529 49.7108 37.9396 50.1108 38.4596C50.5108 38.9663 51.1708 39.2196 52.0908 39.2196C53.5708 39.2196 54.3574 38.6863 54.4508 37.6196L56.6508 37.6996C56.4375 40.0863 54.8908 41.2796 52.0108 41.2796ZM53.5508 31.9996C53.2174 31.5596 52.6708 31.3396 51.9108 31.3396C51.1508 31.3396 50.5908 31.5529 50.2308 31.9796C49.8841 32.3929 49.6574 33.0596 49.5508 33.9796H54.1708C54.0908 33.0863 53.8841 32.4263 53.5508 31.9996Z" fill="#FFF7D2"/>
<path d="M61.4403 30.5996C62.6936 29.7196 63.9736 29.2796 65.2803 29.2796C66.6003 29.2796 67.5536 29.6063 68.1403 30.2596C68.727 30.8996 69.0203 31.7863 69.0203 32.9196V40.9996H66.3403V33.1996C66.3403 32.5196 66.2136 32.0396 65.9603 31.7596C65.7203 31.4796 65.2936 31.3396 64.6803 31.3396C63.7203 31.3396 62.827 31.6396 62.0003 32.2396V40.9996H59.3203V29.5596H60.5803L61.4403 30.5996Z" fill="#FFF7D2"/>
<path d="M75.282 41.2796C72.7087 41.2796 71.422 39.2796 71.422 35.2796C71.422 31.2796 72.982 29.2796 76.102 29.2796C76.982 29.2796 77.8487 29.4396 78.702 29.7596V25.9596L81.382 25.7596V40.9996H79.642L78.902 39.5796C77.7954 40.7129 76.5887 41.2796 75.282 41.2796ZM76.342 39.2196C77.1687 39.2196 77.9554 38.7929 78.702 37.9396V31.7396C78.0487 31.4729 77.4087 31.3396 76.782 31.3396C75.822 31.3396 75.1354 31.6729 74.722 32.3396C74.3087 33.0063 74.102 33.9863 74.102 35.2796C74.102 37.9063 74.8487 39.2196 76.342 39.2196Z" fill="#FFF7D2"/>
<path d="M94.3155 41.2796C92.4755 41.2796 91.1621 40.7863 90.3755 39.7996C89.5888 38.7996 89.1955 37.2929 89.1955 35.2796C89.1955 31.2796 90.8755 29.2796 94.2355 29.2796C96.1688 29.2796 97.4888 29.8796 98.1955 31.0796C98.8088 32.1063 99.1155 33.4396 99.1155 35.0796V35.7996H91.7955C91.8088 37.0529 92.0155 37.9396 92.4155 38.4596C92.8155 38.9663 93.4755 39.2196 94.3955 39.2196C95.8755 39.2196 96.6621 38.6863 96.7555 37.6196L98.9555 37.6996C98.7421 40.0863 97.1955 41.2796 94.3155 41.2796ZM95.8555 31.9996C95.5221 31.5596 94.9755 31.3396 94.2155 31.3396C93.4555 31.3396 92.8955 31.5529 92.5355 31.9796C92.1888 32.3929 91.9621 33.0596 91.8555 33.9796H96.4755C96.3955 33.0863 96.1888 32.4263 95.8555 31.9996Z" fill="#FFF7D2"/>
<path d="M107.165 29.2796C108.765 29.2796 109.885 29.7396 110.525 30.6596C111.672 29.7396 112.892 29.2796 114.185 29.2796C115.492 29.2796 116.458 29.6063 117.085 30.2596C117.712 30.8996 118.025 31.7863 118.025 32.9196V40.9996H115.345V33.3596C115.345 32.6663 115.218 32.1596 114.965 31.8396C114.712 31.5063 114.265 31.3396 113.625 31.3396C112.718 31.3396 111.885 31.6529 111.125 32.2796C111.152 32.5463 111.165 32.7596 111.165 32.9196V40.9996H108.485V33.3596C108.485 32.6663 108.352 32.1596 108.085 31.8396C107.818 31.5063 107.305 31.3396 106.545 31.3396C105.798 31.3396 105.052 31.6063 104.305 32.1396V40.9996H101.625V29.5596H103.045L103.745 30.4996C104.825 29.6863 105.965 29.2796 107.165 29.2796Z" fill="#FFF7D2"/>
<path d="M125.606 29.2796C128.513 29.2796 129.966 30.6063 129.966 33.2596V40.9996H128.226L127.466 39.5996C126.399 40.7196 125.153 41.2796 123.726 41.2796C122.713 41.2796 121.939 40.9996 121.406 40.4396C120.886 39.8663 120.626 39.1063 120.626 38.1596C120.626 37.1996 120.926 36.4263 121.526 35.8396C122.126 35.2529 123.246 34.8396 124.886 34.5996L127.286 34.2396V33.2796C127.286 31.9863 126.673 31.3396 125.446 31.3396C124.286 31.3396 123.599 31.9263 123.386 33.0996L121.306 32.4796C121.813 30.3463 123.246 29.2796 125.606 29.2796ZM124.586 39.3196C125.493 39.3196 126.393 38.8729 127.286 37.9796V35.9196L125.366 36.2596C124.499 36.4063 123.926 36.6396 123.646 36.9596C123.366 37.2796 123.226 37.6396 123.226 38.0396C123.226 38.4396 123.346 38.7529 123.586 38.9796C123.826 39.2063 124.159 39.3196 124.586 39.3196Z" fill="#FFF7D2"/>
<path d="M133.52 29.5596H136.2V40.9996H133.52V29.5596ZM134.86 28.1996C133.86 28.1996 133.36 27.6863 133.36 26.6596C133.36 25.6196 133.86 25.0996 134.86 25.0996C135.886 25.0996 136.4 25.6196 136.4 26.6596C136.4 27.6863 135.886 28.1996 134.86 28.1996Z" fill="#FFF7D2"/>
<path d="M142.645 40.9996H139.965V25.9596L142.645 25.5996V40.9996Z" fill="#FFF7D2"/>
</svg>
