<svg width="17" height="15" viewBox="0 0 17 15" fill="none" xmlns="http://www.w3.org/2000/svg">
<path fill-rule="evenodd" clip-rule="evenodd" d="M1.86787 9.31965L2.34831 8.83583V11.6199C2.34911 12.5159 2.70176 13.3748 3.32892 14.0085C3.95607 14.6422 4.80645 14.9987 5.69356 15H12.9858C13.3433 15 13.6738 14.8073 13.8526 14.4945C14.0314 14.1817 14.0314 13.7964 13.8526 13.4836C13.6738 13.1708 13.3433 12.9782 12.9858 12.9782H5.69356C5.33689 12.9779 4.99495 12.8347 4.74262 12.5801C4.4904 12.3255 4.34842 11.9801 4.34797 11.6199V8.8358L4.82841 9.31962C5.01599 9.51 5.27087 9.61725 5.53671 9.61772C5.80266 9.61807 6.05789 9.51151 6.24581 9.32148C6.43385 9.13157 6.53924 8.87381 6.53877 8.6052C6.53831 8.3366 6.43211 8.0793 6.24338 7.88997L4.05651 5.68062C3.86859 5.49106 3.61393 5.38462 3.34833 5.38462C3.08273 5.38462 2.82809 5.49106 2.64015 5.68062L0.453398 7.88997C0.208798 8.1468 0.116106 8.51474 0.209604 8.85829C0.30299 9.20198 0.568704 9.47059 0.908892 9.56514C1.24908 9.6598 1.61338 9.56642 1.8679 9.31962L1.86787 9.31965ZM15.8805 5.68064C16.0683 5.8702 16.1738 6.12727 16.1738 6.3954C16.1738 6.66353 16.0683 6.92073 15.8805 7.11016L13.694 9.31962C13.5061 9.50918 13.2513 9.61562 12.9858 9.61562C12.7202 9.61562 12.4655 9.50918 12.2775 9.31962L10.0909 7.11016C9.90215 6.92095 9.79595 6.66353 9.79549 6.39492C9.79503 6.12632 9.90042 5.86866 10.0885 5.67864C10.2764 5.48873 10.5316 5.38217 10.7976 5.38252C11.0635 5.38287 11.3183 5.49013 11.5059 5.68062L11.9863 6.16444V3.38034C11.9858 3.01999 11.8439 2.67457 11.5915 2.41981C11.3392 2.16519 10.9971 2.02203 10.6403 2.02179H3.34812C2.99062 2.02179 2.66015 1.8292 2.48134 1.5164C2.30254 1.20362 2.30254 0.818292 2.48134 0.505516C2.66015 0.192739 2.99062 0 3.34812 0H10.6403C11.5275 0.00128241 12.3778 0.357902 13.005 0.991662C13.6321 1.62527 13.9848 2.48427 13.9856 3.38031V6.16441L14.466 5.68059C14.6536 5.49114 14.908 5.3847 15.1733 5.3847C15.4386 5.3847 15.693 5.49114 15.8806 5.68059L15.8805 5.68064Z" fill="#FFF6D2"/>
</svg>
