<svg width="243" height="243" viewBox="0 0 243 243" fill="none" xmlns="http://www.w3.org/2000/svg">
<path d="M102.105 115.45V93.5513H108.061V109.975H118.603V115.45H102.105Z" fill="#E9993E"/>
<path d="M136.43 115.45L134.987 111.27H126.812L125.37 115.45H119.155L127.441 93.5513H134.432L142.718 115.45H136.43ZM133.101 105.98L130.881 99.5068L128.625 105.98H133.101Z" fill="#E9993E"/>
<path d="M77.6159 127.065L70.7356 130.875C69.3299 128.471 67.2584 127.25 64.4471 127.25C60.4521 127.25 57.5668 130.283 57.5668 134.648C57.5668 139.531 60.97 142.046 64.4841 142.046C67.2214 142.046 69.3669 140.826 70.9205 138.458L77.283 142.897C74.5826 146.929 70.2177 149.482 64.5581 149.482C55.7173 149.482 49.4658 143.378 49.4658 134.648C49.4658 125.918 55.7173 119.815 64.5581 119.815C70.1807 119.815 75.1005 122.515 77.6159 127.065Z" fill="#E9993E"/>
<path d="M100.253 148.925L98.3664 143.487H87.676L85.7895 148.925H77.6885L88.4898 120.368H97.6266L108.428 148.925H100.253ZM95.962 136.57L93.0397 128.136L90.1174 136.57H95.962Z" fill="#E9993E"/>
<path d="M123.079 149.482C114.867 149.482 110.428 145.08 110.428 137.312V120.407H118.196V137.09C118.196 140.382 120.045 142.084 123.079 142.084C126.112 142.084 127.961 140.382 127.961 137.09V120.407H135.729V137.312C135.729 145.043 131.291 149.482 123.079 149.482Z" fill="#E9993E"/>
<path d="M152.043 126.806C149.971 126.806 148.381 127.361 148.381 128.656C148.381 130.246 151.303 130.468 154.225 130.986L155.15 131.171C161.105 132.318 164.065 135.129 164.065 139.531C164.065 146.781 157.961 149.445 151.895 149.445C146.753 149.445 142.129 148.224 138.837 145.893L142.647 139.568C144.94 140.9 147.641 142.49 152.006 142.49C154.077 142.49 155.631 141.935 155.631 140.493C155.631 139.013 153.818 138.717 150.304 138.125L149.231 137.94C142.647 136.794 139.91 134.019 140.058 128.915C140.206 123.44 144.755 119.778 151.636 119.778C155.372 119.778 158.738 120.148 163.695 122.774L160.366 129.137C158.368 128.175 155.594 126.806 152.043 126.806Z" fill="#E9993E"/>
<path d="M186.589 148.925L184.702 143.487H174.012L172.125 148.925H164.024L174.826 120.368H183.963L194.764 148.925H186.589ZM182.261 136.57L179.339 128.136L176.416 136.57H182.261Z" fill="#E9993E"/>
<path d="M119.304 216.695L119.23 219.617L121.672 219.691H121.709L124.15 219.617L123.928 210.592L122.042 210.629C121.931 210.629 121.82 210.629 121.709 210.629L119.489 210.555L119.415 213.477L121.709 213.551V216.732L119.304 216.695Z" fill="#E9993E"/>
<path d="M117.603 20.3843L120.895 20.3103L121.672 20.2734L122.449 20.3103L125.741 20.3843L125.852 17.462L122.486 17.3511H121.709H120.858L117.492 17.462L117.603 20.3843Z" fill="#E9993E"/>
<path d="M101.829 226.445L101.366 229.067L103.989 229.53L104.451 226.907L101.829 226.445Z" fill="#E9993E"/>
<path d="M100.871 231.844L99.2979 240.769L101.921 241.231L103.494 232.306L100.871 231.844Z" fill="#E9993E"/>
<path d="M83.9021 221.432L82.9912 223.935L85.494 224.845L86.4048 222.343L83.9021 221.432Z" fill="#E9993E"/>
<path d="M82.0194 226.528L78.9199 235.044L81.4226 235.955L84.5221 227.439L82.0194 226.528Z" fill="#E9993E"/>
<path d="M67.0953 213.351L65.7637 215.657L68.0701 216.989L69.4018 214.682L67.0953 213.351Z" fill="#E9993E"/>
<path d="M64.3927 218.068L59.8613 225.916L62.1678 227.248L66.6992 219.399L64.3927 218.068Z" fill="#E9993E"/>
<path d="M51.9913 202.478L50.2793 204.518L52.3194 206.23L54.0314 204.19L51.9913 202.478Z" fill="#E9993E"/>
<path d="M48.5062 206.647L42.6807 213.59L44.7211 215.302L50.5466 208.359L48.5062 206.647Z" fill="#E9993E"/>
<path d="M39.0287 189.143L36.9883 190.855L38.7003 192.896L40.7407 191.184L39.0287 189.143Z" fill="#E9993E"/>
<path d="M34.821 192.631L27.8789 198.456L29.5909 200.496L36.533 194.671L34.821 192.631Z" fill="#E9993E"/>
<path d="M28.494 173.746L26.1875 175.078L27.5192 177.385L29.8256 176.053L28.494 173.746Z" fill="#E9993E"/>
<path d="M23.78 176.47L15.9316 181.001L17.2633 183.307L25.1117 178.776L23.78 176.47Z" fill="#E9993E"/>
<path d="M20.8504 156.763L18.3477 157.674L19.2585 160.177L21.7613 159.266L20.8504 156.763Z" fill="#E9993E"/>
<path d="M15.7341 158.631L7.21777 161.731L8.12864 164.234L16.6449 161.134L15.7341 158.631Z" fill="#E9993E"/>
<path d="M16.2449 138.734L13.6221 139.197L14.0844 141.82L16.7073 141.357L16.2449 138.734Z" fill="#E9993E"/>
<path d="M10.882 139.653L1.95703 141.228L2.41965 143.85L11.3447 142.276L10.882 139.653Z" fill="#E9993E"/>
<path d="M14.8772 120.15H12.2139V122.813H14.8772V120.15Z" fill="#E9993E"/>
<path d="M9.40261 120.15H0.339844V122.813H9.40261V120.15Z" fill="#E9993E"/>
<path d="M14.0798 101.171L13.6172 103.794L16.2401 104.257L16.7027 101.634L14.0798 101.171Z" fill="#E9993E"/>
<path d="M2.4106 99.0964L1.94824 101.719L10.8733 103.293L11.3356 100.67L2.4106 99.0964Z" fill="#E9993E"/>
<path d="M19.2546 82.7883L18.3438 85.291L20.8465 86.2019L21.7573 83.6991L19.2546 82.7883Z" fill="#E9993E"/>
<path d="M8.12864 78.7497L7.21777 81.2524L15.7341 84.3519L16.6449 81.8492L8.12864 78.7497Z" fill="#E9993E"/>
<path d="M27.5192 65.5993L26.1875 67.9058L28.494 69.2374L29.8256 66.931L27.5192 65.5993Z" fill="#E9993E"/>
<path d="M17.277 59.6696L15.9453 61.9761L23.7937 66.5075L25.1253 64.201L17.277 59.6696Z" fill="#E9993E"/>
<path d="M38.6905 50.0856L36.9785 52.126L39.0189 53.838L40.7309 51.7976L38.6905 50.0856Z" fill="#E9993E"/>
<path d="M29.6104 42.4621L27.8984 44.5024L34.8414 50.328L36.5534 48.2876L29.6104 42.4621Z" fill="#E9993E"/>
<path d="M52.3285 36.7514L50.2881 38.4634L52.0001 40.5038L54.0405 38.7918L52.3285 36.7514Z" fill="#E9993E"/>
<path d="M44.7208 27.682L42.6807 29.394L48.5062 36.3361L50.5463 34.6241L44.7208 27.682Z" fill="#E9993E"/>
<path d="M68.075 26.0062L65.7686 27.3379L67.1002 29.6443L69.4067 28.3127L68.075 26.0062Z" fill="#E9993E"/>
<path d="M62.1775 15.7333L59.8711 17.0649L64.4025 24.9133L66.7089 23.5816L62.1775 15.7333Z" fill="#E9993E"/>
<path d="M85.4793 18.1663L82.9766 19.0771L83.8874 21.5799L86.3902 20.669L85.4793 18.1663Z" fill="#E9993E"/>
<path d="M81.4178 7.00857L78.915 7.91943L82.0145 16.4357L84.5173 15.5248L81.4178 7.00857Z" fill="#E9993E"/>
<path d="M103.994 13.4449L101.371 13.9072L101.833 16.5301L104.456 16.0677L103.994 13.4449Z" fill="#E9993E"/>
<path d="M101.921 1.75906L99.2979 2.22168L100.872 11.1467L103.495 10.6841L101.921 1.75906Z" fill="#E9993E"/>
<path d="M120.341 14.6511H121.672H121.709H123.004V11.9878H121.709H121.672H120.341V14.6511Z" fill="#E9993E"/>
<path d="M120.341 0.151367V9.21413H121.672H123.004V0.151367H121.709H120.341Z" fill="#E9993E"/>
<path d="M124.039 26.3024L124.113 23.3801L121.672 23.3062H121.635L119.193 23.3801L119.452 32.4059L121.339 32.3689C121.45 32.3689 121.561 32.3689 121.672 32.3689L123.891 32.4429L123.965 29.5206L121.672 29.4466V26.2654L124.039 26.3024Z" fill="#E9993E"/>
<path d="M125.741 222.614L122.449 222.688H121.709H120.895L117.603 222.614L117.492 225.537L120.858 225.611L121.672 225.648L122.486 225.611L125.852 225.537L125.741 222.614Z" fill="#E9993E"/>
<path d="M129.215 225.351C130.324 225.277 131.471 225.203 132.581 225.092L135.836 224.685L137.5 224.463L139.165 224.168L142.494 223.576L141.902 220.69L138.684 221.282L137.057 221.578L135.429 221.8L135.022 218.804C136.65 218.619 138.24 218.286 139.831 218.027L138.166 209.149L136.317 209.482L135.429 209.63C134.911 209.704 134.356 209.778 133.801 209.852L133.394 206.856L134.763 206.671L136.132 206.412L138.869 205.931C139.794 205.746 140.682 205.524 141.606 205.302L142.975 205.006C143.419 204.895 143.863 204.747 144.307 204.636L145.084 207.559L144.011 207.855C143.641 207.966 143.308 208.039 142.938 208.113L140.793 208.594L141.421 211.48L143.641 210.962C144.011 210.888 144.381 210.814 144.751 210.703L145.86 210.407L148.635 209.63C149.19 209.482 149.707 209.297 150.225 209.112L151.224 212.145L150.114 212.515C149.744 212.626 149.375 212.737 148.968 212.848L146.674 213.477L145.527 213.81C145.158 213.921 144.751 213.995 144.381 214.069L142.087 214.587L142.716 217.472L145.084 216.917C145.49 216.806 145.86 216.732 146.267 216.621L147.451 216.288L148.228 219.211C147.71 219.359 147.192 219.507 146.637 219.655L145.047 220.025C143.974 220.283 142.901 220.505 141.828 220.764L142.42 223.65C143.53 223.428 144.603 223.169 145.712 222.91L147.34 222.54C147.895 222.392 148.413 222.244 148.968 222.096L152.112 221.208C153.185 220.875 154.257 220.505 155.33 220.136C156.403 219.766 157.476 219.433 158.511 218.989L157.476 216.251C156.477 216.658 155.404 216.991 154.368 217.361C153.333 217.694 152.297 218.064 151.261 218.397L150.373 215.512C151.927 215.031 153.444 214.476 154.997 213.958L151.927 205.45L150.151 206.042L149.301 206.338C148.783 206.486 148.265 206.708 147.747 206.856L146.859 203.97C147.747 203.712 148.635 203.379 149.522 203.083C150.41 202.787 151.298 202.491 152.149 202.158L154.738 201.122C155.182 200.974 155.589 200.752 156.033 200.567L157.291 199.975L158.548 202.713L156.514 203.638C155.848 203.934 155.145 204.192 154.442 204.451L155.515 207.189C156.218 206.893 156.921 206.634 157.623 206.338L159.695 205.413C160.583 205.006 161.471 204.636 162.321 204.192L163.801 203.416L165.244 206.227L163.135 207.3C162.432 207.67 161.692 207.966 160.99 208.298L158.844 209.26C158.104 209.556 157.365 209.852 156.662 210.148L157.734 212.885C158.474 212.589 159.251 212.293 159.991 211.961L162.21 210.962L163.468 213.699L161.988 214.365C161.471 214.587 160.99 214.846 160.472 215.031L157.402 216.251L158.437 218.989L161.582 217.731C162.099 217.546 162.617 217.287 163.135 217.065L164.689 216.362C165.687 215.919 166.686 215.475 167.648 214.957L170.644 213.403C171.162 213.144 171.643 212.848 172.124 212.589L173.604 211.739L172.124 209.186L170.718 210C170.237 210.259 169.756 210.555 169.276 210.777L166.353 212.256L165.022 209.556L167.204 208.446L168.277 207.892L169.35 207.3L164.948 199.384L164.134 199.865C163.875 200.012 163.579 200.16 163.283 200.308L162.469 200.715L161.027 201.455L159.695 198.755L162.173 197.497C162.58 197.312 162.987 197.053 163.394 196.831L164.615 196.128C166.242 195.241 167.796 194.168 169.35 193.206L171.014 195.722L169.165 196.905L168.24 197.497L167.759 197.793L167.278 198.052L168.795 200.567L169.276 200.271L169.756 199.975L170.718 199.347L172.642 198.126C173.049 197.867 173.456 197.571 173.825 197.312L175.009 196.461L176.378 195.5L178.264 198.052L176.341 199.421L175.379 200.123C175.046 200.345 174.75 200.567 174.417 200.789L172.42 202.084L171.421 202.713L170.94 203.046L170.422 203.342L171.939 205.857L172.457 205.561L172.975 205.228L174.01 204.562L176.045 203.231L177.71 205.746C175.86 206.93 174.047 208.15 172.124 209.186L173.604 211.739C175.564 210.666 177.451 209.408 179.337 208.187C179.818 207.892 180.225 207.559 180.669 207.263L182 206.301C183.85 205.043 185.589 203.601 187.364 202.232L185.515 199.975C183.776 201.307 182.111 202.713 180.299 203.934L178.523 201.492C179.189 201.011 179.855 200.567 180.484 200.049L182.407 198.533L176.785 191.431L175.305 192.614C175.083 192.799 174.824 192.984 174.565 193.169L173.234 194.094L171.458 191.653C173.012 190.617 174.417 189.396 175.897 188.286C176.267 187.99 176.6 187.695 176.97 187.399L178.042 186.474C178.745 185.882 179.448 185.253 180.114 184.624L182.185 186.844L181.372 187.621L180.521 188.36L178.856 189.803L180.743 192.059L182.481 190.58L183.332 189.84L184.146 189.063L186.254 187.066C186.661 186.696 187.031 186.252 187.438 185.845L189.695 188.064C187.512 190.321 185.182 192.466 182.777 194.501L184.664 196.757L186.513 195.167L187.438 194.353L188.326 193.502L190.397 195.722C189.621 196.498 188.77 197.201 187.956 197.904L186.698 198.977C186.291 199.347 185.885 199.717 185.441 200.049L187.29 202.306C187.734 201.973 188.141 201.566 188.585 201.233L189.843 200.123C190.693 199.384 191.544 198.644 192.358 197.867L194.725 195.611C195.539 194.834 196.279 193.983 197.056 193.169L198.202 191.948C198.609 191.542 198.942 191.098 199.312 190.691L197.13 188.73C196.76 189.137 196.427 189.581 196.057 189.951L194.91 191.135C194.133 191.911 193.431 192.725 192.617 193.502L190.471 191.357C191.618 190.21 192.728 189.026 193.838 187.842L187.142 181.739L185.848 183.108L185.219 183.773C184.849 184.143 184.479 184.587 184.072 184.92L181.926 182.775C182.592 182.109 183.221 181.443 183.85 180.777L184.812 179.778C185.145 179.446 185.441 179.076 185.737 178.743L187.549 176.634C188.141 175.931 188.696 175.192 189.288 174.452L191.692 176.301L190.323 178.04C190.101 178.336 189.843 178.595 189.621 178.891L188.881 179.741L191.1 181.665L191.84 180.814C192.099 180.518 192.358 180.259 192.58 179.926L193.986 178.114L194.873 176.967C195.169 176.597 195.428 176.19 195.724 175.783L196.686 174.415L199.275 176.227L197.907 178.151L197.574 178.632L197.204 179.113L196.464 180.037L194.984 181.887C194.762 182.22 194.466 182.479 194.207 182.812L193.431 183.699L195.65 185.623L196.464 184.698C196.723 184.402 197.019 184.069 197.241 183.773L198.757 181.85L201.162 183.699C200.496 184.55 199.83 185.438 199.127 186.252L196.982 188.73L199.164 190.691L201.384 188.138C202.087 187.288 202.789 186.363 203.492 185.512L204.491 184.217C204.824 183.773 205.12 183.33 205.453 182.886L207.413 180.148C208.042 179.224 208.634 178.262 209.263 177.3L206.784 175.746C206.192 176.671 205.601 177.596 205.009 178.484L203.122 181.147L200.681 179.372L202.087 177.374C202.308 177.041 202.567 176.708 202.789 176.375L203.455 175.34L195.872 170.383C195.539 170.901 195.206 171.456 194.836 171.973L194.318 172.713L193.394 174.045L190.952 172.269L192.58 169.976C193.098 169.199 193.579 168.422 194.096 167.645L194.836 166.462C195.095 166.055 195.317 165.648 195.539 165.241L196.945 162.837L199.608 164.279C198.868 165.537 198.165 166.832 197.389 168.126L199.904 169.643C200.681 168.348 201.421 167.017 202.197 165.685C202.641 164.834 203.085 163.983 203.529 163.096L204.306 161.616L207.154 162.985C206.414 164.39 205.712 165.796 204.972 167.202C204.195 168.57 203.418 169.939 202.604 171.308L205.12 172.824C205.971 171.419 206.747 170.013 207.561 168.607L210.225 170.05L208.597 172.898C208.338 173.379 208.079 173.86 207.783 174.304L206.895 175.672L209.374 177.226L210.298 175.82C210.594 175.34 210.853 174.859 211.149 174.378L212.814 171.456C213.332 170.494 213.813 169.532 214.33 168.533L215.107 167.017C215.366 166.499 215.588 165.981 215.81 165.5L217.216 162.43L214.515 161.283L213.147 164.279C212.925 164.76 212.703 165.278 212.444 165.759L211.704 167.239L209.004 165.87L209.559 164.797C209.744 164.427 209.929 164.057 210.077 163.687L211.075 161.468L202.826 157.806L202.05 159.544C201.939 159.803 201.791 160.099 201.68 160.358L200.94 161.801L198.239 160.432L198.868 159.175C199.09 158.768 199.275 158.324 199.46 157.917L200.607 155.364C200.977 154.514 201.31 153.626 201.643 152.775L202.16 151.48C202.345 151.037 202.456 150.593 202.604 150.149L205.453 151.148L205.083 152.183L204.676 153.219L203.862 155.291L206.599 156.4L207.45 154.255L207.857 153.182L208.227 152.109L209.152 149.372L209.3 148.965L209.411 148.558L209.633 147.744L212.666 148.632C211.778 151.665 210.705 154.625 209.522 157.547L212.222 158.657L213.11 156.4L213.554 155.254L213.961 154.107L216.809 155.106C216.624 155.623 216.476 156.141 216.254 156.659L215.662 158.176C215.255 159.175 214.885 160.21 214.441 161.209L217.142 162.356C217.586 161.32 217.993 160.247 218.399 159.212L219.028 157.621C219.25 157.103 219.398 156.548 219.583 156.03L220.619 152.923C220.804 152.405 220.952 151.85 221.1 151.296L221.544 149.668C221.84 148.595 222.173 147.522 222.394 146.413L219.546 145.71C219.324 146.783 218.991 147.818 218.695 148.891L218.252 150.482C218.104 151 217.956 151.554 217.771 152.035L214.885 151.111C215.033 150.741 215.144 150.334 215.255 149.927L215.588 148.743L216.254 146.413L207.487 144.119L206.969 145.932L206.71 146.82L206.488 147.596L206.377 148.003L206.229 148.373L203.344 147.448C203.492 147.005 203.603 146.561 203.751 146.117L204.121 144.785C204.38 143.897 204.639 143.01 204.824 142.085L205.453 139.384C205.564 138.941 205.638 138.46 205.712 138.016L205.971 136.647L208.93 137.165L208.56 139.347C208.412 140.05 208.227 140.79 208.079 141.493L210.927 142.159C211.112 141.419 211.26 140.679 211.445 139.939L211.852 137.683L212.111 136.24L212.222 135.537L212.333 134.835L212.555 133.17L215.699 133.577L215.403 135.907L214.996 138.238L214.589 140.568C214.441 141.345 214.256 142.122 214.072 142.862L216.92 143.527C217.105 142.751 217.29 141.937 217.475 141.16L217.919 138.756L220.878 139.273L220.582 140.901C220.471 141.456 220.397 141.974 220.249 142.492L219.509 145.673L222.358 146.376L223.134 143.084C223.282 142.529 223.356 141.974 223.467 141.419L223.763 139.754L224.059 138.127L224.207 137.313L224.318 136.499C224.577 134.28 224.947 132.023 225.058 129.804L222.136 129.582C222.025 131.764 221.692 133.947 221.433 136.092L218.436 135.648L218.732 133.244L218.88 132.023L218.954 131.431L218.991 130.84L210.003 129.989C209.966 130.618 209.855 131.246 209.781 131.875L209.67 132.763L209.448 134.391L206.451 133.947C206.673 132.097 206.969 130.248 207.043 128.398C207.117 127.473 207.191 126.549 207.228 125.624L207.302 122.813L210.335 122.85L210.261 125.069C210.261 125.439 210.261 125.809 210.225 126.179L210.151 127.288L213.073 127.473L213.147 126.327C213.184 125.957 213.184 125.55 213.184 125.18L213.258 122.887L213.295 121.444L213.258 120.001L213.221 118.337L216.402 118.226C216.439 119.816 216.513 121.37 216.439 122.96L216.365 125.328C216.365 125.735 216.365 126.105 216.328 126.512L216.254 127.695L219.176 127.88L219.25 126.66C219.287 126.253 219.287 125.846 219.287 125.439L219.361 122.997L222.394 123.034L222.321 126.327C222.284 127.399 222.173 128.509 222.099 129.582L225.021 129.804C225.095 128.694 225.206 127.547 225.243 126.438L225.317 123.071L225.354 121.444L225.317 119.816L225.243 116.45C225.206 115.34 225.095 114.194 225.021 113.084L222.099 113.306C222.173 114.379 222.284 115.488 222.321 116.561L222.394 119.853L219.361 119.89L219.287 117.449C219.287 117.042 219.287 116.635 219.25 116.228L219.176 115.007L210.151 115.599C210.188 116.228 210.261 116.857 210.261 117.486L210.298 118.411L210.335 120.038L207.302 120.075L207.228 117.264C207.191 116.339 207.08 115.414 207.043 114.49C206.932 112.64 206.673 110.79 206.451 108.941L209.448 108.497L209.744 110.68L209.892 111.789L209.966 112.344L210.003 112.899L212.925 112.64L212.888 112.085L212.814 111.53L212.666 110.384L212.37 108.127L212.259 107.424L212.148 106.721L212.296 105.279L212 103.614L215.107 102.985L215.514 105.316C215.662 106.093 215.81 106.869 215.884 107.646L216.18 109.977L216.328 111.16L216.402 111.752L216.439 112.344L219.361 112.085L219.324 111.493L219.25 110.901L219.102 109.681L218.806 107.276L221.803 106.832C222.062 109.015 222.394 111.16 222.505 113.343L225.428 113.121C225.317 110.864 224.984 108.645 224.688 106.426L224.577 105.612L224.429 104.798L224.133 103.17L223.837 101.506C223.726 100.951 223.652 100.396 223.504 99.8412L222.727 96.549L219.879 97.2518L220.619 100.433C220.767 100.951 220.841 101.506 220.952 102.061L221.248 103.688L218.289 104.206L217.845 101.802C217.66 101.025 217.475 100.211 217.29 99.4343L208.486 101.469L208.93 103.318C209.004 103.614 209.041 103.91 209.115 104.206L209.411 105.797L206.451 106.315L206.192 104.946C206.119 104.502 206.045 104.021 205.934 103.577L205.305 100.877C205.12 99.9522 204.824 99.0644 204.602 98.1766L204.232 96.8449C204.084 96.401 204.01 95.9572 203.825 95.5133L206.71 94.5885C206.821 94.9214 206.932 95.2913 207.043 95.6612L207.339 96.734L207.931 98.8794L210.779 98.1396L210.151 95.9571L209.855 94.8474C209.744 94.4775 209.67 94.1076 209.522 93.7377L208.597 91.0004C208.412 90.4825 208.264 89.9276 208.042 89.4098L211.001 88.3C211.149 88.67 211.297 89.0399 211.408 89.4098L211.778 90.5195L212.518 92.7759C212.666 93.1459 212.74 93.5158 212.851 93.9226L213.184 95.0694L213.813 97.3628L216.661 96.623L215.995 94.2926L215.662 93.1089C215.551 92.702 215.44 92.332 215.292 91.9251L218.178 91.0004C218.362 91.5182 218.51 92.0361 218.658 92.554L219.102 94.1446C219.398 95.2173 219.731 96.2531 219.953 97.3258L222.801 96.623C222.579 95.5133 222.247 94.4405 221.951 93.3678L221.507 91.7402C221.359 91.1853 221.211 90.6675 221.026 90.1126L219.99 87.0054C219.805 86.4875 219.657 85.9326 219.435 85.4147L218.806 83.8241C218.399 82.7884 217.993 81.7157 217.549 80.6799L214.848 81.8266C215.292 82.8254 215.662 83.8611 216.069 84.8599L216.661 86.3765C216.883 86.8944 217.031 87.4123 217.216 87.9301L214.367 88.9289L213.961 87.7822L213.517 86.6355L212.629 84.379L204.269 87.8192L204.972 89.5947L205.305 90.4455C205.527 90.9634 205.675 91.4813 205.86 91.9621L203.011 92.9609C202.863 92.517 202.715 92.0731 202.567 91.6292L202.05 90.3345C201.717 89.4838 201.384 88.596 201.014 87.7452L199.867 85.1928C199.682 84.7859 199.497 84.342 199.275 83.9351L198.646 82.6774L201.347 81.3088L201.865 82.3075C202.05 82.6404 202.197 82.9734 202.345 83.3063L203.27 85.3408L205.971 84.1571L205.046 82.0856C204.898 81.7527 204.713 81.3827 204.565 81.0498L204.047 80.0141C203.603 79.1633 203.159 78.2755 202.715 77.4247L201.865 75.9821L204.602 74.4285C204.972 75.1313 205.416 75.7971 205.749 76.5L206.821 78.6084L207.376 79.6442C207.561 79.9771 207.746 80.347 207.894 80.7169L208.856 82.8624L211.556 81.6787L210.557 79.4592C210.409 79.0893 210.225 78.7194 210.04 78.3495L209.485 77.2768L212.185 75.9081L212.925 77.3877C213.184 77.8686 213.369 78.3865 213.628 78.8674L214.996 81.8636L217.697 80.7169L216.291 77.6467C216.069 77.1288 215.847 76.6109 215.588 76.13L214.811 74.6134C214.293 73.6517 213.813 72.6529 213.295 71.6911L211.63 68.7689C211.334 68.288 211.075 67.7701 210.779 67.3262L209.855 65.9206L207.376 67.4742L208.264 68.8428C208.56 69.2867 208.819 69.8046 209.078 70.2485L210.705 73.0968L208.042 74.5394C207.228 73.1338 206.451 71.7281 205.601 70.3225L197.87 75.0573C198.202 75.5752 198.498 76.13 198.831 76.6849L199.275 77.4617L200.089 78.8674L197.426 80.31L196.02 77.9056C195.798 77.4987 195.576 77.0918 195.317 76.6849L194.577 75.5012C194.059 74.7244 193.579 73.9106 193.061 73.1708L191.433 70.8773L193.875 69.1018L195.169 70.9143C195.391 71.2103 195.613 71.5062 195.798 71.8391L196.39 72.7639L198.831 71.1363L198.202 70.1745C197.981 69.8416 197.759 69.5457 197.537 69.2497L196.205 67.4002C195.909 66.9933 195.65 66.6234 195.354 66.2165L194.466 65.0698L193.431 63.7381L195.909 61.7406C197.87 64.182 199.756 66.7344 201.458 69.3977L203.899 67.7701L203.233 66.7344C203.011 66.4014 202.752 66.0685 202.53 65.7356L201.125 63.7381L203.566 61.9625L205.453 64.6259C206.082 65.5137 206.636 66.4754 207.228 67.3632L209.707 65.7726C209.078 64.8108 208.486 63.8861 207.857 62.9243L205.897 60.187C205.564 59.7431 205.268 59.2992 204.935 58.8553L203.936 57.5606C203.233 56.6728 202.567 55.7851 201.828 54.9343L199.608 52.3819L197.426 54.3424L199.571 56.8208C200.274 57.6716 200.94 58.5224 201.606 59.3732L199.201 61.2227L197.685 59.2992C197.426 58.9663 197.167 58.6704 196.908 58.3744L196.094 57.4497L189.251 63.3312L190.471 64.7738L191.026 65.4767L192.025 66.7714L189.621 68.6209C189.029 67.8811 188.474 67.1413 187.882 66.4384L186.069 64.33C185.774 63.997 185.478 63.6271 185.145 63.2942L184.183 62.2955C183.517 61.6296 182.925 60.9268 182.259 60.2979L184.405 58.1525C185.441 59.1882 186.439 60.298 187.475 61.3337L189.658 59.3362C188.585 58.2265 187.549 57.1167 186.476 56.044L184.368 54.0465C183.961 53.6766 183.554 53.2697 183.147 52.8998L185.256 50.5324L185.7 50.9023L186.143 51.3092L186.994 52.123L188.696 53.7506C189.806 54.8603 190.878 56.044 191.988 57.1537L194.17 55.1562C193.061 53.9725 191.951 52.7888 190.804 51.6421L192.95 49.4966C193.727 50.2734 194.466 51.0872 195.243 51.864L196.39 53.0477C196.76 53.4546 197.13 53.8615 197.463 54.2684L199.645 52.3079C199.275 51.901 198.905 51.4571 198.535 51.0502L197.389 49.8295C196.612 49.0157 195.835 48.2019 195.058 47.3881L192.691 45.1317C191.877 44.3549 191.026 43.6151 190.175 42.8753L188.918 41.7655C188.474 41.3956 188.067 41.0257 187.623 40.6928L185.774 42.9492C186.217 43.2822 186.624 43.6521 187.031 44.022L188.289 45.0947C189.103 45.7975 189.954 46.5004 190.73 47.2772L188.659 49.4966L187.771 48.6458L186.846 47.832L184.997 46.2414L179.152 53.1587L180.595 54.4164L181.298 55.0083C181.705 55.3412 182.111 55.7481 182.481 56.118L180.41 58.3374C179.744 57.6716 179.041 57.0797 178.338 56.4879L177.266 55.5631C176.896 55.2672 176.563 54.9343 176.193 54.6753C174.713 53.5286 173.308 52.3449 171.754 51.3092L173.53 48.8678C174.121 49.3117 174.75 49.7186 175.342 50.1625L177.081 51.5311L178.893 49.2377L177.081 47.832C176.489 47.3511 175.86 46.9442 175.231 46.5004L174.047 45.6496C173.641 45.3906 173.271 45.0947 172.864 44.8358L171.458 43.911L173.16 41.2477C173.825 41.6915 174.491 42.0984 175.157 42.5423L177.081 43.911C177.71 44.3919 178.375 44.7988 179.004 45.2797L180.854 46.7593L182.666 44.4659L180.743 42.9492C180.114 42.4684 179.411 41.9875 178.782 41.5066L180.558 39.0652C182.37 40.2859 184.072 41.6915 185.774 43.0232L187.623 40.7668C185.848 39.3981 184.109 37.9555 182.259 36.6978L180.928 35.736C180.484 35.4401 180.04 35.1072 179.596 34.8112C177.71 33.5905 175.823 32.3329 173.862 31.2601L172.383 30.4093C171.902 30.1134 171.421 29.8545 170.903 29.5955L167.907 28.0419C166.945 27.524 165.946 27.1171 164.948 26.6363L163.394 25.9334C162.876 25.7115 162.358 25.4525 161.84 25.2676L158.696 24.0099L157.55 26.8582L160.62 28.0789C161.138 28.2639 161.619 28.5228 162.136 28.7447L163.616 29.4106L162.358 32.1479L160.139 31.1491C159.399 30.8162 158.622 30.5573 157.882 30.2244L154.553 38.6213L156.329 39.3241C156.625 39.4351 156.884 39.5831 157.143 39.694L158.622 40.3599L157.365 43.0972L156.107 42.5053C155.663 42.3204 155.256 42.0984 154.812 41.9505L152.223 40.9147C151.372 40.5448 150.484 40.2859 149.596 39.99C148.709 39.694 147.858 39.3611 146.933 39.1022L147.821 36.2169C149.227 36.6608 150.632 37.1417 152.038 37.6225L153.037 34.8482C151.594 34.3674 150.151 33.8495 148.709 33.4056L145.934 32.6288L145.121 32.4068L144.714 32.2959L144.307 32.1849L145.084 29.1146C145.453 29.1886 145.86 29.2996 146.23 29.4106L147.377 29.7435L149.67 30.3723C151.187 30.8532 152.667 31.3711 154.146 31.889L155.145 29.1146C153.591 28.5968 152.075 28.0419 150.521 27.561L151.409 24.6757C152.445 24.9717 153.481 25.3786 154.516 25.7115C155.552 26.0814 156.588 26.4143 157.623 26.8212L158.659 24.0839C157.623 23.64 156.551 23.3071 155.478 22.9372C154.405 22.5673 153.333 22.1974 152.26 21.8644L149.116 20.9767C148.561 20.8287 148.043 20.6437 147.488 20.5328L145.86 20.1629C144.751 19.9039 143.678 19.645 142.568 19.423L141.976 22.3083C143.049 22.5303 144.122 22.7892 145.195 23.0481L146.785 23.4181C147.303 23.529 147.858 23.714 148.376 23.8619L147.599 26.7842L146.415 26.4513C146.008 26.3403 145.638 26.2664 145.232 26.1554L142.864 25.6005L140.941 34.4413L142.79 34.8852L143.678 35.1072L144.085 35.1811L144.492 35.2921L145.269 35.5141L144.492 38.4363C144.048 38.3254 143.604 38.1774 143.16 38.0664L141.791 37.7705C140.867 37.5486 139.979 37.3266 139.054 37.1417L136.317 36.6608L134.948 36.4018L133.579 36.2169L133.986 33.2206C135.466 33.3686 136.909 33.6645 138.351 33.9235L138.906 31.0382C137.389 30.7792 135.91 30.4833 134.393 30.2984L131.508 29.9284C130.953 29.8545 130.398 29.8545 129.843 29.7805L130.102 26.6363C131.693 26.7102 133.247 26.9692 134.8 27.1541C136.354 27.3021 137.907 27.635 139.461 27.8939L140.016 25.0087C138.425 24.7497 136.835 24.4168 135.207 24.2318L135.614 21.2356L137.242 21.4575L138.869 21.7535L142.087 22.3453L142.679 19.46L139.35 18.8682L137.685 18.5723L136.021 18.3503L132.766 17.9434C131.656 17.8324 130.509 17.7584 129.399 17.6845C128.29 17.6105 127.143 17.4995 126.033 17.4995L125.922 20.4218C127.032 20.4218 128.105 20.5328 129.178 20.6067C130.25 20.6807 131.36 20.7547 132.433 20.8657L132.137 23.8619C130.509 23.714 128.882 23.603 127.291 23.492L126.81 32.5178L128.697 32.6658L129.621 32.7397C130.176 32.7767 130.694 32.8137 131.249 32.8877L130.953 35.884C130.028 35.773 129.104 35.736 128.179 35.662C127.254 35.5881 126.329 35.5141 125.404 35.5141L122.593 35.4401H121.964H121.298L118.487 35.5141C117.562 35.5141 116.638 35.625 115.713 35.662C114.788 35.736 113.863 35.773 112.939 35.884L112.643 32.8877C114.122 32.7398 115.602 32.6658 117.045 32.5548L116.897 29.6325C115.38 29.7435 113.863 29.8545 112.347 30.0024L109.461 30.3723C108.907 30.4463 108.352 30.5203 107.797 30.5943L107.316 27.4501C108.87 27.2281 110.46 27.0432 112.014 26.8582C113.567 26.7102 115.158 26.5993 116.749 26.4883L116.601 23.566C114.973 23.677 113.345 23.788 111.755 23.9359L111.459 20.9397C112.532 20.8287 113.641 20.7547 114.714 20.6807C115.787 20.6067 116.897 20.4958 117.969 20.4958L117.858 17.5735C116.749 17.5735 115.602 17.6845 114.492 17.7584C113.382 17.8324 112.236 17.9064 111.126 18.0174L107.871 18.4243L106.206 18.6462L104.542 18.9422L101.212 19.534L101.804 22.4193L105.022 21.8274L106.65 21.5315L108.278 21.3096L108.685 24.3058C107.057 24.4908 105.466 24.8237 103.876 25.0826L105.54 33.9604L107.39 33.6275L108.278 33.4796C108.796 33.4056 109.35 33.3316 109.905 33.2576L110.312 36.2539L108.944 36.4388L107.575 36.6978L104.838 37.1787C103.913 37.3636 103.025 37.5856 102.1 37.8075L100.732 38.1034C100.288 38.2144 99.8437 38.3624 99.3999 38.4733L98.6231 35.5511L99.6958 35.2551C100.066 35.1442 100.399 35.0702 100.769 34.9962L102.914 34.5153L102.285 31.63L100.066 32.1479C99.6958 32.2219 99.3259 32.2959 98.956 32.4068L97.8462 32.7028L95.0719 33.4796C94.5171 33.6275 93.9992 33.8125 93.4813 33.9974L92.4826 30.9642L93.5923 30.5943C93.9622 30.4833 94.3321 30.3723 94.739 30.2614L97.0324 29.6325L98.1792 29.2996C98.5491 29.1886 98.956 29.1146 99.3259 29.0407L101.619 28.5228L100.99 25.6375L98.6231 26.1924C98.2162 26.3033 97.8462 26.3773 97.4393 26.4883L96.2556 26.8212L95.4788 23.8989C95.9967 23.751 96.5146 23.603 97.0694 23.455L98.66 23.0851C99.7328 22.8262 100.806 22.6043 101.878 22.3453L101.286 19.46C100.177 19.682 99.1039 19.9409 97.9942 20.1998L96.3666 20.5698C95.8117 20.7177 95.2939 20.8657 94.739 21.0136L91.5948 21.9014C90.5221 22.2343 89.4493 22.6043 88.3766 22.9742C87.3038 23.3441 86.2311 23.677 85.1954 24.1209L86.2311 26.8582C87.2299 26.4513 88.3026 26.1184 89.3383 25.7485C90.3741 25.4156 91.4098 25.0456 92.4456 24.7127L93.3334 27.598C91.7797 28.0789 90.2631 28.6338 88.7095 29.1516L91.7797 37.6595L93.5553 37.0677L94.4061 36.7718C94.924 36.6238 95.4418 36.4018 95.9597 36.2539L96.8475 39.1392C95.9597 39.3981 95.0719 39.731 94.1841 40.027C93.2964 40.3229 92.4086 40.6188 91.5578 40.9517L88.9684 41.9875C88.5245 42.1354 88.1176 42.3574 87.6738 42.5423L86.4161 43.1342L85.1584 40.3969L87.1929 39.4721C87.8587 39.1762 88.5615 38.9172 89.2644 38.6583L88.1916 35.921C87.4888 36.2169 86.786 36.4758 86.0831 36.7718L84.0117 37.6965C83.1239 38.1034 82.2361 38.4733 81.3853 38.9172L79.9057 39.694L78.463 36.8827L80.5715 35.81C81.2743 35.4401 82.0142 35.1442 82.717 34.8112L84.8624 33.8495C85.6023 33.5535 86.3421 33.2576 87.0449 32.9617L85.9722 30.2244C85.2324 30.5203 84.4555 30.8162 83.7157 31.1491L81.4963 32.1479L80.2386 29.4106L81.7182 28.7447C82.2361 28.5228 82.717 28.2639 83.2348 28.0789L86.3051 26.8582L85.2693 24.1209L82.1251 25.3786C81.6072 25.5635 81.0894 25.8225 80.5715 26.0444L79.0179 26.7472C78.0191 27.1911 77.0204 27.635 76.0586 28.1529L73.0624 29.7065C72.5445 29.9654 72.0636 30.2614 71.5827 30.5203L70.1031 31.3711L71.5827 33.9235L72.9884 33.1097C73.4693 32.8507 73.9501 32.5548 74.431 32.3329L77.3533 30.8532L78.685 33.5536L76.5025 34.6633L75.4298 35.2181L74.357 35.81L78.759 43.726L79.5728 43.2452C79.8317 43.0972 80.1276 42.9492 80.4235 42.8013L81.2373 42.3944L82.68 41.6546L84.0117 44.3549L81.5333 45.6126C81.1264 45.7975 80.7195 46.0565 80.3126 46.2784L79.0919 46.9812C77.4643 47.869 75.9107 48.9418 74.357 49.9035L72.6925 47.3881L74.542 46.2044L75.4668 45.6126L75.9476 45.3166L76.4285 45.0577L74.9119 42.5423L74.431 42.8383L73.9501 43.1342L72.9884 43.763L71.0649 44.9837C70.658 45.2427 70.2511 45.5386 69.8811 45.7975L68.6974 46.6483L67.3288 47.6101L65.4422 45.0577L67.3658 43.6891L68.3275 42.9862C68.6604 42.7643 68.9564 42.5423 69.2893 42.3204L71.2868 41.0257L72.2855 40.3969L72.7664 40.0639L73.2843 39.768L71.7677 37.2526L71.2498 37.5486L70.7319 37.8815L69.6962 38.5473L67.6617 39.879L65.9971 37.3636C67.8466 36.1799 69.6592 34.9592 71.5827 33.9235L70.1031 31.3711C68.1426 32.4438 66.256 33.7015 64.3695 34.9222C63.8886 35.2181 63.4817 35.5511 63.0378 35.847L61.7062 36.8087C59.8566 38.0664 58.118 39.5091 56.3425 40.8777L58.192 43.1342C59.9306 41.8025 61.5952 40.3969 63.4077 39.1762L65.1833 41.6176C64.5175 42.0984 63.8516 42.5423 63.2228 43.0602L61.2993 44.5768L66.9219 51.6791L68.4015 50.4954C68.6235 50.3104 68.8824 50.1255 69.1413 49.9405L70.473 49.0157L72.2486 51.4571C70.6949 52.4929 69.2893 53.7136 67.8097 54.8233C67.4397 55.1192 67.1068 55.4152 66.7369 55.7111L65.6642 56.6359C64.9614 57.2277 64.2585 57.8566 63.5927 58.4854L61.5212 56.2659L62.335 55.4891L63.1858 54.7493L64.8504 53.3067L62.9638 51.0502L61.2253 52.5299L60.3745 53.2697L59.5607 54.0465L57.4522 56.044C57.0453 56.4139 56.6754 56.8578 56.2685 57.2647L54.0121 55.0452C56.1945 52.7888 58.5249 50.6433 60.9293 48.6088L59.0428 46.3524L57.1933 47.943L56.2685 48.7568L55.3807 49.6076L53.3092 47.3881C54.086 46.6113 54.9368 45.9085 55.7506 45.2057L57.0083 44.1329C57.4152 43.763 57.8221 43.3931 58.266 43.0602L56.4165 40.8038C55.9726 41.1367 55.5657 41.5436 55.1218 41.8765L53.8641 42.9862C53.0133 43.726 52.1625 44.4659 51.3487 45.2427L48.9813 47.4991C48.1675 48.2759 47.4277 49.1267 46.6509 49.9405L45.5042 51.1612C45.0973 51.5681 44.7643 52.012 44.3944 52.4189L46.5769 54.3794C46.9468 53.9725 47.2797 53.5286 47.6496 53.1587L48.7963 51.975C49.5732 51.1982 50.276 50.3844 51.0898 49.6076L53.2353 51.7531C52.0885 52.8998 50.9788 54.0835 49.8691 55.2672L56.5644 61.3707L57.8591 60.002L58.488 59.3362C58.8579 58.9663 59.2278 58.5224 59.6347 58.1895L61.7801 60.3349C61.1143 61.0008 60.4855 61.6666 59.8566 62.3324L58.8948 63.3312C58.5619 63.6641 58.266 64.034 57.9701 64.3669L56.1575 66.4754C55.5657 67.1783 55.0108 67.9181 54.419 68.6579L52.0146 66.8083L53.3832 65.0698C53.6052 64.7738 53.8641 64.5149 54.086 64.219L54.8259 63.3682L52.6064 61.4447L51.8666 62.2955C51.6076 62.5914 51.3487 62.8503 51.1268 63.1832L49.7211 64.9958L48.8333 66.1425C48.5374 66.5124 48.2785 66.9193 47.9825 67.3262L47.0208 68.6949L44.4314 66.8823L45.8001 64.9588L46.133 64.4779L46.5029 63.997L47.2427 63.0723L48.7224 61.2227C48.9443 60.8898 49.2402 60.6309 49.4992 60.2979L50.276 59.4102L48.0565 57.4866L47.2427 58.4114C46.9838 58.7073 46.6879 59.0403 46.4659 59.3362L44.9493 61.2597L42.5449 59.4102C43.2107 58.5594 43.8766 57.6716 44.5794 56.8578L46.7249 54.3794L44.5424 52.4189L42.3229 54.9713C41.6201 55.8221 40.9173 56.7468 40.2145 57.5976L39.2157 58.8923C38.8828 59.3362 38.5869 59.7801 38.2539 60.224L36.2934 62.9613C35.6646 63.8861 35.0727 64.8478 34.4439 65.8096L36.9223 67.4002C37.5141 66.4754 38.106 65.5507 38.6978 64.6629L40.5844 61.9995L43.0258 63.7751L41.6201 65.7726C41.3982 66.1055 41.1392 66.4384 40.9173 66.7714L40.2515 67.8071L47.8346 72.7639C48.1675 72.246 48.5004 71.6911 48.8703 71.1733L49.3882 70.4334L50.313 69.1018L52.7544 70.8773L51.1268 73.1708C50.6089 73.9476 50.128 74.7244 49.6102 75.5012L48.8703 76.6849C48.6114 77.0918 48.3894 77.4987 48.1675 77.9056L46.7618 80.31L44.0985 78.8674C44.8383 77.6097 45.5411 76.315 46.318 75.0203L43.8026 73.5037C43.0258 74.7984 42.2859 76.13 41.5091 77.4617C41.0653 78.3125 40.6214 79.1633 40.1775 80.0511L39.4007 81.5307L36.5524 80.1621C37.2922 78.7564 37.995 77.3507 38.7348 75.9451C39.5116 74.5764 40.2885 73.2078 41.1023 71.8391L38.5869 70.3225C37.7361 71.7281 36.9593 73.1338 36.1455 74.5394L33.4821 73.0968L35.1097 70.2485C35.4057 69.7676 35.6276 69.2867 35.9235 68.8428L36.8113 67.4742L34.3329 65.9206L33.4081 67.3262C33.1122 67.8071 32.8533 68.288 32.5574 68.7689L30.8928 71.6911C30.3749 72.6529 29.894 73.6147 29.3761 74.6134L28.5993 76.13C28.3404 76.6479 28.1185 77.1658 27.8965 77.6467L26.4909 80.7169L29.1912 81.8636L30.5598 78.8674C30.7818 78.3865 31.0037 77.8686 31.2627 77.3877L32.0025 75.9081L34.7028 77.2768L34.148 78.3495C33.963 78.7194 33.7781 79.0893 33.6301 79.4592L32.6313 81.6787L40.8803 85.3408L41.6571 83.6022C41.7681 83.3433 41.916 83.0473 42.027 82.7884L42.7668 81.3458L45.4672 82.7144L44.8383 83.9721C44.6164 84.379 44.4314 84.8229 44.2465 85.2298L43.0998 87.7822C42.7298 88.633 42.3969 89.5207 42.064 90.3715L41.5461 91.6662C41.3612 92.1101 41.2502 92.554 41.1023 92.9979L38.2539 91.9991L38.6239 90.9634L39.0308 89.9276L39.8446 87.8561L37.1072 86.7464L36.2564 88.8919L35.8495 89.9646L35.4796 91.0374L34.5549 93.7747L34.4069 94.1816L34.2959 94.5885L34.074 95.4023L31.0407 94.5145C31.9285 91.4813 33.0012 88.522 34.185 85.5997L31.4476 84.49L30.5598 86.7464L30.116 87.8931L29.7091 89.0399L26.8608 88.0411C27.0457 87.5232 27.1937 87.0054 27.4156 86.4875L28.0075 84.9709C28.4144 83.9721 28.7843 82.9364 29.2282 81.9376L26.5278 80.7909C26.084 81.8266 25.6771 82.8994 25.2702 83.9351L24.6413 85.5257C24.4194 86.0436 24.2714 86.5985 24.0864 87.1163L23.0507 90.2236C22.8657 90.7414 22.7178 91.2963 22.5698 91.8512L22.1259 93.4788C21.83 94.5515 21.4971 95.6242 21.2751 96.734L24.1234 97.4368C24.3454 96.364 24.6783 95.3283 24.9742 94.2556L25.4181 92.665C25.5661 92.1471 25.714 91.5922 25.899 91.1114L28.7843 92.0361C28.6363 92.406 28.5253 92.8129 28.4144 93.2198L28.0815 94.4035L27.4156 96.734L36.1825 99.0274L36.7003 97.2148L36.9593 96.3271L37.1812 95.5503L37.2922 95.1434L37.4401 94.7734L40.3254 95.6982C40.1775 96.1421 40.0665 96.586 39.9185 97.0299L39.5486 98.3616C39.2897 99.2493 39.0308 100.137 38.8458 101.062L38.217 103.762C38.106 104.206 38.032 104.687 37.958 105.131L37.6991 106.5L34.7398 105.982L35.1097 103.799C35.2577 103.096 35.4426 102.357 35.5906 101.654L32.7423 100.988C32.5574 101.728 32.4094 102.468 32.2244 103.207L31.0407 105.279L30.7818 106.721L30.6708 107.424L30.5598 108.127L30.3379 109.792L27.1937 109.385L27.4896 107.054L27.8965 104.724L28.3034 102.394C28.4514 101.617 28.6363 100.84 28.8213 100.1L25.973 99.4343C25.788 100.211 25.6031 101.025 25.4181 101.802L24.9742 104.206L22.015 103.688L22.3109 102.061C22.4219 101.506 22.4958 100.988 22.6438 100.47L23.3836 97.2888L20.5353 96.586L19.7585 99.8782C19.6106 100.433 19.5366 100.988 19.4256 101.543L19.1297 103.207L18.8337 104.835L18.6858 105.649L18.5748 106.463C18.3159 108.682 17.946 110.938 17.835 113.158L20.7573 113.38C20.8682 111.197 21.2012 109.015 21.4601 106.869L24.4564 107.313L24.1604 109.718L24.0125 110.938L23.9385 111.53L23.9015 112.122L32.8903 112.973C32.9273 112.344 33.0382 111.715 33.1122 111.086L33.2232 110.199L33.4451 108.571L36.4414 109.015C36.2195 110.864 35.9235 112.714 35.8495 114.564C35.7756 115.488 35.7016 116.413 35.6646 117.338L35.5906 120.149L32.5574 120.112L32.6313 117.893C32.6313 117.523 32.6313 117.153 32.6683 116.783L32.7423 115.673L29.82 115.488L29.746 116.635C29.7091 117.005 29.7091 117.412 29.7091 117.782L29.6351 120.075L29.5981 121.518L29.6351 122.96L29.6721 124.625L26.4909 124.736C26.4539 123.145 26.3799 121.592 26.4539 120.001L26.5278 117.634C26.5278 117.227 26.5278 116.857 26.5648 116.45L26.6388 115.266L23.7165 115.081L23.6426 116.302C23.6056 116.709 23.6056 117.116 23.6056 117.523L23.5316 119.964L20.4983 119.927L20.5723 116.635C20.6093 115.525 20.7203 114.453 20.7943 113.38L17.872 113.158C17.798 114.268 17.687 115.414 17.65 116.524L17.5761 119.89L17.5391 121.518L17.5761 123.145L17.65 126.512C17.687 127.621 17.798 128.768 17.872 129.878L20.7943 129.656C20.7203 128.583 20.6093 127.473 20.5723 126.401L20.4983 123.108L23.5316 123.071L23.6056 125.513C23.6056 125.92 23.6056 126.327 23.6426 126.734L23.7165 127.954L32.7423 127.362C32.7053 126.734 32.6313 126.105 32.6313 125.476L32.5944 124.551L32.5574 122.923L35.5906 122.887L35.6646 125.698C35.7016 126.623 35.8126 127.547 35.8495 128.472C35.9605 130.322 36.2195 132.171 36.4414 134.021L33.4451 134.465L33.1492 132.282L33.0012 131.172L32.9273 130.618L32.8903 130.063L29.968 130.322L30.005 130.877L30.079 131.431L30.2269 132.578L30.5229 134.835L30.6338 135.537L30.7448 136.24L31.0037 137.683L31.2997 139.347L28.1924 139.976L27.7855 137.646C27.6376 136.869 27.4896 136.092 27.4156 135.315L27.1197 132.985L26.9717 131.801L26.8978 131.209L26.8608 130.618L23.9385 130.877L23.9755 131.468L24.0495 132.06L24.1974 133.281L24.4933 135.685L21.4971 136.129C21.2381 133.947 20.9052 131.801 20.7943 129.619L17.872 129.841C17.983 132.097 18.3159 134.317 18.6118 136.536L18.7228 137.35L18.8707 138.164L19.1667 139.791L19.4626 141.456C19.5736 142.011 19.6475 142.566 19.7955 143.121L20.5723 146.413L23.4206 145.71L22.6808 142.529C22.5328 142.011 22.4588 141.456 22.3479 140.938L22.0519 139.31L25.0112 138.793L25.4551 141.197C25.6401 141.974 25.825 142.788 26.01 143.564L34.8138 141.53L34.3699 139.68C34.2959 139.384 34.2589 139.089 34.185 138.793L33.889 137.202L36.8483 136.684L37.1072 138.053C37.1812 138.497 37.2552 138.978 37.3662 139.421L37.995 142.122C38.18 143.047 38.4759 143.934 38.6978 144.822L39.0678 146.154C39.2157 146.598 39.2897 147.042 39.4746 147.485L36.5894 148.41C36.4784 148.077 36.3674 147.707 36.2564 147.337L35.9605 146.265L35.3687 144.119L32.5204 144.859L33.1492 147.042L33.4451 148.151C33.5561 148.521 33.6301 148.891 33.7781 149.261L34.7028 151.998C34.8878 152.516 35.0357 153.071 35.2577 153.589L32.2984 154.699C32.1505 154.329 32.0025 153.959 31.8915 153.589L31.5216 152.479L30.7818 150.223C30.6338 149.853 30.5598 149.483 30.4489 149.076L30.116 147.929L29.4871 145.636L26.6388 146.376L27.3046 148.706L27.6376 149.89C27.7485 150.297 27.8595 150.667 28.0075 151.074L25.1222 151.998C24.9372 151.48 24.7893 150.963 24.6413 150.445L24.1974 148.854C23.9015 147.781 23.5686 146.746 23.3466 145.673L20.4983 146.376C20.7203 147.485 21.0532 148.558 21.3491 149.631L21.793 151.258C21.941 151.813 22.0889 152.331 22.2739 152.886L23.3096 155.993C23.4946 156.511 23.6426 157.066 23.8645 157.584L24.4933 159.175C24.9002 160.21 25.3071 161.283 25.751 162.319L28.4514 161.172C28.0075 160.173 27.6376 159.138 27.2307 158.139L26.6388 156.622C26.4169 156.104 26.2689 155.586 26.084 155.069L28.9323 154.07L29.3391 155.217L29.783 156.363L30.6708 158.62L39.0308 155.18L38.3279 153.404L37.995 152.553C37.7731 152.035 37.6251 151.517 37.4401 151.037L40.2884 150.038C40.4364 150.482 40.5844 150.926 40.7323 151.369L41.2502 152.664C41.5831 153.515 41.916 154.403 42.286 155.254L43.4327 157.806C43.6176 158.213 43.8026 158.657 44.0245 159.064L44.6534 160.321L41.953 161.69L41.4352 160.691C41.2502 160.358 41.1022 160.025 40.9543 159.692L40.0295 157.658L37.3292 158.842L38.2539 160.913C38.4019 161.246 38.5869 161.616 38.7348 161.949L39.2527 162.985C39.6966 163.835 40.1405 164.723 40.5844 165.574L41.4352 167.017L38.6978 168.57C38.3279 167.867 37.884 167.202 37.5511 166.499L36.4784 164.39L35.9235 163.355C35.7386 163.022 35.5536 162.652 35.4056 162.282L34.4439 160.136L31.7436 161.32L32.7423 163.539C32.8903 163.909 33.0752 164.279 33.2602 164.649L33.815 165.722L31.1147 167.091L30.3749 165.611C30.116 165.13 29.931 164.612 29.6721 164.131L28.3034 161.135L25.6031 162.282L27.0087 165.352C27.2307 165.87 27.4526 166.388 27.7116 166.869L28.4884 168.385C29.0062 169.347 29.4871 170.346 30.005 171.308L31.6696 174.23C31.9655 174.711 32.2244 175.229 32.5204 175.672L33.4451 177.078L35.9235 175.488L35.0357 174.119C34.7398 173.675 34.4809 173.157 34.2219 172.713L32.5944 169.865L35.2577 168.422C36.0715 169.828 36.8483 171.234 37.6991 172.639L45.4302 167.904C45.0973 167.387 44.8013 166.832 44.4684 166.277L44.0245 165.5L43.2107 164.094L45.8741 162.652L47.2797 165.056C47.5017 165.463 47.7236 165.87 47.9825 166.277L48.7224 167.46C49.2402 168.237 49.7211 169.051 50.239 169.791L51.8666 172.084L49.4252 173.86L48.1305 172.047C47.9086 171.751 47.6866 171.456 47.5017 171.123L46.9098 170.198L44.4684 171.825L45.0973 172.787C45.3192 173.12 45.5411 173.416 45.7631 173.712L47.0948 175.562C47.3907 175.968 47.6496 176.338 47.9456 176.745L48.8333 177.892L49.8691 179.224L47.3907 181.221C45.4302 178.78 43.5436 176.227 41.8421 173.564L39.4007 175.192L40.0665 176.227C40.2884 176.56 40.5474 176.893 40.7693 177.226L42.175 179.224L39.7336 180.999L37.847 178.336C37.2182 177.448 36.6633 176.486 36.0715 175.598L33.5931 177.152C34.2219 178.114 34.8138 179.039 35.4426 180L37.4032 182.738C37.7361 183.182 38.032 183.626 38.3649 184.069L39.3637 185.364C40.0665 186.252 40.7323 187.14 41.4722 187.99L43.6916 190.543L45.8741 188.582L43.7286 186.104C43.0258 185.253 42.3599 184.402 41.6941 183.552L44.0985 181.702L45.6151 183.626C45.8741 183.958 46.133 184.254 46.3919 184.55L47.2057 185.475L54.0491 179.594L52.8283 178.151L52.2735 177.448L51.2747 176.153L53.6791 174.304C54.271 175.044 54.8259 175.783 55.4177 176.486L57.2303 178.595C57.5262 178.928 57.8221 179.298 58.155 179.63L59.1168 180.629C59.7826 181.295 60.3745 181.998 61.0403 182.627L58.8948 184.772C57.8591 183.736 56.8604 182.627 55.8246 181.591L53.6422 183.589C54.7149 184.698 55.7506 185.808 56.8234 186.881L58.9318 188.878C59.3387 189.248 59.7456 189.655 60.1525 190.025L58.0441 192.392L57.6002 192.022L57.1563 191.616L56.3055 190.802L54.6039 189.174C53.4942 188.064 52.4214 186.881 51.3117 185.771L49.1293 187.768C50.239 188.952 51.3487 190.136 52.4954 191.283L50.35 193.428C49.5732 192.651 48.8333 191.837 48.0565 191.061L46.9098 189.877C46.5399 189.47 46.17 189.063 45.8371 188.656L43.6546 190.617C44.0245 191.024 44.3944 191.468 44.7643 191.874L45.9111 193.095C46.6879 193.909 47.4647 194.723 48.2415 195.537L50.6089 197.793C51.4227 198.57 52.2735 199.31 53.1243 200.049L54.382 201.159C54.8259 201.529 55.2328 201.899 55.6767 202.232L57.5262 199.975C57.0823 199.643 56.6754 199.273 56.2685 198.903L55.0108 197.83C54.197 197.127 53.3462 196.424 52.5694 195.648L54.6409 193.428L55.5287 194.279L56.4535 195.093L58.303 196.683L64.1476 189.766L62.7049 188.508L62.0021 187.916C61.5952 187.584 61.1883 187.177 60.8184 186.807L62.8899 184.587C63.5557 185.253 64.2585 185.845 64.9614 186.437L66.0341 187.362C66.404 187.658 66.7369 187.99 67.1068 188.249C68.5865 189.396 69.9921 190.58 71.5457 191.616L69.7702 194.057C69.1783 193.613 68.5495 193.206 67.9576 192.762L66.219 191.394L64.4065 193.687L66.219 195.093C66.8109 195.574 67.4397 195.98 68.0686 196.424L69.2523 197.275C69.6592 197.534 70.0291 197.83 70.436 198.089L71.8417 199.014L70.1401 201.677C69.4742 201.233 68.8084 200.826 68.1426 200.382L66.219 199.014C65.5902 198.533 64.9244 198.126 64.2955 197.645L62.446 196.165L60.6334 198.459L62.557 199.975C63.1858 200.456 63.8886 200.937 64.5175 201.418L62.7419 203.86C60.9294 202.639 59.2278 201.233 57.5262 199.901L55.6767 202.158C57.4522 203.527 59.1908 204.969 61.0403 206.227L62.372 207.189C62.8159 207.485 63.2598 207.818 63.7037 208.113C65.5902 209.334 67.4767 210.592 69.4372 211.665L70.9169 212.515C71.3978 212.811 71.8786 213.07 72.3965 213.329L75.3928 214.883C76.3545 215.401 77.3533 215.808 78.352 216.288L79.9057 216.991C80.4235 217.213 80.9414 217.472 81.4593 217.657L84.6035 218.915L85.6393 216.177L82.569 214.957C82.0511 214.772 81.5703 214.513 81.0524 214.291L79.5728 213.625L80.8304 210.888L83.0499 211.887C83.7897 212.219 84.5665 212.478 85.3063 212.811L88.6355 204.414L86.8599 203.712C86.564 203.601 86.3051 203.453 86.0462 203.342L84.5665 202.676L85.8242 199.938L87.0819 200.53C87.5258 200.715 87.9327 200.937 88.3766 201.085L90.9659 202.121C91.8167 202.491 92.7045 202.75 93.5923 203.046C94.4801 203.342 95.3309 203.675 96.2556 203.934L95.3678 206.819C93.9622 206.375 92.5565 205.894 91.1509 205.413L90.1521 208.187C91.5948 208.668 93.0374 209.186 94.4801 209.63L97.2544 210.407L98.0682 210.629L98.4751 210.74L98.882 210.851L98.1052 213.921C97.7353 213.847 97.3284 213.736 96.9585 213.625L95.8117 213.292L93.5183 212.663C92.0017 212.182 90.522 211.665 89.0424 211.147L88.0437 213.921C89.5973 214.439 91.1139 214.994 92.6675 215.475L91.7797 218.36C90.744 218.064 89.7082 217.657 88.6725 217.324C87.6368 216.954 86.601 216.621 85.5653 216.214L84.5295 218.952C85.5653 219.396 86.638 219.729 87.7107 220.099C88.7835 220.468 89.8562 220.838 90.9289 221.171L94.0732 222.059C94.628 222.207 95.1459 222.392 95.7008 222.503L97.3284 222.873C98.4381 223.132 99.5108 223.391 100.621 223.613L101.212 220.727C100.14 220.505 99.0669 220.246 97.9942 219.988L96.4036 219.618C95.8857 219.507 95.3309 219.322 94.813 219.174L95.5898 216.251L96.7735 216.584C97.1804 216.695 97.5503 216.769 97.9572 216.88L100.325 217.435L102.248 208.594L100.399 208.15L99.5108 207.929L99.1039 207.855L98.697 207.744L97.9202 207.522L98.697 204.599C99.1409 204.71 99.5848 204.858 100.029 204.969L101.397 205.265C102.322 205.487 103.21 205.709 104.135 205.894L106.872 206.375L108.241 206.634L109.609 206.819L109.202 209.815C107.723 209.667 106.28 209.371 104.838 209.112L104.283 211.998C105.799 212.256 107.279 212.552 108.796 212.737L111.681 213.107C112.236 213.181 112.791 213.181 113.345 213.255L113.086 216.399C111.496 216.325 109.942 216.067 108.389 215.882C106.835 215.734 105.281 215.401 103.728 215.142L103.173 218.027C104.764 218.286 106.354 218.619 107.982 218.804L107.575 221.8L105.947 221.578L104.32 221.282L101.101 220.69L100.51 223.576L103.839 224.168L105.503 224.463L107.168 224.685L110.423 225.092C111.533 225.203 112.68 225.277 113.789 225.351C114.899 225.425 116.046 225.536 117.155 225.536L117.266 222.614C116.157 222.614 115.084 222.503 114.011 222.429C112.939 222.355 111.829 222.281 110.756 222.17L111.052 219.174C112.68 219.322 114.307 219.433 115.898 219.544L116.379 210.518L114.492 210.37L113.567 210.296C113.012 210.259 112.495 210.222 111.94 210.148L112.236 207.152C113.16 207.263 114.085 207.3 115.01 207.374C115.935 207.448 116.86 207.522 117.784 207.522L120.596 207.596H121.224H121.89L124.702 207.522C125.626 207.522 126.551 207.411 127.476 207.374C128.401 207.3 129.325 207.263 130.25 207.152L130.546 210.148C129.067 210.296 127.587 210.37 126.144 210.481L126.292 213.403C127.809 213.292 129.325 213.181 130.842 213.033L133.727 212.663C134.282 212.589 134.837 212.515 135.392 212.441L135.873 215.586C134.319 215.808 132.729 215.993 131.175 216.177C129.621 216.325 128.031 216.436 126.44 216.547L126.588 219.47C128.216 219.359 129.843 219.248 131.434 219.1L131.73 222.096C130.657 222.207 129.547 222.281 128.475 222.355C127.402 222.429 126.292 222.54 125.219 222.54L125.33 225.462C126.958 225.536 128.105 225.425 129.215 225.351ZM158.289 36.9937L159.547 34.0714L161.692 35.0332L162.765 35.5141C163.135 35.662 163.468 35.884 163.838 36.0319L165.946 37.1047L166.982 37.6595L168.018 38.2514L169.461 35.699L168.388 35.1072L167.315 34.5523L165.133 33.4426L166.464 30.7422L169.387 32.2219C169.867 32.4808 170.348 32.7398 170.829 32.9987L172.235 33.8125C174.158 34.8482 175.971 36.1059 177.82 37.2526L176.156 39.768L174.084 38.4363L173.049 37.7705L172.531 37.4376L172.013 37.1417L167.352 44.9098C167.907 45.2057 168.425 45.5756 168.943 45.9085L169.72 46.3894L171.088 47.2772L169.424 49.7925C167.833 48.7938 166.316 47.758 164.689 46.8703L163.468 46.1674C163.061 45.9455 162.654 45.6866 162.247 45.5016L159.769 44.2439L161.101 41.5436L163.061 42.5423L164.06 43.0602L165.022 43.6151L166.464 41.0627L165.466 40.5078L164.43 39.99L162.395 38.9542C161.545 38.5103 160.657 38.1404 159.769 37.7335L158.289 36.9937ZM85.0474 205.968L83.7897 208.89L81.6442 207.929L80.5715 207.448C80.2016 207.3 79.8687 207.078 79.4988 206.93L77.3903 205.857L76.3545 205.302L75.3188 204.71L73.8762 207.263L74.9489 207.855L76.0216 208.409L78.2041 209.519L76.8724 212.219L73.9501 210.74C73.4693 210.481 72.9884 210.222 72.5075 209.963L71.1018 209.149C69.1783 208.113 67.3658 206.856 65.5162 205.709L67.1808 203.194L69.2523 204.525L70.288 205.191L70.8059 205.524L71.3238 205.82L75.9846 198.052C75.4298 197.756 74.9119 197.386 74.394 197.053L73.6172 196.572L72.2486 195.685L73.9131 193.169C75.5038 194.168 77.0204 195.204 78.648 196.091L79.8687 196.794C80.2756 197.016 80.6825 197.275 81.0894 197.46L83.5678 198.718L82.2361 201.418L80.2756 200.419L79.2768 199.901L78.3151 199.347L76.8724 201.899L77.8712 202.454L78.9069 202.972L80.9414 204.007C81.7922 204.451 82.68 204.821 83.5678 205.228L85.0474 205.968ZM130.398 204.229C129.51 204.303 128.623 204.377 127.698 204.451C126.81 204.525 125.922 204.599 124.998 204.599L122.297 204.673H121.668H121.003L118.302 204.599C117.414 204.599 116.49 204.488 115.602 204.451C114.714 204.377 113.789 204.34 112.902 204.229L110.312 203.897L108.98 203.712L107.649 203.49L104.985 203.009C104.098 202.824 103.247 202.602 102.359 202.417L101.027 202.121C100.584 202.01 100.177 201.862 99.7328 201.751L97.2174 201.048C96.3666 200.789 95.5158 200.493 94.665 200.197C93.8142 199.901 92.9634 199.643 92.1127 199.273L89.5973 198.274C89.1904 198.126 88.7835 197.904 88.3766 197.719L87.1559 197.164C86.3791 196.794 85.5653 196.461 84.7885 196.054L82.3841 194.834C81.9772 194.649 81.6072 194.39 81.2004 194.168L80.0166 193.502C78.426 192.651 76.9464 191.616 75.4298 190.654C75.0599 190.432 74.7269 190.173 74.357 189.914L73.2843 189.137C71.8047 188.138 70.399 186.955 68.9934 185.882C68.6235 185.623 68.2905 185.29 67.9576 184.994L66.9219 184.106C66.256 183.515 65.5532 182.923 64.9244 182.294L63.0378 180.481C62.409 179.852 61.7801 179.187 61.1513 178.521L60.2265 177.559C59.8936 177.226 59.6347 176.893 59.3387 176.56L57.5632 174.526C56.9713 173.823 56.4535 173.12 55.8986 172.417L55.0848 171.382C54.8259 171.049 54.5669 170.679 54.308 170.309L52.7544 168.126C52.2365 167.387 51.7926 166.61 51.2747 165.87L50.5349 164.723C50.276 164.353 50.091 163.946 49.8691 163.576L48.5374 161.246C48.1305 160.469 47.7236 159.692 47.3537 158.916L46.7249 157.732C46.5029 157.325 46.3549 156.918 46.17 156.511L45.0603 154.07C44.6904 153.256 44.3944 152.405 44.0615 151.554L43.5806 150.297C43.3957 149.89 43.2847 149.446 43.1367 149.039L42.286 146.561C42.138 146.154 42.027 145.71 41.916 145.266L41.5461 143.971C41.3242 143.121 41.0283 142.233 40.8433 141.382L40.2515 138.756C40.1405 138.312 40.0665 137.868 39.9925 137.424L39.7706 136.092L39.5486 134.798L39.4377 134.169L39.3637 133.503C39.1417 131.727 38.8828 129.952 38.7718 128.139C38.6978 127.251 38.6239 126.364 38.5869 125.439L38.5129 122.739L38.4759 121.444L38.5129 120.149L38.5869 117.449C38.6239 116.561 38.7348 115.636 38.7718 114.749C38.8458 112.936 39.1417 111.16 39.3637 109.385L39.4377 108.719L39.5486 108.09L39.7706 106.795L39.9925 105.464C40.0665 105.02 40.1405 104.576 40.2515 104.132L40.8433 101.506C41.0283 100.618 41.2872 99.7672 41.5461 98.9164L41.916 97.6217C42.027 97.1778 42.138 96.7709 42.286 96.3271L43.1367 93.8487C43.2847 93.4418 43.3957 92.9979 43.5806 92.591L44.0615 91.3333C44.3944 90.4825 44.6904 89.6687 45.0603 88.8179L46.17 86.3765C46.3549 85.9696 46.5399 85.5627 46.7249 85.1558L47.3537 83.9721C47.7606 83.1953 48.1305 82.4185 48.5374 81.6417L49.8691 79.3113C50.091 78.9413 50.313 78.5345 50.5349 78.1645L51.2747 77.0178C51.7556 76.278 52.2365 75.5012 52.7544 74.7614L54.308 72.5789C54.5669 72.209 54.7889 71.8761 55.0848 71.5062L55.8986 70.4704C56.4535 69.7676 57.0083 69.0648 57.5632 68.362L59.3387 66.3275C59.6347 65.9946 59.9306 65.6246 60.2265 65.3287L61.1513 64.3669C61.7801 63.7381 62.372 63.0353 63.0378 62.4064L64.9244 60.5939C65.5532 59.965 66.256 59.3732 66.9219 58.7813L67.9576 57.8935C68.2905 57.5976 68.6235 57.3017 68.9934 57.0058C70.399 55.896 71.8047 54.7493 73.2843 53.7506L74.357 52.9738C74.7269 52.7148 75.0599 52.4559 75.4298 52.2339C76.9464 51.2722 78.426 50.2734 80.0166 49.3856L81.2004 48.7198C81.6072 48.4979 81.9772 48.2759 82.3841 48.054L84.7885 46.8333C85.5653 46.4264 86.3421 46.0935 87.1559 45.7235L88.3766 45.1687C88.7835 44.9837 89.1904 44.7988 89.5973 44.6138L92.1127 43.6151C92.9265 43.2822 93.8142 42.9862 94.665 42.6903C95.5158 42.3944 96.3666 42.0984 97.2174 41.8395L99.7328 41.1367C100.177 41.0257 100.584 40.8777 101.027 40.7668L102.359 40.4708C103.247 40.2859 104.098 40.0639 104.985 39.879L107.649 39.3981L108.98 39.1762L110.312 38.9912L112.902 38.6583C113.789 38.5843 114.677 38.5103 115.602 38.4363C116.49 38.3624 117.377 38.2884 118.302 38.2884L121.003 38.2144H121.631H122.297L124.998 38.2884C125.885 38.2884 126.81 38.3994 127.698 38.4363C128.586 38.5103 129.51 38.5473 130.398 38.6583L132.988 38.9912L134.319 39.1762L135.651 39.3981L138.314 39.879C139.202 40.0639 140.053 40.2859 140.941 40.4708L142.272 40.7668C142.716 40.8777 143.123 41.0257 143.567 41.1367L146.082 41.8395C146.933 42.0984 147.784 42.3944 148.635 42.6903C149.486 42.9862 150.336 43.2452 151.187 43.6151L153.702 44.6138C154.109 44.7618 154.516 44.9837 154.923 45.1687L156.144 45.7235C156.921 46.0935 157.734 46.4264 158.511 46.8333L160.916 48.054C161.323 48.2389 161.692 48.4979 162.099 48.7198L163.283 49.3856C164.874 50.2364 166.353 51.2722 167.87 52.2339C168.24 52.4559 168.573 52.7148 168.943 52.9738L170.015 53.7506C171.495 54.7493 172.901 55.933 174.306 57.0058C174.676 57.2647 175.009 57.5976 175.342 57.8935L176.378 58.7813C177.044 59.3732 177.747 59.965 178.375 60.5939L180.262 62.4064C180.891 63.0353 181.52 63.7011 182.148 64.3669L183.073 65.3287C183.406 65.6616 183.665 65.9946 183.961 66.3275L185.737 68.362C186.328 69.0648 186.846 69.7676 187.401 70.4704L188.215 71.5062C188.474 71.8391 188.733 72.209 188.992 72.5789L190.545 74.7614C191.063 75.5012 191.507 76.278 192.025 77.0178L192.765 78.1645C193.024 78.5345 193.209 78.9413 193.431 79.3113L194.762 81.6417C195.169 82.4185 195.576 83.1953 195.946 83.9721L196.575 85.1558C196.797 85.5627 196.945 85.9696 197.13 86.3765L198.239 88.8179C198.609 89.6317 198.905 90.4825 199.238 91.3333L199.719 92.591C199.904 92.9979 200.015 93.4418 200.163 93.8487L201.014 96.3271C201.162 96.734 201.273 97.1778 201.384 97.6217L201.754 98.9164C201.976 99.7672 202.271 100.655 202.456 101.506L203.048 104.132C203.159 104.576 203.233 105.02 203.307 105.464L203.529 106.795L203.751 108.09L203.862 108.719L203.936 109.385C204.158 111.16 204.417 112.936 204.528 114.749C204.602 115.636 204.676 116.524 204.713 117.449L204.787 120.149L204.824 121.444L204.787 122.739L204.713 125.439C204.676 126.327 204.565 127.251 204.528 128.139C204.454 129.952 204.158 131.727 203.936 133.503L203.862 134.169L203.751 134.798L203.529 136.092L203.307 137.424C203.233 137.868 203.159 138.312 203.048 138.756L202.456 141.382C202.271 142.27 202.013 143.121 201.754 143.971L201.384 145.266C201.273 145.71 201.162 146.117 201.014 146.561L200.163 149.039C200.015 149.446 199.904 149.89 199.719 150.297L199.238 151.554C198.905 152.405 198.609 153.219 198.239 154.07L197.13 156.511C196.945 156.918 196.76 157.325 196.575 157.732L195.946 158.916C195.539 159.692 195.169 160.469 194.762 161.246L193.431 163.576C193.209 163.946 192.987 164.353 192.765 164.723L192.025 165.87C191.544 166.61 191.063 167.387 190.545 168.126L188.992 170.309C188.733 170.679 188.511 171.012 188.215 171.382L187.401 172.417C186.846 173.12 186.291 173.823 185.737 174.526L183.961 176.56C183.665 176.893 183.369 177.263 183.073 177.559L182.148 178.521C181.52 179.15 180.928 179.852 180.262 180.481L178.375 182.294C177.747 182.923 177.044 183.515 176.378 184.106L175.342 184.994C175.009 185.29 174.676 185.586 174.306 185.882C172.901 186.992 171.495 188.138 170.015 189.137L168.943 189.914C168.573 190.173 168.24 190.432 167.87 190.654C166.353 191.616 164.874 192.614 163.283 193.502L162.099 194.168C161.692 194.39 161.323 194.612 160.916 194.834L158.511 196.054C157.734 196.461 156.958 196.794 156.144 197.164L154.923 197.719C154.516 197.904 154.109 198.089 153.702 198.274L151.187 199.273C150.373 199.606 149.486 199.901 148.635 200.197C147.784 200.493 146.933 200.789 146.082 201.048L143.567 201.751C143.123 201.862 142.716 202.01 142.272 202.121L140.941 202.417C140.053 202.602 139.202 202.824 138.314 203.009L135.651 203.49L134.319 203.712L132.988 203.897L130.398 204.229Z" fill="#E9993E"/>
<path d="M139.374 13.4523L138.911 16.0752L141.534 16.5378L141.997 13.915L139.374 13.4523Z" fill="#E9993E"/>
<path d="M141.4 1.78251L139.826 10.7075L142.449 11.1701L144.023 2.24513L141.4 1.78251Z" fill="#E9993E"/>
<path d="M157.867 18.1408L156.956 20.6436L159.459 21.5544L160.37 19.0517L157.867 18.1408Z" fill="#E9993E"/>
<path d="M161.9 7.01985L158.801 15.5361L161.304 16.447L164.403 7.93072L161.9 7.01985Z" fill="#E9993E"/>
<path d="M175.232 26.0236L173.9 28.3301L176.207 29.6617L177.539 27.3553L175.232 26.0236Z" fill="#E9993E"/>
<path d="M181.183 15.7552L176.651 23.6035L178.958 24.9352L183.489 17.0868L181.183 15.7552Z" fill="#E9993E"/>
<path d="M190.999 36.7621L189.287 38.8022L191.327 40.5142L193.039 38.4741L190.999 36.7621Z" fill="#E9993E"/>
<path d="M198.621 27.6849L192.796 34.627L194.836 36.3389L200.662 29.3969L198.621 27.6849Z" fill="#E9993E"/>
<path d="M204.674 50.0981L202.634 51.8101L204.346 53.8504L206.386 52.1384L204.674 50.0981Z" fill="#E9993E"/>
<path d="M213.751 42.4596L206.808 48.2852L208.52 50.3255L215.463 44.5L213.751 42.4596Z" fill="#E9993E"/>
<path d="M215.829 65.5726L213.522 66.9043L214.854 69.211L217.161 67.8793L215.829 65.5726Z" fill="#E9993E"/>
<path d="M226.064 59.6542L218.216 64.1855L219.547 66.492L227.396 61.9606L226.064 59.6542Z" fill="#E9993E"/>
<path d="M224.079 82.7884L221.576 83.6992L222.487 86.202L224.99 85.2911L224.079 82.7884Z" fill="#E9993E"/>
<path d="M235.205 78.734L226.688 81.8335L227.599 84.3362L236.116 81.2368L235.205 78.734Z" fill="#E9993E"/>
<path d="M229.246 101.138L226.623 101.601L227.086 104.223L229.709 103.761L229.246 101.138Z" fill="#E9993E"/>
<path d="M240.92 99.1093L231.995 100.683L232.457 103.305L241.382 101.732L240.92 99.1093Z" fill="#E9993E"/>
<path d="M231.126 120.15H228.463V122.813H231.126V120.15Z" fill="#E9993E"/>
<path d="M243 120.15H233.938V122.813H243V120.15Z" fill="#E9993E"/>
<path d="M227.076 138.728L226.613 141.351L229.236 141.813L229.699 139.19L227.076 138.728Z" fill="#E9993E"/>
<path d="M232.434 139.68L231.972 142.303L240.897 143.877L241.359 141.254L232.434 139.68Z" fill="#E9993E"/>
<path d="M222.477 156.77L221.566 159.272L224.069 160.183L224.98 157.681L222.477 156.77Z" fill="#E9993E"/>
<path d="M227.622 158.631L226.711 161.134L235.227 164.233L236.138 161.731L227.622 158.631Z" fill="#E9993E"/>
<path d="M214.831 173.755L213.499 176.061L215.805 177.393L217.137 175.086L214.831 173.755Z" fill="#E9993E"/>
<path d="M219.529 176.48L218.197 178.787L226.046 183.318L227.377 181.012L219.529 176.48Z" fill="#E9993E"/>
<path d="M204.359 189.154L202.647 191.194L204.688 192.906L206.4 190.866L204.359 189.154Z" fill="#E9993E"/>
<path d="M208.491 192.659L206.779 194.699L213.721 200.524L215.433 198.484L208.491 192.659Z" fill="#E9993E"/>
<path d="M191.36 202.469L189.319 204.181L191.031 206.222L193.072 204.51L191.36 202.469Z" fill="#E9993E"/>
<path d="M194.813 206.615L192.772 208.327L198.598 215.269L200.638 213.557L194.813 206.615Z" fill="#E9993E"/>
<path d="M176.188 213.329L173.882 214.661L175.213 216.968L177.52 215.636L176.188 213.329Z" fill="#E9993E"/>
<path d="M178.921 218.046L176.614 219.378L181.146 227.226L183.452 225.895L178.921 218.046Z" fill="#E9993E"/>
<path d="M159.45 221.434L156.947 222.345L157.858 224.847L160.361 223.937L159.45 221.434Z" fill="#E9993E"/>
<path d="M161.318 226.536L158.815 227.447L161.915 235.964L164.418 235.053L161.318 226.536Z" fill="#E9993E"/>
<path d="M141.515 226.467L138.893 226.93L139.355 229.553L141.978 229.09L141.515 226.467Z" fill="#E9993E"/>
<path d="M142.449 231.818L139.826 232.28L141.399 241.205L144.022 240.743L142.449 231.818Z" fill="#E9993E"/>
<path d="M123.004 228.31H121.709H121.672H120.341V230.973H121.672H121.709H123.004V228.31Z" fill="#E9993E"/>
<path d="M123.004 242.849V233.749H121.709H120.341V242.849H121.672H123.004Z" fill="#E9993E"/>
</svg>
