<svg width="159" height="13" viewBox="0 0 159 13" fill="none" xmlns="http://www.w3.org/2000/svg">
<path d="M152.992 10.3204C151.687 10.3204 150.395 10.3204 149.103 10.3204C149.029 10.5437 148.954 10.7669 148.88 10.9778C148.805 11.1762 148.743 11.3747 148.668 11.5731C148.619 11.7095 148.581 11.8336 148.532 11.97C148.494 12.094 148.482 12.094 148.358 12.094C147.836 12.094 147.314 12.094 146.805 12.094C146.333 12.094 145.848 12.094 145.376 12.094C145.339 12.094 145.302 12.094 145.252 12.0816C145.264 12.0444 145.264 12.0072 145.277 11.9824C145.426 11.6351 145.563 11.3002 145.712 10.953C145.873 10.5809 146.022 10.1964 146.184 9.82431C146.308 9.53904 146.432 9.25378 146.544 8.96851C146.681 8.64604 146.805 8.32356 146.942 8.01349C147.091 7.66621 147.24 7.31893 147.389 6.95925C147.476 6.736 147.563 6.51275 147.662 6.3019C147.824 5.91741 147.985 5.53293 148.147 5.14844C148.345 4.66473 148.557 4.18102 148.755 3.69731C148.88 3.41204 148.991 3.12678 149.103 2.84151C149.165 2.68027 149.252 2.51904 149.314 2.3578C149.451 2.04773 149.575 1.72526 149.712 1.40278C149.824 1.12992 149.948 0.86946 150.147 0.633806C150.321 0.435361 150.544 0.311333 150.793 0.236916C150.942 0.199707 151.091 0.199707 151.252 0.199707C152.06 0.199707 152.867 0.199707 153.675 0.199707C153.787 0.199707 153.799 0.224513 153.824 0.323735C153.849 0.472569 153.874 0.621403 153.911 0.757835C153.936 0.906669 153.973 1.0431 154.01 1.19193C154.048 1.35317 154.073 1.51441 154.11 1.67564C154.147 1.83688 154.172 2.01052 154.209 2.17176C154.234 2.29579 154.259 2.41981 154.296 2.54384C154.333 2.70508 154.371 2.85391 154.396 3.01515C154.445 3.2384 154.495 3.47406 154.545 3.69731C154.594 3.97017 154.656 4.23063 154.706 4.50349C154.756 4.71434 154.806 4.93759 154.843 5.14844C154.88 5.34688 154.917 5.54533 154.967 5.74377C155.004 5.91741 155.042 6.07865 155.079 6.25229C155.104 6.40112 155.129 6.54996 155.166 6.68639C155.203 6.87243 155.253 7.05848 155.29 7.25692C155.327 7.43056 155.352 7.6166 155.389 7.80264C155.414 7.92667 155.452 8.06311 155.476 8.18713C155.526 8.41038 155.576 8.62123 155.613 8.84448C155.65 9.00572 155.675 9.15455 155.712 9.31579C155.737 9.45222 155.775 9.60106 155.799 9.73749C155.849 9.94834 155.886 10.1592 155.936 10.3824C155.961 10.4817 155.973 10.5933 155.998 10.6925C156.011 10.7545 156.023 10.8165 156.035 10.8785C156.098 11.1762 156.16 11.4615 156.222 11.7591C156.234 11.7964 156.247 11.8212 156.247 11.8584C156.259 11.8832 156.271 11.9204 156.271 11.9452C156.284 12.0692 156.271 12.0816 156.147 12.0816C155.278 12.0816 154.408 12.0816 153.526 12.0816C153.402 12.0816 153.389 12.0816 153.364 11.9576C153.327 11.784 153.302 11.6227 153.265 11.4491C153.24 11.3126 153.203 11.1886 153.178 11.0522C153.141 10.9034 153.116 10.7545 153.079 10.6057C153.029 10.5189 153.017 10.4196 152.992 10.3204ZM151.588 3.56088C151.575 3.56088 151.575 3.56088 151.563 3.56088C151.054 4.9872 150.532 6.40112 150.035 7.82745C150.134 7.85226 152.383 7.85226 152.495 7.83985C152.495 7.80265 152.495 7.76544 152.495 7.74063C152.47 7.6042 152.433 7.48017 152.408 7.34374C152.371 7.19491 152.346 7.05847 152.308 6.90964C152.284 6.76081 152.259 6.61197 152.221 6.47554C152.197 6.33911 152.147 6.20268 152.122 6.06625C152.085 5.90501 152.06 5.74377 152.035 5.57013C151.985 5.32208 151.923 5.07402 151.861 4.82596C151.787 4.50349 151.725 4.16861 151.662 3.84614C151.638 3.75932 151.613 3.6601 151.588 3.56088Z" fill="#E9993E"/>
<path d="M118.384 0.634044C118.347 0.497613 118.397 0.373585 118.422 0.261959C118.422 0.249556 118.447 0.224751 118.471 0.224751C118.496 0.212348 118.534 0.224751 118.571 0.224751C120.236 0.224751 121.888 0.224751 123.553 0.224751C123.689 0.224751 123.838 0.237153 123.963 0.261959C124.46 0.385987 124.832 0.683655 125.006 1.17977C125.056 1.3038 125.068 1.44023 125.093 1.57666C125.118 1.66348 125.13 1.7503 125.155 1.83712C125.168 1.91154 125.18 1.97355 125.192 2.04797C125.23 2.22161 125.255 2.39525 125.279 2.56889C125.304 2.73012 125.342 2.89136 125.379 3.0526C125.391 3.11461 125.404 3.17663 125.416 3.25104C125.478 3.54871 125.528 3.85878 125.59 4.15645C125.627 4.31769 125.665 4.49133 125.689 4.65256C125.702 4.73938 125.714 4.8138 125.727 4.90062C125.752 5.04945 125.789 5.21069 125.826 5.35952C125.863 5.54557 125.888 5.71921 125.925 5.90525C125.95 6.01688 125.975 6.1161 125.988 6.22772C126 6.28974 126.012 6.35175 126.025 6.42617C126.075 6.72384 126.137 7.0091 126.186 7.30677C126.224 7.48041 126.261 7.65405 126.286 7.84009C126.298 7.92691 126.311 8.00133 126.323 8.08815C126.323 8.11295 126.335 8.13776 126.348 8.17497C126.36 8.17497 126.36 8.17497 126.373 8.17497C126.41 8.07575 126.46 7.96412 126.497 7.8649C126.584 7.65405 126.671 7.4308 126.758 7.21995C126.832 7.02151 126.907 6.82306 126.981 6.62461C127.143 6.21532 127.304 5.81843 127.466 5.40914C127.652 4.93783 127.851 4.45412 128.037 3.98281C128.199 3.58592 128.348 3.17663 128.51 2.77974C128.646 2.42005 128.795 2.07277 128.932 1.72549C129.081 1.35341 129.218 0.981324 129.367 0.609239C129.404 0.510016 129.441 0.39839 129.491 0.299168C129.503 0.274362 129.541 0.249556 129.566 0.249556C129.615 0.237153 129.665 0.237154 129.715 0.237154C130.684 0.237154 131.665 0.237154 132.634 0.237154C132.684 0.237154 132.721 0.249556 132.783 0.249556C132.758 0.31157 132.746 0.348779 132.733 0.39839C132.634 0.634044 132.535 0.857295 132.448 1.09295C132.286 1.46503 132.137 1.84952 131.976 2.22161C131.777 2.68051 131.591 3.13942 131.392 3.58592C131.243 3.9332 131.106 4.28048 130.957 4.62776C130.758 5.11147 130.547 5.59518 130.348 6.09129C130.125 6.62461 129.901 7.14553 129.677 7.67886C129.491 8.11295 129.317 8.55946 129.131 8.99356C128.982 9.35324 128.82 9.71292 128.671 10.0726C128.51 10.4571 128.348 10.8292 128.187 11.2137C128.075 11.4865 127.95 11.7594 127.851 12.0323C127.814 12.1067 127.777 12.1439 127.69 12.1439C126.957 12.1439 126.224 12.1439 125.491 12.1439C125.217 12.1439 124.944 12.1439 124.671 12.1439C124.546 12.1439 124.546 12.1439 124.522 12.0323C124.472 11.8586 124.435 11.685 124.397 11.5237C124.373 11.4121 124.335 11.2881 124.298 11.1765C124.248 11.0028 124.211 10.8168 124.161 10.6431C124.099 10.4199 124.05 10.209 123.987 9.99819C123.938 9.82455 123.9 9.66331 123.863 9.48967C123.826 9.35324 123.789 9.22921 123.751 9.09278C123.702 8.89433 123.652 8.68348 123.602 8.48504C123.54 8.26179 123.478 8.02613 123.428 7.80288C123.366 7.56723 123.317 7.34398 123.254 7.10832C123.192 6.87267 123.13 6.62461 123.056 6.38896C123.018 6.24013 122.981 6.1037 122.944 5.95486C122.907 5.80603 122.857 5.65719 122.82 5.50836C122.758 5.28511 122.708 5.06186 122.646 4.83861C122.596 4.66497 122.546 4.49133 122.509 4.30528C122.447 4.08203 122.397 3.85878 122.348 3.63553C122.31 3.4867 122.273 3.33786 122.223 3.18903C122.174 3.00299 122.124 2.82935 122.074 2.6433C121.975 2.172 121.702 1.82472 121.254 1.61387C120.869 1.44023 120.484 1.27899 120.086 1.15496C119.913 1.10535 119.751 1.03094 119.577 0.981324C119.416 0.931712 119.242 0.894504 119.08 0.857295C118.944 0.820087 118.807 0.782878 118.67 0.758073C118.571 0.671253 118.471 0.65885 118.384 0.634044Z" fill="#E9993E"/>
<path d="M146 0.572444C145.95 0.783292 145.913 0.99414 145.863 1.20499C145.813 1.41584 145.776 1.62668 145.726 1.83753C145.677 2.04838 145.627 2.25923 145.59 2.47008C145.54 2.68093 145.515 2.89177 145.441 3.10262C145.366 3.07782 145.304 3.05301 145.242 3.02821C145.018 2.94139 144.782 2.85457 144.559 2.78015C144.298 2.70573 144.024 2.64372 143.739 2.60651C143.453 2.5693 143.167 2.53209 142.882 2.53209C142.683 2.53209 142.484 2.5569 142.285 2.59411C142.099 2.63131 141.925 2.68093 141.763 2.75534C141.627 2.81736 141.49 2.90418 141.391 3.0158C141.105 3.32587 141.08 3.67315 141.366 3.99563C141.49 4.14446 141.639 4.25609 141.813 4.35531C142.124 4.54135 142.434 4.70259 142.745 4.87623C142.993 5.01266 143.254 5.14909 143.503 5.29792C143.764 5.45916 144.024 5.6328 144.261 5.81884C144.67 6.15372 145.018 6.55061 145.23 7.04672C145.292 7.19556 145.329 7.35679 145.379 7.51803C145.478 7.8405 145.453 8.17538 145.453 8.51026C145.453 8.54747 145.441 8.59708 145.441 8.63429C145.428 8.74591 145.403 8.85754 145.379 8.95676C145.341 9.1304 145.304 9.30404 145.242 9.46528C145.155 9.72573 145.031 9.97379 144.869 10.2094C144.658 10.5195 144.41 10.8048 144.124 11.0404C143.739 11.3629 143.316 11.5986 142.857 11.7846C142.658 11.8714 142.434 11.9334 142.223 11.9955C142.049 12.0451 141.875 12.0947 141.689 12.1319C141.54 12.1691 141.391 12.1691 141.229 12.2063C140.807 12.2807 140.384 12.2311 139.962 12.2435C139.912 12.2435 139.863 12.2435 139.801 12.2435C139.428 12.2683 139.055 12.2063 138.682 12.1443C138.521 12.1195 138.359 12.0947 138.198 12.0575C137.9 11.9831 137.602 11.9086 137.316 11.8342C137.117 11.7722 136.931 11.6978 136.744 11.6234C136.657 11.5862 136.657 11.5738 136.682 11.4869C136.72 11.3505 136.744 11.2141 136.782 11.0776C136.806 10.9784 136.831 10.8668 136.856 10.7676C136.881 10.6559 136.893 10.5443 136.918 10.4451C136.956 10.2467 137.005 10.0482 137.043 9.84976C137.08 9.68853 137.117 9.52729 137.154 9.36605C137.179 9.26683 137.192 9.16761 137.216 9.05598C137.241 8.95676 137.254 8.95676 137.341 8.99397C137.651 9.1552 137.962 9.29164 138.285 9.39086C138.471 9.45287 138.67 9.51489 138.856 9.5645C138.943 9.5893 139.043 9.60171 139.142 9.61411C139.266 9.63892 139.378 9.65132 139.502 9.67612C139.515 9.67612 139.54 9.68853 139.552 9.68853C139.875 9.72574 140.198 9.75054 140.521 9.72573C140.819 9.70093 141.13 9.65132 141.403 9.52729C141.689 9.40326 141.962 9.24202 142.099 8.94436C142.149 8.84513 142.186 8.73351 142.198 8.62188C142.211 8.47305 142.161 8.33662 142.099 8.21259C141.987 8.00174 141.801 7.85291 141.602 7.71648C141.266 7.48082 140.906 7.29478 140.546 7.09633C140.074 6.83587 139.602 6.57542 139.179 6.25294C138.782 5.94287 138.446 5.59559 138.21 5.14909C138.111 4.95064 138.049 4.7398 137.999 4.51655C137.962 4.3057 137.925 4.09485 137.937 3.8716C137.949 3.69796 137.974 3.52432 137.999 3.35068C138.024 3.11502 138.086 2.89177 138.173 2.66852C138.409 2.07319 138.782 1.58948 139.266 1.18018C139.49 0.99414 139.726 0.832903 139.974 0.708875C140.31 0.535235 140.645 0.373998 141.018 0.287179C141.18 0.24997 141.341 0.187956 141.503 0.150747C141.689 0.113539 141.888 0.0887333 142.074 0.0515248C142.385 -0.0104894 142.708 0.00191327 143.018 0.00191327C143.105 0.00191327 143.205 0.00191327 143.291 0.00191327C143.664 -0.0104896 144.037 0.0391219 144.41 0.101136C144.621 0.138345 144.832 0.16315 145.043 0.225164C145.329 0.299581 145.627 0.361596 145.9 0.485624C145.925 0.535235 145.95 0.547638 146 0.572444Z" fill="#E9993E"/>
<path d="M137.131 0.225757C137.131 0.262965 137.131 0.287771 137.131 0.312577C137.082 0.560633 137.032 0.796287 136.982 1.04434C136.908 1.37922 136.833 1.70169 136.771 2.03657C136.734 2.1854 136.721 2.33424 136.684 2.47067C136.647 2.65671 136.585 2.85516 136.547 3.0412C136.51 3.19003 136.485 3.35127 136.46 3.50011C136.423 3.64894 136.398 3.79777 136.361 3.95901C136.336 4.09544 136.299 4.23187 136.274 4.38071C136.224 4.60396 136.175 4.82721 136.137 5.05046C136.113 5.19929 136.075 5.34813 136.05 5.49696C136.026 5.63339 135.988 5.76982 135.951 5.89385C135.914 6.05509 135.889 6.21633 135.864 6.37756C135.839 6.51399 135.802 6.65042 135.777 6.78686C135.752 6.87368 135.74 6.9605 135.727 7.04732C135.715 7.10933 135.703 7.15894 135.69 7.22096C135.64 7.44421 135.591 7.67986 135.541 7.90311C135.504 8.10156 135.454 8.3 135.417 8.49845C135.355 8.80852 135.293 9.10619 135.218 9.41626C135.193 9.55269 135.144 9.70152 135.119 9.83795C135.081 10.0364 135.044 10.2348 135.007 10.4333C134.97 10.5945 134.932 10.7558 134.895 10.917C134.87 11.0534 134.833 11.1899 134.808 11.3387C134.783 11.4751 134.746 11.6116 134.721 11.748C134.709 11.8348 134.684 11.9216 134.671 12.0084C134.647 12.0829 134.647 12.0953 134.56 12.0953C134.547 12.0953 134.547 12.0953 134.535 12.0953C133.578 12.0953 132.634 12.0953 131.677 12.0953C131.528 12.0953 131.528 12.0829 131.566 11.9464C131.603 11.81 131.628 11.6612 131.665 11.5247C131.69 11.4379 131.715 11.3387 131.727 11.2519C131.752 11.1278 131.777 11.0038 131.802 10.8798C131.839 10.6937 131.889 10.5201 131.926 10.3341C131.963 10.1356 132 9.93718 132.05 9.75113C132.112 9.47827 132.174 9.19301 132.236 8.92014C132.261 8.78371 132.286 8.63488 132.323 8.49845C132.386 8.22559 132.448 7.95272 132.51 7.67986C132.572 7.39459 132.634 7.12173 132.696 6.83647C132.733 6.67523 132.758 6.51399 132.783 6.34035C132.808 6.20392 132.845 6.06749 132.883 5.93106C132.907 5.84424 132.907 5.75742 132.932 5.6706C132.957 5.53417 132.994 5.41014 133.019 5.27371C133.056 5.11247 133.081 4.93883 133.119 4.7776C133.143 4.64117 133.181 4.50473 133.206 4.3683C133.243 4.21947 133.268 4.05823 133.305 3.9094C133.355 3.69855 133.404 3.4753 133.442 3.26445C133.479 3.11562 133.504 2.96678 133.529 2.81795C133.566 2.65671 133.603 2.48307 133.64 2.32184C133.702 2.04897 133.765 1.76371 133.827 1.49085C133.889 1.21798 133.938 0.932718 133.988 0.659856C134.013 0.548231 134.038 0.424202 134.063 0.312577C134.075 0.250562 134.1 0.23816 134.175 0.23816C134.361 0.23816 134.56 0.23816 134.746 0.23816C135.504 0.23816 136.274 0.23816 137.032 0.23816C137.032 0.213354 137.082 0.225757 137.131 0.225757Z" fill="#E9993E"/>
<path d="M157.502 3C157.013 3 156.642 2.87244 156.387 2.61732C156.131 2.35906 156.004 1.9874 156.004 1.50236C156.004 1.01417 156.131 0.64252 156.387 0.387401C156.645 0.129134 157.017 0 157.502 0C157.99 0 158.361 0.129134 158.617 0.387401C158.875 0.645669 159.004 1.01732 159.004 1.50236C159.004 1.9874 158.875 2.35906 158.617 2.61732C158.361 2.87244 157.99 3 157.502 3ZM157.502 0.316535C156.73 0.316535 156.344 0.711811 156.344 1.50236C156.344 2.28976 156.73 2.68346 157.502 2.68346C158.276 2.68346 158.664 2.28976 158.664 1.50236C158.664 0.711811 158.276 0.316535 157.502 0.316535ZM156.911 0.548031H157.53C157.798 0.548031 157.972 0.614173 158.054 0.746457C158.12 0.853543 158.154 0.974803 158.154 1.11024C158.154 1.40945 158.051 1.58898 157.846 1.64882C157.891 1.68976 157.928 1.74488 157.96 1.81417L158.234 2.44724H157.856L157.591 1.83307C157.557 1.74803 157.5 1.70551 157.421 1.70551H157.27V2.44724H156.911V0.548031ZM157.27 1.43622H157.525C157.705 1.43622 157.794 1.33386 157.794 1.12913C157.794 0.924409 157.705 0.822047 157.525 0.822047H157.27V1.43622Z" fill="#E9993E"/>
<path d="M113.014 6.12476V8.80425" stroke="#E9993E" stroke-width="0.5"/>
<path d="M15.9336 11.6979V1.15088H19.5623V9.06116H25.9858V11.6979H15.9336Z" fill="#E9993E"/>
<path d="M36.1572 11.6979L35.3879 9.68471H31.0285L30.2592 11.6979H26.9453L31.3638 1.15088H35.092L39.5105 11.6979H36.1572ZM34.3819 7.13703L33.1983 4.01924L31.9951 7.13703H34.3819Z" fill="#E9993E"/>
<path d="M55.5205 3.22023L52.5152 4.61715C51.9012 3.7356 50.9964 3.28804 49.7684 3.28804C48.0234 3.28804 46.7631 4.40015 46.7631 6.00051C46.7631 7.79074 48.2496 8.71298 49.7846 8.71298C50.9802 8.71298 51.9173 8.26542 52.596 7.39743L55.3751 9.02491C54.1956 10.5032 52.289 11.439 49.8169 11.439C45.9552 11.439 43.2246 9.20122 43.2246 6.00051C43.2246 2.7998 45.9552 0.562012 49.8169 0.562012C52.2728 0.562012 54.4218 1.55206 55.5205 3.22023Z" fill="#E9993E"/>
<path d="M65.4108 11.2355L64.5867 9.24184H59.9172L59.0932 11.2355H55.5547L60.2727 0.765381H64.2636L68.9816 11.2355H65.4108ZM63.5365 6.70569L62.2601 3.61347L60.9836 6.70569H63.5365Z" fill="#E9993E"/>
<path d="M75.3774 11.4381C71.7905 11.4381 69.8516 9.82416 69.8516 6.97606V0.778076H73.2446V6.89469C73.2446 8.10174 74.0525 8.72561 75.3774 8.72561C76.7023 8.72561 77.5102 8.10174 77.5102 6.89469V0.778076H80.9033V6.97606C80.9033 9.81059 78.9644 11.4381 75.3774 11.4381Z" fill="#E9993E"/>
<path d="M88.0299 3.1247C87.1251 3.1247 86.4304 3.32813 86.4304 3.80281C86.4304 4.38599 87.7068 4.46737 88.9832 4.65724L89.3872 4.72505C91.9885 5.14548 93.2811 6.17622 93.2811 7.79014C93.2811 10.4484 90.6151 11.4248 87.9653 11.4248C85.7194 11.4248 83.6997 10.9773 82.2617 10.1229L83.9259 7.8037C84.9277 8.29195 86.1072 8.87513 88.0138 8.87513C88.9186 8.87513 89.5972 8.67169 89.5972 8.14276C89.5972 7.60027 88.8055 7.49177 87.2705 7.27477L86.802 7.20696C83.9259 6.78652 82.7303 5.76935 82.7949 3.89775C82.8595 1.89052 84.8469 0.547852 87.8522 0.547852C89.4841 0.547852 90.9545 0.683472 93.1196 1.6464L91.6654 3.97912C90.7929 3.6265 89.5811 3.1247 88.0299 3.1247Z" fill="#E9993E"/>
<path d="M103.122 11.2355L102.298 9.24184H97.6282L96.8041 11.2355H93.2656L97.9836 0.765381H101.975L106.693 11.2355H103.122ZM101.231 6.70569L99.9548 3.61347L98.6784 6.70569H101.231Z" fill="#E9993E"/>
<path d="M6.02914 10.9748L6.02539 11.123L6.14915 11.1267H6.15102L6.27477 11.123L6.26352 10.6654L6.1679 10.6673C6.16227 10.6673 6.15665 10.6673 6.15102 10.6673L6.03852 10.6636L6.03477 10.8117L6.15102 10.8155V10.9767L6.02914 10.9748Z" fill="#E9993E"/>
<path d="M5.94508 1.02558L6.11196 1.01996H6.15134H6.19071L6.35759 1.02558L6.36322 0.875576L6.19259 0.871826H6.15321H6.11008L5.93945 0.875576L5.94508 1.02558Z" fill="#E9993E"/>
<path d="M5.14258 11.4701L5.11914 11.603L5.25209 11.6265L5.27553 11.4935L5.14258 11.4701Z" fill="#E9993E"/>
<path d="M5.09933 11.7456L5.01953 12.198L5.15248 12.2214L5.23228 11.769L5.09933 11.7456Z" fill="#E9993E"/>
<path d="M4.23367 11.2157L4.1875 11.3425L4.31436 11.3887L4.36054 11.2618L4.23367 11.2157Z" fill="#E9993E"/>
<path d="M4.13953 11.4746L3.98242 11.9062L4.10929 11.9524L4.2664 11.5207L4.13953 11.4746Z" fill="#E9993E"/>
<path d="M3.38391 10.8072L3.31641 10.9241L3.43332 10.9916L3.50082 10.8747L3.38391 10.8072Z" fill="#E9993E"/>
<path d="M3.24727 11.0448L3.01758 11.4426L3.13449 11.5101L3.36419 11.1123L3.24727 11.0448Z" fill="#E9993E"/>
<path d="M2.61803 10.256L2.53125 10.3594L2.63466 10.4462L2.72144 10.3427L2.61803 10.256Z" fill="#E9993E"/>
<path d="M2.44178 10.4672L2.14648 10.8191L2.24991 10.9059L2.54521 10.5539L2.44178 10.4672Z" fill="#E9993E"/>
<path d="M1.9589 9.57875L1.85547 9.66553L1.94225 9.76895L2.04568 9.68217L1.9589 9.57875Z" fill="#E9993E"/>
<path d="M1.74642 9.75671L1.39453 10.052L1.48131 10.1554L1.83321 9.86012L1.74642 9.75671Z" fill="#E9993E"/>
<path d="M1.42941 8.79969L1.3125 8.86719L1.38 8.9841L1.49692 8.9166L1.42941 8.79969Z" fill="#E9993E"/>
<path d="M1.18885 8.93778L0.791016 9.16748L0.858518 9.28439L1.25635 9.0547L1.18885 8.93778Z" fill="#E9993E"/>
<path d="M1.03897 7.93894L0.912109 7.98511L0.958281 8.11197L1.08514 8.0658L1.03897 7.93894Z" fill="#E9993E"/>
<path d="M0.783252 8.03332L0.351562 8.19043L0.397734 8.31729L0.829424 8.16018L0.783252 8.03332Z" fill="#E9993E"/>
<path d="M0.804828 7.02466L0.671875 7.0481L0.695312 7.18105L0.828264 7.15761L0.804828 7.02466Z" fill="#E9993E"/>
<path d="M0.532486 7.07133L0.0800781 7.15112L0.103528 7.28408L0.555937 7.20428L0.532486 7.07133Z" fill="#E9993E"/>
<path d="M0.736567 6.08301H0.601562V6.21801H0.736567V6.08301Z" fill="#E9993E"/>
<path d="M0.459391 6.08301H0V6.21801H0.459391V6.08301Z" fill="#E9993E"/>
<path d="M0.697278 5.12047L0.673828 5.25342L0.80678 5.27687L0.830231 5.14392L0.697278 5.12047Z" fill="#E9993E"/>
<path d="M0.103515 5.015L0.0800781 5.14795L0.532486 5.2277L0.555923 5.09475L0.103515 5.015Z" fill="#E9993E"/>
<path d="M0.958281 4.18857L0.912109 4.31543L1.03897 4.3616L1.08515 4.23474L0.958281 4.18857Z" fill="#E9993E"/>
<path d="M0.391875 3.98324L0.345703 4.11011L0.777393 4.26722L0.823565 4.14036L0.391875 3.98324Z" fill="#E9993E"/>
<path d="M1.38 3.31766L1.3125 3.43457L1.42941 3.50207L1.49692 3.38516L1.38 3.31766Z" fill="#E9993E"/>
<path d="M0.858518 3.0159L0.791016 3.13281L1.18885 3.36251L1.25635 3.24559L0.858518 3.0159Z" fill="#E9993E"/>
<path d="M1.94225 2.53012L1.85547 2.63354L1.9589 2.72033L2.04568 2.6169L1.94225 2.53012Z" fill="#E9993E"/>
<path d="M1.48522 2.14486L1.39844 2.24829L1.75038 2.54359L1.83716 2.44016L1.48522 2.14486Z" fill="#E9993E"/>
<path d="M2.63468 1.85536L2.53125 1.94214L2.61803 2.04557L2.72146 1.95878L2.63468 1.85536Z" fill="#E9993E"/>
<path d="M2.24795 1.39393L2.14453 1.48071L2.43983 1.83261L2.54324 1.74583L2.24795 1.39393Z" fill="#E9993E"/>
<path d="M3.43332 1.31067L3.31641 1.37817L3.38391 1.49509L3.50082 1.42759L3.43332 1.31067Z" fill="#E9993E"/>
<path d="M3.13645 0.790164L3.01953 0.857666L3.24923 1.2555L3.36614 1.188L3.13645 0.790164Z" fill="#E9993E"/>
<path d="M4.31436 0.911592L4.1875 0.957764L4.23367 1.08463L4.36054 1.03846L4.31436 0.911592Z" fill="#E9993E"/>
<path d="M4.10929 0.347871L3.98242 0.394043L4.13953 0.825733L4.2664 0.779561L4.10929 0.347871Z" fill="#E9993E"/>
<path d="M5.25209 0.67212L5.11914 0.695557L5.14258 0.82851L5.27553 0.805073L5.25209 0.67212Z" fill="#E9993E"/>
<path d="M5.14858 0.0815302L5.01562 0.10498L5.09542 0.557389L5.22837 0.533939L5.14858 0.0815302Z" fill="#E9993E"/>
<path d="M6.08398 0.735346H6.15149H6.15336H6.21899V0.600342H6.15336H6.15149H6.08398V0.735346Z" fill="#E9993E"/>
<path d="M6.08398 0V0.459391H6.15149H6.21899V0H6.15336H6.08398Z" fill="#E9993E"/>
<path d="M6.26907 1.32546L6.27282 1.17733L6.14907 1.17358H6.14719L6.02344 1.17733L6.03469 1.63485L6.13032 1.63297C6.13594 1.63297 6.14157 1.63297 6.14719 1.63297L6.2597 1.63672L6.26345 1.48859L6.14719 1.48484V1.32359L6.26907 1.32546Z" fill="#E9993E"/>
<path d="M6.35759 11.2751L6.19071 11.2808H6.15321H6.11196L5.94508 11.2751L5.93945 11.4252L6.11008 11.4289H6.15134H6.19259L6.36322 11.4252L6.35759 11.2751Z" fill="#E9993E"/>
<path d="M6.53192 11.4137C6.58817 11.4099 6.6463 11.4062 6.70255 11.4006L6.86755 11.3799L6.95193 11.3687L7.03631 11.3537L7.20506 11.3237L7.17506 11.1774L7.01193 11.2074L6.92943 11.2224L6.84693 11.2337L6.8263 11.0818C6.9088 11.0724 6.98943 11.0555 7.07006 11.0424L6.98568 10.5924L6.89193 10.6093L6.84693 10.6168C6.82068 10.6205 6.79255 10.6243 6.76442 10.628L6.7438 10.4761L6.81318 10.4668L6.88255 10.4536L7.02131 10.4293C7.06819 10.4199 7.11319 10.4086 7.16006 10.3974L7.22944 10.3824C7.25194 10.3768 7.27444 10.3693 7.29694 10.3636L7.33632 10.5118L7.28194 10.5268C7.26319 10.5324 7.24632 10.5361 7.22757 10.5399L7.11881 10.5643L7.15069 10.7105L7.26319 10.6843C7.28194 10.6805 7.30069 10.6768 7.31944 10.6712L7.3757 10.6562L7.51633 10.6168C7.54445 10.6093 7.5707 10.5999 7.59695 10.5905L7.64758 10.7443L7.59133 10.763C7.57258 10.7687 7.55383 10.7743 7.5332 10.7799L7.41695 10.8118L7.35882 10.8287C7.34007 10.8343 7.31944 10.838 7.30069 10.8418L7.18444 10.868L7.21632 11.0143L7.33632 10.9862C7.35694 10.9805 7.3757 10.9768 7.39632 10.9712L7.45632 10.9543L7.4957 11.1024C7.46945 11.1099 7.4432 11.1174 7.41507 11.1249L7.33444 11.1437C7.28007 11.1568 7.22569 11.168 7.17131 11.1812L7.20131 11.3274C7.25757 11.3162 7.31194 11.303 7.3682 11.2899L7.4507 11.2712C7.47882 11.2637 7.50508 11.2562 7.5332 11.2487L7.69258 11.2037C7.74696 11.1868 7.80134 11.168 7.85571 11.1493C7.91009 11.1305 7.96447 11.1137 8.01697 11.0912L7.96447 10.9524C7.91384 10.973 7.85946 10.9899 7.80696 11.0087C7.75446 11.0255 7.70196 11.0443 7.64946 11.0612L7.60445 10.9149C7.68321 10.8905 7.76008 10.8624 7.83884 10.8362L7.68321 10.4049L7.5932 10.4349L7.55008 10.4499C7.52383 10.4574 7.49758 10.4686 7.47132 10.4761L7.42632 10.3299C7.47132 10.3168 7.51633 10.2999 7.56133 10.2849C7.60633 10.2699 7.65133 10.2549 7.69446 10.238L7.82571 10.1855C7.84821 10.178 7.86884 10.1668 7.89134 10.1574L7.95509 10.1274L8.01884 10.2661L7.91571 10.313C7.88196 10.328 7.84634 10.3411 7.81071 10.3543L7.86509 10.493C7.90071 10.478 7.93634 10.4649 7.97197 10.4499L8.07697 10.403C8.12197 10.3824 8.16697 10.3636 8.2101 10.3411L8.2851 10.3018L8.35823 10.4443L8.25135 10.4986C8.21572 10.5174 8.17822 10.5324 8.1426 10.5493L8.03384 10.598C7.99634 10.613 7.95884 10.628 7.92321 10.643L7.97759 10.7818C8.01509 10.7668 8.05447 10.7518 8.09197 10.7349L8.20447 10.6843L8.26823 10.823L8.19322 10.8568C8.16697 10.868 8.1426 10.8812 8.11635 10.8905L7.96072 10.9524L8.01322 11.0912L8.1726 11.0274C8.19885 11.018 8.2251 11.0049 8.25135 10.9937L8.3301 10.958C8.38073 10.9355 8.43136 10.913 8.48011 10.8868L8.63199 10.808C8.65824 10.7949 8.68262 10.7799 8.70699 10.7668L8.782 10.7237L8.70699 10.5943L8.63574 10.6355C8.61136 10.6487 8.58699 10.6637 8.56261 10.6749L8.41448 10.7499L8.34698 10.613L8.45761 10.5568L8.51199 10.5286L8.56636 10.4986L8.34323 10.0974L8.30198 10.1218C8.28885 10.1293 8.27385 10.1368 8.25885 10.1443L8.2176 10.1649L8.14447 10.2024L8.07697 10.0655L8.2026 10.0018C8.22323 9.99238 8.24385 9.97925 8.26448 9.968L8.32635 9.93238C8.40886 9.88738 8.48761 9.833 8.56636 9.78425L8.65074 9.91175L8.55699 9.97175L8.51011 10.0018L8.48573 10.0168L8.46136 10.0299L8.53824 10.1574L8.56261 10.1424L8.58699 10.1274L8.63574 10.0955L8.73324 10.0336C8.75387 10.0205 8.77449 10.0055 8.79325 9.99238L8.85325 9.94925L8.92263 9.9005L9.01825 10.0299L8.92075 10.0993L8.872 10.1349C8.85512 10.1461 8.84012 10.1574 8.82325 10.1686L8.72199 10.2343L8.67137 10.2661L8.64699 10.283L8.62074 10.298L8.69762 10.4255L8.72387 10.4105L8.75012 10.3936L8.80262 10.3599L8.90575 10.2924L8.99013 10.4199C8.89637 10.4799 8.8045 10.5418 8.70699 10.5943L8.782 10.7237C8.88137 10.6693 8.977 10.6055 9.07263 10.5436C9.09701 10.5286 9.11763 10.5118 9.14013 10.4968L9.20763 10.448C9.30139 10.3843 9.38952 10.3111 9.47952 10.2418L9.38577 10.1274C9.29764 10.1949 9.21326 10.2661 9.12138 10.328L9.03138 10.2043C9.06513 10.1799 9.09888 10.1574 9.13076 10.1311L9.22826 10.0543L8.94325 9.69424L8.86825 9.75425C8.857 9.76362 8.84387 9.773 8.83075 9.78237L8.76324 9.82925L8.67324 9.70549C8.75199 9.65299 8.82325 9.59111 8.89825 9.53486C8.917 9.51986 8.93388 9.50486 8.95263 9.48986L9.007 9.44298C9.04263 9.41298 9.07826 9.38111 9.11201 9.34923L9.21701 9.46173L9.17576 9.50111L9.13263 9.53861L9.04825 9.61174L9.14388 9.72612L9.23201 9.65112L9.27514 9.61362L9.31639 9.57424L9.42327 9.47299C9.44389 9.45424 9.46264 9.43173 9.48327 9.41111L9.59765 9.52361C9.48702 9.63799 9.36889 9.74675 9.24701 9.84987L9.34264 9.96425L9.43639 9.88362L9.48327 9.84237L9.52827 9.79925L9.63327 9.91175C9.5939 9.95113 9.55077 9.98675 9.50952 10.0224L9.44577 10.0768C9.42514 10.0955 9.40452 10.1143 9.38202 10.1311L9.47577 10.2455C9.49827 10.2286 9.5189 10.208 9.5414 10.1911L9.60515 10.1349C9.64827 10.0974 9.6914 10.0599 9.73265 10.0205L9.85266 9.90613C9.89391 9.86675 9.93141 9.82362 9.97079 9.78237L10.0289 9.72049C10.0495 9.69987 10.0664 9.67737 10.0852 9.65674L9.97454 9.55736C9.95579 9.57799 9.93891 9.60049 9.92016 9.61924L9.86203 9.67924C9.82266 9.71862 9.78703 9.75987 9.74578 9.79925L9.63702 9.69049C9.69515 9.63237 9.7514 9.57236 9.80766 9.51236L9.46827 9.20298L9.40264 9.27235L9.37077 9.3061C9.35201 9.32486 9.33326 9.34736 9.31264 9.36423L9.20389 9.25548C9.23764 9.22173 9.26951 9.18798 9.30139 9.15422L9.35014 9.1036C9.36702 9.08672 9.38202 9.06797 9.39702 9.0511L9.48889 8.94422C9.5189 8.90859 9.54702 8.87109 9.57702 8.83359L9.6989 8.92734L9.62952 9.01547C9.61827 9.03047 9.60515 9.0436 9.5939 9.0586L9.5564 9.10172L9.6689 9.19923L9.7064 9.1561C9.71953 9.1411 9.73265 9.12797 9.7439 9.1111L9.81516 9.01922L9.86016 8.96109C9.87516 8.94234 9.88828 8.92172 9.90328 8.90109L9.95204 8.83171L10.0833 8.92359L10.0139 9.02109L9.99704 9.04547L9.97829 9.06985L9.94079 9.11672L9.86578 9.21048C9.85453 9.22735 9.83953 9.24048 9.82641 9.25735L9.78703 9.30235L9.89953 9.39986L9.94079 9.35298C9.95391 9.33798 9.96891 9.32111 9.98016 9.3061L10.057 9.2086L10.1789 9.30235C10.1452 9.34548 10.1114 9.39048 10.0758 9.43173L9.96704 9.55736L10.0777 9.65674L10.1902 9.52736C10.2258 9.48424 10.2614 9.43736 10.297 9.39423L10.3477 9.32861C10.3646 9.3061 10.3796 9.2836 10.3964 9.2611L10.4958 9.12235C10.5277 9.07547 10.5577 9.02672 10.5896 8.97797L10.4639 8.89922C10.4339 8.94609 10.4039 8.99297 10.3739 9.03797L10.2783 9.17298L10.1545 9.08297L10.2258 8.98172C10.237 8.96484 10.2502 8.94797 10.2614 8.93109L10.2952 8.87859L9.91078 8.62733C9.89391 8.65358 9.87703 8.68171 9.85828 8.70796L9.83203 8.74546L9.78516 8.81296L9.6614 8.72296L9.7439 8.60671C9.77015 8.56733 9.79453 8.52795 9.82078 8.48858L9.85828 8.42857C9.87141 8.40795 9.88266 8.38732 9.89391 8.3667L9.96516 8.24482L10.1002 8.31795C10.0627 8.3817 10.027 8.44733 9.98766 8.51295L10.1152 8.58983C10.1545 8.5242 10.192 8.4567 10.2314 8.3892C10.2539 8.34607 10.2764 8.30295 10.2989 8.25794L10.3383 8.18294L10.4827 8.25232C10.4452 8.32357 10.4096 8.39482 10.3721 8.46608C10.3327 8.53545 10.2933 8.60483 10.252 8.67421L10.3796 8.75109C10.4227 8.67983 10.4621 8.60858 10.5033 8.53733L10.6383 8.61046L10.5558 8.75484C10.5427 8.77921 10.5296 8.80359 10.5146 8.82609L10.4696 8.89547L10.5952 8.97422L10.6421 8.90297C10.6571 8.87859 10.6702 8.85421 10.6852 8.82984L10.7696 8.68171C10.7958 8.63296 10.8202 8.5842 10.8464 8.53358L10.8858 8.4567C10.8989 8.43045 10.9102 8.4042 10.9214 8.37982L10.9927 8.22419L10.8558 8.16607L10.7864 8.31795C10.7752 8.34232 10.7639 8.36857 10.7508 8.39295L10.7133 8.46795L10.5764 8.39857L10.6046 8.3442C10.6139 8.32545 10.6233 8.3067 10.6308 8.28794L10.6814 8.17544L10.2633 7.98981L10.2239 8.07794C10.2183 8.09106 10.2108 8.10606 10.2052 8.11919L10.1677 8.19232L10.0308 8.12294L10.0627 8.05919C10.0739 8.03856 10.0833 8.01606 10.0927 7.99543L10.1508 7.86605C10.1695 7.82293 10.1864 7.77793 10.2033 7.7348L10.2295 7.66917C10.2389 7.64667 10.2445 7.62417 10.252 7.60167L10.3964 7.6523L10.3777 7.7048L10.3571 7.7573L10.3158 7.8623L10.4546 7.91856L10.4977 7.8098L10.5183 7.75543L10.5371 7.70105L10.5839 7.56229L10.5914 7.54167L10.5971 7.52104L10.6083 7.47979L10.7621 7.52479C10.7171 7.67855 10.6627 7.82855 10.6027 7.97668L10.7414 8.03294L10.7864 7.91856L10.8089 7.86043L10.8296 7.8023L10.9739 7.85293C10.9646 7.87918 10.9571 7.90543 10.9458 7.93168L10.9308 8.00668C10.9102 8.05731 10.8914 8.10981 10.8689 8.16044L11.0058 8.21857C11.0283 8.16606 11.0489 8.11169 11.0696 8.05919L11.1015 7.97856C11.1127 7.95231 11.1202 7.92418 11.1296 7.89793L11.1821 7.74043C11.1915 7.71417 11.199 7.68605 11.2065 7.65792L11.229 7.57542C11.244 7.52104 11.2608 7.46667 11.2721 7.41041L11.1277 7.37479C11.1165 7.42916 11.0996 7.48167 11.0846 7.53604L11.0621 7.61667C11.0546 7.64292 11.0471 7.67105 11.0377 7.69542L10.8914 7.64855C10.8989 7.6298 10.9046 7.60917 10.9102 7.58855L10.9271 7.52854L10.9608 7.41041L10.5164 7.29416L10.4902 7.38604L10.4771 7.43104L10.4658 7.47042L10.4602 7.49104L10.4527 7.50979L10.3064 7.46292C10.3139 7.44041 10.3195 7.41791 10.327 7.39541L10.3458 7.32791C10.3589 7.28291 10.3721 7.23791 10.3814 7.19103L10.4133 7.05415C10.4189 7.03165 10.4227 7.00727 10.4264 6.98477L10.4396 6.9154L10.5896 6.94165L10.5708 7.05228C10.5633 7.0879 10.5539 7.1254 10.5464 7.16103L10.6908 7.19478C10.7002 7.15728 10.7077 7.11978 10.7171 7.08228L10.7377 6.9679L10.7508 6.89477L10.7564 6.85914L10.7621 6.82352L10.7733 6.73914L10.9327 6.75977L10.9177 6.87789L10.8971 6.99602L10.8764 7.11415C10.8689 7.15353 10.8596 7.19291 10.8502 7.23041L10.9946 7.26416C11.0039 7.22478 11.0133 7.18353 11.0227 7.14415L11.0452 7.02228L11.1952 7.04853L11.1802 7.13103C11.1746 7.15915 11.1708 7.18541 11.1633 7.21166L11.1258 7.37291L11.2702 7.40854L11.3096 7.24166C11.3171 7.21353 11.3208 7.18541 11.3265 7.15728L11.3415 7.0729L11.3565 6.9904L11.364 6.94915L11.3696 6.9079C11.3827 6.79539 11.4015 6.68101 11.4071 6.56851L11.259 6.55726C11.2533 6.66789 11.2365 6.77852 11.2233 6.88727L11.0714 6.86477L11.0865 6.74289L11.094 6.68101L11.0977 6.65101L11.0996 6.62101L10.6439 6.57788C10.6421 6.60976 10.6364 6.64164 10.6327 6.67351L10.6271 6.71851L10.6158 6.80102L10.4639 6.77852C10.4752 6.68476 10.4902 6.59101 10.4939 6.49726C10.4977 6.45038 10.5014 6.4035 10.5033 6.35663L10.5071 6.21412L10.6608 6.216L10.6571 6.3285C10.6571 6.34725 10.6571 6.366 10.6552 6.38475L10.6514 6.441L10.7996 6.45038L10.8033 6.39225C10.8052 6.3735 10.8052 6.35288 10.8052 6.33413L10.8089 6.21787L10.8108 6.14474L10.8089 6.07162L10.8071 5.98724L10.9683 5.98161C10.9702 6.06224 10.9739 6.14099 10.9702 6.22162L10.9664 6.34163C10.9664 6.36225 10.9664 6.381 10.9646 6.40163L10.9608 6.46163L11.109 6.47101L11.1127 6.40913C11.1146 6.3885 11.1146 6.36788 11.1146 6.34725L11.1183 6.2235L11.2721 6.22537L11.2683 6.39225C11.2665 6.44851 11.2608 6.50288 11.2571 6.55726L11.4052 6.56851C11.409 6.51226 11.4146 6.45413 11.4165 6.39788L11.4202 6.22725L11.4221 6.14474L11.4202 6.06224L11.4165 5.89161C11.4146 5.83536 11.409 5.77723 11.4052 5.72098L11.2571 5.73223C11.2608 5.78661 11.2665 5.84286 11.2683 5.89724L11.2721 6.06412L11.1183 6.06599L11.1146 5.94224C11.1146 5.92161 11.1146 5.90099 11.1127 5.88036L11.109 5.81848L10.6514 5.84848C10.6533 5.88036 10.6571 5.91224 10.6571 5.94411L10.6589 5.99099L10.6608 6.07349L10.5071 6.07537L10.5033 5.93286C10.5014 5.88598 10.4958 5.83911 10.4939 5.79223C10.4883 5.69848 10.4752 5.60473 10.4639 5.51097L10.6158 5.48847L10.6308 5.5991L10.6383 5.65535L10.6421 5.68348L10.6439 5.7116L10.7921 5.69848L10.7902 5.67035L10.7864 5.64223L10.7789 5.5841L10.7639 5.46972L10.7621 5.43784L10.7564 5.40222L10.7433 5.32909L10.7283 5.24471L10.8858 5.21284L10.9064 5.33097C10.9139 5.37034 10.9214 5.40972 10.9252 5.4491L10.9402 5.56722L10.9477 5.62723L10.9514 5.65723L10.9533 5.68723L11.1015 5.6741L11.0996 5.6441L11.0958 5.6141L11.0883 5.55222L11.0733 5.43034L11.2252 5.40784C11.2383 5.51847 11.2552 5.62723 11.2608 5.73786L11.409 5.7266C11.4033 5.61223 11.3865 5.49972 11.3715 5.38722L11.3658 5.34597L11.3583 5.30471L11.3433 5.22221L11.3283 5.13783C11.3227 5.10971 11.319 5.08158 11.3115 5.05346L11.2721 4.88658L11.1277 4.9222L11.1652 5.08346C11.1727 5.10971 11.1765 5.13783 11.1821 5.16596L11.1971 5.24846L11.0471 5.27471L11.0246 5.15283C11.0152 5.11346 11.0058 5.07221 10.9964 5.03283L10.5502 5.13596L10.5727 5.22971C10.5764 5.24471 10.5783 5.25971 10.5821 5.27471L10.5971 5.35534L10.4471 5.38159L10.4339 5.31222C10.4302 5.28971 10.4264 5.26534 10.4208 5.24284L10.3889 5.10596C10.3796 5.05908 10.3646 5.01408 10.3533 4.96908L10.3345 4.90158C10.327 4.87908 10.3233 4.85657 10.3139 4.83407L10.4602 4.7872C10.4658 4.80407 10.4714 4.82282 10.4771 4.84157L10.4921 4.89595L10.5221 5.0047L10.6664 4.9672L10.6346 4.85657L10.6196 4.80032C10.6139 4.78157 10.6102 4.76282 10.6027 4.74407L10.5558 4.60532C10.5464 4.57906 10.5389 4.55094 10.5277 4.52469L10.6777 4.46844C10.6852 4.48719 10.6927 4.50594 10.6983 4.52469L10.7171 4.58094L10.7546 4.69532C10.7621 4.71407 10.7658 4.73282 10.7714 4.75345L10.7883 4.81157L10.8202 4.92783L10.9646 4.89033L10.9308 4.7722L10.9139 4.71219C10.9083 4.69157 10.9027 4.67282 10.8952 4.65219L11.0414 4.60532C11.0508 4.63157 11.0583 4.65782 11.0658 4.68407L11.0883 4.7647C11.1033 4.81907 11.1202 4.87158 11.1315 4.92595L11.2758 4.89033C11.2646 4.83407 11.2477 4.7797 11.2327 4.72532L11.2102 4.64282C11.2027 4.61469 11.1952 4.58844 11.1858 4.56031L11.1333 4.40281C11.124 4.37656 11.1165 4.34843 11.1052 4.32218L11.0733 4.24155C11.0527 4.18905 11.0321 4.13467 11.0096 4.08217L10.8727 4.1403C10.8952 4.19093 10.9139 4.24343 10.9346 4.29405L10.9646 4.37093C10.9758 4.39718 10.9833 4.42343 10.9927 4.44968L10.8483 4.50031L10.8277 4.44218L10.8052 4.38406L10.7602 4.26968L10.3364 4.44406L10.3721 4.53406L10.3889 4.57719C10.4002 4.60344 10.4077 4.62969 10.4171 4.65407L10.2727 4.70469C10.2652 4.68219 10.2577 4.65969 10.2502 4.63719L10.2239 4.57156C10.207 4.52844 10.1902 4.48344 10.1714 4.44031L10.1133 4.31093C10.1039 4.2903 10.0945 4.2678 10.0833 4.24718L10.0514 4.18343L10.1883 4.11405L10.2145 4.16468C10.2239 4.18155 10.2314 4.19843 10.2389 4.2153L10.2858 4.31843L10.4227 4.25843L10.3758 4.15342C10.3683 4.13655 10.3589 4.1178 10.3514 4.10092L10.3252 4.04842C10.3027 4.00529 10.2802 3.96029 10.2577 3.91717L10.2145 3.84404L10.3533 3.76529C10.3721 3.80091 10.3946 3.83466 10.4114 3.87029L10.4658 3.97717L10.4939 4.02967C10.5033 4.04655 10.5127 4.0653 10.5202 4.08405L10.5689 4.1928L10.7058 4.1328L10.6552 4.0203C10.6477 4.00154 10.6383 3.98279 10.6289 3.96404L10.6008 3.90967L10.7377 3.84029L10.7752 3.91529C10.7883 3.93967 10.7977 3.96592 10.8108 3.99029L10.8802 4.14217L11.0171 4.08405L10.9458 3.92842C10.9346 3.90217 10.9233 3.87592 10.9102 3.85154L10.8708 3.77466C10.8446 3.72591 10.8202 3.67528 10.7939 3.62653L10.7096 3.4784C10.6946 3.45403 10.6814 3.42777 10.6664 3.40527L10.6196 3.33402L10.4939 3.41277L10.5389 3.48215C10.5539 3.50465 10.5671 3.5309 10.5802 3.5534L10.6627 3.69778L10.5277 3.77091C10.4864 3.69966 10.4471 3.62841 10.4039 3.55715L10.012 3.79716C10.0289 3.82341 10.0439 3.85154 10.0608 3.87967L10.0833 3.91904L10.1245 3.99029L9.98954 4.06342L9.91828 3.94154C9.90703 3.92092 9.89578 3.90029 9.88266 3.87967L9.84516 3.81966C9.81891 3.78029 9.79453 3.73904 9.76828 3.70153L9.68578 3.58528L9.80953 3.49528L9.87516 3.58715C9.88641 3.60216 9.89766 3.61716 9.90703 3.63403L9.93704 3.68091L10.0608 3.59841L10.0289 3.54965C10.0177 3.53278 10.0064 3.51778 9.99516 3.50278L9.92766 3.40902C9.91266 3.3884 9.89953 3.36965 9.88453 3.34902L9.83953 3.29089L9.78703 3.22339L9.91266 3.12214C10.012 3.24589 10.1077 3.37527 10.1939 3.51028L10.3177 3.42777L10.2839 3.37527C10.2727 3.3584 10.2595 3.34152 10.2483 3.32465L10.177 3.22339L10.3008 3.13339L10.3964 3.26839C10.4283 3.3134 10.4564 3.36215 10.4864 3.40715L10.6121 3.32652C10.5802 3.27777 10.5502 3.23089 10.5183 3.18214L10.4189 3.04339C10.4021 3.02089 10.3871 2.99838 10.3702 2.97588L10.3195 2.91026C10.2839 2.86526 10.2502 2.82025 10.2127 2.77713L10.1002 2.64775L9.98954 2.74713L10.0983 2.87276C10.1339 2.91588 10.1677 2.95901 10.2014 3.00213L10.0795 3.09589L10.0027 2.99838C9.98954 2.98151 9.97641 2.96651 9.96329 2.95151L9.92203 2.90463L9.57515 3.20652L9.63702 3.27964L9.66515 3.31527L9.71578 3.3809L9.5939 3.47465C9.5639 3.43715 9.53577 3.39965 9.50577 3.36402L9.41389 3.25714C9.39889 3.24027 9.38389 3.22152 9.36701 3.20464L9.31826 3.15402C9.28451 3.12026 9.25451 3.08464 9.22076 3.05276L9.32951 2.94401C9.38202 2.99651 9.43264 3.05276 9.48514 3.10526L9.59577 3.00401C9.5414 2.94776 9.48889 2.89151 9.43452 2.83713L9.32764 2.73588C9.30701 2.71712 9.28639 2.6965 9.26576 2.67775L9.37264 2.55774L9.39514 2.57649L9.41764 2.59712L9.46077 2.63837L9.54702 2.72087C9.60327 2.77713 9.65765 2.83713 9.7139 2.89338L9.82453 2.79213C9.76828 2.73213 9.71203 2.67212 9.6539 2.614L9.76265 2.50524C9.80203 2.54462 9.83953 2.58587 9.87891 2.62525L9.93704 2.68525C9.95579 2.70587 9.97454 2.7265 9.99141 2.74713L10.102 2.64775C10.0833 2.62712 10.0645 2.60462 10.0458 2.58399L9.98766 2.52212C9.94829 2.48087 9.90891 2.43961 9.86953 2.39836L9.74953 2.28398C9.70828 2.24461 9.66515 2.20711 9.62202 2.16961L9.55827 2.11335C9.53577 2.0946 9.51515 2.07585 9.49264 2.05898L9.39889 2.17336C9.42139 2.19023 9.44202 2.20898 9.46264 2.22773L9.5264 2.28211C9.56765 2.31774 9.61077 2.35336 9.65015 2.39274L9.54515 2.50524L9.50015 2.46212L9.45327 2.42086L9.35952 2.34024L9.06326 2.69087L9.13638 2.75463L9.17201 2.78463C9.19263 2.8015 9.21326 2.82213 9.23201 2.84088L9.12701 2.95338C9.09326 2.91963 9.05763 2.88963 9.022 2.85963L8.96763 2.81275C8.94888 2.79775 8.932 2.78088 8.91325 2.76775C8.83825 2.70962 8.76699 2.64962 8.68824 2.59712L8.77824 2.47337C8.80825 2.49587 8.84012 2.51649 8.87012 2.53899L8.95825 2.60837L9.05013 2.49212L8.95825 2.42086C8.92825 2.39649 8.89637 2.37586 8.8645 2.35336L8.8045 2.31024C8.78387 2.29711 8.76512 2.28211 8.74449 2.26898L8.67324 2.22211L8.75949 2.0871C8.79325 2.1096 8.827 2.13023 8.86075 2.15273L8.95825 2.22211C8.99013 2.24648 9.02388 2.26711 9.05575 2.29149L9.14951 2.36649L9.24139 2.25023L9.14388 2.17336C9.11201 2.14898 9.07638 2.1246 9.0445 2.10023L9.13451 1.97647C9.22639 2.03835 9.31264 2.1096 9.39889 2.17711L9.49264 2.06273C9.40264 1.99335 9.31451 1.92022 9.22076 1.85647L9.15326 1.80772C9.13076 1.79272 9.10826 1.77584 9.08576 1.76084C8.99013 1.69896 8.8945 1.63521 8.79512 1.58083L8.72012 1.53771C8.69574 1.52271 8.67137 1.50958 8.64511 1.49646L8.49323 1.4177C8.44448 1.39145 8.39386 1.37083 8.34323 1.34645L8.26448 1.31083C8.23823 1.29958 8.21197 1.28645 8.18572 1.27707L8.02634 1.21332L7.97384 1.35208L8.12947 1.41395C8.15572 1.42333 8.1801 1.43645 8.20635 1.44771L8.28135 1.48146L8.2176 1.62021L8.1051 1.56958C8.06759 1.55271 8.02822 1.53958 7.99072 1.52271L7.82196 1.94835L7.91196 1.98397C7.92697 1.9896 7.94009 1.9971 7.95322 2.00272L8.02822 2.03648L7.96447 2.17523L7.90071 2.14523C7.87821 2.13585 7.85759 2.1246 7.83509 2.1171L7.70383 2.0646C7.66071 2.04585 7.6157 2.03273 7.5707 2.01773C7.5257 2.00272 7.48257 1.98585 7.4357 1.97272L7.4807 1.82647C7.55195 1.84897 7.6232 1.87335 7.69446 1.89772L7.74508 1.75709C7.67196 1.73272 7.59883 1.70646 7.5257 1.68396L7.38507 1.64459L7.34382 1.63334L7.32319 1.62771L7.30257 1.62209L7.34194 1.46646C7.36069 1.47021 7.38132 1.47583 7.40007 1.48146L7.4582 1.49833L7.57445 1.53021C7.65133 1.55458 7.72633 1.58084 7.80134 1.60709L7.85196 1.46646C7.77321 1.44021 7.69633 1.41208 7.61758 1.3877L7.66258 1.24145C7.71508 1.25645 7.76758 1.27707 7.82009 1.29395C7.87259 1.3127 7.92509 1.32958 7.97759 1.3502L8.03009 1.21145C7.97759 1.18895 7.92322 1.17207 7.86884 1.15332C7.81446 1.13457 7.76008 1.11582 7.70571 1.09894L7.54633 1.05394C7.5182 1.04644 7.49195 1.03707 7.46382 1.03144L7.38132 1.01269C7.32507 0.999565 7.27069 0.986439 7.21444 0.975189L7.18444 1.12144C7.23882 1.13269 7.29319 1.14582 7.34757 1.15895L7.4282 1.1777C7.45445 1.18332 7.48257 1.1927 7.50883 1.2002L7.46945 1.34833L7.40945 1.33145C7.38882 1.32583 7.37007 1.32208 7.34944 1.31645L7.22944 1.28832L7.13194 1.73647L7.22569 1.75897L7.27069 1.77022L7.29132 1.77397L7.31194 1.77959L7.35132 1.79084L7.31194 1.93897C7.28944 1.93335 7.26694 1.92585 7.24444 1.92022L7.17506 1.90522C7.12819 1.89397 7.08319 1.88272 7.03631 1.87335L6.89755 1.84897L6.82818 1.83584L6.7588 1.82647L6.77942 1.67459C6.85443 1.68209 6.92756 1.69709 7.00068 1.71021L7.02881 1.56396C6.95193 1.55083 6.87693 1.53583 6.80005 1.52646L6.6538 1.50771C6.62567 1.50396 6.59754 1.50396 6.56942 1.50021L6.58254 1.34083C6.66317 1.34458 6.74192 1.3577 6.82068 1.36708C6.89943 1.37458 6.97818 1.39145 7.05694 1.40458L7.08506 1.25832C7.00443 1.2452 6.92381 1.22832 6.8413 1.21895L6.86193 1.06707L6.94443 1.07832L7.02693 1.09332L7.19006 1.12332L7.22006 0.977064L7.05131 0.947063L6.96693 0.932062L6.88255 0.920812L6.71755 0.900186C6.6613 0.894561 6.60317 0.890811 6.54692 0.887061C6.49067 0.883311 6.43254 0.877686 6.37629 0.877686L6.37066 1.02582C6.42691 1.02582 6.48129 1.03144 6.53567 1.03519C6.59004 1.03894 6.6463 1.04269 6.70067 1.04832L6.68567 1.2002C6.60317 1.1927 6.52067 1.18707 6.44004 1.18145L6.41566 1.63896L6.51129 1.64646L6.55817 1.65021C6.58629 1.65209 6.61254 1.65396 6.64067 1.65771L6.62567 1.80959C6.57879 1.80397 6.53192 1.80209 6.48504 1.79834C6.43816 1.79459 6.39129 1.79084 6.34441 1.79084L6.2019 1.78709H6.17003H6.13628L5.99377 1.79084C5.9469 1.79084 5.90002 1.79647 5.85314 1.79834C5.80627 1.80209 5.75939 1.80397 5.71251 1.80959L5.69751 1.65771C5.77251 1.65021 5.84752 1.64646 5.92064 1.64084L5.91314 1.49271C5.83627 1.49833 5.75939 1.50396 5.68251 1.51146L5.53626 1.53021C5.50813 1.53396 5.48 1.53771 5.45188 1.54146L5.4275 1.38208C5.50626 1.37083 5.58688 1.36145 5.66564 1.35208C5.74439 1.34458 5.82502 1.33895 5.90564 1.33333L5.89814 1.1852C5.81564 1.19082 5.73314 1.19645 5.65251 1.20395L5.63751 1.05207C5.69189 1.04644 5.74814 1.04269 5.80252 1.03894C5.85689 1.03519 5.91314 1.02957 5.96752 1.02957L5.9619 0.881436C5.90564 0.881436 5.84752 0.887061 5.79127 0.890811C5.73501 0.894561 5.67689 0.898311 5.62063 0.903936L5.45563 0.924562L5.37125 0.935812L5.28687 0.950813L5.11812 0.980814L5.14812 1.12707L5.31125 1.09707L5.39375 1.08207L5.47625 1.07082L5.49688 1.2227C5.41438 1.23207 5.33375 1.24895 5.25312 1.26207L5.3375 1.71209L5.43125 1.69521L5.47625 1.68771C5.50251 1.68396 5.53063 1.68021 5.55876 1.67646L5.57938 1.82834L5.51001 1.83772L5.44063 1.85084L5.30187 1.87522C5.255 1.8846 5.21 1.89585 5.16312 1.9071L5.09374 1.9221C5.07124 1.92772 5.04874 1.93522 5.02624 1.94085L4.98686 1.79272L5.04124 1.77772C5.05999 1.77209 5.07687 1.76834 5.09562 1.76459L5.20437 1.74022L5.17249 1.59396L5.05999 1.62021C5.04124 1.62396 5.02249 1.62771 5.00374 1.63334L4.94749 1.64834L4.78061 1.68771C4.75248 1.69521 4.72623 1.70459 4.69998 1.71396L4.64935 1.56021L4.7056 1.54146C4.72435 1.53583 4.7431 1.53021 4.76373 1.52458L4.87998 1.49271L4.93811 1.47583C4.95686 1.47021 4.97749 1.46646 4.99624 1.46271L5.11249 1.43646L5.08062 1.2902L4.96061 1.31833C4.93999 1.32395 4.92124 1.3277 4.90061 1.33333L4.84061 1.3502L4.80123 1.20207C4.82748 1.19457 4.85373 1.18707 4.88186 1.17957L4.96249 1.16082C5.01686 1.14769 5.07124 1.13644 5.12562 1.12332L5.09562 0.977064C5.03936 0.988314 4.98499 1.00144 4.92874 1.01457L4.84623 1.03332C4.81811 1.04082 4.79186 1.04832 4.76373 1.05582L4.60435 1.10082C4.54997 1.11769 4.4956 1.13644 4.44122 1.1552C4.38684 1.17395 4.33246 1.19082 4.27996 1.21332L4.33246 1.35208C4.38309 1.33145 4.43747 1.31458 4.48997 1.29583C4.54247 1.27895 4.59497 1.2602 4.64748 1.24332L4.69248 1.38958C4.61372 1.41395 4.53685 1.44208 4.45809 1.46833L4.61372 1.8996L4.70373 1.8696L4.74685 1.85459C4.77311 1.84709 4.79936 1.83584 4.82561 1.82834L4.87061 1.9746C4.82561 1.98772 4.78061 2.0046 4.7356 2.0196C4.6906 2.0346 4.6456 2.0496 4.60247 2.06648L4.47122 2.11898C4.44872 2.12648 4.42809 2.13773 4.40559 2.1471L4.34184 2.17711L4.27809 2.03835L4.38122 1.99147C4.41497 1.97647 4.45059 1.96335 4.48622 1.95022L4.43184 1.81147C4.39622 1.82647 4.36059 1.83959 4.32496 1.85459L4.21996 1.90147C4.17496 1.9221 4.12996 1.94085 4.08683 1.96335L4.01183 2.00272L3.9387 1.86022L4.04558 1.80584C4.08121 1.78709 4.11871 1.77209 4.15433 1.75522L4.26309 1.70646C4.30059 1.69146 4.33809 1.67646 4.37372 1.66146L4.31934 1.52271C4.28184 1.53771 4.24246 1.55271 4.20496 1.56958L4.09246 1.62021L4.0287 1.48146L4.10371 1.44771C4.12996 1.43645 4.15433 1.42333 4.18058 1.41395L4.33621 1.35208L4.28371 1.21332L4.12433 1.27707C4.09808 1.28645 4.07183 1.29958 4.04558 1.31083L3.96683 1.34645C3.9162 1.36895 3.86557 1.39145 3.81682 1.4177L3.66494 1.49646C3.63869 1.50958 3.61431 1.52458 3.58994 1.53771L3.51494 1.58083L3.58994 1.71021L3.66119 1.66896C3.68557 1.65584 3.70994 1.64084 3.73432 1.62959L3.88245 1.55458L3.94995 1.69146L3.83932 1.74772L3.78495 1.77584L3.73057 1.80584L3.9537 2.20711L3.99495 2.18273C4.00808 2.17523 4.02308 2.16773 4.03808 2.16023L4.07933 2.1396L4.15246 2.1021L4.21996 2.23898L4.09433 2.30274C4.07371 2.31211 4.05308 2.32524 4.03245 2.33649L3.97058 2.37211C3.88807 2.41711 3.80932 2.47149 3.73057 2.52024L3.64619 2.39274L3.73994 2.33274L3.78682 2.30274L3.8112 2.28773L3.83557 2.27461L3.75869 2.1471L3.73432 2.16211L3.70994 2.17711L3.66119 2.20898L3.56369 2.27086C3.54306 2.28398 3.52244 2.29898 3.50369 2.31211L3.44368 2.35524L3.37431 2.40399L3.27868 2.27461L3.37618 2.20523L3.42493 2.16961C3.44181 2.15836 3.45681 2.1471 3.47368 2.13585L3.57494 2.07023L3.62556 2.03835L3.64994 2.02148L3.67619 2.00647L3.59931 1.87897L3.57306 1.89397L3.54681 1.91085L3.49431 1.9446L3.38931 2.0121L3.30493 1.8846C3.39868 1.82459 3.49056 1.76272 3.58806 1.71021L3.51306 1.58083C3.41368 1.63521 3.31805 1.69896 3.22243 1.76084C3.19805 1.77584 3.17742 1.79272 3.15492 1.80772L3.08742 1.85647C2.99367 1.92022 2.90554 1.99335 2.81554 2.06273L2.90929 2.17711C2.99742 2.1096 3.0818 2.03835 3.17367 1.97647L3.26368 2.10023C3.22993 2.1246 3.19617 2.1471 3.1643 2.17336L3.0668 2.25023L3.35181 2.61025L3.42681 2.55024C3.43806 2.54087 3.45118 2.53149 3.46431 2.52212L3.53181 2.47524L3.62181 2.599C3.54306 2.6515 3.47181 2.71337 3.39681 2.76963C3.37806 2.78463 3.36118 2.79963 3.34243 2.81463L3.28805 2.8615C3.25243 2.89151 3.2168 2.92338 3.18305 2.95526L3.07805 2.84275L3.1193 2.80338L3.16242 2.76588L3.2468 2.69275L3.15117 2.57837L3.06305 2.65337L3.01992 2.69087L2.97867 2.73025L2.87179 2.8315C2.85116 2.85025 2.83241 2.87275 2.81179 2.89338L2.69741 2.78088C2.80804 2.6665 2.92617 2.55774 3.04804 2.45462L2.95242 2.34024L2.85866 2.42086L2.81179 2.46212L2.76679 2.50524L2.66178 2.39274C2.70116 2.35336 2.74428 2.31774 2.78554 2.28211L2.84929 2.22773C2.86991 2.20898 2.89054 2.19023 2.91304 2.17336L2.81929 2.05898C2.79679 2.07585 2.77616 2.09648 2.75366 2.11335L2.68991 2.16961C2.64678 2.20711 2.60365 2.24461 2.5624 2.28398L2.4424 2.39836C2.40115 2.43774 2.36365 2.48087 2.32427 2.52212L2.26614 2.58399C2.24552 2.60462 2.22864 2.62712 2.20989 2.64775L2.32052 2.74713C2.33927 2.7265 2.35615 2.704 2.3749 2.68525L2.43302 2.62525C2.4724 2.58587 2.50803 2.54462 2.54928 2.50524L2.65803 2.614C2.5999 2.67212 2.54365 2.73213 2.4874 2.79213L2.82679 3.10151L2.89241 3.03214L2.92429 2.99838C2.94304 2.97963 2.96179 2.95713 2.98242 2.94026L3.09117 3.04901C3.05742 3.08276 3.02554 3.11651 2.99367 3.15026L2.94492 3.20089C2.92804 3.21777 2.91304 3.23652 2.89804 3.25339L2.80616 3.36027C2.77616 3.3959 2.74803 3.4334 2.71803 3.4709L2.59615 3.37715L2.66553 3.28902C2.67678 3.27402 2.68991 3.26089 2.70116 3.24589L2.73866 3.20277L2.62616 3.10526L2.58865 3.14839C2.57553 3.16339 2.5624 3.17652 2.55115 3.19339L2.4799 3.28527L2.4349 3.3434C2.4199 3.36215 2.40677 3.38277 2.39177 3.4034L2.34302 3.47278L2.21177 3.3809L2.28114 3.28339L2.29802 3.25902L2.31677 3.23464L2.35427 3.18777L2.42927 3.09401C2.44052 3.07714 2.45552 3.06401 2.46865 3.04714L2.50803 3.00213L2.39552 2.90463L2.35427 2.95151C2.34115 2.96651 2.32614 2.98338 2.31489 2.99838L2.23802 3.09589L2.11614 3.00213C2.14989 2.95901 2.18364 2.91401 2.21927 2.87276L2.32802 2.74713L2.21739 2.64775L2.10489 2.77713C2.06926 2.82025 2.03363 2.86713 1.99801 2.91026L1.94738 2.97588C1.93051 2.99838 1.9155 3.02089 1.89863 3.04339L1.79925 3.18214C1.76738 3.22902 1.73737 3.27777 1.7055 3.32652L1.83113 3.40527C1.86113 3.3584 1.89113 3.31152 1.92113 3.26652L2.01676 3.13151L2.14051 3.22152L2.06926 3.32277C2.05801 3.33965 2.04488 3.35652 2.03363 3.3734L1.99988 3.4259L2.38427 3.67716C2.40115 3.65091 2.41802 3.62278 2.43677 3.59653L2.46302 3.55903L2.5099 3.49153L2.63366 3.58153L2.55115 3.69778C2.5249 3.73716 2.50053 3.77654 2.47427 3.81591L2.43677 3.87592C2.42365 3.89654 2.4124 3.91717 2.40115 3.93779L2.32989 4.05967L2.19489 3.98654C2.23239 3.92279 2.26802 3.85716 2.30739 3.79154L2.17989 3.71466C2.14051 3.78029 2.10301 3.84779 2.06364 3.91529C2.04113 3.95842 2.01863 4.00154 1.99613 4.04655L1.95676 4.12155L1.81238 4.05217C1.84988 3.98092 1.8855 3.90967 1.92301 3.83841C1.96238 3.76904 2.00176 3.69966 2.04301 3.63028L1.91551 3.5534C1.87238 3.62466 1.833 3.69591 1.79175 3.76716L1.65675 3.69403L1.73925 3.54965C1.75425 3.52528 1.7655 3.5009 1.7805 3.4784L1.8255 3.40902L1.69987 3.33027L1.653 3.40152C1.638 3.4259 1.62487 3.45028 1.60987 3.47465L1.52549 3.62278C1.49924 3.67153 1.47486 3.72028 1.44861 3.77091L1.40924 3.84779C1.39611 3.87404 1.38486 3.90029 1.37361 3.92467L1.30236 4.0803L1.43924 4.13842L1.50862 3.98654C1.51987 3.96217 1.53112 3.93592 1.54424 3.91154L1.58174 3.83654L1.71862 3.90592L1.6905 3.96029C1.68112 3.97904 1.67175 3.99779 1.66425 4.01655L1.61362 4.12905L2.03176 4.31468L2.07114 4.22655C2.07676 4.21343 2.08426 4.19843 2.08989 4.1853L2.12739 4.11217L2.26427 4.18155L2.23239 4.2453C2.22114 4.26593 2.21177 4.28843 2.20239 4.30906L2.14426 4.43844C2.12551 4.48156 2.10864 4.52656 2.09176 4.56969L2.06551 4.63532C2.05614 4.65782 2.05051 4.68032 2.04301 4.70282L1.89863 4.65219L1.91738 4.59969L1.93801 4.54719L1.97926 4.44218L1.8405 4.38593L1.79738 4.49469L1.77675 4.54906L1.758 4.60344L1.71112 4.7422L1.70362 4.76282L1.68675 4.78157L1.6755 4.82282L1.52174 4.77782C1.56674 4.62407 1.62112 4.47406 1.68112 4.32593L1.54237 4.26968L1.49737 4.38406L1.47486 4.44218L1.45424 4.50031L1.30986 4.44968C1.31923 4.42343 1.32673 4.39718 1.33798 4.37093L1.36799 4.29405C1.38861 4.24343 1.40736 4.19093 1.42986 4.1403L1.29298 4.08217C1.27048 4.13467 1.24986 4.18905 1.22923 4.24155L1.19736 4.32218C1.1861 4.34843 1.1786 4.37656 1.16923 4.40281L1.11673 4.56031C1.10735 4.58657 1.09985 4.61469 1.09235 4.64282L1.06985 4.72532C1.05485 4.7797 1.03797 4.83407 1.02672 4.89033L1.1711 4.92595C1.18235 4.87158 1.19923 4.81907 1.21423 4.7647L1.23673 4.68407C1.24423 4.65782 1.25173 4.62969 1.26111 4.60532L1.40736 4.65219C1.39986 4.67094 1.39424 4.69157 1.38861 4.71219L1.37174 4.7722L1.33798 4.89033L1.78238 5.00658L1.80863 4.9147L1.82175 4.8697L1.833 4.83032L1.83863 4.8097L1.84613 4.79095L1.99238 4.83782C1.98488 4.86032 1.97926 4.88283 1.97176 4.90533L1.95301 4.97283C1.93988 5.01783 1.92676 5.06283 1.91738 5.10971L1.8855 5.24659C1.87988 5.26909 1.87613 5.29346 1.87238 5.31597L1.85925 5.38534L1.70925 5.35909L1.728 5.24846C1.7355 5.21284 1.74487 5.17534 1.75237 5.13971L1.60799 5.10596C1.59862 5.14346 1.59112 5.18096 1.58174 5.21846L1.56112 5.33284L1.54799 5.40597L1.53674 5.43784L1.53112 5.47347L1.51987 5.55785L1.36049 5.53722L1.37549 5.41909L1.39611 5.30097L1.41674 5.18284C1.42424 5.14346 1.43361 5.10408 1.44299 5.06658L1.29861 5.03283C1.28923 5.07221 1.27986 5.11346 1.27048 5.15283L1.24798 5.27471L1.09798 5.24846L1.11298 5.16596C1.1186 5.13783 1.12235 5.11158 1.12985 5.08533L1.16735 4.92408L1.02297 4.88845L0.983598 5.05533C0.976097 5.08346 0.972347 5.11158 0.966722 5.13971L0.951722 5.22409L0.936721 5.30659L0.929221 5.34784L0.923596 5.38909C0.91047 5.5016 0.89172 5.61598 0.886094 5.72848L1.03422 5.73973C1.03985 5.6291 1.05673 5.51847 1.06985 5.40972L1.22173 5.43222L1.20673 5.5541L1.19923 5.61598V5.6441L1.19736 5.6741L1.653 5.71723C1.65487 5.68535 1.6605 5.65348 1.66425 5.6216L1.66987 5.5766L1.68112 5.4941L1.833 5.5166C1.82175 5.61035 1.80675 5.7041 1.803 5.79786C1.79925 5.84473 1.7955 5.89161 1.79363 5.93849L1.78988 6.08099L1.63612 6.07912L1.63987 5.96661C1.63987 5.94786 1.63987 5.92911 1.64175 5.91036L1.6455 5.85411L1.49737 5.84473L1.49362 5.90286C1.49174 5.92161 1.49174 5.94224 1.49174 5.96099L1.48799 6.07724L1.48612 6.15037L1.48799 6.2235L1.48987 6.30787L1.32861 6.3135C1.32673 6.23287 1.32298 6.15412 1.32673 6.07349L1.33048 5.95349C1.33048 5.93286 1.33048 5.91411 1.33236 5.89349L1.33611 5.83348L1.18798 5.82411L1.18048 5.88786C1.1786 5.90849 1.1786 5.92911 1.1786 5.94974L1.17485 6.07349L1.0211 6.07162L1.02485 5.90474C1.02672 5.84848 1.03235 5.79411 1.0361 5.73973L0.887969 5.72848C0.884219 5.78473 0.878594 5.84286 0.876719 5.89911L0.872969 6.06974L0.871094 6.15224L0.872969 6.23475L0.876719 6.40538C0.878594 6.46163 0.884219 6.51976 0.887969 6.57601L1.0361 6.56476C1.03235 6.51038 1.02672 6.45413 1.02485 6.39975L1.0211 6.23287L1.17485 6.231L1.1786 6.35475C1.1786 6.37538 1.1786 6.396 1.18048 6.41663L1.18423 6.47851L1.64175 6.44851C1.63987 6.41663 1.63612 6.38475 1.63612 6.35288L1.63425 6.306L1.63237 6.2235L1.78613 6.22162L1.78988 6.36413C1.79175 6.411 1.79738 6.45788 1.79925 6.50476C1.80488 6.59851 1.818 6.69226 1.82925 6.78602L1.67737 6.80852L1.66237 6.69789L1.65487 6.64164L1.65112 6.61351L1.64925 6.58539L1.50112 6.59851L1.50299 6.62664L1.50674 6.65476L1.51424 6.71289L1.52924 6.82727L1.53487 6.86289L1.54049 6.89852L1.55362 6.97165L1.56862 7.05603L1.41111 7.0879L1.39049 6.96977C1.38299 6.9304 1.37549 6.89102 1.37174 6.85164L1.35674 6.73351L1.34924 6.67351L1.34549 6.64351L1.34361 6.61351L1.19548 6.62664L1.19736 6.65664L1.20111 6.68664L1.20861 6.74852L1.22361 6.8704L1.07173 6.8929C1.0586 6.78227 1.04172 6.67351 1.0361 6.56288L0.887969 6.57413C0.893594 6.68851 0.91047 6.80102 0.925471 6.91352L0.931096 6.95477L0.938596 6.99602L0.953597 7.07853L0.968597 7.16291C0.974222 7.19103 0.977973 7.21916 0.985473 7.24728L1.02485 7.41416L1.16923 7.37854L1.13173 7.21728C1.12423 7.19103 1.12048 7.1629 1.11485 7.13665L1.09985 7.05415L1.24986 7.0279L1.27236 7.14978C1.28173 7.18916 1.29111 7.23041 1.30048 7.26978L1.74675 7.16666L1.72425 7.0729C1.7205 7.0579 1.71862 7.0429 1.71487 7.0279L1.69987 6.94727L1.84988 6.92102L1.863 6.9904C1.86675 7.0129 1.8705 7.03728 1.87613 7.05978L1.908 7.19666C1.91738 7.24353 1.93238 7.28853 1.94363 7.33354L1.96238 7.40104C1.96988 7.42354 1.97363 7.44604 1.98301 7.46854L1.83675 7.51542C1.83113 7.49854 1.8255 7.47979 1.81988 7.46104L1.80488 7.40666L1.77488 7.29791L1.6305 7.33541L1.66237 7.44604L1.67737 7.50229C1.683 7.52104 1.68675 7.53979 1.69425 7.55854L1.74112 7.6973C1.7505 7.72355 1.758 7.75168 1.76925 7.77793L1.61924 7.83418C1.61174 7.81543 1.60424 7.79668 1.59862 7.77793L1.57987 7.72167L1.54237 7.6073C1.53487 7.58855 1.53112 7.56979 1.52549 7.54917L1.50862 7.49104L1.47674 7.37479L1.33236 7.41229L1.36611 7.53042L1.38299 7.59042C1.38861 7.61105 1.39424 7.6298 1.40174 7.65042L1.25548 7.6973C1.24611 7.67105 1.23861 7.6448 1.23111 7.61855L1.20861 7.53792C1.19361 7.48354 1.17673 7.43104 1.16548 7.37666L1.0211 7.41229C1.03235 7.46854 1.04923 7.52292 1.06423 7.57729L1.08673 7.6598C1.09423 7.68792 1.10173 7.71417 1.1111 7.7423L1.1636 7.89981C1.17298 7.92606 1.18048 7.95418 1.19173 7.98043L1.22361 8.06106C1.24423 8.11356 1.26486 8.16794 1.28736 8.22044L1.42424 8.16231C1.40174 8.11169 1.38299 8.05919 1.36236 8.00856L1.33236 7.93168C1.32111 7.90543 1.31361 7.87918 1.30423 7.85293L1.44861 7.8023L1.46924 7.86043L1.49174 7.91856L1.53674 8.03294L1.96051 7.85855L1.92488 7.76855L1.908 7.72542C1.89675 7.69917 1.88925 7.67292 1.87988 7.64855L2.02426 7.59792C2.03176 7.62042 2.03926 7.64292 2.04676 7.66542L2.07301 7.73105C2.08989 7.77418 2.10676 7.81918 2.12551 7.8623L2.18364 7.99168C2.19301 8.01231 2.20239 8.03481 2.21364 8.05544L2.24552 8.11919L2.10864 8.18857L2.08239 8.13794C2.07301 8.12106 2.06551 8.10419 2.05801 8.08731L2.01113 7.98418L1.87425 8.04419L1.92113 8.14919C1.92863 8.16606 1.93801 8.18482 1.94551 8.20169L1.97176 8.25419C1.99426 8.29732 2.01676 8.34232 2.03926 8.38545L2.08239 8.45857L1.94363 8.53733C1.92488 8.5017 1.90238 8.46795 1.8855 8.43232L1.83113 8.32545L1.803 8.27294C1.79363 8.25607 1.78425 8.23732 1.77675 8.21857L1.728 8.10981L1.59112 8.16982L1.64175 8.28232C1.64925 8.30107 1.65862 8.31982 1.668 8.33857L1.69612 8.39295L1.55924 8.46233L1.52174 8.38732C1.50862 8.36295 1.49924 8.3367 1.48612 8.31232L1.41674 8.16044L1.27986 8.21857L1.35111 8.3742C1.36236 8.40045 1.37361 8.4267 1.38674 8.45108L1.42611 8.52795C1.45236 8.5767 1.47674 8.62733 1.50299 8.67608L1.58737 8.82421C1.60237 8.84859 1.61549 8.87484 1.6305 8.89734L1.67737 8.96859L1.803 8.88797L1.758 8.81859C1.743 8.79609 1.72987 8.76984 1.71675 8.74734L1.63425 8.60296L1.76925 8.52983C1.8105 8.60108 1.84988 8.67233 1.893 8.74359L2.28489 8.50358C2.26802 8.47733 2.25302 8.4492 2.23614 8.42107L2.21364 8.3817L2.17239 8.31045L2.30739 8.23732L2.37865 8.3592C2.3899 8.37982 2.40115 8.40045 2.41427 8.42107L2.45177 8.48108C2.47802 8.52045 2.5024 8.5617 2.52865 8.5992L2.61115 8.71546L2.4874 8.80546L2.42177 8.71358C2.41052 8.69858 2.39927 8.68358 2.3899 8.66671L2.3599 8.61983L2.23614 8.70233L2.26802 8.75109C2.27927 8.76796 2.29052 8.78296 2.30177 8.79796L2.36927 8.89172C2.38427 8.91234 2.3974 8.93109 2.4124 8.95172L2.4574 9.00984L2.5099 9.07735L2.38427 9.1786C2.28489 9.05485 2.18926 8.92547 2.10301 8.79046L1.97926 8.87297L2.01301 8.92547C2.02426 8.94234 2.03738 8.95922 2.04863 8.97609L2.11989 9.07735L1.99613 9.16735L1.9005 9.03235C1.86863 8.98734 1.8405 8.93859 1.8105 8.89359L1.68487 8.97234C1.71675 9.0211 1.74675 9.06797 1.77863 9.11672L1.878 9.25548C1.89488 9.27798 1.90988 9.30048 1.92676 9.32298L1.97738 9.38861C2.01301 9.43361 2.04676 9.47861 2.08426 9.52174L2.19677 9.65112L2.30739 9.55174L2.19864 9.42611C2.16301 9.38298 2.12926 9.33986 2.09551 9.29673L2.21739 9.20298L2.29427 9.30048C2.30739 9.31736 2.32052 9.33236 2.33364 9.34736L2.3749 9.39423L2.72178 9.0961L2.65991 9.02297L2.63178 8.98734L2.58115 8.92172L2.70303 8.82796C2.73303 8.86546 2.76116 8.90297 2.79116 8.93859L2.88304 9.04547C2.89804 9.06235 2.91304 9.0811 2.92992 9.09797L2.97867 9.1486C3.01242 9.18235 3.04242 9.21798 3.07617 9.24985L2.96742 9.35861C2.91491 9.3061 2.86429 9.24985 2.81179 9.19735L2.70116 9.29861C2.75553 9.35486 2.80804 9.41111 2.86241 9.46549L2.96929 9.56674C2.98992 9.58549 3.01054 9.60612 3.03117 9.62487L2.92429 9.74487L2.90179 9.72612L2.87929 9.70549L2.83616 9.66424L2.74991 9.58174C2.69366 9.52549 2.63928 9.46549 2.58303 9.40923L2.4724 9.51049C2.52865 9.57049 2.5849 9.63049 2.64303 9.68862L2.53428 9.79737C2.4949 9.758 2.4574 9.71674 2.41802 9.67737L2.3599 9.61737C2.34114 9.59674 2.32239 9.57611 2.30552 9.55549L2.19489 9.65487C2.21364 9.67549 2.23239 9.69799 2.25114 9.71862L2.30927 9.7805C2.34865 9.82175 2.38802 9.863 2.4274 9.90425L2.5474 10.0186C2.58865 10.058 2.63178 10.0955 2.67491 10.133L2.73866 10.1893C2.76116 10.208 2.78179 10.2268 2.80429 10.2436L2.89804 10.1293C2.87554 10.1124 2.85491 10.0936 2.83429 10.0749L2.77053 10.0205C2.72928 9.98488 2.68616 9.94925 2.64678 9.90988L2.75178 9.79737L2.79679 9.8405L2.84366 9.88175L2.93742 9.96238L3.23368 9.61174L3.16805 9.54424L3.13242 9.51424C3.1118 9.49736 3.09117 9.47674 3.07242 9.45799L3.17742 9.34548C3.21118 9.37923 3.2468 9.40923 3.28243 9.43924L3.3368 9.48611C3.35556 9.50111 3.37243 9.51799 3.39118 9.53111C3.46618 9.58924 3.53744 9.64924 3.61619 9.70174L3.52619 9.8255C3.49619 9.803 3.46431 9.78237 3.43431 9.75987L3.34618 9.69049L3.2543 9.80675L3.34618 9.878C3.37618 9.90238 3.40806 9.923 3.43993 9.9455L3.49994 9.98863C3.52056 10.0018 3.53931 10.0168 3.55994 10.0299L3.63119 10.0768L3.54494 10.2118C3.51119 10.1893 3.47743 10.1686 3.44368 10.1461L3.34618 10.0768C3.3143 10.0524 3.28055 10.0318 3.24868 10.0074L3.15492 9.93238L3.06305 10.0486L3.16055 10.1255C3.19242 10.1499 3.22805 10.1743 3.25993 10.1986L3.16992 10.3224C3.07805 10.2605 2.99179 10.1893 2.90554 10.1218L2.81179 10.2361C2.90179 10.3055 2.98992 10.3786 3.08367 10.4424L3.15117 10.4911C3.17367 10.5061 3.19618 10.523 3.21868 10.538C3.3143 10.5999 3.40993 10.6637 3.50931 10.718L3.58431 10.7612C3.60869 10.7762 3.63307 10.7893 3.65932 10.8024L3.8112 10.8812C3.85995 10.9074 3.91057 10.928 3.9612 10.9524L4.03995 10.988C4.06621 10.9993 4.09246 11.0124 4.11871 11.0218L4.27809 11.0855L4.33059 10.9468L4.17496 10.8849C4.14871 10.8755 4.12433 10.8624 4.09808 10.8512L4.02308 10.8174L4.08683 10.6787L4.19933 10.7293C4.23684 10.7462 4.27621 10.7593 4.31371 10.7762L4.48247 10.3505L4.39247 10.3149C4.37747 10.3093 4.36434 10.3018 4.35122 10.2961L4.27621 10.2624L4.33996 10.1236L4.40372 10.1536C4.42622 10.163 4.44684 10.1743 4.46934 10.1818L4.6006 10.2343C4.64373 10.253 4.68873 10.2661 4.73373 10.2811C4.77873 10.2961 4.82186 10.313 4.86873 10.3261L4.82373 10.4724C4.75248 10.4499 4.68123 10.4255 4.60997 10.4011L4.55935 10.5418C4.63248 10.5661 4.7056 10.5924 4.77873 10.6149L4.91936 10.6543L4.96061 10.6655L4.98124 10.6712L5.00186 10.6768L4.96249 10.8324C4.94374 10.8287 4.92311 10.823 4.90436 10.8174L4.84623 10.8005L4.72998 10.7687C4.6531 10.7443 4.5781 10.718 4.5031 10.6918L4.45247 10.8324C4.53122 10.8587 4.6081 10.8868 4.68685 10.9112L4.64185 11.0574C4.58935 11.0424 4.53685 11.0218 4.48435 11.0049C4.43184 10.9862 4.37934 10.9693 4.32684 10.9487L4.27434 11.0874C4.32684 11.1099 4.38122 11.1268 4.43559 11.1455C4.48997 11.1643 4.54435 11.183 4.59872 11.1999L4.7581 11.2449C4.78623 11.2524 4.81248 11.2618 4.84061 11.2674L4.92311 11.2862C4.97936 11.2993 5.03374 11.3124 5.08999 11.3237L5.11999 11.1774C5.06562 11.1662 5.01124 11.153 4.95686 11.1399L4.87623 11.1212C4.84998 11.1155 4.82186 11.1062 4.79561 11.0987L4.83498 10.9505L4.89498 10.9674C4.91561 10.973 4.93436 10.9768 4.95499 10.9824L5.07499 11.0105L5.17249 10.5624L5.07874 10.5399L5.03374 10.5286L5.01311 10.5249L4.99249 10.5193L4.95311 10.508L4.99249 10.3599C5.01499 10.3655 5.03749 10.373 5.05999 10.3786L5.12937 10.3936C5.17624 10.4049 5.22125 10.4161 5.26812 10.4255L5.40688 10.4499L5.47625 10.463L5.54563 10.4724L5.52501 10.6243C5.45 10.6168 5.37688 10.6018 5.30375 10.5886L5.27562 10.7349C5.3525 10.748 5.4275 10.763 5.50438 10.7724L5.65064 10.7912C5.67876 10.7949 5.70689 10.7949 5.73501 10.7987L5.72189 10.958C5.64126 10.9543 5.56251 10.9412 5.48375 10.9318C5.405 10.9243 5.32625 10.9074 5.2475 10.8943L5.21937 11.0405C5.3 11.0537 5.38063 11.0705 5.46313 11.0799L5.4425 11.2318L5.36 11.2205L5.2775 11.2055L5.11437 11.1755L5.08437 11.3218L5.25312 11.3518L5.3375 11.3668L5.42188 11.3781L5.58688 11.3987C5.64314 11.4043 5.70126 11.4081 5.75751 11.4118C5.81377 11.4156 5.87189 11.4212 5.92815 11.4212L5.93377 11.273C5.87752 11.273 5.82314 11.2674 5.76876 11.2637C5.71439 11.2599 5.65814 11.2562 5.60376 11.2505L5.61876 11.0987C5.70126 11.1062 5.78377 11.1118 5.86439 11.1174L5.88877 10.6599L5.79314 10.6524L5.74626 10.6487C5.71814 10.6468 5.69189 10.6449 5.66376 10.6412L5.67876 10.4893C5.72564 10.4949 5.77251 10.4968 5.81939 10.5005C5.86627 10.5043 5.91314 10.508 5.96002 10.508L6.10253 10.5118H6.1344H6.16815L6.31066 10.508C6.35754 10.508 6.40441 10.5024 6.45129 10.5005C6.49816 10.4968 6.54504 10.4949 6.59192 10.4893L6.60692 10.6412C6.53192 10.6487 6.45691 10.6524 6.38379 10.658L6.39129 10.8062C6.46816 10.8005 6.54504 10.7949 6.62192 10.7874L6.76817 10.7687C6.7963 10.7649 6.82443 10.7612 6.85255 10.7574L6.87693 10.9168C6.79818 10.928 6.71755 10.9374 6.63879 10.9468C6.56004 10.9543 6.47941 10.9599 6.39879 10.9655L6.40629 11.1137C6.48879 11.108 6.57129 11.1024 6.65192 11.0949L6.66692 11.2468C6.61254 11.2524 6.55629 11.2562 6.50192 11.2599C6.44754 11.2637 6.39129 11.2693 6.33691 11.2693L6.34253 11.4174C6.41754 11.4249 6.47566 11.4193 6.53192 11.4137ZM8.00572 1.86772L8.06947 1.71959L8.17822 1.76834L8.2326 1.79272C8.25135 1.80022 8.26823 1.81147 8.28698 1.81897L8.39386 1.87335L8.44636 1.90147L8.49886 1.93147L8.57199 1.80209L8.51761 1.77209L8.46323 1.74397L8.3526 1.68771L8.42011 1.55083L8.56824 1.62584C8.59261 1.63896 8.61699 1.65209 8.64137 1.66521L8.71262 1.70646C8.81012 1.75897 8.902 1.82272 8.99575 1.88085L8.91137 2.00835L8.80637 1.94085L8.75387 1.9071L8.72762 1.89022L8.70137 1.87522L8.46511 2.26898C8.49323 2.28398 8.51949 2.30274 8.54574 2.31961L8.58511 2.34399L8.65449 2.38899L8.57011 2.51649C8.48948 2.46587 8.41261 2.41336 8.3301 2.36836L8.26823 2.33274C8.2476 2.32149 8.22698 2.30836 8.20635 2.29899L8.08072 2.23523L8.14822 2.09835L8.2476 2.14898L8.29823 2.17523L8.34698 2.20336L8.42011 2.07398L8.36948 2.04585L8.31698 2.0196L8.21385 1.9671C8.17072 1.9446 8.12572 1.92585 8.08072 1.90522L8.00572 1.86772ZM4.29309 10.433L4.22934 10.5811L4.12058 10.5324L4.06621 10.508C4.04745 10.5005 4.03058 10.4893 4.01183 10.4818L3.90495 10.4274L3.85245 10.3993L3.79995 10.3693L3.72682 10.4986L3.7812 10.5286L3.83557 10.5568L3.9462 10.613L3.8787 10.7499L3.73057 10.6749C3.70619 10.6618 3.68182 10.6487 3.65744 10.6355L3.58619 10.5943C3.48868 10.5418 3.39681 10.478 3.30305 10.4199L3.38743 10.2924L3.49244 10.3599L3.54494 10.3936L3.57119 10.4105L3.59744 10.4255L3.8337 10.0318C3.80557 10.0168 3.77932 9.998 3.75307 9.98113L3.71369 9.95675L3.64432 9.91175L3.72869 9.78425C3.80932 9.83487 3.8862 9.88738 3.9687 9.93238L4.03058 9.968C4.0512 9.97925 4.07183 9.99238 4.09246 10.0018L4.21809 10.0655L4.15058 10.2024L4.0512 10.1518L4.00058 10.1255L3.95183 10.0974L3.8787 10.2268L3.92933 10.2549L3.98183 10.2811L4.08496 10.3336C4.12808 10.3561 4.17308 10.3749 4.21809 10.3955L4.29309 10.433ZM6.59192 10.343C6.54692 10.3468 6.50192 10.3505 6.45504 10.3543C6.41004 10.358 6.36504 10.3618 6.31816 10.3618L6.18128 10.3655H6.1494H6.11565L5.97877 10.3618C5.93377 10.3618 5.88689 10.3561 5.84189 10.3543C5.79689 10.3505 5.75001 10.3486 5.70501 10.343L5.57376 10.3261L5.50626 10.3168L5.43875 10.3055L5.30375 10.2811C5.25875 10.2718 5.21562 10.2605 5.17062 10.2511L5.10312 10.2361C5.08062 10.2305 5.05999 10.223 5.03749 10.2174L4.90998 10.1818C4.86686 10.1686 4.82373 10.1536 4.78061 10.1386C4.73748 10.1236 4.69435 10.1105 4.65123 10.0918L4.52372 10.0411C4.5031 10.0336 4.48247 10.0224 4.46184 10.013L4.39997 9.98488C4.36059 9.96613 4.31934 9.94925 4.27996 9.92863L4.15808 9.86675C4.13746 9.85737 4.11871 9.84425 4.09808 9.833L4.03808 9.79925C3.95745 9.75612 3.88245 9.70362 3.80557 9.65487C3.78682 9.64362 3.76995 9.63049 3.75119 9.61737L3.69682 9.57799C3.62181 9.52736 3.55056 9.46736 3.47931 9.41298C3.46056 9.39986 3.44368 9.38298 3.42681 9.36798L3.37431 9.32298C3.34055 9.29298 3.30493 9.26298 3.27305 9.2311L3.17742 9.13922C3.14555 9.10735 3.11367 9.0736 3.0818 9.03985L3.03492 8.99109C3.01804 8.97422 3.00492 8.95734 2.98992 8.94047L2.89991 8.83734C2.86991 8.80171 2.84366 8.76609 2.81554 8.73046L2.77429 8.67796C2.76116 8.66108 2.74803 8.64233 2.73491 8.62358L2.65616 8.51295C2.62991 8.47545 2.6074 8.43608 2.58115 8.39857L2.54365 8.34045C2.53053 8.3217 2.52115 8.30107 2.5099 8.28232L2.4424 8.16419C2.42177 8.12481 2.40115 8.08544 2.3824 8.04606L2.35052 7.98606C2.33927 7.96543 2.33177 7.94481 2.32239 7.92418L2.26614 7.80043C2.24739 7.75918 2.23239 7.71605 2.21552 7.67292L2.19114 7.60917C2.18176 7.58854 2.17614 7.56604 2.16864 7.54542L2.12551 7.41979C2.11801 7.39916 2.11239 7.37666 2.10676 7.35416L2.08801 7.28853C2.07676 7.24541 2.06176 7.20041 2.05238 7.15728L2.02238 7.02415C2.01676 7.00165 2.01301 6.97915 2.00926 6.95665L1.99801 6.88915L1.98676 6.82352L1.98113 6.79164L1.97738 6.75789C1.96613 6.66789 1.95301 6.57789 1.94738 6.48601C1.94363 6.44101 1.93988 6.396 1.93801 6.34913L1.93426 6.21225L1.93238 6.14662L1.93426 6.08099L1.93801 5.94411C1.93988 5.89911 1.94551 5.85223 1.94738 5.80723C1.95113 5.71535 1.96613 5.62535 1.97738 5.53535L1.98113 5.5016L1.98676 5.46972L1.99801 5.40409L2.00926 5.33659C2.01301 5.31409 2.01676 5.29159 2.02238 5.26909L2.05238 5.13596C2.06176 5.09096 2.07489 5.04783 2.08801 5.0047L2.10676 4.93908C2.11239 4.91658 2.11801 4.89595 2.12551 4.87345L2.16864 4.74782C2.17614 4.7272 2.18176 4.70469 2.19114 4.68407L2.21552 4.62032C2.23239 4.57719 2.24739 4.53594 2.26614 4.49281L2.32239 4.36906C2.33177 4.34843 2.34114 4.32781 2.35052 4.30718L2.3824 4.24718C2.40302 4.2078 2.42177 4.16843 2.4424 4.12905L2.5099 4.01092C2.52115 3.99217 2.5324 3.97154 2.54365 3.95279L2.58115 3.89467C2.60553 3.85716 2.62991 3.81779 2.65616 3.78029L2.73491 3.66966C2.74803 3.65091 2.75928 3.63403 2.77429 3.61528L2.81554 3.56278C2.84366 3.52715 2.87179 3.49153 2.89991 3.4559L2.98992 3.35277C3.00492 3.3359 3.01992 3.31715 3.03492 3.30215L3.0818 3.25339C3.11367 3.22152 3.14367 3.18589 3.17742 3.15402L3.27305 3.06214C3.30493 3.03026 3.34055 3.00026 3.37431 2.97026L3.42681 2.92526C3.44368 2.91026 3.46056 2.89526 3.47931 2.88026C3.55056 2.824 3.62181 2.76588 3.69682 2.71525L3.75119 2.67587C3.76995 2.66275 3.78682 2.64962 3.80557 2.63837C3.88245 2.58962 3.95745 2.53899 4.03808 2.49399L4.09808 2.46024C4.11871 2.44899 4.13746 2.43774 4.15808 2.42649L4.27996 2.36461C4.31934 2.34399 4.35872 2.32711 4.39997 2.30836L4.46184 2.28023C4.48247 2.27086 4.5031 2.26148 4.52372 2.25211L4.65123 2.20148C4.69248 2.18461 4.73748 2.16961 4.78061 2.1546C4.82373 2.1396 4.86686 2.1246 4.90998 2.11148L5.03749 2.07585C5.05999 2.07023 5.08062 2.06273 5.10312 2.0571L5.17062 2.0421C5.21562 2.03273 5.25875 2.02148 5.30375 2.0121L5.43875 1.98772L5.50626 1.97647L5.57376 1.9671L5.70501 1.95022C5.75001 1.94647 5.79502 1.94272 5.84189 1.93897C5.88689 1.93522 5.9319 1.93147 5.97877 1.93147L6.11565 1.92772H6.14753H6.18128L6.31816 1.93147C6.36316 1.93147 6.41004 1.9371 6.45504 1.93897C6.50004 1.94272 6.54692 1.9446 6.59192 1.95022L6.72317 1.9671L6.79068 1.97647L6.85818 1.98772L6.99318 2.0121C7.03818 2.02148 7.08131 2.03273 7.12631 2.0421L7.19381 2.0571C7.21632 2.06273 7.23694 2.07023 7.25944 2.07585L7.38695 2.11148C7.43007 2.1246 7.4732 2.1396 7.51633 2.1546C7.55945 2.16961 7.60258 2.18273 7.64571 2.20148L7.77321 2.25211C7.79383 2.25961 7.81446 2.27086 7.83509 2.28023L7.89696 2.30836C7.93634 2.32711 7.97759 2.34399 8.01697 2.36461L8.13885 2.42649C8.15947 2.43586 8.17822 2.44899 8.19885 2.46024L8.25885 2.49399C8.33948 2.53712 8.41448 2.58962 8.49136 2.63837C8.51011 2.64962 8.52699 2.66275 8.54574 2.67587L8.60011 2.71525C8.67512 2.76588 8.74637 2.82588 8.81762 2.88026C8.83637 2.89338 8.85325 2.91026 8.87012 2.92526L8.92263 2.97026C8.95638 3.00026 8.992 3.03026 9.02388 3.06214L9.11951 3.15402C9.15138 3.18589 9.18326 3.21964 9.21514 3.25339L9.26201 3.30215C9.27889 3.31902 9.29201 3.3359 9.30701 3.35277L9.39702 3.4559C9.42702 3.49153 9.45327 3.52715 9.48139 3.56278L9.52265 3.61528C9.53577 3.63216 9.5489 3.65091 9.56202 3.66966L9.64078 3.78029C9.66703 3.81779 9.68953 3.85716 9.71578 3.89467L9.75328 3.95279C9.7664 3.97154 9.77578 3.99217 9.78703 4.01092L9.85453 4.12905C9.87516 4.16843 9.89578 4.2078 9.91453 4.24718L9.94641 4.30718C9.95766 4.32781 9.96516 4.34843 9.97454 4.36906L10.0308 4.49281C10.0495 4.53406 10.0645 4.57719 10.0814 4.62032L10.1058 4.68407C10.1152 4.70469 10.1208 4.7272 10.1283 4.74782L10.1714 4.87345C10.1789 4.89408 10.1845 4.91658 10.1902 4.93908L10.2089 5.0047C10.2202 5.04783 10.2352 5.09283 10.2445 5.13596L10.2745 5.26909C10.2802 5.29159 10.2839 5.31409 10.2877 5.33659L10.2989 5.40409L10.3102 5.46972L10.3158 5.5016L10.3195 5.53535C10.3308 5.62535 10.3439 5.71535 10.3495 5.80723C10.3533 5.85223 10.357 5.89724 10.3589 5.94411L10.3627 6.08099L10.3645 6.14662L10.3627 6.21225L10.3589 6.34913C10.357 6.39413 10.3514 6.44101 10.3495 6.48601C10.3458 6.57789 10.3308 6.66789 10.3195 6.75789L10.3158 6.79164L10.3102 6.82352L10.2989 6.88915L10.2877 6.95665C10.2839 6.97915 10.2802 7.00165 10.2745 7.02415L10.2445 7.15728C10.2352 7.20228 10.222 7.24541 10.2089 7.28853L10.1902 7.35416C10.1845 7.37666 10.1789 7.39729 10.1714 7.41979L10.1283 7.54542C10.1208 7.56604 10.1152 7.58854 10.1058 7.60917L10.0814 7.67292C10.0645 7.71605 10.0495 7.7573 10.0308 7.80043L9.97454 7.92418C9.96516 7.94481 9.95579 7.96543 9.94641 7.98606L9.91453 8.04606C9.89391 8.08544 9.87516 8.12481 9.85453 8.16419L9.78703 8.28232C9.77578 8.30107 9.76453 8.3217 9.75328 8.34045L9.71578 8.39857C9.6914 8.43608 9.66703 8.47545 9.64078 8.51295L9.56202 8.62358C9.5489 8.64233 9.53765 8.65921 9.52265 8.67796L9.48139 8.73046C9.45327 8.76609 9.42514 8.80171 9.39702 8.83734L9.30701 8.94047C9.29201 8.95734 9.27701 8.97609 9.26201 8.99109L9.21514 9.03985C9.18326 9.07172 9.15326 9.10735 9.11951 9.13922L9.02388 9.2311C8.992 9.26298 8.95638 9.29298 8.92263 9.32298L8.87012 9.36798C8.85325 9.38298 8.83637 9.39798 8.81762 9.41298C8.74637 9.46924 8.67512 9.52736 8.60011 9.57799L8.54574 9.61737C8.52699 9.63049 8.51011 9.64362 8.49136 9.65487C8.41448 9.70362 8.33948 9.75425 8.25885 9.79925L8.19885 9.833C8.17822 9.84425 8.15947 9.8555 8.13885 9.86675L8.01697 9.92863C7.97759 9.94925 7.93822 9.96613 7.89696 9.98488L7.83509 10.013C7.81446 10.0224 7.79383 10.0318 7.77321 10.0411L7.64571 10.0918C7.60445 10.1086 7.55945 10.1236 7.51633 10.1386C7.4732 10.1536 7.43007 10.1686 7.38695 10.1818L7.25944 10.2174C7.23694 10.223 7.21632 10.2305 7.19381 10.2361L7.12631 10.2511C7.08131 10.2605 7.03818 10.2718 6.99318 10.2811L6.85818 10.3055L6.79068 10.3168L6.72317 10.3261L6.59192 10.343Z" fill="#E9993E"/>
<path d="M7.04493 0.673688L7.02148 0.806641L7.15444 0.830091L7.17789 0.697138L7.04493 0.673688Z" fill="#E9993E"/>
<path d="M7.15011 0.0827479L7.07031 0.535156L7.20327 0.558607L7.28306 0.106198L7.15011 0.0827479Z" fill="#E9993E"/>
<path d="M7.98367 0.911223L7.9375 1.03809L8.06436 1.08426L8.11054 0.957394L7.98367 0.911223Z" fill="#E9993E"/>
<path d="M8.18836 0.348095L8.03125 0.779785L8.15811 0.825957L8.31523 0.394267L8.18836 0.348095Z" fill="#E9993E"/>
<path d="M8.86633 1.31155L8.79883 1.42847L8.91574 1.49597L8.98324 1.37905L8.86633 1.31155Z" fill="#E9993E"/>
<path d="M9.16524 0.790156L8.93555 1.18799L9.05246 1.25549L9.28216 0.857658L9.16524 0.790156Z" fill="#E9993E"/>
<path d="M9.66491 1.85557L9.57812 1.95898L9.68154 2.04577L9.76832 1.94235L9.66491 1.85557Z" fill="#E9993E"/>
<path d="M10.0512 1.39518L9.75586 1.74707L9.85927 1.83385L10.1546 1.48196L10.0512 1.39518Z" fill="#E9993E"/>
<path d="M10.3593 2.53065L10.2559 2.61743L10.3426 2.72086L10.4461 2.63408L10.3593 2.53065Z" fill="#E9993E"/>
<path d="M10.8187 2.1444L10.4668 2.4397L10.5536 2.54312L10.9055 2.24783L10.8187 2.1444Z" fill="#E9993E"/>
<path d="M10.9255 3.31629L10.8086 3.38379L10.8761 3.50072L10.993 3.43321L10.9255 3.31629Z" fill="#E9993E"/>
<path d="M11.4428 3.0164L11.0449 3.24609L11.1124 3.36301L11.5103 3.13331L11.4428 3.0164Z" fill="#E9993E"/>
<path d="M11.3437 4.18894L11.2168 4.23511L11.263 4.36197L11.3898 4.3158L11.3437 4.18894Z" fill="#E9993E"/>
<path d="M11.9063 3.98376L11.4746 4.14087L11.5208 4.26773L11.9525 4.11062L11.9063 3.98376Z" fill="#E9993E"/>
<path d="M11.6017 5.11888L11.4688 5.14233L11.4922 5.27529L11.6252 5.25184L11.6017 5.11888Z" fill="#E9993E"/>
<path d="M12.1946 5.0162L11.7422 5.09595L11.7656 5.2289L12.218 5.14915L12.1946 5.0162Z" fill="#E9993E"/>
<path d="M11.6975 6.08301H11.5625V6.21801H11.6975V6.08301Z" fill="#E9993E"/>
<path d="M12.3012 6.08301H11.8418V6.21801H12.3012V6.08301Z" fill="#E9993E"/>
<path d="M11.4981 7.02525L11.4746 7.1582L11.6076 7.18165L11.631 7.0487L11.4981 7.02525Z" fill="#E9993E"/>
<path d="M11.7656 7.07237L11.7422 7.20532L12.1946 7.28507L12.218 7.15212L11.7656 7.07237Z" fill="#E9993E"/>
<path d="M11.263 7.93857L11.2168 8.06543L11.3437 8.1116L11.3898 7.98474L11.263 7.93857Z" fill="#E9993E"/>
<path d="M11.5208 8.03256L11.4746 8.15942L11.9063 8.31654L11.9525 8.18967L11.5208 8.03256Z" fill="#E9993E"/>
<path d="M10.8722 8.79983L10.8047 8.91675L10.9216 8.98425L10.9891 8.86734L10.8722 8.79983Z" fill="#E9993E"/>
<path d="M11.1105 8.93802L11.043 9.05493L11.4408 9.28463L11.5083 9.16771L11.1105 8.93802Z" fill="#E9993E"/>
<path d="M10.3426 9.57919L10.2559 9.68262L10.3593 9.7694L10.4461 9.66597L10.3426 9.57919Z" fill="#E9993E"/>
<path d="M10.5536 9.75791L10.4668 9.86133L10.8187 10.1566L10.9055 10.0532L10.5536 9.75791Z" fill="#E9993E"/>
<path d="M9.68351 10.2555L9.58008 10.3423L9.66686 10.4457L9.77029 10.3589L9.68351 10.2555Z" fill="#E9993E"/>
<path d="M9.85732 10.4657L9.75391 10.5525L10.0492 10.9044L10.1526 10.8176L9.85732 10.4657Z" fill="#E9993E"/>
<path d="M8.91184 10.8063L8.79492 10.8738L8.86242 10.9907L8.97934 10.9232L8.91184 10.8063Z" fill="#E9993E"/>
<path d="M9.05246 11.0448L8.93555 11.1123L9.16524 11.5101L9.28216 11.4426L9.05246 11.0448Z" fill="#E9993E"/>
<path d="M8.06436 11.2153L7.9375 11.2615L7.98367 11.3883L8.11053 11.3422L8.06436 11.2153Z" fill="#E9993E"/>
<path d="M8.15811 11.4756L8.03125 11.5217L8.18836 11.9534L8.31522 11.9072L8.15811 11.4756Z" fill="#E9993E"/>
<path d="M7.15444 11.4702L7.02148 11.4937L7.04493 11.6266L7.17789 11.6032L7.15444 11.4702Z" fill="#E9993E"/>
<path d="M7.20327 11.7432L7.07031 11.7666L7.15006 12.219L7.28302 12.1956L7.20327 11.7432Z" fill="#E9993E"/>
<path d="M6.21899 11.5654H6.15336H6.15149H6.08398V11.7004H6.15149H6.15336H6.21899V11.5654Z" fill="#E9993E"/>
<path d="M6.21899 12.3005V11.8411H6.15336H6.08398V12.3005H6.15149H6.21899Z" fill="#E9993E"/>
</svg>
