<svg width="251" height="62" viewBox="0 0 251 62" fill="none" xmlns="http://www.w3.org/2000/svg">
<path d="M48.869 5.43757C48.869 5.80416 48.8079 6.17074 48.7468 6.53734C48.6857 6.90393 48.5024 7.27055 48.258 7.63714C48.0136 7.94263 47.7081 8.2481 47.3415 8.4925C46.9139 8.73689 46.4251 8.79799 45.8141 8.79799C45.2031 8.79799 44.6532 8.67579 44.2866 8.4925C43.92 8.3092 43.5534 8.00373 43.3701 7.63714C43.1868 7.27055 43.0035 6.96503 42.8813 6.53734C42.8202 6.17074 42.7592 5.80416 42.7592 5.43757V0.183105H43.6145V5.37649C43.6145 5.80418 43.6756 6.10968 43.7367 6.41517C43.7978 6.72066 43.92 6.96503 44.0422 7.14832C44.1644 7.33162 44.3477 7.51494 44.4699 7.63714C44.6532 7.75934 44.7754 7.82041 44.9587 7.88151C45.142 7.94261 45.2642 8.00372 45.4475 8.00372C45.5697 8.00372 45.753 8.00372 45.8141 8.00372C45.9363 8.00372 46.0585 8.00372 46.1807 8.00372C46.364 8.00372 46.4862 7.94261 46.6695 7.88151C46.8528 7.82041 46.9749 7.75934 47.1582 7.63714C47.3415 7.51494 47.4637 7.39272 47.5859 7.14832C47.7081 6.96503 47.8303 6.72066 47.8914 6.41517C47.9525 6.10968 48.0136 5.80418 48.0136 5.37649V0.183105H48.869V5.43757Z" fill="#E9993E"/>
<path d="M61.3944 7.33165V0.183105H62.2498V8.6147H61.15L56.1399 1.40508V8.6147H55.2845V0.183105H56.3843L61.3944 7.33165Z" fill="#E9993E"/>
<path d="M76.424 0.183105H78.8679C79.7233 0.183105 80.3954 0.366379 80.8841 0.73297C81.3729 1.09956 81.6173 1.64948 81.6173 2.44376C81.6173 3.23804 81.3729 3.78792 80.8841 4.15451C80.3954 4.52111 79.7233 4.70438 78.8679 4.70438H77.2793V8.6147H76.424V0.183105ZM77.2793 3.9101H78.6846C79.0512 3.9101 79.4178 3.849 79.6622 3.7879C79.9066 3.7268 80.151 3.6046 80.2732 3.48241C80.3954 3.36021 80.5176 3.17692 80.6397 2.99363C80.7008 2.81033 80.7619 2.62706 80.7619 2.44376C80.7619 2.26047 80.7008 2.07715 80.6397 1.89386C80.5787 1.71056 80.4564 1.58837 80.2732 1.40508C80.0899 1.28288 79.9066 1.16068 79.6622 1.09958C79.4178 1.03849 79.0512 0.97738 78.6846 0.97738H77.2793V3.9101Z" fill="#E9993E"/>
<path d="M88.4005 8.6147H87.5452V0.183105H90.1113C90.9667 0.183105 91.6388 0.366379 92.1276 0.73297C92.6163 1.09956 92.8608 1.64948 92.8608 2.44376C92.8608 3.05475 92.6775 3.54351 92.3109 3.9101C91.9443 4.33779 91.3944 4.52111 90.7223 4.58221L93.1662 8.55362H92.1276L89.8058 4.6433H88.4005V8.6147ZM88.4005 3.9101H89.928C90.2946 3.9101 90.6612 3.849 90.9056 3.7879C91.15 3.7268 91.3944 3.6046 91.5166 3.48241C91.6388 3.36021 91.761 3.17692 91.8832 2.99363C91.9443 2.81033 92.0054 2.62706 92.0054 2.44376C92.0054 2.26047 91.9443 2.07715 91.8832 1.89386C91.8221 1.71056 91.6999 1.58837 91.5166 1.40508C91.3333 1.28288 91.15 1.16068 90.9056 1.09958C90.6612 1.03849 90.2946 0.97738 89.928 0.97738H88.4005V3.9101Z" fill="#E9993E"/>
<path d="M107.096 4.39907C107.096 5.07115 106.974 5.62106 106.791 6.17094C106.608 6.72083 106.241 7.14851 105.874 7.5762C105.508 7.94279 105.019 8.24829 104.469 8.49268C103.919 8.73708 103.369 8.79818 102.697 8.79818C102.025 8.79818 101.475 8.67598 100.925 8.49268C100.376 8.24829 99.9479 7.94279 99.5202 7.5762C99.1536 7.20961 98.8481 6.72083 98.6037 6.17094C98.3593 5.62106 98.2982 5.01005 98.2982 4.39907C98.2982 3.72698 98.4204 3.17712 98.6037 2.62723C98.8481 2.07734 99.1536 1.64966 99.5202 1.22197C99.8868 0.85538 100.376 0.549887 100.925 0.305493C101.475 0.0610986 102.025 0 102.697 0C103.369 0 103.919 0.122197 104.469 0.305493C105.019 0.549887 105.447 0.85538 105.874 1.22197C106.241 1.58856 106.547 2.07734 106.791 2.62723C106.974 3.17712 107.096 3.72698 107.096 4.39907ZM106.18 4.39907C106.18 3.91028 106.119 3.4826 105.936 2.99381C105.752 2.56612 105.569 2.13845 105.263 1.83296C104.958 1.52746 104.591 1.22194 104.164 1.03865C103.736 0.85535 103.247 0.733153 102.697 0.733153C102.147 0.733153 101.659 0.85535 101.231 1.03865C100.803 1.22194 100.437 1.52746 100.131 1.83296C99.8257 2.13845 99.5813 2.56612 99.4591 2.99381C99.3369 3.4215 99.2147 3.91028 99.2147 4.39907C99.2147 4.88786 99.2758 5.31558 99.4591 5.80437C99.6424 6.23206 99.8257 6.65972 100.131 6.96522C100.437 7.27071 100.803 7.5762 101.231 7.75949C101.659 7.94279 102.147 8.06498 102.697 8.06498C103.247 8.06498 103.736 7.94279 104.164 7.75949C104.591 7.5762 104.958 7.27071 105.263 6.96522C105.569 6.65972 105.813 6.23206 105.936 5.80437C106.119 5.31558 106.18 4.88786 106.18 4.39907Z" fill="#E9993E"/>
<path d="M119.316 1.7107C119.01 1.40521 118.705 1.16081 118.277 0.977514C117.91 0.794218 117.421 0.733105 116.872 0.733105C116.322 0.733105 115.833 0.855302 115.405 1.0386C114.978 1.22189 114.611 1.52742 114.305 1.83291C114 2.1384 113.756 2.56607 113.633 2.99376C113.511 3.42145 113.389 3.91023 113.389 4.39902C113.389 4.88781 113.45 5.31553 113.633 5.80432C113.817 6.23201 114 6.65968 114.305 6.96517C114.611 7.27066 114.978 7.57615 115.405 7.75944C115.833 7.94274 116.322 8.06494 116.872 8.06494C117.299 8.06494 117.727 8.00384 118.155 7.88165C118.582 7.75945 118.888 7.63725 119.254 7.45395V4.64343H117.238V3.84916H120.11V8.00385C119.621 8.30935 119.132 8.49264 118.521 8.61484C117.91 8.73704 117.421 8.85925 116.872 8.85925C116.261 8.85925 115.65 8.73705 115.1 8.55375C114.55 8.30936 114.122 8.00387 113.694 7.63728C113.328 7.27068 113.022 6.78187 112.778 6.23198C112.534 5.68209 112.472 5.07113 112.472 4.46014C112.472 3.78806 112.595 3.23815 112.778 2.68827C113.022 2.13838 113.328 1.7107 113.694 1.28301C114.061 0.916415 114.55 0.610923 115.1 0.366528C115.65 0.122134 116.199 0.0610352 116.872 0.0610352C117.544 0.0610352 118.155 0.183232 118.643 0.366528C119.132 0.549824 119.56 0.855332 119.926 1.22192L119.316 1.7107Z" fill="#E9993E"/>
<path d="M127.503 8.6147H126.648V0.183105H129.214C130.069 0.183105 130.742 0.366379 131.23 0.73297C131.719 1.09956 131.964 1.64948 131.964 2.44376C131.964 3.05475 131.78 3.54351 131.414 3.9101C131.047 4.33779 130.497 4.52111 129.825 4.58221L132.269 8.55362H131.23L128.909 4.6433H127.503V8.6147ZM127.503 3.9101H129.031C129.397 3.9101 129.764 3.849 130.008 3.7879C130.253 3.7268 130.497 3.6046 130.619 3.48241C130.742 3.36021 130.864 3.17692 130.986 2.99363C131.047 2.81033 131.108 2.62706 131.108 2.44376C131.108 2.26047 131.047 2.07715 130.986 1.89386C130.925 1.71056 130.803 1.58837 130.619 1.40508C130.436 1.28288 130.253 1.16068 130.008 1.09958C129.764 1.03849 129.397 0.97738 129.031 0.97738H127.503V3.9101Z" fill="#E9993E"/>
<path d="M137.828 8.6147H136.851L140.517 0.183105H141.372L145.038 8.6147H144.06L143.144 6.41517H138.806L137.828 8.6147ZM139.111 5.62086H142.777L140.944 1.22179L139.111 5.62086Z" fill="#E9993E"/>
<path d="M154.57 7.02616L157.442 0.183105H158.725V8.6147H157.87V1.34396L154.815 8.6147H154.387L151.332 1.34396V8.6147H150.477V0.183105H151.76L154.57 7.02616Z" fill="#E9993E"/>
<path d="M165.201 8.6147H164.224L167.89 0.183105H168.745L172.411 8.6147H171.433L170.517 6.41517H166.118L165.201 8.6147ZM166.423 5.62086H170.089L168.256 1.22179L166.423 5.62086Z" fill="#E9993E"/>
<path d="M185.241 0.183105H188.051C188.601 0.183105 189.09 0.244182 189.64 0.427477C190.19 0.610773 190.617 0.855197 191.045 1.22179C191.473 1.58838 191.839 2.01604 192.084 2.56593C192.328 3.11582 192.45 3.7268 192.45 4.39889C192.45 5.13207 192.328 5.74306 192.084 6.23184C191.839 6.78173 191.473 7.20943 191.045 7.57602C190.617 7.94261 190.129 8.187 189.64 8.37029C189.09 8.55359 188.601 8.6147 188.051 8.6147H185.241V0.183105ZM186.096 7.82043H187.746C188.418 7.82043 188.968 7.69823 189.395 7.51494C189.884 7.33164 190.251 7.08725 190.556 6.72066C190.862 6.41517 191.106 6.04855 191.228 5.62086C191.351 5.19317 191.473 4.76549 191.473 4.3378C191.473 3.91011 191.412 3.48244 191.228 3.05475C191.106 2.62706 190.862 2.26044 190.556 1.95494C190.251 1.64945 189.823 1.40506 189.395 1.16067C188.907 0.977372 188.357 0.855175 187.746 0.855175H186.096V7.82043Z" fill="#E9993E"/>
<path d="M199.355 7.82043H203.876V8.6147H198.5V0.183105H203.754V0.97738H199.416V3.84902H203.51V4.6433H199.416V7.82043H199.355Z" fill="#E9993E"/>
<path d="M63.5316 53.0963V37.8828H49.8455V41.6709H59.7434V45.8256C58.5826 44.6648 57.1162 43.9316 54.489 43.9316C49.8455 43.9316 47.707 46.8643 47.707 50.408C47.707 53.8906 49.8455 56.8845 54.489 56.8845C57.1162 56.8845 58.6437 56.1513 59.7434 54.9904V56.8845H65.7922V53.0963H63.5316ZM55.5887 53.0963C52.8393 53.0963 51.434 52.5465 51.434 50.4691C51.434 48.3918 52.7782 47.8419 55.5887 47.8419C58.3382 47.8419 59.7434 48.3918 59.7434 50.4691C59.7434 52.5465 58.3382 53.0963 55.5887 53.0963Z" fill="#E9993E"/>
<path d="M74.896 37.8833C79.845 37.8833 82.7777 40.9382 82.7777 45.0929H78.9896C78.8674 43.1378 78.012 41.6714 75.0793 41.6714C71.5356 41.6714 70.1914 42.8323 70.1914 47.3536C70.1914 51.936 71.5356 53.0357 75.0793 53.0357C78.012 53.0357 78.8674 51.5694 78.9896 49.6142H82.7777C82.7777 53.7689 79.845 56.8239 74.896 56.8239C69.336 56.8239 66.4033 52.9136 66.4033 47.3536C66.3422 41.7936 69.2749 37.8833 74.896 37.8833Z" fill="#E9993E"/>
<path d="M94.2654 37.8832C91.6381 37.8832 89.7441 38.9219 88.5832 40.1438V32.812H84.8562V56.8849H88.6443V54.6242C89.8052 55.9073 91.6381 56.8849 94.3265 56.8849C100.497 56.8849 102.636 52.9746 102.636 47.4146C102.575 41.7935 100.436 37.8832 94.2654 37.8832ZM93.7155 53.0968C89.9885 53.0968 88.6443 51.9359 88.6443 47.4146C88.6443 42.8322 89.9885 41.7324 93.7155 41.7324C97.4425 41.7324 98.7867 42.8933 98.7867 47.4146C98.7867 51.9359 97.4425 53.0968 93.7155 53.0968Z" fill="#E9993E"/>
<path d="M116.321 32.8726H107.768V36.6607H116.321V32.8726Z" fill="#E9993E"/>
<path d="M43.0025 46.4982L36.1595 44.8485C35.5485 44.6652 35.3652 44.543 35.3652 43.9932V42.3435C35.3652 41.5492 35.9151 41.1215 36.9538 41.1215H40.3753C41.8417 41.1215 41.9639 41.9158 41.9639 42.4657V43.9932H45.752V42.7101C45.752 39.594 43.919 37.8833 40.5586 37.8833H36.7705C33.349 37.8833 31.4549 39.533 31.4549 42.4657V44.2987C31.4549 46.1927 32.4325 47.4147 34.3876 47.9034L41.3529 49.6142C41.9639 49.7975 42.1472 50.0419 42.1472 50.5307V52.3636C42.1472 52.9746 41.9639 53.6467 40.5586 53.6467H36.7094C35.243 53.6467 35.1208 52.8524 35.1208 52.3026V50.4696H31.2716V52.0581C31.2716 55.1131 33.1657 56.8849 36.5261 56.8849H40.7419C44.2245 56.8849 46.0575 55.2964 46.0575 52.3026V50.0419C46.1186 48.2089 45.0188 46.987 43.0025 46.4982Z" fill="#E9993E"/>
<path d="M119.376 48.5756V43.1988C119.376 39.7773 117.482 37.8833 114.122 37.8833H109.906C106.484 37.8833 104.59 39.7773 104.59 43.1988V51.5694C104.59 54.9909 106.484 56.8849 109.906 56.8849H114.122C117.482 56.8849 119.376 55.052 119.376 51.6916V50.4696H115.527V51.936C115.527 53.0358 115.038 53.5245 113.877 53.5245H110.089C108.989 53.5245 108.439 52.9747 108.439 51.936V48.5144H119.376V48.5756ZM108.562 42.7712C108.562 41.6714 109.112 41.1826 110.211 41.1826H113.999C115.099 41.1826 115.649 41.6714 115.649 42.7712V45.3373H108.623V42.7712H108.562Z" fill="#E9993E"/>
<path d="M25.3465 51.9965C21.6194 51.4466 17.3425 50.469 12.8823 48.8805C14.6542 52.302 16.5483 55.5402 18.5645 58.5341C17.2203 59.145 15.8151 59.5116 14.2876 59.6338C12.3325 56.64 10.5606 53.524 8.84984 50.1635C7.93336 52.913 7.38347 55.6013 7.01688 58.2286C5.55051 57.4954 4.26743 56.5178 3.22876 55.3569C3.77864 52.302 4.63402 49.1859 5.91709 45.9477C3.96194 44.9701 2.06788 43.8704 0.173828 42.6484C0.54042 41.2432 1.1514 39.9601 1.94568 38.7992C2.80106 39.3491 3.65645 39.899 4.51183 40.4488C4.08414 39.3491 3.65645 38.2493 3.22876 37.1495C4.20633 36.0498 5.36722 35.1333 6.71138 34.4612C7.38347 36.2942 8.05555 38.1271 8.78873 39.899C10.0107 37.5772 11.4771 35.1944 13.2489 32.8115C13.4322 32.8115 13.5544 32.8115 13.7377 32.8115C15.2041 32.8726 16.5482 33.1781 17.8313 33.6058C16.1206 35.9276 14.5931 38.1882 13.31 40.3878L22.1693 36.1719C23.2691 37.1495 24.1856 38.2493 24.8577 39.4713L13.8599 44.7257C18.4423 46.3754 22.8414 47.353 26.5684 47.9029C26.324 49.3692 25.9574 50.7745 25.3465 51.9965Z" fill="#E9993E"/>
<path d="M198.255 42.6487C198.255 42.6487 197.339 44.2983 195.139 44.2983C192.695 44.2983 191.107 42.7709 191.107 40.0825C191.107 37.3942 192.512 35.8667 194.895 35.8667C198.011 35.8667 198.317 38.4329 198.317 38.9827L196.3 39.2882C196.3 39.2882 196.3 37.7608 194.895 37.7608C193.917 37.7608 193.306 38.5551 193.306 40.0825C193.306 41.61 194.223 42.4043 195.201 42.4043C196.239 42.4043 196.972 41.3656 196.972 41.3656L198.255 42.6487Z" fill="#E9993E"/>
<path d="M204 44.1761V41.1212H201.434V44.1761H199.295V35.8667H201.434V39.4104H204V35.8667H206.138V44.1761H204Z" fill="#E9993E"/>
<path d="M207.666 44.1761V35.8667H209.805V44.1761H207.666Z" fill="#E9993E"/>
<path d="M218.113 42.6487C218.113 42.6487 217.196 44.2983 214.997 44.2983C212.553 44.2983 210.964 42.7709 210.964 40.0825C210.964 37.3942 212.37 35.8667 214.752 35.8667C217.868 35.8667 218.174 38.4329 218.174 38.9827L216.158 39.2882C216.158 39.2882 216.158 37.7608 214.752 37.7608C213.775 37.7608 213.164 38.5551 213.164 40.0825C213.164 41.61 214.08 42.4043 215.058 42.4043C216.097 42.4043 216.891 41.3656 216.891 41.3656L218.113 42.6487Z" fill="#E9993E"/>
<path d="M223.856 42.3432H221.229L220.618 44.1761H218.357L221.412 35.8667H223.612L226.667 44.1761H224.406L223.856 42.3432ZM221.779 40.7546H223.367L222.573 38.3106L221.779 40.7546Z" fill="#E9993E"/>
<path d="M232.043 44.1761L229.599 39.9603V44.1761H227.461V35.8667H229.599L232.043 40.3269V35.8667H234.181V44.1761H232.043Z" fill="#E9993E"/>
<path d="M235.343 40.022C235.343 37.2725 236.992 35.8062 239.192 35.8062C241.392 35.8062 243.041 37.2725 243.041 40.022C243.041 42.7714 241.33 44.2378 239.192 44.2378C236.992 44.2378 235.343 42.8325 235.343 40.022ZM240.781 40.022C240.781 38.3112 240.047 37.7002 239.192 37.7002C238.275 37.7002 237.603 38.3112 237.603 40.022C237.603 41.7327 238.275 42.4048 239.192 42.4048C240.108 42.4048 240.781 41.7938 240.781 40.022Z" fill="#E9993E"/>
<path d="M248.786 38.4328C248.786 38.4328 248.297 37.5775 247.197 37.5775C246.647 37.5775 246.281 37.8219 246.281 38.1885C246.281 39.5937 250.313 38.6772 250.313 41.7933C250.313 42.9541 249.458 44.2372 247.075 44.2372C244.386 44.2372 243.531 42.4654 243.531 42.4654L244.814 41.3045C244.814 41.3045 245.67 42.5875 247.075 42.5875C247.686 42.5875 247.991 42.3432 247.991 41.9155C247.991 40.3269 243.898 41.4878 243.898 38.2496C243.898 36.9665 244.997 35.8667 247.014 35.8667C249.641 35.8667 250.252 37.5775 250.252 37.5775L248.786 38.4328Z" fill="#E9993E"/>
<path d="M219.395 52.5471C219.395 52.5471 218.478 54.1967 216.279 54.1967C213.835 54.1967 212.246 52.6693 212.246 49.981C212.246 47.2926 213.652 45.7651 216.034 45.7651C219.15 45.7651 219.456 48.3313 219.456 48.8812L217.44 49.1867C217.44 49.1867 217.44 47.6592 216.034 47.6592C215.057 47.6592 214.446 48.4535 214.446 49.981C214.446 51.5084 215.362 52.3027 216.34 52.3027C217.379 52.3027 218.173 51.264 218.173 51.264L219.395 52.5471Z" fill="#E9993E"/>
<path d="M225.139 52.2416H222.512L221.901 54.0746H219.641L222.696 45.7651H224.895L227.95 54.0746H225.689L225.139 52.2416ZM223.062 50.653H224.651L223.856 48.2091L223.062 50.653Z" fill="#E9993E"/>
<path d="M232.776 45.8257H234.915V50.6525C234.915 53.2797 233.387 54.1962 231.616 54.1962C229.844 54.1962 228.255 53.3408 228.255 50.6525V45.8257H230.394V50.8357C230.394 51.5078 230.577 52.241 231.554 52.241C232.532 52.241 232.715 51.5078 232.715 50.8357V45.8257H232.776Z" fill="#E9993E"/>
<path d="M241.024 48.3918C241.024 48.3918 240.535 47.5364 239.436 47.5364C238.886 47.5364 238.519 47.7808 238.519 48.1474C238.519 49.5527 242.552 48.6362 242.552 51.7522C242.552 52.9131 241.696 54.1962 239.313 54.1962C236.625 54.1962 235.77 52.4243 235.77 52.4243L237.053 51.2634C237.053 51.2634 237.908 52.5465 239.313 52.5465C239.924 52.5465 240.23 52.3021 240.23 51.8744C240.23 50.2859 236.136 51.4467 236.136 48.2085C236.136 46.9254 237.236 45.8257 239.252 45.8257C241.88 45.8257 242.491 47.5364 242.491 47.5364L241.024 48.3918Z" fill="#E9993E"/>
<path d="M248.173 52.2416H245.546L244.935 54.0746H242.674L245.729 45.7651H247.929L250.984 54.0746H248.723L248.173 52.2416ZM246.096 50.653H247.684L246.89 48.2091L246.096 50.653Z" fill="#E9993E"/>
<path d="M192.818 50.4081V46.7422H194.163C195.079 46.7422 195.69 47.1699 195.69 48.0252C195.69 48.8806 195.018 49.3083 194.285 49.3083H193.735V50.4081H192.818ZM194.101 48.5751C194.468 48.5751 194.712 48.3918 194.712 48.0252C194.712 47.7198 194.529 47.4753 194.04 47.4753H193.735V48.5751H194.101Z" fill="#E9993E"/>
<path d="M195.874 48.5751C195.874 47.3532 196.607 46.7422 197.584 46.7422C198.562 46.7422 199.295 47.3532 199.295 48.5751C199.295 49.7971 198.562 50.4081 197.584 50.4081C196.607 50.4081 195.874 49.7971 195.874 48.5751ZM198.256 48.5751C198.256 47.842 197.951 47.5365 197.523 47.5365C197.157 47.5365 196.79 47.7809 196.79 48.5751C196.79 49.3694 197.096 49.6138 197.523 49.6138C197.951 49.6138 198.256 49.3694 198.256 48.5751Z" fill="#E9993E"/>
<path d="M202.656 50.4081C202.656 50.4081 202.533 50.4691 202.167 50.4691C200.945 50.4691 201.373 49.1861 200.639 49.1861H200.456V50.4691H199.479V46.8032H200.823C201.8 46.8032 202.289 47.1087 202.289 48.0252C202.289 48.5751 201.922 48.8195 201.739 48.9417C202.045 49.3083 201.984 49.7359 202.411 49.7359H202.595V50.4081H202.656ZM200.823 48.4529C201.189 48.4529 201.495 48.2696 201.495 47.9641C201.495 47.6586 201.25 47.4753 200.884 47.4753H200.517V48.3918H200.823V48.4529Z" fill="#E9993E"/>
<path d="M204.122 50.4081V46.7422H205.1V49.6138H206.566V50.347H204.122V50.4081Z" fill="#E9993E"/>
<path d="M209.131 49.5523H207.971L207.726 50.3466H206.749L208.093 46.6807H209.07L210.415 50.3466H209.437L209.131 49.5523ZM208.215 48.8802H208.887L208.52 47.8416L208.215 48.8802Z" fill="#E9993E"/>
<path d="M210.476 51.6304H192.818V52.7912H210.476V51.6304Z" fill="#E9993E"/>
<path d="M188.42 42.5875C188.42 40.3269 188.298 38.555 187.993 37.0886C187.626 35.3168 186.954 33.8504 185.854 32.6285C185.61 32.3841 185.427 32.1397 185.182 31.8953C183.777 30.5511 182.249 29.7568 180.233 29.3292C179.011 29.0848 177.606 28.9626 176.017 28.9015C175.162 28.9015 174.246 28.8403 173.329 28.8403C173.024 28.8403 172.718 28.8403 172.413 28.8403C172.107 28.8403 171.802 28.8403 171.496 28.8403C170.519 28.8403 169.602 28.8404 168.808 28.9015C167.219 28.9626 165.814 29.0237 164.592 29.3292C162.576 29.7568 160.987 30.5511 159.643 31.8953C159.399 32.1397 159.154 32.3841 158.971 32.6285C157.871 33.8504 157.199 35.3168 156.832 37.0886C156.527 38.555 156.405 40.388 156.405 42.5875C156.405 43.3818 156.405 47.9031 156.405 48.6363C156.466 50.286 156.527 51.7523 156.832 52.9743C157.26 54.9905 158.054 56.5791 159.399 57.9844C159.826 58.4121 160.315 58.8398 160.804 59.1453C161.904 59.9395 163.126 60.4894 164.592 60.7949C165.936 61.1004 167.525 61.2226 169.358 61.2226C170.091 61.2226 170.885 61.2226 171.74 61.2226C171.985 61.2226 172.229 61.2226 172.535 61.2226C172.779 61.2226 173.085 61.2226 173.329 61.2226C174.184 61.2226 174.918 61.2226 175.712 61.2226C177.545 61.1615 179.133 61.1004 180.478 60.7949C181.944 60.4894 183.166 59.9395 184.266 59.1453C184.754 58.7787 185.243 58.4121 185.671 57.9844C187.015 56.6402 187.871 55.0516 188.237 52.9743C188.482 51.7523 188.604 50.286 188.665 48.6363C188.42 47.9031 188.42 43.3207 188.42 42.5875ZM159.582 33.1784C159.643 33.1173 159.765 32.995 159.826 32.9339L159.948 32.8117C160.01 32.7506 160.01 32.7507 160.071 32.6896C160.254 32.5063 160.376 32.3841 160.559 32.2008C160.621 32.1397 160.682 32.1397 160.743 32.2008L162.27 34.0337C162.331 34.0948 162.331 34.1559 162.27 34.1559C162.148 34.2781 162.026 34.4003 161.904 34.5225C161.842 34.5225 161.843 34.5836 161.781 34.5836L161.72 34.6447C161.659 34.7058 161.598 34.7669 161.537 34.828C161.293 35.0724 161.109 35.3168 160.926 35.6223C160.926 35.6834 160.865 35.6834 160.804 35.6223L158.788 34.4003C158.726 34.4003 158.726 34.2781 158.788 34.217C158.971 33.9115 159.276 33.5449 159.582 33.1784ZM164.592 32.8117C164.592 32.8728 164.592 32.9339 164.531 32.9339C163.859 33.1172 163.248 33.4227 162.698 33.7893C162.637 33.7893 162.576 33.7893 162.576 33.7282L161.232 31.8342C161.17 31.7731 161.232 31.712 161.293 31.712C161.659 31.4676 162.087 31.2232 162.515 30.9788C162.942 30.7955 163.37 30.6122 163.798 30.49C163.859 30.49 163.92 30.49 163.92 30.5511L164.592 32.8117ZM164.531 30.2456C164.959 30.1234 165.386 30.0623 165.814 30.0012C166.242 29.9401 166.669 29.879 167.097 29.879C167.158 29.879 167.219 29.9401 167.219 29.9401L167.402 32.323C167.402 32.3841 167.341 32.4452 167.341 32.4452C166.975 32.5063 166.608 32.5063 166.242 32.5674C165.875 32.6285 165.508 32.6896 165.203 32.7507C165.142 32.7507 165.081 32.7507 165.081 32.6896L164.47 30.3678C164.47 30.3067 164.47 30.2456 164.531 30.2456ZM160.559 36.05C160.621 36.05 160.621 36.1111 160.621 36.1722C160.498 36.4777 160.376 36.7831 160.254 37.0886L160.193 37.3331L160.132 37.5775C160.071 37.7608 160.071 37.944 160.01 38.1273C160.01 38.1884 159.948 38.1884 159.887 38.1884L157.566 37.7607C157.505 37.7607 157.505 37.6996 157.505 37.6385C157.566 37.3942 157.566 37.2109 157.627 36.9665L157.688 36.661L157.81 36.3555C157.932 35.9278 158.116 35.5001 158.299 35.0724C158.299 35.0113 158.421 35.0113 158.421 35.0113L160.559 36.05ZM159.765 38.7383C159.826 38.7383 159.887 38.7994 159.826 38.8605C159.826 39.0438 159.765 39.2271 159.765 39.4104C159.765 39.5937 159.704 39.777 159.704 39.9603C159.643 40.3269 159.643 40.7546 159.643 41.1212C159.643 41.1823 159.582 41.2434 159.521 41.2434L157.138 41.1823C157.077 41.1823 157.016 41.1211 157.016 41.0601C157.016 40.6324 157.077 40.2047 157.077 39.777C157.077 39.5937 157.138 39.3493 157.138 39.166C157.138 38.9216 157.199 38.7383 157.199 38.4939C157.199 38.4328 157.26 38.3717 157.321 38.3717L159.765 38.7383ZM159.643 41.61V48.453H157.138V41.61H159.643ZM157.321 51.5079C157.26 51.2635 157.26 51.0802 157.26 50.8358C157.26 50.6525 157.199 50.4081 157.199 50.2248C157.138 49.7971 157.138 49.3695 157.138 48.9418C157.138 48.8807 157.199 48.8196 157.26 48.8196L159.643 48.7585C159.704 48.7585 159.765 48.8196 159.765 48.8807C159.765 49.2473 159.826 49.675 159.826 50.0416C159.826 50.2248 159.887 50.4082 159.887 50.5915C159.887 50.7747 159.948 50.958 159.948 51.1413C159.948 51.2024 159.887 51.2635 159.887 51.2635L157.566 51.6301C157.382 51.6301 157.321 51.569 157.321 51.5079ZM157.566 52.18L159.887 51.7523C159.948 51.7523 160.01 51.7523 160.01 51.8134C160.071 51.9967 160.071 52.18 160.132 52.3633L160.193 52.6077L160.254 52.8521C160.376 53.1576 160.498 53.4631 160.621 53.7686C160.621 53.8297 160.621 53.8908 160.559 53.8908L158.421 54.9906C158.36 54.9906 158.299 54.9905 158.299 54.9294C158.116 54.5017 157.932 54.0741 157.81 53.6464L157.688 53.3409L157.627 53.0354C157.566 52.791 157.505 52.6077 157.505 52.3633C157.443 52.2411 157.505 52.18 157.566 52.18ZM158.727 55.5404L160.743 54.3185C160.804 54.3185 160.865 54.3185 160.865 54.3185C161.048 54.6239 161.232 54.8683 161.476 55.1127C161.537 55.1738 161.598 55.235 161.659 55.2961L161.72 55.3571C161.72 55.3571 161.781 55.4182 161.843 55.4182C161.965 55.5404 162.087 55.6626 162.209 55.7848C162.27 55.8459 162.27 55.8459 162.209 55.907L160.682 57.74C160.621 57.8011 160.559 57.8011 160.498 57.74C160.315 57.6178 160.132 57.4345 160.01 57.2512C159.948 57.1901 159.948 57.1901 159.887 57.129L159.765 57.0068C159.704 56.9457 159.582 56.8235 159.521 56.7624C159.215 56.3958 158.91 56.0292 158.665 55.6015C158.665 55.6015 158.727 55.5404 158.727 55.5404ZM162.576 56.2125C162.637 56.1514 162.637 56.1514 162.698 56.1514C163.248 56.518 163.859 56.8235 164.531 57.0068C164.592 57.0068 164.592 57.0679 164.592 57.129L163.92 59.3896C163.92 59.4507 163.859 59.4507 163.798 59.4507C163.37 59.3286 162.942 59.1453 162.515 58.962C162.087 58.7787 161.659 58.5343 161.293 58.2288C161.232 58.1677 161.232 58.1066 161.232 58.1066L162.576 56.2125ZM164.531 59.7562C164.47 59.7562 164.409 59.6951 164.47 59.634L165.081 57.3123C165.081 57.2512 165.142 57.2512 165.203 57.2512C165.57 57.3123 165.875 57.4345 166.242 57.4345C166.608 57.4956 166.975 57.5567 167.341 57.5567C167.402 57.5567 167.464 57.6178 167.402 57.6789L167.219 60.0617C167.219 60.1228 167.158 60.1839 167.097 60.1228C166.669 60.0617 166.242 60.0617 165.814 60.0006C165.386 59.9395 164.959 59.8173 164.531 59.7562ZM166.547 52.0578C164.164 51.9967 162.148 49.9805 162.148 47.6587C162.087 45.2148 164.042 43.1985 166.486 43.1374C166.547 43.1374 166.608 43.1985 166.608 43.2596V44.7871C166.608 44.8482 166.547 44.9093 166.486 44.9093C165.02 44.9704 163.859 46.2534 163.92 47.7198C163.981 49.1251 165.081 50.2249 166.486 50.286C168.013 50.3471 169.235 49.1862 169.297 47.7198C169.297 47.6587 169.358 47.5976 169.419 47.5976H171.007C171.068 47.5976 171.13 47.6587 171.13 47.7198C171.007 50.1638 168.991 52.1189 166.547 52.0578ZM172.901 37.3331C171.924 37.3331 171.068 38.1273 171.068 39.166V46.8033C171.068 46.8644 171.007 46.9866 170.885 46.9866H169.419C169.358 46.9866 169.235 46.9255 169.235 46.8033V39.166C169.235 37.1498 171.007 35.5001 173.024 35.6223C174.918 35.7445 176.445 37.3331 176.384 39.2882C176.323 41.2434 174.734 42.7708 172.84 42.7708H171.802C171.679 42.7708 171.618 42.7097 171.618 42.5875V41.1823C171.618 41.1212 171.679 40.999 171.802 40.999H172.901C173.94 40.999 174.795 40.3269 174.795 39.2271C174.857 38.1273 174.001 37.3331 172.901 37.3331ZM172.29 57.74C172.718 57.74 173.085 57.74 173.512 57.74C173.573 57.74 173.635 57.8011 173.635 57.8622V60.245C173.635 60.3061 173.573 60.3672 173.512 60.3672C173.085 60.3672 172.718 60.3672 172.29 60.3672H171.068C171.007 60.3672 170.946 60.3061 170.946 60.245V57.8622C170.946 57.8011 171.007 57.74 171.068 57.74H172.29ZM171.007 29.8179C171.007 29.7568 171.068 29.6957 171.13 29.6957C171.557 29.6957 171.924 29.6957 172.351 29.6957H173.573C173.635 29.6957 173.696 29.7568 173.696 29.8179V32.2008C173.696 32.2619 173.635 32.323 173.573 32.323H172.351C171.924 32.323 171.557 32.323 171.13 32.323C171.068 32.323 171.007 32.2619 171.007 32.2008V29.8179ZM174.246 32.2619C174.184 32.2619 174.123 32.2008 174.123 32.1397V29.7568C174.123 29.6957 174.184 29.6346 174.246 29.6346C175.04 29.6346 175.895 29.6957 176.751 29.6957C176.812 29.6957 176.873 29.7568 176.873 29.8179L176.689 32.2008C176.689 32.2619 176.628 32.323 176.567 32.323C175.773 32.323 175.04 32.323 174.246 32.2619ZM170.335 29.6957C170.396 29.6957 170.457 29.7568 170.457 29.8179V32.2008C170.457 32.2619 170.396 32.323 170.335 32.323C169.541 32.323 168.747 32.3841 168.013 32.3841C167.952 32.3841 167.891 32.323 167.891 32.2619L167.708 29.879C167.708 29.8179 167.769 29.7568 167.83 29.7568C168.686 29.7568 169.541 29.6957 170.335 29.6957ZM167.952 57.74C167.952 57.6789 168.013 57.6178 168.075 57.6178C168.869 57.6789 169.602 57.6789 170.396 57.6789C170.457 57.6789 170.519 57.74 170.519 57.8011V60.1839C170.519 60.245 170.457 60.3061 170.396 60.3061C169.602 60.3061 168.747 60.245 167.891 60.245C167.83 60.245 167.769 60.1839 167.769 60.1228L167.952 57.74ZM174.246 60.3061C174.184 60.3061 174.123 60.245 174.123 60.1839V57.8011C174.123 57.74 174.184 57.6789 174.246 57.6789C175.04 57.6789 175.834 57.6178 176.567 57.6178C176.628 57.6178 176.689 57.6789 176.689 57.74L176.873 60.1228C176.873 60.1839 176.812 60.245 176.751 60.245C175.895 60.245 175.101 60.245 174.246 60.3061ZM171.863 52.5466C171.802 52.5466 171.679 52.4855 171.679 52.3633V43.504C171.679 43.4429 171.741 43.3207 171.863 43.3207H173.268C173.39 43.3207 173.451 43.3818 173.451 43.504V50.5915C173.451 50.7137 173.512 50.7747 173.635 50.7747H176.812C176.934 50.7747 176.995 50.8358 176.995 50.958V52.3633C176.995 52.4855 176.934 52.5466 176.812 52.5466H171.863ZM174.062 45.8258C174.001 43.3818 175.895 41.4267 178.339 41.3045C178.461 41.3045 178.584 41.3656 178.584 41.5489V42.9541C178.584 43.0763 178.522 43.1374 178.4 43.1374C176.934 43.2596 175.834 44.4816 175.895 45.9479C175.956 47.3532 177.056 48.453 178.461 48.5141C179.989 48.5752 181.211 47.4143 181.272 45.9479C181.272 45.8868 181.333 45.8258 181.394 45.8258H182.922C182.983 45.8258 183.044 45.8868 183.044 45.9479C182.983 48.3919 180.966 50.286 178.522 50.286C176.078 50.2249 174.123 48.2697 174.062 45.8258ZM184.816 32.9339C184.877 32.995 184.999 33.1173 185.06 33.1784C185.365 33.5449 185.671 33.9115 185.915 34.3392C185.976 34.4003 185.915 34.4614 185.915 34.5225L183.899 35.7445C183.838 35.7445 183.777 35.7445 183.777 35.7445C183.594 35.439 183.41 35.1946 183.166 34.9502C183.105 34.8891 183.044 34.828 182.983 34.7669L182.922 34.7058C182.922 34.7058 182.86 34.6447 182.799 34.6447C182.677 34.5225 182.555 34.4003 182.433 34.2781C182.372 34.2781 182.372 34.217 182.433 34.1559L183.96 32.323C184.021 32.2619 184.082 32.2619 184.144 32.323C184.327 32.4452 184.51 32.6284 184.632 32.8117C184.693 32.8728 184.693 32.8728 184.754 32.9339H184.816ZM187.26 38.4328C187.321 38.6772 187.321 38.8605 187.321 39.1049C187.321 39.2882 187.382 39.5326 187.382 39.7159C187.443 40.1436 187.443 40.5713 187.443 40.999C187.443 41.0601 187.382 41.1212 187.321 41.1212L184.938 41.1823C184.877 41.1823 184.816 41.1211 184.816 41.0601C184.816 40.6935 184.754 40.2658 184.754 39.8992C184.754 39.7159 184.693 39.5326 184.693 39.3493C184.693 39.166 184.632 38.9827 184.632 38.7994C184.632 38.7383 184.632 38.6772 184.693 38.6772L187.015 38.3106C187.198 38.3717 187.26 38.3717 187.26 38.4328ZM187.443 41.61V48.453H184.938V41.61H187.443ZM187.076 37.8218L184.754 38.2495C184.693 38.2495 184.632 38.2495 184.632 38.1884C184.571 38.0052 184.571 37.8218 184.51 37.6385L184.449 37.3941L184.388 37.1498C184.266 36.8443 184.143 36.5388 184.021 36.2333C184.021 36.1722 184.021 36.1111 184.082 36.1111L186.221 35.0113C186.282 35.0113 186.343 35.0113 186.343 35.0724C186.526 35.5001 186.71 35.9278 186.893 36.3555L187.015 36.661L187.076 36.9665C187.137 37.2109 187.198 37.3942 187.198 37.6385C187.137 37.7607 187.137 37.7607 187.076 37.8218ZM183.41 31.8342L182.005 33.7893C181.944 33.8504 181.944 33.8504 181.883 33.8504C181.333 33.4838 180.722 33.1784 180.05 32.9951C179.989 32.9951 179.989 32.934 179.989 32.8729L180.661 30.6122C180.661 30.5511 180.722 30.5511 180.783 30.5511C181.211 30.6733 181.638 30.8566 182.066 31.0399C182.494 31.2232 182.922 31.4676 183.288 31.7731C183.41 31.712 183.41 31.7731 183.41 31.8342ZM180.172 30.3678L179.561 32.6896C179.561 32.7507 179.5 32.7507 179.439 32.7507C179.072 32.6896 178.767 32.5674 178.4 32.5674C178.034 32.5063 177.667 32.4452 177.3 32.4452C177.239 32.4452 177.178 32.3841 177.239 32.323L177.423 29.9401C177.423 29.879 177.484 29.8179 177.545 29.879C177.973 29.9401 178.4 29.9401 178.828 30.0012C179.256 30.0623 179.683 30.1234 180.111 30.2456C180.111 30.2456 180.172 30.3067 180.172 30.3678ZM177.239 57.5567C177.606 57.4956 177.973 57.4956 178.339 57.4345C178.706 57.3734 179.072 57.3123 179.378 57.2512C179.439 57.2512 179.5 57.2512 179.5 57.3123L180.111 59.634C180.111 59.6951 180.111 59.7562 180.05 59.7562C179.622 59.8784 179.195 59.9395 178.767 60.0006C178.339 60.0617 177.911 60.1228 177.484 60.1228C177.423 60.1228 177.362 60.0617 177.362 60.0617L177.178 57.6789C177.178 57.6178 177.239 57.5567 177.239 57.5567ZM179.989 57.1901C179.989 57.129 179.989 57.0679 180.05 57.0679C180.722 56.8846 181.333 56.5791 181.883 56.2125C181.944 56.2125 182.005 56.2125 182.005 56.2736L183.41 58.2288C183.471 58.2899 183.41 58.351 183.349 58.351C182.983 58.5954 182.555 58.8397 182.127 59.0841C181.7 59.2674 181.272 59.4508 180.844 59.573C180.783 59.573 180.722 59.5729 180.722 59.5118L179.989 57.1901ZM182.372 55.9681C182.311 55.907 182.311 55.8459 182.372 55.8459C182.494 55.7237 182.616 55.6015 182.738 55.4793C182.799 55.4793 182.799 55.4182 182.86 55.4182L182.922 55.3571C182.983 55.296 183.044 55.2349 183.105 55.1738C183.349 54.9295 183.533 54.6851 183.716 54.3796C183.716 54.3185 183.777 54.3185 183.838 54.3796L185.854 55.6015C185.915 55.6015 185.915 55.7237 185.854 55.7848C185.61 56.2125 185.304 56.5791 184.999 56.9457C184.938 57.0068 184.816 57.129 184.754 57.1901L184.632 57.3123C184.571 57.3734 184.571 57.3734 184.51 57.4345C184.327 57.6178 184.205 57.74 184.021 57.9233C183.96 57.9844 183.899 57.9844 183.838 57.9233L182.372 55.9681ZM184.021 53.8908C183.96 53.8908 183.96 53.8297 183.96 53.7686C184.082 53.4631 184.205 53.1576 184.327 52.8521L184.388 52.6077L184.449 52.3633C184.51 52.18 184.51 51.9967 184.571 51.8134C184.571 51.7523 184.632 51.7523 184.693 51.7523L187.015 52.18C187.076 52.18 187.076 52.2411 187.076 52.3022C187.015 52.5466 187.015 52.7299 186.954 52.9743L186.893 53.2798L186.771 53.5853C186.649 54.013 186.465 54.4407 186.221 54.8684C186.221 54.9295 186.099 54.9294 186.099 54.9294L184.021 53.8908ZM184.816 51.2635C184.754 51.2635 184.693 51.2024 184.754 51.1413C184.754 50.958 184.816 50.7747 184.816 50.5915C184.816 50.4082 184.877 50.2248 184.877 50.0416C184.938 49.675 184.938 49.2473 184.938 48.8807C184.938 48.8196 184.999 48.7585 185.06 48.7585L187.443 48.8196C187.504 48.8196 187.565 48.8807 187.565 48.9418C187.565 49.3695 187.504 49.7971 187.504 50.2248C187.504 50.4081 187.443 50.6525 187.443 50.8358C187.443 51.0802 187.382 51.2635 187.382 51.5079C187.382 51.569 187.321 51.6301 187.26 51.6301L184.816 51.2635Z" fill="#E9993E"/>
<path d="M159.46 53.9515C159.338 53.646 159.216 53.3405 159.155 53.035L158.849 53.0961C158.91 53.2183 158.91 53.3405 158.972 53.4016L159.033 53.5849C159.033 53.646 159.094 53.7071 159.094 53.7682L158.788 53.8904C158.666 53.5849 158.544 53.2183 158.483 52.8517L159.46 52.6073C159.583 53.035 159.705 53.4016 159.827 53.7682L160.071 53.646C159.888 53.2183 159.766 52.7295 159.644 52.2407L158.116 52.6073C158.238 53.1572 158.422 53.7071 158.666 54.257L159.46 53.9515Z" fill="#E9993E"/>
<path d="M179.011 58.1679L179.194 59.1455C179.011 59.2066 178.828 59.2066 178.706 59.2066C178.522 59.2066 178.339 59.2677 178.217 59.2677L178.156 58.9011C178.278 58.9011 178.4 58.9011 178.522 58.84C178.644 58.84 178.767 58.7789 178.889 58.7789L178.828 58.4734C178.644 58.4734 178.522 58.5345 178.339 58.5345C178.156 58.5345 178.033 58.5956 177.85 58.5956L177.972 59.5121C178.522 59.451 179.072 59.3899 179.622 59.2677L179.317 57.7402C178.828 57.8624 178.339 57.9235 177.789 57.9846L177.85 58.2901C178.156 58.2901 178.583 58.229 179.011 58.1679Z" fill="#E9993E"/>
<path d="M182.249 58.0452C181.944 58.2285 181.638 58.3507 181.271 58.5339L181.149 58.2285C181.271 58.1674 181.394 58.1673 181.455 58.1062L181.638 58.0452L181.821 57.984L181.699 57.7397C181.394 57.8619 181.088 58.0452 180.783 58.1062L181.088 58.9616L181.271 58.9005L181.455 58.8394C181.577 58.7783 181.699 58.7173 181.882 58.6562C182.127 58.534 182.432 58.4117 182.677 58.2285L181.821 56.8843C181.638 57.0065 181.394 57.1287 181.21 57.2509C181.088 57.312 180.966 57.3731 180.905 57.3731L180.722 57.4342L180.538 57.4953L180.66 57.8008C181.027 57.6786 181.394 57.4953 181.76 57.312L182.249 58.0452Z" fill="#E9993E"/>
<path d="M159.336 39.1046L159.031 39.0435C158.97 39.4712 158.97 39.8989 158.909 40.3266L157.931 40.2655V40.0211V39.7767C157.931 39.5934 157.931 39.4101 157.992 39.2879L158.359 39.349L158.298 39.7156V40.0822H158.603C158.603 39.7767 158.664 39.4101 158.725 39.1046L157.809 38.9824C157.748 39.5323 157.687 40.0822 157.687 40.6321L159.275 40.6932C159.214 40.1433 159.275 39.6545 159.336 39.1046Z" fill="#E9993E"/>
<path d="M161.11 34.5832L161.232 34.461C161.293 34.3999 161.293 34.3999 161.354 34.3388C161.415 34.2777 161.415 34.2777 161.476 34.2166C161.537 34.1555 161.537 34.1555 161.598 34.0944L161.415 33.85C161.354 33.9111 161.293 33.9722 161.171 34.0944C161.11 34.1555 161.048 34.2166 160.987 34.3388L160.865 34.461L160.743 34.5832C160.682 34.6443 160.621 34.7665 160.56 34.8276L159.765 34.2166C160.01 33.9111 160.254 33.6667 160.499 33.4223L160.743 33.6667C160.56 33.85 160.438 33.9722 160.254 34.1555L160.499 34.3388C160.682 34.0944 160.926 33.85 161.171 33.6667L160.56 32.9946C160.499 33.0557 160.438 33.1168 160.376 33.1168C160.315 33.1779 160.254 33.239 160.193 33.3001C160.132 33.3612 160.071 33.4223 160.01 33.4834L159.888 33.6667C159.704 33.9111 159.521 34.0944 159.338 34.3388L160.621 35.2552C160.804 34.9498 160.987 34.7665 161.11 34.5832Z" fill="#E9993E"/>
<path d="M162.33 31.956C162.636 31.7727 162.941 31.6505 163.308 31.4672L163.43 31.7727C163.308 31.8338 163.185 31.8338 163.124 31.8949L162.941 31.956L162.758 32.0171L162.88 32.2615C163.185 32.1393 163.491 31.956 163.796 31.8949L163.491 31.0396L163.308 31.1006L163.063 31.2228C162.941 31.2839 162.819 31.345 162.636 31.4061C162.391 31.5283 162.086 31.6505 161.841 31.8338L162.697 33.178C162.88 33.0558 163.124 32.9336 163.308 32.8114C163.43 32.7503 163.552 32.6892 163.613 32.6892L163.796 32.6281L163.98 32.567L163.858 32.2615C163.491 32.3837 163.124 32.567 162.758 32.7503L162.33 31.956Z" fill="#E9993E"/>
<path d="M174.612 58.1677V58.4732C175.039 58.4732 175.467 58.4732 175.895 58.4121L175.956 59.3896H175.467H174.978V59.0231C175.223 59.0231 175.406 59.0231 175.65 59.0231V58.7176C175.467 58.7176 175.345 58.7176 175.162 58.7176C174.978 58.7176 174.856 58.7176 174.673 58.7176V59.634C175.223 59.634 175.773 59.6341 176.322 59.573L176.261 57.9844C175.711 58.1677 175.162 58.1677 174.612 58.1677Z" fill="#E9993E"/>
<path d="M159.58 37.6994C159.702 37.2106 159.824 36.7218 160.008 36.2941L159.763 36.1719C159.58 36.5385 159.458 36.9662 159.397 37.3328L158.419 37.0884C158.48 36.7218 158.602 36.4164 158.725 36.0498L159.03 36.1719C159.03 36.233 158.969 36.2942 158.969 36.3553L158.908 36.5385C158.847 36.6607 158.847 36.7829 158.786 36.844L159.091 36.9051C159.152 36.5996 159.275 36.2941 159.397 35.9886L158.541 35.6221C158.297 36.172 158.114 36.7219 157.991 37.2717L159.58 37.6994Z" fill="#E9993E"/>
<path d="M158.726 50.9576C158.665 50.6521 158.665 50.2856 158.604 49.9801H158.298V50.3467L158.359 50.7133L157.993 50.7744C157.993 50.5911 157.932 50.4078 157.932 50.2856V50.0412V49.7968L158.909 49.7357C158.909 50.1634 158.97 50.5911 159.032 51.0188L159.337 50.9576C159.276 50.4689 159.215 49.919 159.215 49.4302L157.626 49.4913C157.626 50.0412 157.687 50.591 157.748 51.1409L158.726 50.9576Z" fill="#E9993E"/>
<path d="M160.071 56.6399C160.132 56.701 160.193 56.7621 160.254 56.8232C160.315 56.8843 160.376 56.9454 160.437 57.0065C160.499 57.0676 160.56 57.1287 160.621 57.1287L161.232 56.4566C160.987 56.2122 160.743 56.0289 160.56 55.7845L160.315 55.9678C160.437 56.1511 160.621 56.3344 160.804 56.4566L160.56 56.701C160.315 56.4566 160.071 56.2122 159.827 55.9067L160.621 55.2957C160.682 55.3568 160.743 55.479 160.804 55.5401L160.926 55.6623L161.048 55.7845C161.11 55.8456 161.171 55.9067 161.232 56.0289C161.293 56.09 161.354 56.1511 161.476 56.2733L161.659 56.0289C161.598 55.9678 161.598 55.9678 161.537 55.9067C161.476 55.8456 161.476 55.8456 161.415 55.7845C161.354 55.7234 161.354 55.7234 161.293 55.6623L161.171 55.5401C160.987 55.3568 160.865 55.1735 160.743 54.9902L159.46 55.9067C159.643 56.1511 159.827 56.3955 160.01 56.5788L160.071 56.6399Z" fill="#E9993E"/>
<path d="M163.063 58.7175L163.247 58.7786L163.43 58.8397L163.735 57.9843C163.43 57.8621 163.124 57.7399 162.819 57.6177L162.697 57.8621L162.88 57.9232L163.063 57.9843C163.185 58.0454 163.247 58.1065 163.369 58.1065L163.247 58.412C162.941 58.2898 162.574 58.1065 162.269 57.9232L162.758 57.0678C163.124 57.2511 163.491 57.4344 163.858 57.5566L163.98 57.2511L163.796 57.19L163.613 57.129C163.491 57.0679 163.369 57.0068 163.308 57.0068C163.063 56.8846 162.88 56.7623 162.697 56.6401L161.841 57.9843C162.086 58.1676 162.33 58.2898 162.636 58.412C162.819 58.5953 162.941 58.6564 163.063 58.7175Z" fill="#E9993E"/>
<path d="M166.852 58.6561C166.668 58.6561 166.546 58.595 166.363 58.595C166.179 58.595 166.057 58.5339 165.874 58.5339L165.813 58.8394C165.935 58.8394 166.057 58.9005 166.179 58.9005C166.302 58.9005 166.424 58.9616 166.546 58.9616L166.485 59.3282C166.302 59.3282 166.118 59.2671 165.996 59.2671C165.813 59.2671 165.63 59.206 165.507 59.206L165.691 58.2284C166.118 58.2895 166.546 58.3506 166.974 58.4117L167.035 58.1062C166.546 58.0451 165.996 57.984 165.507 57.8618L165.202 59.3893C165.752 59.5115 166.302 59.5726 166.852 59.6337V58.6561Z" fill="#E9993E"/>
<path d="M173.083 58.229C172.533 58.229 172.045 58.229 171.495 58.229V58.5345H172.778V59.5121H171.739V59.1455H172.411V58.84H171.434V59.7565C171.984 59.7565 172.533 59.7565 173.022 59.7565L173.083 58.229Z" fill="#E9993E"/>
<path d="M169.967 58.84C169.784 58.84 169.662 58.84 169.478 58.84C169.295 58.84 169.173 58.84 168.99 58.84V59.1455C169.234 59.1455 169.417 59.1455 169.662 59.1455V59.5121H169.173H168.684L168.745 58.5345C169.173 58.5345 169.601 58.5956 170.028 58.5956V58.2901C169.478 58.2901 168.99 58.2901 168.44 58.229L168.379 59.8176C168.928 59.8176 169.478 59.8787 170.028 59.8787L169.967 58.84Z" fill="#E9993E"/>
<path d="M185.243 50.8356L185.549 50.8967C185.61 50.469 185.61 50.0413 185.671 49.6136L186.648 49.6748V49.9191V50.1635C186.648 50.3468 186.648 50.5301 186.587 50.6523L186.221 50.5912L186.282 50.2246V49.8581H185.976C185.976 50.1635 185.915 50.5301 185.915 50.8356L186.832 50.9578C186.893 50.4079 186.954 49.858 186.954 49.3082L185.365 49.2471C185.365 49.8581 185.304 50.3468 185.243 50.8356Z" fill="#E9993E"/>
<path d="M166.912 31.9566L166.851 31.6511C166.423 31.7122 165.996 31.7733 165.568 31.8344L165.385 30.8568C165.568 30.7957 165.751 30.7957 165.873 30.7957C166.057 30.7957 166.24 30.7346 166.362 30.7346L166.423 31.1012C166.301 31.1012 166.179 31.1012 166.057 31.1623C165.935 31.1623 165.812 31.2234 165.69 31.2234L165.751 31.5289C165.935 31.5289 166.057 31.4678 166.24 31.4678C166.423 31.4678 166.545 31.4067 166.729 31.4067L166.607 30.4902C166.057 30.5513 165.507 30.6124 164.957 30.7346L165.262 32.2621C165.873 32.0788 166.423 32.0177 166.912 31.9566Z" fill="#E9993E"/>
<path d="M177.788 31.3453C177.971 31.3453 178.093 31.4064 178.277 31.4064C178.46 31.4064 178.582 31.4675 178.766 31.4675L178.827 31.162C178.704 31.162 178.582 31.1009 178.46 31.1009C178.338 31.1009 178.216 31.0398 178.093 31.0398L178.155 30.6732C178.338 30.6732 178.521 30.7343 178.643 30.7343C178.827 30.7343 179.01 30.7954 179.132 30.7954L178.949 31.773C178.521 31.7119 178.093 31.6507 177.666 31.5896L177.605 31.8951C178.093 31.9562 178.643 32.0174 179.132 32.1395L179.438 30.6121C178.888 30.4899 178.338 30.4288 177.788 30.3677V31.3453Z" fill="#E9993E"/>
<path d="M181.516 31.2233L181.332 31.1622L181.149 31.1011L180.844 31.9565C181.149 32.0787 181.455 32.2008 181.76 32.323L181.882 32.0787L181.699 32.0176L181.516 31.9565C181.394 31.8954 181.332 31.8343 181.21 31.8343L181.332 31.5288C181.638 31.651 182.005 31.8343 182.31 32.0176L181.821 32.8729C181.455 32.6897 181.088 32.5064 180.722 32.3842L180.599 32.6897L180.783 32.7507L180.966 32.8118C181.088 32.8729 181.21 32.934 181.271 32.934C181.516 33.0562 181.699 33.1784 181.882 33.3006L182.738 31.9565C182.493 31.7732 182.249 31.651 181.943 31.5288C181.821 31.3455 181.638 31.2844 181.516 31.2233Z" fill="#E9993E"/>
<path d="M184.388 33.1785C184.327 33.1174 184.266 33.0564 184.205 32.9953C184.143 32.9342 184.082 32.873 184.021 32.873L183.41 33.5451C183.655 33.7895 183.899 33.9728 184.082 34.2172L184.327 34.0339C184.205 33.8506 184.021 33.6673 183.838 33.5451L184.082 33.3007C184.327 33.5451 184.571 33.7895 184.816 34.095L184.021 34.706C183.96 34.6449 183.899 34.5227 183.838 34.4616L183.716 34.3394L183.594 34.2172C183.532 34.1561 183.471 34.095 183.41 33.9728C183.349 33.9117 183.288 33.8506 183.166 33.7284L182.983 33.9728C183.044 34.0339 183.044 34.0339 183.105 34.095C183.166 34.1561 183.166 34.1561 183.227 34.2172C183.288 34.2783 183.288 34.2783 183.349 34.3394L183.471 34.4616C183.655 34.6449 183.777 34.8282 183.899 35.0115L185.182 34.095C184.999 33.8506 184.816 33.6062 184.632 33.4229L184.51 33.2396C184.449 33.3007 184.388 33.2396 184.388 33.1785Z" fill="#E9993E"/>
<path d="M185.182 36.0496C185.304 36.3551 185.427 36.6606 185.488 36.9661L185.793 36.905C185.732 36.7828 185.732 36.6606 185.671 36.5995L185.61 36.4162C185.61 36.3551 185.549 36.294 185.549 36.2329L185.854 36.1107C185.977 36.4162 186.099 36.7828 186.16 37.1494L185.182 37.3938C185.06 36.9661 184.938 36.5995 184.816 36.2329L184.571 36.3551C184.755 36.7828 184.877 37.2716 184.999 37.7604L186.526 37.3938C186.404 36.8439 186.221 36.294 185.977 35.7441L185.182 36.0496Z" fill="#E9993E"/>
<path d="M185.915 39.0435C185.976 39.349 185.976 39.7156 185.976 40.0211H186.282V39.6545L186.221 39.2879L186.587 39.2268C186.587 39.4101 186.648 39.5934 186.648 39.7156V39.96V40.2044L185.671 40.3877C185.671 39.96 185.61 39.5323 185.549 39.1046L185.243 39.1657C185.304 39.6545 185.365 40.2044 185.365 40.6932L186.954 40.6321C186.954 40.0822 186.893 39.5323 186.832 38.9824L185.915 39.0435Z" fill="#E9993E"/>
<path d="M184.082 55.7241C183.898 55.9685 183.654 56.2129 183.41 56.3962L184.021 57.0683C184.082 57.0072 184.143 56.9461 184.204 56.9461C184.265 56.885 184.326 56.8239 184.387 56.7628C184.448 56.7017 184.509 56.6406 184.571 56.5795L184.693 56.3962C184.876 56.1518 185.059 55.9685 185.243 55.7241L183.96 54.8076C183.837 54.9909 183.654 55.1742 183.532 55.3575L183.41 55.4797C183.349 55.5408 183.349 55.5408 183.287 55.6019C183.226 55.663 183.226 55.663 183.165 55.7241C183.104 55.7852 183.104 55.7852 183.043 55.8463L183.226 56.0907C183.287 56.0296 183.349 55.9685 183.471 55.8463C183.532 55.7852 183.593 55.7241 183.654 55.6019L183.776 55.4797L183.898 55.3575C183.96 55.2964 184.021 55.1742 184.082 55.1131L184.876 55.7241C184.632 56.0296 184.387 56.274 184.143 56.5184L183.898 56.274C184.082 56.0907 184.204 55.9685 184.387 55.7852L184.082 55.7241Z" fill="#E9993E"/>
<path d="M169.968 31.7725V31.467C169.54 31.467 169.112 31.467 168.685 31.5281L168.624 30.5506H169.112H169.601V30.9171C169.357 30.9171 169.174 30.9171 168.929 30.9171V31.2226C169.112 31.2226 169.235 31.2226 169.418 31.2226C169.601 31.2226 169.723 31.2226 169.907 31.2226V30.3062C169.357 30.3062 168.807 30.3061 168.257 30.3672L168.318 31.9558C168.929 31.8336 169.479 31.8336 169.968 31.7725Z" fill="#E9993E"/>
<path d="M174.61 31.1622C174.794 31.1622 174.916 31.1622 175.099 31.1622C175.283 31.1622 175.405 31.1622 175.588 31.1622V30.8567C175.344 30.8567 175.16 30.8567 174.916 30.8567V30.4901H175.405H175.894L175.832 31.4677C175.405 31.4677 174.977 31.4066 174.549 31.4066V31.7121C175.099 31.7121 175.588 31.7121 176.138 31.7732L176.199 30.1846C175.649 30.1846 175.099 30.1235 174.549 30.1235L174.61 31.1622Z" fill="#E9993E"/>
<path d="M185.059 52.3022C184.937 52.791 184.815 53.2798 184.632 53.7075L184.876 53.8297C185.059 53.4631 185.182 53.0354 185.243 52.6688L186.22 52.9132C186.159 53.2798 186.037 53.5853 185.915 53.9519L185.609 53.8297C185.609 53.7686 185.67 53.7075 185.67 53.6464L185.731 53.4631C185.793 53.3409 185.793 53.2187 185.854 53.1576L185.548 53.0965C185.487 53.402 185.365 53.7075 185.243 54.013L186.098 54.3796C186.342 53.8297 186.526 53.2798 186.648 52.7299L185.059 52.3022Z" fill="#E9993E"/>
<path d="M173.084 31.7731V31.4676H171.801V30.49H172.84V30.8566H172.168V31.1621H173.145V30.2456C172.595 30.2456 172.045 30.2456 171.557 30.2456V31.8342C172.045 31.7731 172.595 31.7731 173.084 31.7731Z" fill="#E9993E"/>
<path d="M137.094 60.856C136.972 60.856 136.85 60.7338 136.85 60.6116V25.2966C136.85 25.1744 136.972 25.0522 137.094 25.0522C137.216 25.0522 137.338 25.1744 137.338 25.2966V60.5505C137.338 60.7338 137.216 60.856 137.094 60.856Z" fill="#E9993E"/>
</svg>
