<svg width="159" height="20" viewBox="0 0 159 20" fill="none" xmlns="http://www.w3.org/2000/svg">
<path d="M152 3.45292V3H154.529V3.45292H153.598V6.21H152.935V3.45292H152Z" fill="#E9993E"/>
<path d="M157.402 3H158.327L158.42 6.21H157.767L157.714 3.73874L156.919 5.82744H156.344L155.628 3.8091L155.579 6.21H154.927L155.014 3H155.945L156.642 5.02714L157.402 3Z" fill="#E9993E"/>
<g clip-path="url(#clip0_11936_29947)">
<path d="M141.349 5.01611C138.914 5.01611 136.739 6.19377 136.739 8.36957C136.739 10.8648 140.597 11.0372 140.597 12.2907C140.597 12.8185 139.949 13.291 138.842 13.291C137.271 13.291 136.097 12.6308 136.097 12.6308L135.595 14.8264C135.595 14.8264 136.947 15.3841 138.743 15.3841C141.404 15.3841 143.499 14.1486 143.499 11.9356C143.499 9.29892 139.624 9.1317 139.624 7.96821C139.624 7.55474 140.156 7.10171 141.26 7.10171C142.506 7.10171 143.522 7.58185 143.522 7.58185L144.013 5.46124C144.013 5.46124 142.908 5.01611 141.349 5.01611ZM119.076 5.17616L119.017 5.49625C119.017 5.49625 120.041 5.67119 120.964 6.02015C122.151 6.42031 122.236 6.65326 122.436 7.37679L124.616 15.219H127.538L132.039 5.17616H129.124L126.231 12.0044L125.051 6.21646C124.943 5.55404 124.395 5.17616 123.723 5.17616H119.076ZM133.211 5.17616L130.924 15.219H133.704L135.983 5.17616H133.211ZM148.716 5.17616C148.045 5.17616 147.69 5.51111 147.43 6.09642L143.357 15.219H146.272L146.836 13.6986H150.388L150.731 15.219H153.303L151.059 5.17616H148.716ZM149.095 7.88944L149.959 11.658H147.644L149.095 7.88944Z" fill="#E9993E"/>
</g>
<path d="M9.80249 17.845L9.79639 18.0859L9.99762 18.092H10.0007L10.2019 18.0859L10.1836 17.3419L10.0281 17.345C10.019 17.345 10.0098 17.345 10.0007 17.345L9.81773 17.3389L9.81163 17.5797L10.0007 17.5858V17.848L9.80249 17.845Z" fill="#E9993E"/>
<path d="M9.66247 1.66872L9.93383 1.66262L9.99786 1.65957L10.0619 1.66262L10.3332 1.66872L10.3424 1.42785L10.0649 1.4187H10.0009H9.93078L9.65332 1.42785L9.66247 1.66872Z" fill="#E9993E"/>
<path d="M8.36282 18.6483L8.32471 18.8645L8.5409 18.9026L8.57901 18.6864L8.36282 18.6483Z" fill="#E9993E"/>
<path d="M8.28398 19.0927L8.1543 19.8284L8.37049 19.8665L8.50017 19.1308L8.28398 19.0927Z" fill="#E9993E"/>
<path d="M6.88538 18.2349L6.8103 18.4412L7.01659 18.5162L7.09167 18.31L6.88538 18.2349Z" fill="#E9993E"/>
<path d="M6.73082 18.655L6.47534 19.3569L6.68163 19.432L6.93711 18.7301L6.73082 18.655Z" fill="#E9993E"/>
<path d="M5.50063 17.5694L5.39087 17.7595L5.58098 17.8693L5.69074 17.6792L5.50063 17.5694Z" fill="#E9993E"/>
<path d="M5.27829 17.9578L4.90479 18.6047L5.0949 18.7145L5.4684 18.0676L5.27829 17.9578Z" fill="#E9993E"/>
<path d="M4.25586 16.6734L4.11475 16.8416L4.2829 16.9827L4.42402 16.8145L4.25586 16.6734Z" fill="#E9993E"/>
<path d="M3.9687 17.0168L3.48853 17.5891L3.65671 17.7302L4.13688 17.1579L3.9687 17.0168Z" fill="#E9993E"/>
<path d="M3.18771 15.5747L3.01953 15.7158L3.16064 15.884L3.32882 15.7429L3.18771 15.5747Z" fill="#E9993E"/>
<path d="M2.84174 15.8616L2.26953 16.3418L2.41064 16.51L2.98285 16.0298L2.84174 15.8616Z" fill="#E9993E"/>
<path d="M2.31975 14.3058L2.12964 14.4155L2.2394 14.6056L2.42951 14.4959L2.31975 14.3058Z" fill="#E9993E"/>
<path d="M1.93157 14.5301L1.28467 14.9036L1.39443 15.0937L2.04134 14.7202L1.93157 14.5301Z" fill="#E9993E"/>
<path d="M1.69018 12.9069L1.48389 12.9819L1.55897 13.1882L1.76526 13.1131L1.69018 12.9069Z" fill="#E9993E"/>
<path d="M1.26837 13.0602L0.566406 13.3157L0.641485 13.522L1.34344 13.2665L1.26837 13.0602Z" fill="#E9993E"/>
<path d="M1.31067 11.4209L1.09448 11.459L1.13259 11.6752L1.34878 11.6371L1.31067 11.4209Z" fill="#E9993E"/>
<path d="M0.868706 11.4965L0.133057 11.6262L0.171189 11.8424L0.906838 11.7127L0.868706 11.4965Z" fill="#E9993E"/>
<path d="M1.19804 9.8894H0.978516V10.1089H1.19804V9.8894Z" fill="#E9993E"/>
<path d="M0.747003 9.8894H0V10.1089H0.747003V9.8894Z" fill="#E9993E"/>
<path d="M1.13213 8.32556L1.09399 8.54175L1.31019 8.57988L1.34832 8.36369L1.13213 8.32556Z" fill="#E9993E"/>
<path d="M0.170678 8.15441L0.132568 8.37061L0.868217 8.50029L0.906327 8.28409L0.170678 8.15441Z" fill="#E9993E"/>
<path d="M1.55848 6.8108L1.4834 7.01709L1.68969 7.09217L1.76477 6.88588L1.55848 6.8108Z" fill="#E9993E"/>
<path d="M0.641973 6.47828L0.566895 6.68457L1.26885 6.94005L1.34393 6.73376L0.641973 6.47828Z" fill="#E9993E"/>
<path d="M2.2394 5.39436L2.12964 5.58447L2.31975 5.69424L2.42951 5.50413L2.2394 5.39436Z" fill="#E9993E"/>
<path d="M1.3959 4.90584L1.28613 5.09595L1.93304 5.46945L2.0428 5.27934L1.3959 4.90584Z" fill="#E9993E"/>
<path d="M3.1604 4.11576L3.01929 4.28394L3.18747 4.42505L3.32858 4.25687L3.1604 4.11576Z" fill="#E9993E"/>
<path d="M2.41186 3.48783L2.27075 3.65601L2.84303 4.13618L2.98414 3.968L2.41186 3.48783Z" fill="#E9993E"/>
<path d="M4.2839 3.01733L4.11572 3.15845L4.25683 3.32663L4.42502 3.18551L4.2839 3.01733Z" fill="#E9993E"/>
<path d="M3.65693 2.27002L3.48877 2.41113L3.96894 2.98334L4.1371 2.84222L3.65693 2.27002Z" fill="#E9993E"/>
<path d="M5.58147 2.13194L5.39136 2.2417L5.50112 2.43181L5.69123 2.32205L5.58147 2.13194Z" fill="#E9993E"/>
<path d="M5.09563 1.2855L4.90552 1.39526L5.27902 2.04217L5.46913 1.93241L5.09563 1.2855Z" fill="#E9993E"/>
<path d="M7.01562 1.48596L6.80933 1.56104L6.8844 1.76733L7.09069 1.69225L7.01562 1.48596Z" fill="#E9993E"/>
<path d="M6.6809 0.566523L6.47461 0.641602L6.73008 1.34356L6.93637 1.26848L6.6809 0.566523Z" fill="#E9993E"/>
<path d="M8.54114 1.0969L8.32495 1.13501L8.36306 1.3512L8.57925 1.31309L8.54114 1.0969Z" fill="#E9993E"/>
<path d="M8.37073 0.133987L8.15454 0.172119L8.2843 0.907768L8.50049 0.869636L8.37073 0.133987Z" fill="#E9993E"/>
<path d="M9.88794 1.19658H9.9977H10.0008H10.1075V0.977051H10.0008H9.9977H9.88794V1.19658Z" fill="#E9993E"/>
<path d="M9.88794 0.00170898V0.748712H9.9977H10.1075V0.00170898H10.0008H9.88794Z" fill="#E9993E"/>
<path d="M10.1929 2.15664L10.199 1.91577L9.99774 1.90967H9.99469L9.79346 1.91577L9.8148 2.65972L9.9703 2.65667C9.97945 2.65667 9.98859 2.65667 9.99774 2.65667L10.1807 2.66277L10.1868 2.4219L9.99774 2.4158V2.15359L10.1929 2.15664Z" fill="#E9993E"/>
<path d="M10.3332 18.3325L10.0619 18.3386H10.0009H9.93383L9.66247 18.3325L9.65332 18.5734L9.93078 18.5795L9.99786 18.5825L10.0649 18.5795L10.3424 18.5734L10.3332 18.3325Z" fill="#E9993E"/>
<path d="M10.6199 18.5585C10.7113 18.5524 10.8058 18.5463 10.8972 18.5372L11.1655 18.5036L11.3026 18.4854L11.4398 18.461L11.7141 18.4122L11.6653 18.1745L11.4002 18.2232L11.266 18.2476L11.1319 18.2659L11.0984 18.019C11.2325 18.0038 11.3636 17.9763 11.4946 17.955L11.3575 17.2235L11.2051 17.2509L11.1319 17.2631C11.0893 17.2692 11.0435 17.2753 10.9978 17.2814L10.9643 17.0345L11.0771 17.0192L11.1898 16.9979L11.4154 16.9583C11.4916 16.943 11.5648 16.9247 11.641 16.9065L11.7537 16.8821C11.7903 16.8729 11.8269 16.8607 11.8635 16.8516L11.9275 17.0924L11.8391 17.1168C11.8086 17.1259 11.7812 17.132 11.7507 17.1381L11.5739 17.1777L11.6257 17.4155L11.8086 17.3728C11.8391 17.3667 11.8696 17.3606 11.9 17.3515L11.9915 17.3271L12.2201 17.2631C12.2658 17.2509 12.3085 17.2356 12.3512 17.2204L12.4335 17.4703L12.342 17.5008C12.3115 17.51 12.281 17.5191 12.2475 17.5283L12.0585 17.5801L11.964 17.6075C11.9336 17.6167 11.9 17.6227 11.8696 17.6288L11.6806 17.6715L11.7324 17.9093L11.9275 17.8635C11.961 17.8544 11.9915 17.8483 12.025 17.8392L12.1225 17.8117L12.1866 18.0525C12.1439 18.0647 12.1012 18.0769 12.0555 18.0891L11.9244 18.1196C11.836 18.1409 11.7476 18.1592 11.6592 18.1805L11.708 18.4183C11.7995 18.4 11.8878 18.3787 11.9793 18.3573L12.1134 18.3269C12.1591 18.3147 12.2018 18.3025 12.2475 18.2903L12.5066 18.2171C12.595 18.1897 12.6834 18.1592 12.7718 18.1287C12.8602 18.0982 12.9486 18.0708 13.0339 18.0342L12.9486 17.8087C12.8663 17.8422 12.7779 17.8696 12.6925 17.9001C12.6072 17.9276 12.5218 17.958 12.4365 17.9855L12.3633 17.7477C12.4914 17.7081 12.6163 17.6624 12.7444 17.6197L12.4914 16.9186L12.3451 16.9674L12.275 16.9918C12.2323 17.004 12.1896 17.0223 12.1469 17.0345L12.0738 16.7967C12.1469 16.7754 12.2201 16.748 12.2932 16.7236C12.3664 16.6992 12.4395 16.6748 12.5097 16.6474L12.723 16.562C12.7596 16.5498 12.7931 16.5315 12.8297 16.5163L12.9333 16.4675L13.037 16.6931L12.8693 16.7693C12.8145 16.7937 12.7565 16.815 12.6986 16.8363L12.787 17.0619C12.8449 17.0375 12.9029 17.0162 12.9608 16.9918L13.1315 16.9156C13.2046 16.8821 13.2778 16.8516 13.3479 16.815L13.4698 16.751L13.5887 16.9827L13.4149 17.071C13.357 17.1015 13.2961 17.1259 13.2381 17.1533L13.0614 17.2326C13.0004 17.257 12.9394 17.2814 12.8815 17.3058L12.9699 17.5313C13.0309 17.5069 13.0949 17.4825 13.1558 17.4551L13.3387 17.3728L13.4424 17.5984L13.3204 17.6532C13.2778 17.6715 13.2381 17.6929 13.1955 17.7081L12.9425 17.8087L13.0278 18.0342L13.2869 17.9306C13.3296 17.9154 13.3723 17.894 13.4149 17.8757L13.5429 17.8178C13.6252 17.7812 13.7075 17.7447 13.7868 17.702L14.0337 17.574C14.0764 17.5526 14.116 17.5283 14.1556 17.5069L14.2775 17.4368L14.1556 17.2265L14.0398 17.2936C14.0002 17.3149 13.9605 17.3393 13.9209 17.3576L13.6801 17.4795L13.5704 17.257L13.7502 17.1655L13.8386 17.1198L13.927 17.071L13.5643 16.4188L13.4972 16.4584C13.4759 16.4706 13.4515 16.4828 13.4271 16.495L13.3601 16.5285L13.2412 16.5895L13.1315 16.3669L13.3357 16.2633C13.3692 16.2481 13.4027 16.2267 13.4363 16.2084L13.5369 16.1505C13.671 16.0774 13.799 15.989 13.927 15.9097L14.0642 16.117L13.9118 16.2145L13.8356 16.2633L13.7959 16.2877L13.7563 16.309L13.8813 16.5163L13.9209 16.4919L13.9605 16.4675L14.0398 16.4157L14.1983 16.3151C14.2318 16.2938 14.2653 16.2694 14.2958 16.2481L14.3934 16.178L14.5061 16.0987L14.6616 16.309L14.5031 16.4218L14.4238 16.4797C14.3964 16.498 14.372 16.5163 14.3446 16.5346L14.18 16.6413L14.0977 16.6931L14.0581 16.7205L14.0154 16.7449L14.1404 16.9522L14.183 16.9278L14.2257 16.9004L14.3111 16.8455L14.4787 16.7358L14.6159 16.943C14.4635 17.0406 14.3141 17.1412 14.1556 17.2265L14.2775 17.4368C14.4391 17.3484 14.5945 17.2448 14.75 17.1442C14.7896 17.1198 14.8231 17.0924 14.8597 17.068L14.9694 16.9888C15.1218 16.8851 15.2651 16.7662 15.4114 16.6535L15.259 16.4675C15.1158 16.5773 14.9786 16.6931 14.8292 16.7937L14.6829 16.5925C14.7378 16.5529 14.7927 16.5163 14.8445 16.4736L15.003 16.3487L14.5397 15.7634L14.4177 15.861C14.3995 15.8762 14.3781 15.8914 14.3568 15.9067L14.2471 15.9829L14.1007 15.7817C14.2288 15.6964 14.3446 15.5958 14.4665 15.5043C14.497 15.48 14.5244 15.4556 14.5549 15.4312L14.6433 15.355C14.7012 15.3062 14.7591 15.2544 14.814 15.2026L14.9847 15.3855L14.9176 15.4495L14.8475 15.5104L14.7104 15.6293L14.8658 15.8152L15.0091 15.6933L15.0792 15.6324L15.1462 15.5683L15.32 15.4038C15.3535 15.3733 15.384 15.3367 15.4175 15.3032L15.6034 15.4861C15.4236 15.672 15.2316 15.8488 15.0335 16.0164L15.1889 16.2023L15.3413 16.0713L15.4175 16.0042L15.4907 15.9341L15.6614 16.117C15.5973 16.181 15.5272 16.2389 15.4602 16.2968L15.3566 16.3852C15.323 16.4157 15.2895 16.4462 15.2529 16.4736L15.4053 16.6596C15.4419 16.6321 15.4754 16.5986 15.512 16.5712L15.6156 16.4797C15.6857 16.4188 15.7558 16.3578 15.8229 16.2938L16.018 16.1079C16.085 16.0438 16.146 15.9737 16.21 15.9067L16.3045 15.8061C16.338 15.7726 16.3655 15.736 16.3959 15.7025L16.2161 15.5409C16.1856 15.5744 16.1582 15.611 16.1277 15.6415L16.0332 15.739C15.9692 15.8031 15.9113 15.8701 15.8442 15.9341L15.6675 15.7573C15.7619 15.6628 15.8534 15.5653 15.9448 15.4678L15.3931 14.9648L15.2864 15.0776L15.2346 15.1325C15.2041 15.163 15.1737 15.1995 15.1401 15.227L14.9634 15.0502C15.0182 14.9953 15.07 14.9404 15.1218 14.8856L15.2011 14.8033C15.2285 14.7759 15.2529 14.7454 15.2773 14.7179L15.4267 14.5442C15.4754 14.4863 15.5211 14.4253 15.5699 14.3644L15.768 14.5168L15.6553 14.66C15.637 14.6844 15.6156 14.7057 15.5973 14.7301L15.5364 14.8002L15.7193 14.9587L15.7802 14.8886C15.8016 14.8642 15.8229 14.8429 15.8412 14.8155L15.957 14.6661L16.0302 14.5716C16.0546 14.5411 16.0759 14.5076 16.1003 14.4741L16.1795 14.3613L16.3929 14.5107L16.2801 14.6692L16.2527 14.7088L16.2222 14.7484L16.1612 14.8246L16.0393 14.977C16.021 15.0045 15.9966 15.0258 15.9753 15.0532L15.9113 15.1264L16.0942 15.2849L16.1612 15.2087C16.1826 15.1843 16.207 15.1569 16.2253 15.1325L16.3502 14.974L16.5483 15.1264C16.4935 15.1965 16.4386 15.2696 16.3807 15.3367L16.2039 15.5409L16.3838 15.7025L16.5666 15.4921C16.6245 15.422 16.6825 15.3458 16.7404 15.2757L16.8227 15.1691C16.8501 15.1325 16.8745 15.0959 16.9019 15.0593L17.0635 14.8338C17.1153 14.7576 17.1641 14.6783 17.2159 14.5991L17.0117 14.471C16.9629 14.5472 16.9141 14.6234 16.8653 14.6966L16.7099 14.9161L16.5087 14.7698L16.6246 14.6052C16.6428 14.5777 16.6642 14.5503 16.6825 14.5229L16.7373 14.4375L16.1125 14.0291C16.085 14.0717 16.0576 14.1175 16.0271 14.1601L15.9845 14.2211L15.9083 14.3308L15.7071 14.1845L15.8412 13.9955C15.8839 13.9315 15.9235 13.8675 15.9662 13.8035L16.0271 13.706C16.0485 13.6725 16.0668 13.6389 16.085 13.6054L16.2009 13.4073L16.4203 13.5261C16.3594 13.6298 16.3015 13.7365 16.2374 13.8431L16.4447 13.9681C16.5087 13.8614 16.5697 13.7517 16.6337 13.642C16.6703 13.5719 16.7068 13.5018 16.7434 13.4286L16.8074 13.3067L17.0421 13.4195C16.9812 13.5353 16.9233 13.6511 16.8623 13.7669C16.7983 13.8797 16.7343 13.9925 16.6672 14.1053L16.8745 14.2302C16.9446 14.1144 17.0086 13.9986 17.0757 13.8828L17.2951 14.0016L17.161 14.2363C17.1397 14.276 17.1183 14.3156 17.094 14.3522L17.0208 14.4649L17.225 14.593L17.3012 14.4771C17.3256 14.4375 17.3469 14.3979 17.3713 14.3583L17.5085 14.1175C17.5512 14.0382 17.5908 13.959 17.6335 13.8767L17.6975 13.7517C17.7188 13.709 17.7371 13.6664 17.7554 13.6267L17.8712 13.3737L17.6487 13.2792L17.5359 13.5261C17.5176 13.5658 17.4993 13.6084 17.478 13.6481L17.417 13.77L17.1945 13.6572L17.2403 13.5688C17.2555 13.5383 17.2707 13.5079 17.2829 13.4774L17.3652 13.2945L16.6855 12.9927L16.6215 13.136C16.6124 13.1573 16.6002 13.1817 16.591 13.203L16.5301 13.3219L16.3076 13.2091L16.3594 13.1055C16.3777 13.072 16.3929 13.0354 16.4081 13.0019L16.5026 12.7916C16.5331 12.7215 16.5605 12.6483 16.588 12.5782L16.6306 12.4715C16.6459 12.4349 16.655 12.3984 16.6672 12.3618L16.9019 12.4441L16.8714 12.5294L16.8379 12.6148L16.7709 12.7855L16.9964 12.8769L17.0665 12.7001L17.1 12.6117L17.1305 12.5233L17.2067 12.2978L17.2189 12.2642L17.2281 12.2307L17.2464 12.1637L17.4963 12.2368C17.4231 12.4868 17.3347 12.7306 17.2372 12.9714L17.4597 13.0628L17.5329 12.8769L17.5695 12.7824L17.603 12.6879L17.8377 12.7702C17.8224 12.8129 17.8102 12.8556 17.792 12.8982L17.7432 13.0232C17.7097 13.1055 17.6792 13.1909 17.6426 13.2732L17.8651 13.3676C17.9017 13.2823 17.9352 13.1939 17.9687 13.1086L18.0206 12.9775C18.0389 12.9348 18.051 12.8891 18.0663 12.8464L18.1516 12.5904C18.1669 12.5477 18.1791 12.502 18.1913 12.4563L18.2278 12.3222C18.2522 12.2338 18.2797 12.1454 18.2979 12.0539L18.0632 11.996C18.0449 12.0844 18.0175 12.1698 17.9931 12.2581L17.9566 12.3892C17.9444 12.4319 17.9322 12.4776 17.9169 12.5172L17.6792 12.441C17.6914 12.4105 17.7005 12.377 17.7097 12.3435L17.7371 12.246L17.792 12.0539L17.0696 11.8649L17.0269 12.0143L17.0056 12.0875L16.9873 12.1515L16.9781 12.185L16.9659 12.2155L16.7282 12.1393C16.7404 12.1027 16.7495 12.0661 16.7617 12.0295L16.7922 11.9198C16.8135 11.8467 16.8349 11.7735 16.8501 11.6973L16.9019 11.4748C16.9111 11.4382 16.9172 11.3986 16.9233 11.362L16.9446 11.2492L17.1884 11.2919L17.158 11.4717C17.1458 11.5297 17.1305 11.5906 17.1183 11.6485L17.353 11.7034C17.3683 11.6424 17.3805 11.5815 17.3957 11.5205L17.4292 11.3346L17.4506 11.2157L17.4597 11.1578L17.4689 11.0999L17.4872 10.9627L17.7462 10.9962L17.7219 11.1883L17.6883 11.3803L17.6548 11.5723C17.6426 11.6363 17.6274 11.7003 17.6121 11.7613L17.8468 11.8162C17.8621 11.7522 17.8773 11.6851 17.8925 11.6211L17.9291 11.423L18.173 11.4656L18.1486 11.5998C18.1394 11.6455 18.1333 11.6882 18.1212 11.7308L18.0602 11.993L18.2949 12.0509L18.3589 11.7796C18.3711 11.7339 18.3772 11.6882 18.3863 11.6424L18.4107 11.5053L18.4351 11.3712L18.4473 11.3041L18.4564 11.237C18.4778 11.0542 18.5083 10.8682 18.5174 10.6853L18.2766 10.6671C18.2675 10.8469 18.24 11.0267 18.2187 11.2035L17.9718 11.1669L17.9962 10.9688L18.0084 10.8682L18.0145 10.8195L18.0175 10.7707L17.2768 10.7006C17.2738 10.7524 17.2646 10.8042 17.2585 10.856L17.2494 10.9292L17.2311 11.0633L16.9842 11.0267C17.0025 10.8743 17.0269 10.7219 17.033 10.5695C17.0391 10.4933 17.0452 10.4171 17.0482 10.3409L17.0543 10.1093L17.3043 10.1123L17.2982 10.2952C17.2982 10.3257 17.2982 10.3561 17.2951 10.3866L17.289 10.4781L17.5298 10.4933L17.5359 10.3988C17.539 10.3683 17.539 10.3348 17.539 10.3043L17.5451 10.1154L17.5481 9.99648L17.5451 9.8776L17.542 9.74044L17.8042 9.73129C17.8072 9.86236 17.8133 9.99038 17.8072 10.1214L17.8011 10.3165C17.8011 10.3501 17.8011 10.3805 17.7981 10.4141L17.792 10.5116L18.0328 10.5268L18.0389 10.4263C18.0419 10.3927 18.0419 10.3592 18.0419 10.3257L18.048 10.1245L18.2979 10.1275L18.2918 10.3988C18.2888 10.4872 18.2797 10.5787 18.2736 10.6671L18.5144 10.6853C18.5205 10.5939 18.5296 10.4994 18.5326 10.408L18.5387 10.1306L18.5418 9.99648L18.5387 9.86236L18.5326 9.58499C18.5296 9.49354 18.5205 9.39906 18.5144 9.30761L18.2736 9.3259C18.2797 9.41429 18.2888 9.50574 18.2918 9.59413L18.2979 9.86541L18.048 9.86846L18.0419 9.66728C18.0419 9.63376 18.0419 9.60023 18.0389 9.5667L18.0328 9.46611L17.289 9.51488C17.2921 9.5667 17.2982 9.61852 17.2982 9.67033L17.3012 9.74653L17.3043 9.88065L17.0543 9.8837L17.0482 9.65204C17.0452 9.57584 17.036 9.49964 17.033 9.42344C17.0238 9.27104 17.0025 9.11863 16.9842 8.96623L17.2311 8.92965L17.2555 9.10949L17.2677 9.20093L17.2738 9.24665L17.2768 9.29237L17.5176 9.27104L17.5146 9.22531L17.5085 9.17959L17.4963 9.0851L17.4719 8.89917L17.4628 8.84126L17.4536 8.78334L17.4658 8.66447L17.4414 8.52731L17.6975 8.47549L17.731 8.66752C17.7432 8.73153 17.7554 8.79554 17.7615 8.85955L17.7859 9.05157L17.7981 9.14911L17.8042 9.19788L17.8072 9.24665L18.048 9.22531L18.045 9.17654L18.0389 9.12778L18.0267 9.02719L18.0023 8.82906L18.2492 8.79249C18.2705 8.97232 18.2979 9.14911 18.3071 9.32895L18.5479 9.31066C18.5387 9.12473 18.5113 8.94184 18.4869 8.75896L18.4778 8.6919L18.4656 8.62484L18.4412 8.49073L18.4168 8.35357C18.4077 8.30784 18.4016 8.26212 18.3894 8.2164L18.3254 7.94512L18.0907 8.00304L18.1516 8.26517C18.1638 8.30784 18.1699 8.35357 18.1791 8.39929L18.2035 8.5334L17.9596 8.57608L17.923 8.37795C17.9078 8.31394 17.8925 8.24688 17.8773 8.18287L17.1519 8.35052L17.1884 8.50292C17.1945 8.52731 17.1976 8.55169 17.2037 8.57608L17.2281 8.70714L16.9842 8.74981L16.9629 8.63704C16.9568 8.60046 16.9507 8.56083 16.9415 8.52426L16.8897 8.30175C16.8745 8.22555 16.8501 8.15239 16.8318 8.07924L16.8013 7.96951C16.7891 7.93293 16.783 7.89636 16.7678 7.85978L17.0056 7.78358C17.0147 7.81101 17.0238 7.84149 17.033 7.87197L17.0574 7.96036L17.1061 8.13715L17.3408 8.07619L17.289 7.89635L17.2646 7.80491C17.2555 7.77443 17.2494 7.74395 17.2372 7.71347L17.161 7.48791C17.1458 7.44524 17.1336 7.39952 17.1153 7.35685L17.3591 7.2654C17.3713 7.29589 17.3835 7.32637 17.3927 7.35685L17.4231 7.44829L17.4841 7.63422C17.4963 7.6647 17.5024 7.69518 17.5115 7.72871L17.539 7.8232L17.5908 8.01218L17.8255 7.95122L17.7706 7.75919L17.7432 7.66165C17.734 7.62813 17.7249 7.59764 17.7127 7.56412L17.9505 7.48791C17.9657 7.53059 17.9779 7.57326 17.9901 7.61593L18.0267 7.747C18.051 7.83539 18.0785 7.92074 18.0968 8.00913L18.3315 7.95122C18.3132 7.85978 18.2857 7.77138 18.2614 7.68299L18.2248 7.54888C18.2126 7.50315 18.2004 7.46048 18.1852 7.41476L18.0998 7.15872C18.0846 7.11605 18.0724 7.07033 18.0541 7.02765L18.0023 6.89659C17.9687 6.81124 17.9352 6.72285 17.8986 6.6375L17.6761 6.73199C17.7127 6.81429 17.7432 6.89964 17.7767 6.98193L17.8255 7.1069C17.8438 7.14958 17.856 7.19225 17.8712 7.23492L17.6365 7.31722L17.603 7.22273L17.5664 7.12824L17.4933 6.94231L16.8044 7.22578L16.8623 7.37209L16.8897 7.44219C16.908 7.48487 16.9202 7.52754 16.9355 7.56716L16.7008 7.64946C16.6886 7.61289 16.6764 7.57631 16.6642 7.53973L16.6215 7.43305C16.5941 7.36294 16.5666 7.28979 16.5362 7.21968L16.4417 7.00937C16.4264 6.97584 16.4112 6.93926 16.3929 6.90573L16.3411 6.8021L16.5636 6.68932L16.6063 6.77162C16.6215 6.79905 16.6337 6.82648 16.6459 6.85392L16.7221 7.02156L16.9446 6.92402L16.8684 6.75333C16.8562 6.7259 16.841 6.69542 16.8288 6.66798L16.7861 6.58264C16.7495 6.51253 16.7129 6.43938 16.6764 6.36927L16.6063 6.2504L16.8318 6.12238C16.8623 6.18029 16.8989 6.23516 16.9263 6.29307L17.0147 6.46681L17.0604 6.55216C17.0757 6.57959 17.0909 6.61007 17.1031 6.64055L17.1823 6.81734L17.4049 6.7198L17.3226 6.53692C17.3104 6.50644 17.2951 6.47595 17.2799 6.44547L17.2342 6.35708L17.4567 6.2443L17.5176 6.36622C17.539 6.40585 17.5542 6.44852 17.5755 6.48815L17.6883 6.73504L17.9108 6.64055L17.795 6.38756C17.7767 6.34489 17.7584 6.30221 17.7371 6.26259L17.6731 6.13762C17.6304 6.05837 17.5908 5.97607 17.5481 5.89682L17.411 5.65602C17.3866 5.6164 17.3652 5.57372 17.3408 5.53715L17.2646 5.42132L17.0604 5.54934L17.1336 5.66212C17.158 5.6987 17.1793 5.74137 17.2006 5.77795L17.3348 6.01265L17.1153 6.13152C17.0482 6.0157 16.9842 5.89987 16.9141 5.78404L16.2771 6.17419C16.3045 6.21687 16.3289 6.26259 16.3563 6.30831L16.3929 6.37232L16.46 6.48815L16.2405 6.60702L16.1247 6.4089C16.1064 6.37537 16.0881 6.34184 16.0668 6.30831L16.0058 6.21077C15.9631 6.14676 15.9235 6.07971 15.8808 6.01874L15.7467 5.82976L15.9479 5.68346L16.0546 5.83281C16.0728 5.8572 16.0911 5.88158 16.1064 5.90901L16.1551 5.98521L16.3563 5.8511L16.3045 5.77185C16.2862 5.74442 16.2679 5.72003 16.2496 5.69565L16.1399 5.54324C16.1155 5.50972 16.0942 5.47923 16.0698 5.44571L15.9966 5.35122L15.9113 5.24149L16.1155 5.07689C16.2771 5.27806 16.4325 5.48838 16.5727 5.70784L16.7739 5.57373L16.719 5.48838C16.7008 5.46095 16.6794 5.43351 16.6611 5.40608L16.5453 5.24149L16.7465 5.09518L16.9019 5.31464C16.9537 5.38779 16.9995 5.46704 17.0482 5.5402L17.2525 5.40913C17.2006 5.32988 17.1519 5.25368 17.1 5.17443L16.9385 4.94887C16.9111 4.91229 16.8867 4.87572 16.8593 4.83914L16.777 4.73246C16.719 4.6593 16.6642 4.58615 16.6032 4.51604L16.4203 4.30573L16.2405 4.46728L16.4173 4.6715C16.4752 4.7416 16.5301 4.81171 16.5849 4.88181L16.3868 5.03422L16.2618 4.87572C16.2405 4.84828 16.2192 4.8239 16.1978 4.79952L16.1308 4.72331L15.5669 5.20796L15.6675 5.32683L15.7132 5.38474L15.7955 5.49143L15.5973 5.64383C15.5486 5.58287 15.5029 5.52191 15.4541 5.46399L15.3047 5.29025C15.2803 5.26282 15.256 5.23234 15.2285 5.20491L15.1493 5.12261C15.0944 5.06775 15.0456 5.00983 14.9908 4.95801L15.1676 4.78123C15.2529 4.86657 15.3352 4.95801 15.4206 5.04336L15.6004 4.87877C15.512 4.78732 15.4267 4.69588 15.3383 4.60749L15.1645 4.44289C15.131 4.41241 15.0975 4.37888 15.0639 4.3484L15.2377 4.15332L15.2743 4.1838L15.3108 4.21733L15.3809 4.28439L15.5211 4.41851C15.6126 4.50995 15.701 4.60749 15.7924 4.69893L15.9723 4.53433C15.8808 4.43679 15.7894 4.33926 15.6949 4.24477L15.8717 4.06798C15.9357 4.13199 15.9966 4.19905 16.0607 4.26305L16.1551 4.36059C16.1856 4.39412 16.2161 4.42765 16.2435 4.46118L16.4234 4.29963C16.3929 4.2661 16.3624 4.22953 16.3319 4.196L16.2374 4.09541C16.1734 4.02835 16.1094 3.9613 16.0454 3.89424L15.8503 3.70831C15.7833 3.6443 15.7132 3.58333 15.6431 3.52237L15.5394 3.43093C15.5029 3.40045 15.4693 3.36997 15.4328 3.34254L15.2803 3.52847C15.3169 3.5559 15.3505 3.58638 15.384 3.61686L15.4876 3.70526C15.5547 3.76317 15.6248 3.82108 15.6888 3.88509L15.5181 4.06798L15.4449 3.99787L15.3687 3.93081L15.2163 3.79975L14.7347 4.36974L14.8536 4.47337L14.9115 4.52214C14.9451 4.54957 14.9786 4.5831 15.0091 4.61358L14.8384 4.79647C14.7835 4.7416 14.7256 4.69283 14.6677 4.64406L14.5793 4.56786C14.5488 4.54348 14.5214 4.51604 14.4909 4.49471C14.369 4.40022 14.2532 4.30268 14.1251 4.21733L14.2714 4.01616C14.3202 4.05274 14.372 4.08627 14.4208 4.12284L14.5641 4.23562L14.7134 4.04664L14.5641 3.93081C14.5153 3.89119 14.4635 3.85766 14.4116 3.82108L14.3141 3.75098C14.2806 3.72964 14.2501 3.70526 14.2166 3.68392L14.1007 3.60772L14.241 3.38826C14.2958 3.42483 14.3507 3.45836 14.4056 3.49494L14.5641 3.60772C14.6159 3.64734 14.6707 3.68087 14.7226 3.7205L14.875 3.84242L15.0243 3.65344L14.8658 3.52847C14.814 3.48884 14.7561 3.44922 14.7043 3.40959L14.8506 3.20842C14.9999 3.30901 15.1401 3.42483 15.2803 3.53457L15.4328 3.34863C15.2864 3.23585 15.1432 3.11698 14.9908 3.01335L14.8811 2.9341C14.8445 2.90971 14.8079 2.88228 14.7713 2.85789C14.6159 2.75731 14.4604 2.65367 14.2989 2.56528L14.1769 2.49517C14.1373 2.47079 14.0977 2.44945 14.055 2.42812L13.8081 2.3001C13.7289 2.25742 13.6466 2.22389 13.5643 2.18427L13.4363 2.12636C13.3936 2.10807 13.3509 2.08673 13.3082 2.07149L13.0492 1.96786L12.9547 2.20256L13.2077 2.30314C13.2503 2.31839 13.29 2.33972 13.3326 2.35801L13.4546 2.41288L13.3509 2.63843L13.168 2.55613C13.1071 2.5287 13.0431 2.50737 12.9821 2.47993L12.7078 3.17185L12.8541 3.22976C12.8785 3.2389 12.8998 3.25109 12.9211 3.26024L13.0431 3.3151L12.9394 3.54066L12.8358 3.49189C12.7992 3.47665 12.7657 3.45836 12.7291 3.44617L12.5157 3.36083C12.4456 3.33034 12.3725 3.30901 12.2993 3.28462C12.2262 3.26024 12.1561 3.23281 12.0799 3.21147L12.153 2.97372C12.2689 3.0103 12.3847 3.04992 12.5005 3.08955L12.5828 2.86094C12.4639 2.82132 12.3451 2.77864 12.2262 2.74207L11.9976 2.67806L11.9305 2.65977L11.897 2.65062L11.8635 2.64148L11.9275 2.38849C11.958 2.39459 11.9915 2.40373 12.022 2.41288L12.1165 2.44031L12.3054 2.49213C12.4304 2.53175 12.5523 2.57442 12.6742 2.6171L12.7565 2.38849C12.6285 2.34582 12.5036 2.3001 12.3755 2.26047L12.4487 2.02272C12.534 2.04711 12.6194 2.08064 12.7047 2.10807C12.7901 2.13855 12.8754 2.16598 12.9608 2.19951L13.0461 1.97395C12.9608 1.93738 12.8724 1.90994 12.784 1.87946C12.6956 1.84898 12.6072 1.8185 12.5188 1.79107L12.2597 1.71792C12.214 1.70572 12.1713 1.69048 12.1256 1.68134L11.9915 1.65086C11.9 1.62952 11.8116 1.60818 11.7202 1.5899L11.6714 1.82765C11.7598 1.84593 11.8482 1.86727 11.9366 1.88861L12.0677 1.91909C12.1104 1.92823 12.1561 1.94347 12.1988 1.95566L12.1347 2.19646L12.0372 2.16903C12.0037 2.15989 11.9732 2.15379 11.9397 2.14465L11.7446 2.09892L11.5861 2.82741L11.7385 2.86399L11.8116 2.88228L11.8452 2.88837L11.8787 2.89752L11.9427 2.91581L11.8787 3.1566C11.8421 3.14746 11.8055 3.13527 11.769 3.12612L11.6562 3.10174C11.58 3.08345 11.5068 3.06516 11.4306 3.04992L11.2051 3.0103L11.0923 2.98896L10.9795 2.97372L11.0131 2.72683C11.135 2.73902 11.2538 2.7634 11.3727 2.78474L11.4184 2.54699C11.2935 2.52565 11.1716 2.50127 11.0466 2.48603L10.8088 2.45555C10.7631 2.44945 10.7174 2.44945 10.6717 2.44336L10.693 2.18427C10.8241 2.19037 10.9521 2.2117 11.0801 2.22694C11.2081 2.23914 11.3361 2.26657 11.4642 2.2879L11.5099 2.05016C11.3788 2.02882 11.2478 2.00139 11.1136 1.98615L11.1472 1.73925L11.2813 1.75754L11.4154 1.78192L11.6806 1.83069L11.7293 1.59294L11.455 1.54418L11.3179 1.51979L11.1807 1.5015L10.9125 1.46797C10.821 1.45883 10.7265 1.45273 10.6351 1.44664C10.5436 1.44054 10.4492 1.4314 10.3577 1.4314L10.3486 1.67219C10.44 1.67219 10.5284 1.68134 10.6168 1.68743C10.7052 1.69353 10.7966 1.69963 10.885 1.70877L10.8606 1.95566C10.7265 1.94347 10.5924 1.93433 10.4614 1.92518L10.4217 2.66891L10.5772 2.68111L10.6534 2.6872C10.6991 2.69025 10.7418 2.6933 10.7875 2.69939L10.7631 2.94629C10.6869 2.93714 10.6107 2.9341 10.5345 2.928C10.4583 2.9219 10.3821 2.91581 10.3059 2.91581L10.0742 2.90971H10.0224H9.96756L9.73591 2.91581C9.65971 2.91581 9.58351 2.92495 9.5073 2.928C9.4311 2.9341 9.3549 2.93714 9.2787 2.94629L9.25431 2.69939C9.37624 2.6872 9.49816 2.68111 9.61703 2.67196L9.60484 2.43116C9.47987 2.44031 9.3549 2.44945 9.22993 2.46164L8.99218 2.49213C8.94646 2.49822 8.90074 2.50432 8.85502 2.51041L8.81539 2.25133C8.94341 2.23304 9.07448 2.2178 9.2025 2.20256C9.33052 2.19037 9.46158 2.18122 9.59265 2.17208L9.58046 1.93128C9.44634 1.94042 9.31223 1.94957 9.18116 1.96176L9.15678 1.71487C9.24517 1.70572 9.33661 1.69963 9.42501 1.69353C9.5134 1.68743 9.60484 1.67829 9.69324 1.67829L9.68409 1.43749C9.59265 1.43749 9.49816 1.44664 9.40672 1.45273C9.31528 1.45883 9.22079 1.46493 9.12934 1.47407L8.86111 1.5076L8.72395 1.52589L8.58679 1.55027L8.31246 1.59904L8.36123 1.83679L8.62641 1.78802L8.76053 1.76364L8.89464 1.74535L8.92817 1.99224C8.79406 2.00748 8.66299 2.03491 8.53192 2.05625L8.66908 2.78779L8.82149 2.76036L8.89464 2.74816C8.93731 2.74207 8.98304 2.73597 9.02876 2.72987L9.06229 2.97677L8.94951 2.99201L8.83673 3.01335L8.61117 3.05297C8.53497 3.06821 8.46182 3.0865 8.38561 3.10479L8.27284 3.12917C8.23626 3.13832 8.19968 3.15051 8.1631 3.15965L8.0991 2.91886L8.18749 2.89447C8.21797 2.88533 8.2454 2.87923 8.27588 2.87313L8.45267 2.83351L8.40085 2.59576L8.21797 2.63843C8.18749 2.64453 8.15701 2.65063 8.12653 2.65977L8.03509 2.68415L7.80648 2.74816C7.76076 2.76036 7.71809 2.7756 7.67541 2.79084L7.59312 2.54089L7.68456 2.51041C7.71504 2.50127 7.74552 2.49213 7.77905 2.48298L7.96803 2.43116L8.06252 2.40373C8.093 2.39459 8.12653 2.38849 8.15701 2.38239L8.34599 2.33972L8.29417 2.10197L8.0991 2.14769C8.06557 2.15684 8.03509 2.16293 8.00156 2.17208L7.90402 2.19951L7.84001 1.95871C7.88268 1.94652 7.92536 1.93433 7.97108 1.92214L8.10214 1.89166C8.19054 1.87032 8.27893 1.85203 8.36733 1.83069L8.31856 1.59294C8.22711 1.61123 8.13872 1.63257 8.04728 1.65391L7.91316 1.68439C7.86744 1.69658 7.82477 1.70877 7.77905 1.72096L7.51996 1.79412C7.43157 1.82155 7.34317 1.85203 7.25478 1.88251C7.16639 1.91299 7.07799 1.94042 6.99265 1.977L7.07799 2.20256C7.16029 2.16903 7.24868 2.1416 7.33403 2.11112C7.41938 2.08368 7.50472 2.0532 7.59007 2.02577L7.66322 2.26352C7.5352 2.30314 7.41023 2.34887 7.28221 2.39154L7.5352 3.0926L7.68151 3.04383L7.75162 3.01944C7.79429 3.00725 7.83696 2.98896 7.87963 2.97677L7.95279 3.21452C7.87963 3.23585 7.80648 3.26329 7.73333 3.28767C7.66017 3.31206 7.58702 3.33644 7.51691 3.36387L7.30355 3.44922C7.26697 3.46141 7.23344 3.4797 7.19687 3.49494L7.09323 3.54371L6.9896 3.31815L7.15724 3.24195C7.21211 3.21757 7.27002 3.19623 7.32793 3.17489L7.23954 2.94934C7.18163 2.97372 7.12371 2.99506 7.0658 3.01944L6.89511 3.09564C6.82195 3.12917 6.7488 3.15965 6.67869 3.19623L6.55677 3.26024L6.4379 3.02859L6.61164 2.94019C6.66955 2.90971 6.73051 2.88533 6.78843 2.85789L6.96521 2.77864C7.02617 2.75426 7.08714 2.72987 7.14505 2.70549L7.05666 2.47993C6.99569 2.50432 6.93168 2.5287 6.87072 2.55613L6.68784 2.63843L6.5842 2.41288L6.70613 2.35801C6.7488 2.33972 6.78843 2.31839 6.8311 2.30314L7.08409 2.20256L6.99874 1.977L6.73966 2.08064C6.69698 2.09588 6.65431 2.11721 6.61164 2.1355L6.48362 2.19341C6.40132 2.22999 6.31902 2.26657 6.23977 2.30924L5.99288 2.43726C5.95021 2.4586 5.91058 2.48298 5.87096 2.50432L5.74903 2.57442L5.87096 2.78474L5.98678 2.71768C6.02641 2.69635 6.06603 2.67196 6.10566 2.65367L6.34646 2.53175L6.45619 2.75426L6.27635 2.8457L6.18796 2.89142L6.09956 2.94019L6.46228 3.59248L6.52934 3.55285C6.55068 3.54066 6.57506 3.52847 6.59944 3.51628L6.6665 3.48275L6.78538 3.42179L6.89511 3.6443L6.69089 3.74793C6.65736 3.76317 6.62383 3.78451 6.5903 3.8028L6.48971 3.86071C6.3556 3.93386 6.22758 4.02226 6.09956 4.10151L5.9624 3.89424L6.1148 3.7967L6.191 3.74793L6.23063 3.72355L6.27025 3.70221L6.14528 3.49494L6.10566 3.51933L6.06603 3.54371L5.98678 3.59553L5.82828 3.69611C5.79475 3.71745 5.76123 3.74183 5.73074 3.76317L5.63321 3.83328L5.52043 3.91253L5.36498 3.70221L5.52348 3.58943L5.60273 3.53152C5.63016 3.51323 5.65454 3.49494 5.68198 3.47665L5.84657 3.36997L5.92887 3.31815L5.96849 3.29072L6.01117 3.26634L5.8862 3.05907L5.84352 3.08345L5.80085 3.11088L5.7155 3.16575L5.54786 3.27548L5.4107 3.06821C5.5631 2.97067 5.71246 2.87009 5.87096 2.78474L5.74903 2.57442C5.58749 2.66282 5.43203 2.76645 5.27658 2.86704C5.23696 2.89142 5.20343 2.91886 5.16685 2.94324L5.05712 3.02249C4.90472 3.12612 4.76146 3.245 4.61515 3.35778L4.76755 3.54371C4.91081 3.43398 5.04798 3.31815 5.19733 3.21757L5.34364 3.41874C5.28877 3.45836 5.23391 3.49494 5.18209 3.53761L5.02359 3.66258L5.4869 4.24781L5.60882 4.15028C5.62711 4.13504 5.64845 4.1198 5.66978 4.10455L5.77951 4.02835L5.92582 4.22953C5.7978 4.31487 5.68198 4.41546 5.56005 4.5069C5.52957 4.53129 5.50214 4.55567 5.47166 4.58005L5.38326 4.65626C5.32535 4.70502 5.26744 4.75684 5.21257 4.80866L5.04188 4.62578L5.10894 4.56177L5.17904 4.5008L5.31621 4.38193L5.16076 4.196L5.0175 4.31792L4.94739 4.37888L4.88033 4.44289L4.70659 4.60749C4.67306 4.63797 4.64258 4.67454 4.60906 4.70807L4.42312 4.52519C4.60296 4.33926 4.79499 4.16247 4.99311 3.99482L4.83766 3.80889L4.68526 3.93996L4.60906 4.00702L4.5359 4.07712L4.36521 3.89424C4.42922 3.83023 4.49932 3.77232 4.56638 3.7144L4.67002 3.62601C4.70355 3.59553 4.73707 3.56505 4.77365 3.53761L4.62125 3.35168C4.58467 3.37911 4.55114 3.41264 4.51456 3.44008L4.41093 3.53152C4.34082 3.59248 4.27072 3.65344 4.20366 3.71745L4.00858 3.90338C3.94153 3.96739 3.88057 4.0375 3.81656 4.10455L3.72207 4.20514C3.68854 4.23867 3.6611 4.27525 3.63062 4.30878L3.81046 4.47032C3.84094 4.43679 3.86837 4.40022 3.89885 4.36974L3.99334 4.2722C4.05735 4.20819 4.11527 4.14113 4.18233 4.07712L4.35911 4.25391C4.26462 4.3484 4.17318 4.44594 4.08174 4.54348L4.63344 5.04641L4.74012 4.93363L4.79194 4.87877C4.82242 4.84828 4.8529 4.81171 4.88643 4.78427L5.06322 4.96106C5.00835 5.01593 4.95653 5.07079 4.90472 5.12566L4.82547 5.20796C4.79803 5.23539 4.77365 5.26587 4.74927 5.2933L4.59991 5.46704C4.55114 5.52496 4.50542 5.58592 4.45665 5.64688L4.25853 5.49448L4.3713 5.35122C4.38959 5.32683 4.41093 5.30549 4.42922 5.28111L4.49018 5.211L4.3073 5.05251L4.24633 5.12261C4.225 5.147 4.20366 5.16833 4.18537 5.19576L4.06955 5.34512L3.99639 5.43961C3.97201 5.47009 3.95067 5.50362 3.92629 5.53715L3.84704 5.64993L3.63367 5.50057L3.74645 5.34207L3.77388 5.30245L3.80436 5.26282L3.86533 5.18662L3.98725 5.03422C4.00554 5.00678 4.02992 4.98545 4.05126 4.95801L4.11527 4.88486L3.93238 4.72636L3.86533 4.80256C3.84399 4.82695 3.8196 4.85438 3.80132 4.87877L3.67635 5.03726L3.47822 4.88486C3.53309 4.81476 3.58795 4.7416 3.64586 4.67454L3.82265 4.47032L3.64282 4.30878L3.45993 4.51909C3.40202 4.5892 3.3441 4.6654 3.28619 4.73551L3.20389 4.84219C3.17646 4.87877 3.15208 4.91534 3.12464 4.95192L2.9631 5.17748C2.91128 5.25368 2.86251 5.33293 2.81069 5.41218L3.01491 5.54324C3.06368 5.46704 3.11245 5.39084 3.16122 5.31769L3.31667 5.09823L3.51785 5.24453L3.40202 5.40913C3.38373 5.43656 3.36239 5.46399 3.34411 5.49143L3.28924 5.57677L3.91409 5.98521C3.94153 5.94254 3.96896 5.89682 3.99944 5.85415L4.04211 5.79319L4.11832 5.68346L4.31949 5.82976L4.18537 6.01874C4.1427 6.08275 4.10308 6.14676 4.0604 6.21077L3.99944 6.30831C3.9781 6.34184 3.95982 6.37537 3.94153 6.4089L3.8257 6.60702L3.60624 6.48815C3.6672 6.38451 3.72511 6.27783 3.78912 6.17115L3.58185 6.04618C3.51785 6.15286 3.45688 6.26259 3.39287 6.37232C3.3563 6.44243 3.31972 6.51253 3.28314 6.58568L3.21913 6.70761L2.98443 6.59483C3.04539 6.479 3.10331 6.36318 3.16427 6.24735C3.22828 6.13457 3.29229 6.02179 3.35935 5.90901L3.15208 5.78404C3.08197 5.89987 3.01796 6.0157 2.9509 6.13152L2.73144 6.01265L2.86556 5.77795C2.88994 5.73832 2.90823 5.6987 2.93262 5.66212L3.00577 5.54934L2.80155 5.42132L2.72535 5.53715C2.70096 5.57677 2.67963 5.6164 2.65524 5.65602L2.51808 5.89682C2.47541 5.97607 2.43578 6.05532 2.39311 6.13762L2.3291 6.26259C2.30776 6.30526 2.28947 6.34793 2.27118 6.38756L2.15536 6.64055L2.37787 6.73504L2.49065 6.48815C2.50893 6.44852 2.52722 6.40585 2.54856 6.36622L2.60952 6.2443L2.83203 6.35708L2.78631 6.44547C2.77107 6.47595 2.75583 6.50644 2.74364 6.53692L2.66134 6.7198L3.34106 7.02156L3.40507 6.8783C3.41421 6.85696 3.4264 6.83258 3.43555 6.81124L3.49651 6.69237L3.71902 6.80515L3.6672 6.90878C3.64891 6.94231 3.63367 6.97889 3.61843 7.01241L3.52394 7.22273C3.49346 7.29284 3.46603 7.36599 3.4386 7.4361L3.39592 7.54278C3.38068 7.57936 3.37154 7.61593 3.35935 7.65251L3.12464 7.57021L3.15512 7.48487L3.18865 7.39952L3.25571 7.22883L3.03015 7.13739L2.96005 7.31417L2.92652 7.40257L2.89604 7.49096L2.81984 7.71652L2.80765 7.75005L2.7985 7.78358L2.78021 7.85063L2.53027 7.77748C2.60342 7.52754 2.69182 7.28369 2.78936 7.0429L2.5638 6.95145L2.49065 7.13739L2.45407 7.23188L2.42054 7.32637L2.18584 7.24407C2.20108 7.20139 2.21327 7.15872 2.23156 7.11605L2.28033 6.99108C2.31386 6.90878 2.34434 6.82343 2.38092 6.74114L2.15841 6.64665C2.12183 6.73199 2.0883 6.82039 2.05477 6.90573L2.00295 7.0368C1.98467 7.07947 1.97247 7.12519 1.95723 7.16787L1.87189 7.4239C1.85665 7.46658 1.84445 7.5123 1.83226 7.55802L1.79569 7.69213C1.7713 7.78053 1.74387 7.86892 1.72558 7.96036L1.96028 8.01828C1.97857 7.92988 2.006 7.84454 2.03039 7.75614L2.06696 7.62508C2.07916 7.5824 2.09135 7.53668 2.10659 7.49706L2.34434 7.57326C2.33215 7.60374 2.323 7.63727 2.31386 7.6708L2.28642 7.76834L2.23156 7.96036L2.95395 8.14935L2.99662 7.99999L3.01796 7.92684L3.03625 7.86283L3.04539 7.8293L3.05759 7.79882L3.29534 7.87502C3.28314 7.9116 3.274 7.94817 3.26181 7.98475L3.23133 8.09448C3.20999 8.16763 3.18865 8.24079 3.17341 8.31699L3.1216 8.5395C3.11245 8.57608 3.10636 8.6157 3.10026 8.65228L3.07892 8.76506L2.83508 8.72238L2.86556 8.54255C2.87775 8.48463 2.89299 8.42367 2.90518 8.36576L2.67048 8.31089C2.65524 8.37185 2.64305 8.43282 2.62781 8.49378L2.53027 8.66447L2.50893 8.78334L2.49979 8.84126L2.49065 8.89917L2.47236 9.03633L2.21327 9.00281L2.23766 8.81078L2.27118 8.61875L2.30471 8.42672C2.31691 8.36271 2.33215 8.2987 2.34739 8.23774L2.11268 8.18287C2.09744 8.24688 2.0822 8.31394 2.06696 8.37795L2.03039 8.57608L1.78654 8.5334L1.81093 8.39929C1.82007 8.35357 1.82617 8.31089 1.83836 8.26822L1.89932 8.00609L1.66462 7.94817L1.60061 8.21945C1.58842 8.26517 1.58232 8.31089 1.57318 8.35661L1.54879 8.49378L1.52441 8.62789L1.51221 8.69495L1.50307 8.76201C1.48173 8.94489 1.45125 9.13082 1.44211 9.31371L1.68291 9.332C1.69205 9.15216 1.71948 8.97232 1.74082 8.79554L1.98771 8.83211L1.96333 9.03024L1.95114 9.13082L1.94504 9.17959L1.94199 9.22836L2.68267 9.29847C2.68572 9.24665 2.69487 9.19483 2.70096 9.14302L2.71011 9.06986L2.7284 8.93575L2.97529 8.97232C2.957 9.12473 2.93262 9.27713 2.92652 9.42954C2.92042 9.50574 2.91433 9.58194 2.91128 9.65814L2.90518 9.88979L2.65524 9.88675L2.66134 9.70386C2.66134 9.67338 2.66134 9.6429 2.66439 9.61242L2.67048 9.52098L2.42968 9.50574L2.42359 9.60023C2.42054 9.63071 2.42054 9.66424 2.42054 9.69472L2.41444 9.8837L2.4114 10.0026L2.41444 10.1214L2.41749 10.2586L2.15536 10.2678C2.15231 10.1367 2.14621 10.0087 2.15231 9.8776L2.15841 9.68253C2.15841 9.649 2.15841 9.61852 2.16145 9.58499L2.16755 9.48745L1.92675 9.47221L1.92066 9.57279C1.91761 9.60632 1.91761 9.63985 1.91761 9.67338L1.91151 9.87455L1.66157 9.87151L1.66767 9.60023C1.67071 9.50878 1.67986 9.42039 1.68595 9.332L1.44516 9.31371C1.43906 9.40515 1.42992 9.49964 1.42687 9.59108L1.42077 9.86846L1.41772 10.0026L1.42077 10.1367L1.42687 10.4141C1.42992 10.5055 1.43906 10.6 1.44516 10.6914L1.68595 10.6731C1.67986 10.5848 1.67071 10.4933 1.66767 10.4049L1.66157 10.1336L1.91151 10.1306L1.91761 10.3318C1.91761 10.3653 1.91761 10.3988 1.92066 10.4324L1.92675 10.5329L2.67048 10.4842C2.66743 10.4324 2.66134 10.3805 2.66134 10.3287L2.65829 10.2525L2.65524 10.1184L2.90518 10.1154L2.91128 10.347C2.91433 10.4232 2.92347 10.4994 2.92652 10.5756C2.93566 10.728 2.957 10.8804 2.97529 11.0328L2.7284 11.0694L2.70401 10.8896L2.69182 10.7981L2.68572 10.7524L2.68267 10.7067L2.44188 10.728L2.44492 10.7737L2.45102 10.8195L2.46321 10.9139L2.4876 11.0999L2.49674 11.1578L2.50589 11.2157L2.52722 11.3346L2.55161 11.4717L2.29557 11.5236L2.26204 11.3315C2.24985 11.2675 2.23766 11.2035 2.23156 11.1395L2.20717 10.9475L2.19498 10.8499L2.18889 10.8012L2.18584 10.7524L1.94504 10.7737L1.94809 10.8225L1.95419 10.8713L1.96638 10.9719L1.99076 11.17L1.74387 11.2066C1.72253 11.0267 1.6951 10.8499 1.68595 10.6701L1.44516 10.6884C1.4543 10.8743 1.48173 11.0572 1.50612 11.2401L1.51526 11.3071L1.52746 11.3742L1.55184 11.5083L1.57622 11.6455C1.58537 11.6912 1.59146 11.7369 1.60366 11.7826L1.66767 12.0539L1.90237 11.996L1.84141 11.7339C1.82921 11.6912 1.82312 11.6455 1.81397 11.6028L1.78959 11.4687L2.03343 11.426L2.07001 11.6241C2.08525 11.6882 2.10049 11.7552 2.11573 11.8192L2.84117 11.6516L2.8046 11.4992C2.7985 11.4748 2.79545 11.4504 2.78936 11.426L2.76497 11.295L3.00882 11.2523L3.03015 11.3651C3.03625 11.4016 3.04235 11.4413 3.05149 11.4778L3.10331 11.7003C3.11855 11.7766 3.14293 11.8497 3.16122 11.9229L3.1917 12.0326C3.20389 12.0692 3.20999 12.1057 3.22523 12.1423L2.98748 12.2185C2.97834 12.1911 2.96919 12.1606 2.96005 12.1301L2.93566 12.0417L2.8869 11.8649L2.65219 11.9259L2.70401 12.1057L2.7284 12.1972C2.73754 12.2277 2.74364 12.2581 2.75583 12.2886L2.83203 12.5142C2.84727 12.5569 2.85946 12.6026 2.87775 12.6453L2.6339 12.7367C2.62171 12.7062 2.60952 12.6757 2.60038 12.6453L2.56989 12.5538L2.50893 12.3679C2.49674 12.3374 2.49065 12.3069 2.4815 12.2734L2.45407 12.1789L2.40225 11.9899L2.16755 12.0509L2.22242 12.2429L2.24985 12.3404C2.25899 12.374 2.26814 12.4045 2.28033 12.438L2.04258 12.5142C2.02734 12.4715 2.01515 12.4288 2.00295 12.3862L1.96638 12.2551C1.94199 12.1667 1.91456 12.0814 1.89627 11.993L1.66157 12.0509C1.67986 12.1423 1.70729 12.2307 1.73168 12.3191L1.76825 12.4532C1.78045 12.4989 1.79264 12.5416 1.80788 12.5873L1.89322 12.8434C1.90846 12.886 1.92066 12.9318 1.93894 12.9744L1.99076 13.1055C2.02429 13.1909 2.05782 13.2792 2.0944 13.3646L2.31691 13.2701C2.28033 13.1878 2.24985 13.1025 2.21632 13.0202L2.16755 12.8952C2.14926 12.8525 2.13707 12.8098 2.12183 12.7672L2.35653 12.6849L2.39006 12.7794L2.42664 12.8739L2.49979 13.0598L3.18865 12.7763L3.13074 12.63L3.10331 12.5599C3.08502 12.5172 3.07283 12.4746 3.05759 12.4349L3.29229 12.3526C3.30448 12.3892 3.31667 12.4258 3.32887 12.4624L3.37154 12.569C3.39897 12.6392 3.4264 12.7123 3.45688 12.7824L3.55137 12.9927C3.56661 13.0263 3.58185 13.0628 3.60014 13.0964L3.65196 13.2L3.42945 13.3128L3.38678 13.2305C3.37154 13.203 3.35935 13.1756 3.34715 13.1482L3.27095 12.9805L3.04844 13.0781L3.12464 13.2488C3.13684 13.2762 3.15208 13.3067 3.16427 13.3341L3.20694 13.4195C3.24352 13.4896 3.2801 13.5627 3.31667 13.6328L3.38678 13.7517L3.16122 13.8797C3.13074 13.8218 3.09416 13.7669 3.06673 13.709L2.97834 13.5353L2.93262 13.4499C2.91738 13.4225 2.90213 13.392 2.88994 13.3615L2.81069 13.1848L2.58818 13.2823L2.67048 13.4652C2.68267 13.4957 2.69791 13.5261 2.71315 13.5566L2.75888 13.645L2.53637 13.7578L2.47541 13.6359C2.45407 13.5962 2.43883 13.5536 2.41749 13.5139L2.30471 13.2671L2.0822 13.3615L2.19803 13.6145C2.21632 13.6572 2.23461 13.6999 2.25594 13.7395L2.31995 13.8645C2.36263 13.9437 2.40225 14.026 2.44492 14.1053L2.58209 14.3461C2.60647 14.3857 2.62781 14.4284 2.65219 14.4649L2.7284 14.5808L2.93262 14.4497L2.85946 14.3369C2.83508 14.3004 2.81374 14.2577 2.7924 14.2211L2.65829 13.9864L2.87775 13.8675C2.94481 13.9834 3.00882 14.0992 3.07892 14.215L3.71597 13.8249C3.68854 13.7822 3.66415 13.7365 3.63672 13.6907L3.60014 13.6267L3.53309 13.5109L3.75255 13.392L3.86837 13.5902C3.88666 13.6237 3.90495 13.6572 3.92629 13.6907L3.98725 13.7883C4.02992 13.8523 4.06955 13.9193 4.11222 13.9803L4.24633 14.1693L4.04516 14.3156L3.93848 14.1662C3.92019 14.1419 3.9019 14.1175 3.88666 14.09L3.83789 14.0138L3.63672 14.1479L3.68854 14.2272C3.70683 14.2546 3.72511 14.279 3.7434 14.3034L3.85313 14.4558C3.87752 14.4893 3.89885 14.5198 3.92324 14.5533L3.99639 14.6478L4.08174 14.7576L3.87752 14.9222C3.71597 14.721 3.56052 14.5107 3.42031 14.2912L3.21913 14.4253L3.274 14.5107C3.29229 14.5381 3.31362 14.5655 3.33191 14.593L3.44774 14.7576L3.24657 14.9039L3.09112 14.6844C3.0393 14.6113 2.99358 14.532 2.94481 14.4589L2.74059 14.5869C2.7924 14.6661 2.84117 14.7423 2.89299 14.8216L3.05454 15.0471C3.08197 15.0837 3.10636 15.1203 3.13379 15.1569L3.21609 15.2635C3.274 15.3367 3.32887 15.4098 3.38983 15.48L3.57271 15.6903L3.75255 15.5287L3.57576 15.3245C3.51784 15.2544 3.46298 15.1843 3.40811 15.1142L3.60624 14.9618L3.73121 15.1203C3.75255 15.1477 3.77388 15.1721 3.79522 15.1965L3.86228 15.2727L4.42617 14.788L4.32558 14.6692L4.27986 14.6113L4.19757 14.5046L4.39569 14.3522C4.44446 14.4131 4.49018 14.4741 4.53895 14.532L4.6883 14.7057C4.71269 14.7332 4.73707 14.7637 4.76451 14.7911L4.84376 14.8734C4.89862 14.9283 4.94739 14.9862 5.00226 15.038L4.82547 15.2148C4.74012 15.1294 4.65782 15.038 4.57248 14.9526L4.39264 15.1172C4.48104 15.2087 4.56638 15.3001 4.65478 15.3885L4.82852 15.5531C4.86204 15.5836 4.89557 15.6171 4.9291 15.6476L4.75536 15.8427L4.71878 15.8122L4.68221 15.7787L4.6121 15.7116L4.47189 15.5775C4.38045 15.4861 4.29205 15.3885 4.20061 15.2971L4.02078 15.4617C4.11222 15.5592 4.20366 15.6567 4.29815 15.7512L4.12136 15.928C4.05735 15.864 3.99639 15.797 3.93238 15.7329L3.83789 15.6354C3.80741 15.6019 3.77693 15.5684 3.7495 15.5348L3.56966 15.6964C3.60014 15.7299 3.63062 15.7665 3.6611 15.8L3.7556 15.9006C3.8196 15.9676 3.88361 16.0347 3.94762 16.1018L4.1427 16.2877C4.20976 16.3517 4.27986 16.4127 4.34997 16.4736L4.4536 16.5651C4.49018 16.5956 4.52371 16.626 4.56029 16.6535L4.71269 16.4675C4.67611 16.4401 4.64258 16.4096 4.60906 16.3791L4.50542 16.2907C4.43836 16.2328 4.36826 16.1749 4.30425 16.1109L4.47494 15.928L4.54809 15.9981L4.6243 16.0652L4.7767 16.1963L5.25829 15.6263L5.13942 15.5226L5.08151 15.4739C5.04798 15.4464 5.01445 15.4129 4.98397 15.3824L5.15466 15.1995C5.20952 15.2544 5.26744 15.3032 5.32535 15.3519L5.41375 15.4281C5.44423 15.4525 5.47166 15.48 5.50214 15.5013C5.62406 15.5958 5.73989 15.6933 5.86791 15.7787L5.7216 15.9798C5.67283 15.9433 5.62101 15.9097 5.57224 15.8732L5.42899 15.7604L5.27963 15.9494L5.42899 16.0652C5.47775 16.1048 5.52957 16.1383 5.58139 16.1749L5.67893 16.245C5.71246 16.2664 5.74294 16.2907 5.77647 16.3121L5.89229 16.3883L5.75208 16.6077C5.69722 16.5712 5.64235 16.5376 5.58748 16.5011L5.42899 16.3883C5.37717 16.3487 5.3223 16.3151 5.27049 16.2755L5.11808 16.1536L4.96873 16.3426L5.12723 16.4675C5.17904 16.5072 5.23696 16.5468 5.28877 16.5864L5.14247 16.7876C4.99311 16.687 4.8529 16.5712 4.71269 16.4614L4.56029 16.6474C4.70659 16.7601 4.84985 16.879 5.00226 16.9827L5.11199 17.0619C5.14856 17.0863 5.18514 17.1137 5.22172 17.1381C5.37717 17.2387 5.53262 17.3423 5.69417 17.4307L5.81609 17.5008C5.85572 17.5252 5.89534 17.5465 5.93801 17.5679L6.18491 17.6959C6.26416 17.7386 6.34645 17.7721 6.42875 17.8117L6.55677 17.8696C6.59944 17.8879 6.64212 17.9093 6.68479 17.9245L6.94388 18.0281L7.02922 17.8026L6.77623 17.702C6.73356 17.6868 6.69394 17.6654 6.65126 17.6471L6.52934 17.5923L6.63297 17.3667L6.81586 17.449C6.87682 17.4764 6.94083 17.4978 7.00179 17.5252L7.27612 16.8333L7.12981 16.7754C7.10542 16.7662 7.08409 16.754 7.06275 16.7449L6.94083 16.69L7.04446 16.4645L7.1481 16.5133C7.18467 16.5285 7.2182 16.5468 7.25478 16.559L7.46814 16.6443C7.53825 16.6748 7.6114 16.6961 7.68456 16.7205C7.75771 16.7449 7.82782 16.7723 7.90402 16.7937L7.83087 17.0314C7.71504 16.9948 7.59921 16.9552 7.48339 16.9156L7.40109 17.1442C7.51996 17.1838 7.63884 17.2265 7.75771 17.2631L7.98632 17.3271L8.05337 17.3454L8.0869 17.3545L8.12043 17.3637L8.05642 17.6167C8.02594 17.6106 7.99241 17.6014 7.96193 17.5923L7.86744 17.5648L7.67846 17.513C7.55349 17.4734 7.43157 17.4307 7.30964 17.388L7.22735 17.6167C7.35537 17.6593 7.48034 17.705 7.60836 17.7447L7.5352 17.9824C7.44986 17.958 7.36451 17.9245 7.27916 17.8971C7.19382 17.8666 7.10847 17.8392 7.02313 17.8056L6.93778 18.0312C7.02313 18.0678 7.11152 18.0952 7.19992 18.1257C7.28831 18.1562 7.3767 18.1866 7.4651 18.2141L7.72418 18.2872C7.7699 18.2994 7.81258 18.3147 7.8583 18.3238L7.99241 18.3543C8.08386 18.3756 8.17225 18.397 8.26369 18.4152L8.31246 18.1775C8.22407 18.1592 8.13567 18.1379 8.04728 18.1165L7.91621 18.0861C7.87354 18.0769 7.82782 18.0617 7.78514 18.0495L7.84915 17.8087L7.94669 17.8361C7.98022 17.8453 8.0107 17.8514 8.04423 17.8605L8.23931 17.9062L8.39781 17.1777L8.2454 17.1412L8.17225 17.1229L8.13872 17.1168L8.10519 17.1076L8.04118 17.0893L8.10519 16.8485C8.14177 16.8577 8.17835 16.8699 8.21492 16.879L8.3277 16.9034C8.4039 16.9217 8.47706 16.94 8.55326 16.9552L8.77882 16.9948L8.89159 17.0162L9.00437 17.0314L8.97084 17.2783C8.84892 17.2661 8.73005 17.2417 8.61117 17.2204L8.56545 17.4582C8.69042 17.4795 8.81234 17.5039 8.93732 17.5191L9.17506 17.5496C9.22079 17.5557 9.26651 17.5557 9.31223 17.5618L9.29089 17.8209C9.15982 17.8148 9.03181 17.7934 8.90379 17.7782C8.77577 17.766 8.64775 17.7386 8.51973 17.7172L8.47401 17.955C8.60508 17.9763 8.73614 18.0038 8.87026 18.019L8.83673 18.2659L8.70261 18.2476L8.5685 18.2232L8.30332 18.1745L8.25455 18.4122L8.52887 18.461L8.66604 18.4854L8.8032 18.5036L9.07143 18.5372C9.16287 18.5463 9.25736 18.5524 9.3488 18.5585C9.44025 18.5646 9.53474 18.5737 9.62618 18.5737L9.63532 18.333C9.54388 18.333 9.45549 18.3238 9.36709 18.3177C9.2787 18.3116 9.18726 18.3055 9.09886 18.2964L9.12325 18.0495C9.25736 18.0617 9.39148 18.0708 9.52254 18.08L9.56217 17.3362L9.40672 17.324L9.33052 17.3179C9.2848 17.3149 9.24212 17.3118 9.1964 17.3058L9.22079 17.0589C9.29699 17.068 9.37319 17.071 9.44939 17.0771C9.52559 17.0832 9.60179 17.0893 9.678 17.0893L9.90965 17.0954H9.96147H10.0163L10.248 17.0893C10.3242 17.0893 10.4004 17.0802 10.4766 17.0771C10.5528 17.071 10.629 17.068 10.7052 17.0589L10.7296 17.3058C10.6077 17.3179 10.4857 17.324 10.3669 17.3332L10.3791 17.574C10.504 17.5648 10.629 17.5557 10.754 17.5435L10.9917 17.513C11.0374 17.5069 11.0832 17.5008 11.1289 17.4947L11.1685 17.7538C11.0405 17.7721 10.9094 17.7873 10.7814 17.8026C10.6534 17.8148 10.5223 17.8239 10.3912 17.8331L10.4034 18.0739C10.5376 18.0647 10.6717 18.0556 10.8027 18.0434L10.8271 18.2903C10.7387 18.2994 10.6473 18.3055 10.5589 18.3116C10.4705 18.3177 10.3791 18.3269 10.2907 18.3269L10.2998 18.5677C10.4339 18.5737 10.5284 18.5646 10.6199 18.5585ZM13.0156 3.03773L13.1193 2.79693L13.2961 2.87618L13.3844 2.91581C13.4149 2.928 13.4424 2.94629 13.4728 2.95848L13.6466 3.04687L13.7319 3.0926L13.8173 3.14136L13.9362 2.93105L13.8478 2.88228L13.7594 2.83656L13.5795 2.74512L13.6893 2.52261L13.9301 2.64453C13.9697 2.66587 14.0093 2.6872 14.0489 2.70854L14.1648 2.7756C14.3233 2.86094 14.4726 2.96458 14.625 3.05907L14.4879 3.26634L14.3172 3.1566L14.2318 3.10174L14.1891 3.07431L14.1465 3.04992L13.7624 3.69002C13.8081 3.7144 13.8508 3.74488 13.8935 3.77232L13.9575 3.81194L14.0703 3.88509L13.9331 4.09236C13.802 4.01006 13.6771 3.92472 13.5429 3.85157L13.4424 3.79365C13.4088 3.77536 13.3753 3.75403 13.3418 3.73879L13.1376 3.63515L13.2473 3.41264L13.4088 3.49494L13.4911 3.53761L13.5704 3.58333L13.6893 3.37302L13.607 3.3273L13.5216 3.28462L13.354 3.19928C13.2839 3.1627 13.2107 3.13222 13.1376 3.09869L13.0156 3.03773ZM6.98045 16.9613L6.87682 17.2021L6.70003 17.1229L6.61164 17.0832C6.58116 17.071 6.55372 17.0528 6.52324 17.0406L6.3495 16.9522L6.26416 16.9065L6.17881 16.8577L6.05994 17.068L6.14833 17.1168L6.23672 17.1625L6.41656 17.2539L6.30683 17.4764L6.06603 17.3545C6.02641 17.3332 5.98678 17.3118 5.94716 17.2905L5.83133 17.2235C5.67283 17.1381 5.52348 17.0345 5.37107 16.94L5.50824 16.7327L5.67893 16.8424L5.76427 16.8973L5.80695 16.9247L5.84962 16.9491L6.23368 16.309C6.18796 16.2846 6.14528 16.2542 6.10261 16.2267L6.0386 16.1871L5.92582 16.114L6.06298 15.9067C6.19405 15.989 6.31902 16.0743 6.45314 16.1475L6.55372 16.2054C6.58725 16.2237 6.62078 16.245 6.65431 16.2603L6.85853 16.3639L6.7488 16.5864L6.58725 16.5041L6.50495 16.4614L6.4257 16.4157L6.30683 16.626L6.38913 16.6718L6.47447 16.7144L6.64212 16.7998C6.71222 16.8363 6.78538 16.8668 6.85853 16.9004L6.98045 16.9613ZM10.7174 16.8181C10.6442 16.8242 10.5711 16.8303 10.4949 16.8363C10.4217 16.8424 10.3486 16.8485 10.2724 16.8485L10.0499 16.8546H9.99804H9.94318L9.72067 16.8485C9.64752 16.8485 9.57131 16.8394 9.49816 16.8363C9.42501 16.8303 9.3488 16.8272 9.27565 16.8181L9.06229 16.7906L8.95256 16.7754L8.84283 16.7571L8.62336 16.7175C8.55021 16.7022 8.4801 16.6839 8.40695 16.6687L8.29722 16.6443C8.26064 16.6352 8.22711 16.623 8.19054 16.6138L7.98327 16.5559C7.91316 16.5346 7.84306 16.5102 7.77295 16.4858C7.70285 16.4614 7.63274 16.4401 7.56264 16.4096L7.35537 16.3273C7.32184 16.3151 7.28831 16.2968 7.25478 16.2816L7.15419 16.2359C7.09018 16.2054 7.02313 16.178 6.95912 16.1444L6.76099 16.0438C6.72746 16.0286 6.69698 16.0073 6.66345 15.989L6.56592 15.9341C6.43485 15.864 6.31293 15.7787 6.18796 15.6994C6.15747 15.6811 6.13004 15.6598 6.09956 15.6385L6.01117 15.5744C5.88924 15.4921 5.77342 15.3946 5.65759 15.3062C5.62711 15.2849 5.59968 15.2574 5.57224 15.2331L5.4869 15.1599C5.43203 15.1111 5.37412 15.0624 5.3223 15.0106L5.16685 14.8612C5.11503 14.8094 5.06322 14.7545 5.0114 14.6996L4.9352 14.6204C4.90777 14.593 4.88643 14.5655 4.86204 14.5381L4.71574 14.3705C4.66697 14.3125 4.6243 14.2546 4.57857 14.1967L4.51152 14.1114C4.49018 14.0839 4.46884 14.0535 4.44751 14.023L4.31949 13.8431C4.27682 13.7822 4.24024 13.7182 4.19757 13.6572L4.1366 13.5627C4.11527 13.5322 4.10003 13.4987 4.08174 13.4682L3.97201 13.2762C3.93848 13.2122 3.90495 13.1482 3.87447 13.0842L3.82265 12.9866C3.80436 12.9531 3.79217 12.9196 3.77693 12.886L3.68549 12.6849C3.65501 12.6178 3.63062 12.5477 3.60319 12.4776L3.56357 12.374C3.54833 12.3404 3.53918 12.3039 3.52699 12.2703L3.45688 12.0661C3.44469 12.0326 3.43555 11.996 3.4264 11.9594L3.39592 11.8528C3.37763 11.7826 3.35325 11.7095 3.33801 11.6394L3.28924 11.423C3.2801 11.3864 3.274 11.3498 3.2679 11.3132L3.24962 11.2035L3.23133 11.0968L3.22218 11.045L3.21609 10.9901C3.1978 10.8438 3.17646 10.6975 3.16732 10.5482C3.16122 10.475 3.15512 10.4019 3.15208 10.3257L3.14598 10.1032L3.14293 9.99648L3.14598 9.88979L3.15208 9.66728C3.15512 9.59413 3.16427 9.51793 3.16732 9.44478C3.17341 9.29542 3.1978 9.14911 3.21609 9.00281L3.22218 8.94794L3.23133 8.89612L3.24962 8.78944L3.2679 8.67971C3.274 8.64313 3.2801 8.60656 3.28924 8.56998L3.33801 8.35357C3.35325 8.28041 3.37459 8.21031 3.39592 8.1402L3.4264 8.03352C3.43555 7.99694 3.44469 7.96341 3.45688 7.92684L3.52699 7.72262C3.53918 7.68909 3.54833 7.65251 3.56357 7.61898L3.60319 7.51535C3.63062 7.44524 3.65501 7.37818 3.68549 7.30808L3.77693 7.1069C3.79217 7.07338 3.80741 7.03985 3.82265 7.00632L3.87447 6.90878C3.908 6.84477 3.93848 6.78076 3.97201 6.71675L4.08174 6.52472C4.10003 6.49424 4.11832 6.46071 4.1366 6.43023L4.19757 6.33574C4.23719 6.27478 4.27682 6.21077 4.31949 6.14981L4.44751 5.96997C4.46884 5.93949 4.48713 5.91206 4.51152 5.88158L4.57857 5.79623C4.6243 5.73832 4.67002 5.68041 4.71574 5.62249L4.86204 5.45485C4.88643 5.42742 4.91081 5.39694 4.9352 5.37255L5.0114 5.2933C5.06322 5.24149 5.11199 5.18357 5.16685 5.13176L5.3223 4.9824C5.37412 4.93058 5.43203 4.88181 5.4869 4.83304L5.57224 4.75989C5.59968 4.73551 5.62711 4.71112 5.65759 4.68674C5.77342 4.59529 5.88924 4.5008 6.01117 4.41851L6.09956 4.3545C6.13004 4.33316 6.15747 4.31182 6.18796 4.29354C6.31293 4.21429 6.43485 4.13199 6.56592 4.05883L6.66345 4.00397C6.69698 3.98568 6.72746 3.96739 6.76099 3.9491L6.95912 3.84852C7.02313 3.81499 7.08714 3.78756 7.15419 3.75707L7.25478 3.71135C7.28831 3.69611 7.32184 3.68087 7.35537 3.66563L7.56264 3.58333C7.62969 3.5559 7.70285 3.53152 7.77295 3.50713C7.84306 3.48275 7.91316 3.45836 7.98327 3.43703L8.19054 3.37911C8.22711 3.36997 8.26064 3.35778 8.29722 3.34863L8.40695 3.32425C8.4801 3.30901 8.55021 3.29072 8.62336 3.27548L8.84283 3.23585L8.95256 3.21757L9.06229 3.20233L9.27565 3.17489C9.3488 3.1688 9.42196 3.1627 9.49816 3.1566C9.57131 3.15051 9.64447 3.14441 9.72067 3.14441L9.94318 3.13832H9.995H10.0499L10.2724 3.14441C10.3455 3.14441 10.4217 3.15356 10.4949 3.1566C10.568 3.1627 10.6442 3.16575 10.7174 3.17489L10.9308 3.20233L11.0405 3.21757L11.1502 3.23585L11.3697 3.27548C11.4428 3.29072 11.5129 3.30901 11.5861 3.32425L11.6958 3.34863C11.7324 3.35778 11.7659 3.36997 11.8025 3.37911L12.0098 3.43703C12.0799 3.45836 12.15 3.48275 12.2201 3.50713C12.2902 3.53152 12.3603 3.55285 12.4304 3.58333L12.6377 3.66563C12.6712 3.67782 12.7047 3.69611 12.7383 3.71135L12.8388 3.75707C12.9029 3.78756 12.9699 3.81499 13.0339 3.84852L13.232 3.9491C13.2656 3.96434 13.2961 3.98568 13.3296 4.00397L13.4271 4.05883C13.5582 4.12894 13.6801 4.21429 13.8051 4.29354C13.8356 4.31182 13.863 4.33316 13.8935 4.3545L13.9819 4.41851C14.1038 4.5008 14.2196 4.59834 14.3354 4.68674C14.3659 4.70807 14.3934 4.73551 14.4208 4.75989L14.5061 4.83304C14.561 4.88181 14.6189 4.93058 14.6707 4.9824L14.8262 5.13176C14.878 5.18357 14.9298 5.23844 14.9816 5.2933L15.0578 5.37255C15.0853 5.39999 15.1066 5.42742 15.131 5.45485L15.2773 5.62249C15.3261 5.68041 15.3687 5.73832 15.4145 5.79623L15.4815 5.88158C15.5029 5.90901 15.5242 5.93949 15.5455 5.96997L15.6736 6.14981C15.7162 6.21077 15.7528 6.27478 15.7955 6.33574L15.8564 6.43023C15.8778 6.46071 15.893 6.49424 15.9113 6.52472L16.021 6.71675C16.0546 6.78076 16.0881 6.84477 16.1186 6.90878L16.1704 7.00632C16.1887 7.03985 16.2009 7.07338 16.2161 7.1069L16.3076 7.30808C16.338 7.37514 16.3624 7.44524 16.3898 7.51535L16.4295 7.61898C16.4447 7.65251 16.4539 7.68909 16.4661 7.72262L16.5362 7.92684C16.5483 7.96036 16.5575 7.99694 16.5666 8.03352L16.5971 8.1402C16.6154 8.21031 16.6398 8.28346 16.655 8.35357L16.7038 8.56998C16.7129 8.60656 16.719 8.64313 16.7251 8.67971L16.7434 8.78944L16.7617 8.89612L16.7709 8.94794L16.777 9.00281C16.7952 9.14911 16.8166 9.29542 16.8257 9.44478C16.8318 9.51793 16.8379 9.59108 16.841 9.66728L16.8471 9.88979L16.8501 9.99648L16.8471 10.1032L16.841 10.3257C16.8379 10.3988 16.8288 10.475 16.8257 10.5482C16.8196 10.6975 16.7952 10.8438 16.777 10.9901L16.7709 11.045L16.7617 11.0968L16.7434 11.2035L16.7251 11.3132C16.719 11.3498 16.7129 11.3864 16.7038 11.423L16.655 11.6394C16.6398 11.7125 16.6185 11.7826 16.5971 11.8528L16.5666 11.9594C16.5575 11.996 16.5483 12.0295 16.5362 12.0661L16.4661 12.2703C16.4539 12.3039 16.4447 12.3404 16.4295 12.374L16.3898 12.4776C16.3624 12.5477 16.338 12.6148 16.3076 12.6849L16.2161 12.886C16.2009 12.9196 16.1856 12.9531 16.1704 12.9866L16.1186 13.0842C16.085 13.1482 16.0546 13.2122 16.021 13.2762L15.9113 13.4682C15.893 13.4987 15.8747 13.5322 15.8564 13.5627L15.7955 13.6572C15.7558 13.7182 15.7162 13.7822 15.6736 13.8431L15.5455 14.023C15.5242 14.0535 15.5059 14.0809 15.4815 14.1114L15.4145 14.1967C15.3687 14.2546 15.323 14.3125 15.2773 14.3705L15.131 14.5381C15.1066 14.5655 15.0822 14.596 15.0578 14.6204L14.9816 14.6996C14.9298 14.7515 14.8811 14.8094 14.8262 14.8612L14.6707 15.0106C14.6189 15.0624 14.561 15.1111 14.5061 15.1599L14.4208 15.2331C14.3934 15.2574 14.3659 15.2818 14.3354 15.3062C14.2196 15.3977 14.1038 15.4921 13.9819 15.5744L13.8935 15.6385C13.863 15.6598 13.8356 15.6811 13.8051 15.6994C13.6801 15.7787 13.5582 15.861 13.4271 15.9341L13.3296 15.989C13.2961 16.0073 13.2656 16.0256 13.232 16.0438L13.0339 16.1444C12.9699 16.178 12.9059 16.2054 12.8388 16.2359L12.7383 16.2816C12.7047 16.2968 12.6712 16.3121 12.6377 16.3273L12.4304 16.4096C12.3633 16.437 12.2902 16.4614 12.2201 16.4858C12.15 16.5102 12.0799 16.5346 12.0098 16.5559L11.8025 16.6138C11.7659 16.623 11.7324 16.6352 11.6958 16.6443L11.5861 16.6687C11.5129 16.6839 11.4428 16.7022 11.3697 16.7175L11.1502 16.7571L11.0405 16.7754L10.9308 16.7906L10.7174 16.8181Z" fill="#E9993E"/>
<path d="M11.4566 1.09753L11.4185 1.31372L11.6346 1.35185L11.6728 1.13566L11.4566 1.09753Z" fill="#E9993E"/>
<path d="M11.6237 0.135689L11.4939 0.871338L11.7101 0.90947L11.8398 0.173821L11.6237 0.135689Z" fill="#E9993E"/>
<path d="M12.9801 1.4839L12.905 1.69019L13.1113 1.76526L13.1864 1.55898L12.9801 1.4839Z" fill="#E9993E"/>
<path d="M13.3126 0.567084L13.0571 1.26904L13.2634 1.34412L13.5189 0.642162L13.3126 0.567084Z" fill="#E9993E"/>
<path d="M14.4108 2.13338L14.301 2.32349L14.4911 2.43325L14.6009 2.24314L14.4108 2.13338Z" fill="#E9993E"/>
<path d="M14.9016 1.28718L14.5281 1.93408L14.7182 2.04385L15.0917 1.39694L14.9016 1.28718Z" fill="#E9993E"/>
<path d="M15.7104 3.01837L15.5693 3.18652L15.7375 3.32764L15.8786 3.15948L15.7104 3.01837Z" fill="#E9993E"/>
<path d="M16.3388 2.27008L15.8586 2.84229L16.0268 2.9834L16.507 2.41119L16.3388 2.27008Z" fill="#E9993E"/>
<path d="M16.8376 4.11719L16.6694 4.2583L16.8105 4.42648L16.9787 4.28537L16.8376 4.11719Z" fill="#E9993E"/>
<path d="M17.5855 3.48736L17.0132 3.96753L17.1543 4.13571L17.7266 3.65554L17.5855 3.48736Z" fill="#E9993E"/>
<path d="M17.7565 5.39219L17.5664 5.50195L17.6762 5.69209L17.8663 5.58232L17.7565 5.39219Z" fill="#E9993E"/>
<path d="M18.6 4.90457L17.9531 5.27808L18.0629 5.46819L18.7098 5.09469L18.6 4.90457Z" fill="#E9993E"/>
<path d="M18.4363 6.81091L18.23 6.88599L18.3051 7.09228L18.5113 7.0172L18.4363 6.81091Z" fill="#E9993E"/>
<path d="M19.3531 6.4767L18.6511 6.73218L18.7262 6.93847L19.4282 6.68299L19.3531 6.4767Z" fill="#E9993E"/>
<path d="M18.8619 8.32271L18.6458 8.36084L18.6839 8.57703L18.9001 8.5389L18.8619 8.32271Z" fill="#E9993E"/>
<path d="M19.8243 8.15572L19.0886 8.2854L19.1267 8.50159L19.8624 8.37191L19.8243 8.15572Z" fill="#E9993E"/>
<path d="M19.0169 9.8894H18.7974V10.1089H19.0169V9.8894Z" fill="#E9993E"/>
<path d="M19.9958 9.8894H19.2488V10.1089H19.9958V9.8894Z" fill="#E9993E"/>
<path d="M18.6834 11.4203L18.6453 11.6365L18.8615 11.6746L18.8996 11.4584L18.6834 11.4203Z" fill="#E9993E"/>
<path d="M19.1248 11.4987L19.0867 11.7148L19.8223 11.8445L19.8604 11.6283L19.1248 11.4987Z" fill="#E9993E"/>
<path d="M18.3041 12.907L18.229 13.1133L18.4353 13.1884L18.5104 12.9821L18.3041 12.907Z" fill="#E9993E"/>
<path d="M18.7282 13.0603L18.6531 13.2666L19.355 13.5221L19.4301 13.3158L18.7282 13.0603Z" fill="#E9993E"/>
<path d="M17.6742 14.3065L17.5645 14.4966L17.7546 14.6063L17.8643 14.4162L17.6742 14.3065Z" fill="#E9993E"/>
<path d="M18.0612 14.5308L17.9514 14.7209L18.5983 15.0944L18.7081 14.9043L18.0612 14.5308Z" fill="#E9993E"/>
<path d="M16.8115 15.5755L16.6704 15.7437L16.8386 15.8848L16.9797 15.7166L16.8115 15.5755Z" fill="#E9993E"/>
<path d="M17.1516 15.8643L17.0105 16.0325L17.5827 16.5126L17.7238 16.3445L17.1516 15.8643Z" fill="#E9993E"/>
<path d="M15.74 16.6726L15.5718 16.8137L15.7129 16.9819L15.8811 16.8408L15.74 16.6726Z" fill="#E9993E"/>
<path d="M16.0246 17.0142L15.8564 17.1553L16.3366 17.7275L16.5048 17.5864L16.0246 17.0142Z" fill="#E9993E"/>
<path d="M14.4904 17.5675L14.3003 17.6772L14.4101 17.8674L14.6002 17.7576L14.4904 17.5675Z" fill="#E9993E"/>
<path d="M14.7153 17.9562L14.5251 18.0659L14.8986 18.7128L15.0888 18.6031L14.7153 17.9562Z" fill="#E9993E"/>
<path d="M13.1111 18.2352L12.9048 18.3103L12.9799 18.5166L13.1862 18.4415L13.1111 18.2352Z" fill="#E9993E"/>
<path d="M13.2649 18.6559L13.0586 18.731L13.3141 19.4329L13.5204 19.3578L13.2649 18.6559Z" fill="#E9993E"/>
<path d="M11.6329 18.6501L11.4167 18.6882L11.4549 18.9044L11.6711 18.8663L11.6329 18.6501Z" fill="#E9993E"/>
<path d="M11.7101 19.0908L11.4939 19.1289L11.6236 19.8646L11.8398 19.8264L11.7101 19.0908Z" fill="#E9993E"/>
<path d="M10.1075 18.802H10.0008H9.9977H9.88794V19.0215H9.9977H10.0008H10.1075V18.802Z" fill="#E9993E"/>
<path d="M10.1075 20.0003V19.2502H10.0008H9.88794V20.0003H9.9977H10.1075Z" fill="#E9993E"/>
<path d="M26 15V5H28.8879V12.5H34V15H26Z" fill="#E9993E"/>
<path d="M41.3312 15L40.719 13.0912H37.2496L36.6374 15H34L37.5165 5H40.4835L44 15H41.3312ZM39.9184 10.6757L38.9765 7.71959L38.0188 10.6757H39.9184Z" fill="#E9993E"/>
<path d="M58 7.44389L55.5558 8.72818C55.0565 7.91771 54.3206 7.50623 53.3219 7.50623C51.9028 7.50623 50.8778 8.52868 50.8778 10C50.8778 11.6459 52.0867 12.4938 53.3351 12.4938C54.3075 12.4938 55.0696 12.0823 55.6216 11.2843L57.8817 12.7806C56.9225 14.1397 55.3719 15 53.3614 15C50.2208 15 48 12.9426 48 10C48 7.05736 50.2208 5 53.3614 5C55.3587 5 57.1064 5.91023 58 7.44389Z" fill="#E9993E"/>
<path d="M66.8087 15L66.0722 13.0959H61.8989L61.1625 15H58L62.2166 5H65.7834L70 15H66.8087ZM65.1336 10.6736L63.9928 7.72021L62.852 10.6736H65.1336Z" fill="#E9993E"/>
<path d="M74 15C71.4035 15 70 13.486 70 10.8143V5H72.4561V10.7379C72.4561 11.8702 73.0409 12.4555 74 12.4555C74.9591 12.4555 75.5439 11.8702 75.5439 10.7379V5H78V10.8143C78 13.4733 76.5965 15 74 15Z" fill="#E9993E"/>
<path d="M84.1877 7.36908C83.5308 7.36908 83.0264 7.55611 83.0264 7.99252C83.0264 8.52868 83.9531 8.60349 84.8798 8.77805L85.173 8.8404C87.0616 9.22693 88 10.1746 88 11.6584C88 14.1022 86.0645 15 84.1408 15C82.5103 15 81.044 14.5885 80 13.803L81.2082 11.6708C81.9355 12.1197 82.7918 12.6559 84.176 12.6559C84.8328 12.6559 85.3255 12.4688 85.3255 11.9825C85.3255 11.4838 84.7507 11.384 83.6364 11.1845L83.2962 11.1222C81.2082 10.7357 80.3402 9.8005 80.3871 8.0798C80.434 6.23441 81.8768 5 84.0587 5C85.2434 5 86.3108 5.12469 87.8827 6.00997L86.827 8.15461C86.1935 7.83042 85.3138 7.36908 84.1877 7.36908Z" fill="#E9993E"/>
<path d="M96.8087 15L96.0722 13.0959H91.8989L91.1625 15H88L92.2166 5H95.7834L100 15H96.8087ZM95.1191 10.6736L93.9783 7.72021L92.8375 10.6736H95.1191Z" fill="#E9993E"/>
<path d="M99 3.42329V3H101.363V3.42329H100.494V6H99.8743V3.42329H99Z" fill="#E9993E"/>
<path d="M104.048 3H104.913L105 6H104.39L104.34 3.69041L103.598 5.64247H103.06L102.391 3.75616L102.345 6H101.735L101.817 3H102.687L103.338 4.89452L104.048 3Z" fill="#E9993E"/>
<path d="M112 7V12" stroke="#E9993E" stroke-linejoin="round"/>
<defs>
<clipPath id="clip0_11936_29947">
<rect width="34.32" height="10.4" fill="white" transform="translate(119 5)"/>
</clipPath>
</defs>
</svg>
