<svg width="206" height="69" viewBox="0 0 206 69" fill="none" xmlns="http://www.w3.org/2000/svg">
<rect x="1.5" y="1.5" width="203" height="66" rx="33" fill="#114550" stroke="#CA8923" stroke-width="3"/>
<path d="M33.2 42H29.26L26.44 27.4H29.16L31.32 39.3L33.72 27.4H36.42L38.8 39.3L40.98 27.4H43.7L40.88 42H36.94L35.06 32.9L33.2 42ZM48.7045 31.26C49.7979 30.6067 50.9445 30.28 52.1445 30.28C53.3579 30.28 54.2579 30.6067 54.8445 31.26C55.4312 31.9 55.7245 32.7867 55.7245 33.92V42H53.0445V34.2C53.0445 33.52 52.9179 33.04 52.6645 32.76C52.4245 32.48 51.9979 32.34 51.3845 32.34C50.4245 32.34 49.5312 32.64 48.7045 33.24V42H46.0245V26.96L48.7045 26.76V31.26ZM63.3063 30.28C66.2129 30.28 67.6663 31.6067 67.6663 34.26V42H65.9263L65.1663 40.6C64.0996 41.72 62.8529 42.28 61.4263 42.28C60.4129 42.28 59.6396 42 59.1063 41.44C58.5863 40.8667 58.3263 40.1067 58.3263 39.16C58.3263 38.2 58.6263 37.4267 59.2263 36.84C59.8263 36.2533 60.9463 35.84 62.5863 35.6L64.9863 35.24V34.28C64.9863 32.9867 64.3729 32.34 63.1463 32.34C61.9863 32.34 61.2996 32.9267 61.0863 34.1L59.0063 33.48C59.5129 31.3467 60.9463 30.28 63.3063 30.28ZM62.2863 40.32C63.1929 40.32 64.0929 39.8733 64.9863 38.98V36.92L63.0663 37.26C62.1996 37.4067 61.6263 37.64 61.3463 37.96C61.0663 38.28 60.9263 38.64 60.9263 39.04C60.9263 39.44 61.0463 39.7533 61.2863 39.98C61.5263 40.2067 61.8596 40.32 62.2863 40.32ZM69.5198 32.3V30.56H71.3598V28.48L74.0398 27.8V30.56H76.2198V32.3H74.0398V38.76C74.0398 39.3333 74.1198 39.74 74.2798 39.98C74.4532 40.22 74.6998 40.34 75.0198 40.34C75.3532 40.34 75.7132 40.2867 76.0998 40.18L76.4398 41.84C75.6532 42.1333 74.9465 42.28 74.3198 42.28C73.7065 42.28 73.2132 42.2067 72.8398 42.06C72.4665 41.9133 72.1865 41.7467 71.9998 41.56C71.8132 41.36 71.6732 41.0933 71.5798 40.76C71.4332 40.2933 71.3598 39.7133 71.3598 39.02V32.3H69.5198ZM86.6069 38.8C86.6069 41.08 85.0069 42.22 81.8069 42.22C80.4069 42.22 79.3669 41.92 78.6869 41.32C78.0069 40.7067 77.5802 39.82 77.4069 38.66L79.4869 38.34C79.6335 39.62 80.4269 40.26 81.8669 40.26C83.3202 40.26 84.0469 39.8067 84.0469 38.9C84.0469 38.5267 83.9002 38.2467 83.6069 38.06C83.3269 37.8733 82.7535 37.68 81.8869 37.48L80.9669 37.26C79.7802 36.98 78.9269 36.5733 78.4069 36.04C77.9002 35.4933 77.6469 34.7067 77.6469 33.68C77.6469 31.4133 79.1935 30.28 82.2869 30.28C83.6202 30.28 84.6135 30.5867 85.2669 31.2C85.9335 31.8 86.3469 32.68 86.5069 33.84L84.4269 34.14C84.2802 32.8733 83.5402 32.24 82.2069 32.24C80.8869 32.24 80.2269 32.6933 80.2269 33.6C80.2269 33.9733 80.3535 34.26 80.6069 34.46C80.8735 34.6467 81.4069 34.8333 82.2069 35.02L83.2469 35.28C84.4335 35.5733 85.2869 35.9867 85.8069 36.52C86.3402 37.04 86.6069 37.8 86.6069 38.8ZM93.3648 30.28C96.2715 30.28 97.7248 31.6067 97.7248 34.26V42H95.9848L95.2248 40.6C94.1582 41.72 92.9115 42.28 91.4848 42.28C90.4715 42.28 89.6982 42 89.1648 41.44C88.6448 40.8667 88.3848 40.1067 88.3848 39.16C88.3848 38.2 88.6848 37.4267 89.2848 36.84C89.8848 36.2533 91.0048 35.84 92.6448 35.6L95.0448 35.24V34.28C95.0448 32.9867 94.4315 32.34 93.2048 32.34C92.0448 32.34 91.3582 32.9267 91.1448 34.1L89.0648 33.48C89.5715 31.3467 91.0048 30.28 93.3648 30.28ZM92.3448 40.32C93.2515 40.32 94.1515 39.8733 95.0448 38.98V36.92L93.1248 37.26C92.2582 37.4067 91.6848 37.64 91.4048 37.96C91.1248 38.28 90.9848 38.64 90.9848 39.04C90.9848 39.44 91.1048 39.7533 91.3448 39.98C91.5848 40.2067 91.9182 40.32 92.3448 40.32ZM106.638 30.28C109.705 30.28 111.238 32.28 111.238 36.28C111.238 40.28 109.678 42.28 106.558 42.28C105.758 42.28 104.892 42.1467 103.958 41.88V46.1L101.278 46.46V30.56H102.558L103.258 31.42C104.392 30.66 105.518 30.28 106.638 30.28ZM105.898 32.34C105.218 32.34 104.572 32.5267 103.958 32.9V39.94C104.585 40.1267 105.225 40.22 105.878 40.22C106.838 40.22 107.525 39.8867 107.938 39.22C108.352 38.54 108.558 37.56 108.558 36.28C108.558 33.6533 107.672 32.34 105.898 32.34ZM119.197 30.28C122.264 30.28 123.797 32.28 123.797 36.28C123.797 40.28 122.237 42.28 119.117 42.28C118.317 42.28 117.45 42.1467 116.517 41.88V46.1L113.837 46.46V30.56H115.117L115.817 31.42C116.95 30.66 118.077 30.28 119.197 30.28ZM118.457 32.34C117.777 32.34 117.13 32.5267 116.517 32.9V39.94C117.144 40.1267 117.784 40.22 118.437 40.22C119.397 40.22 120.084 39.8867 120.497 39.22C120.91 38.54 121.117 37.56 121.117 36.28C121.117 33.6533 120.23 32.34 118.457 32.34Z" fill="#FFF7D2"/>
<path d="M148.775 45C148.57 45 148.375 44.9182 148.231 44.775C148.036 44.5807 147.954 44.2943 148.026 44.0284L149.319 39.2111C148.457 37.6155 148.005 35.8154 148.005 33.9949C148.005 27.9298 152.951 23 159.036 23C165.12 23 170.066 27.9298 170.066 33.9949C170.066 40.06 165.12 44.9898 159.036 44.9898C157.178 44.9898 155.362 44.5295 153.741 43.6499L148.98 44.9693C148.908 44.9898 148.847 45 148.775 45ZM153.844 42.0646C153.977 42.0646 154.11 42.1056 154.234 42.167C155.68 43.0159 157.343 43.4658 159.036 43.4658C164.269 43.4658 168.527 39.2213 168.527 34.0051C168.527 28.789 164.269 24.5444 159.036 24.5444C153.803 24.5444 149.544 28.789 149.544 34.0051C149.544 35.6722 149.986 37.2985 150.817 38.7303C150.919 38.9042 150.95 39.119 150.899 39.3133L149.873 43.1385L153.649 42.0953C153.71 42.0748 153.782 42.0646 153.844 42.0646Z" fill="#FFF6D2"/>
<g clip-path="url(#clip0_11999_30011)">
<path d="M156.009 29.786C155.967 29.7343 155.916 29.6918 155.856 29.6612C155.797 29.6306 155.732 29.6127 155.665 29.6086C155.598 29.6046 155.531 29.6145 155.468 29.6376C155.406 29.6608 155.349 29.6968 155.302 29.7431L154.581 30.4476C154.245 30.7771 154.121 31.2434 154.268 31.6525C154.878 33.3457 155.87 34.8831 157.171 36.1505C158.468 37.4218 160.041 38.3915 161.774 38.9876C162.193 39.1312 162.67 39.0101 163.007 38.6813L163.727 37.9775C163.775 37.9312 163.811 37.8756 163.835 37.8144C163.859 37.7531 163.869 37.6877 163.865 37.6223C163.861 37.557 163.842 37.4932 163.811 37.4354C163.78 37.3775 163.736 37.3267 163.683 37.2866L162.076 36.0654C162.02 36.0226 161.954 35.9928 161.884 35.9784C161.814 35.9641 161.742 35.9654 161.672 35.9823L160.147 36.3547C159.943 36.4044 159.73 36.4018 159.528 36.347C159.325 36.2923 159.141 36.1873 158.993 36.0422L157.282 34.3698C157.133 34.2248 157.026 34.0447 156.97 33.8471C156.913 33.6494 156.911 33.4409 156.961 33.2419L157.343 31.7512C157.361 31.6834 157.362 31.6126 157.347 31.5442C157.332 31.4758 157.302 31.4116 157.258 31.3564L156.009 29.786ZM154.776 29.2299C154.898 29.1107 155.044 29.0183 155.205 28.9587C155.367 28.899 155.539 28.8736 155.711 28.8841C155.883 28.8946 156.051 28.9408 156.203 29.0195C156.356 29.0983 156.489 29.2078 156.595 29.3408L157.845 30.9105C158.074 31.1984 158.155 31.5735 158.064 31.9275L157.683 33.4182C157.663 33.4954 157.664 33.5763 157.686 33.653C157.708 33.7296 157.75 33.7995 157.807 33.8559L159.519 35.5283C159.576 35.5847 159.648 35.6254 159.727 35.6467C159.805 35.6679 159.888 35.6689 159.967 35.6495L161.492 35.2771C161.671 35.2335 161.857 35.2301 162.038 35.2672C162.218 35.3044 162.387 35.3811 162.533 35.4916L164.139 36.7127C164.716 37.1518 164.769 37.9856 164.252 38.49L163.532 39.1939C163.017 39.6976 162.246 39.9188 161.528 39.6717C159.69 39.0397 158.021 38.0114 156.645 36.663C155.266 35.3187 154.213 33.688 153.566 31.8921C153.314 31.1909 153.541 30.4374 154.056 29.9337L154.776 29.2299H154.776Z" fill="#FFF6D2"/>
</g>
<defs>
<clipPath id="clip0_11999_30011">
<rect width="11.145" height="10.8911" fill="white" transform="translate(153.463 28.8818)"/>
</clipPath>
</defs>
</svg>
