<svg width="224" height="69" viewBox="0 0 224 69" fill="none" xmlns="http://www.w3.org/2000/svg">
<rect x="1.5" y="1.5" width="221" height="66" rx="33" fill="#10454F" stroke="#CA8923" stroke-width="3"/>
<g clip-path="url(#clip0_5459_37404)">
<path d="M161.024 24.7944C160.943 24.6918 160.841 24.6073 160.724 24.5466C160.607 24.486 160.478 24.4504 160.346 24.4424C160.214 24.4343 160.082 24.4539 159.958 24.5C159.835 24.546 159.722 24.6173 159.629 24.7093L158.207 26.1074C157.543 26.7612 157.298 27.6866 157.588 28.4985C158.792 31.8589 160.751 34.9099 163.319 37.4251C165.879 39.9481 168.985 41.8725 172.405 43.0555C173.232 43.3406 174.174 43.1001 174.839 42.4476L176.261 41.0508C176.354 40.959 176.427 40.8487 176.474 40.7272C176.521 40.6056 176.541 40.4757 176.532 40.346C176.524 40.2164 176.488 40.0899 176.426 39.975C176.365 39.8601 176.279 39.7594 176.174 39.6797L173.002 37.2562C172.89 37.1712 172.761 37.1122 172.623 37.0837C172.484 37.0551 172.341 37.0578 172.205 37.0914L169.193 37.8303C168.791 37.929 168.37 37.9238 167.971 37.8151C167.572 37.7065 167.208 37.4981 166.915 37.2103L163.538 33.8912C163.245 33.6035 163.032 33.2461 162.922 32.8538C162.811 32.4616 162.805 32.0478 162.905 31.6528L163.659 28.6943C163.693 28.5598 163.696 28.4194 163.667 28.2836C163.638 28.1479 163.578 28.0204 163.491 27.9108L161.024 24.7944ZM158.591 23.6907C158.831 23.4542 159.12 23.2708 159.439 23.1525C159.757 23.0342 160.097 22.9838 160.437 23.0046C160.777 23.0254 161.108 23.117 161.409 23.2732C161.71 23.4295 161.973 23.6469 162.182 23.9109L164.649 27.026C165.101 27.5974 165.261 28.3418 165.082 29.0442L164.33 32.0026C164.291 32.1559 164.293 32.3164 164.336 32.4686C164.379 32.6208 164.461 32.7595 164.575 32.8713L167.953 36.1904C168.067 36.3022 168.208 36.3831 168.364 36.4252C168.519 36.4673 168.682 36.4693 168.839 36.4308L171.848 35.6919C172.201 35.6052 172.57 35.5985 172.925 35.6722C173.281 35.7459 173.615 35.8982 173.903 36.1174L177.073 38.5409C178.213 39.4122 178.318 41.067 177.298 42.068L175.876 43.4648C174.858 44.4645 173.338 44.9035 171.92 44.4132C168.292 43.1589 164.997 41.1181 162.281 38.4423C159.558 35.7743 157.48 32.5382 156.204 28.974C155.706 27.5826 156.153 26.0872 157.17 25.0875L158.592 23.6907H158.591Z" fill="#FFF6D2"/>
</g>
<path d="M50.92 29.3196C49.6667 29.3196 48.82 29.7329 48.38 30.5596C47.94 31.3729 47.72 32.7529 47.72 34.6996C47.72 36.6329 47.94 38.0129 48.38 38.8396C48.82 39.6663 49.6667 40.0796 50.92 40.0796C51.8933 40.0796 52.58 39.8129 52.98 39.2796C53.3933 38.7463 53.6133 37.9729 53.64 36.9596L55.84 37.0596C55.7333 38.7796 55.32 40.0796 54.6 40.9596C53.8933 41.8396 52.6667 42.2796 50.92 42.2796C48.64 42.2796 47.0667 41.6129 46.2 40.2796C45.76 39.6129 45.4467 38.8396 45.26 37.9596C45.0867 37.0663 45 35.9796 45 34.6996C45 33.4196 45.0867 32.3396 45.26 31.4596C45.4467 30.5663 45.76 29.7863 46.2 29.1196C47.0667 27.7863 48.64 27.1196 50.92 27.1196C52.56 27.1196 53.74 27.4863 54.46 28.2196C55.18 28.9529 55.62 30.0329 55.78 31.4596L53.58 31.7996C53.5 30.9996 53.2533 30.3863 52.84 29.9596C52.4267 29.5329 51.7867 29.3196 50.92 29.3196Z" fill="#FFF7D2"/>
<path d="M62.2995 30.2796C65.2062 30.2796 66.6595 31.6063 66.6595 34.2596V41.9996H64.9195L64.1595 40.5996C63.0929 41.7196 61.8462 42.2796 60.4195 42.2796C59.4062 42.2796 58.6329 41.9996 58.0995 41.4396C57.5795 40.8663 57.3195 40.1063 57.3195 39.1596C57.3195 38.1996 57.6195 37.4263 58.2195 36.8396C58.8195 36.2529 59.9395 35.8396 61.5795 35.5996L63.9795 35.2396V34.2796C63.9795 32.9863 63.3662 32.3396 62.1395 32.3396C60.9795 32.3396 60.2929 32.9263 60.0795 34.0996L57.9995 33.4796C58.5062 31.3463 59.9395 30.2796 62.2995 30.2796ZM61.2795 40.3196C62.1862 40.3196 63.0862 39.8729 63.9795 38.9796V36.9196L62.0595 37.2596C61.1929 37.4063 60.6195 37.6396 60.3395 37.9596C60.0595 38.2796 59.9195 38.6396 59.9195 39.0396C59.9195 39.4396 60.0395 39.7529 60.2795 39.9796C60.5195 40.2063 60.8529 40.3196 61.2795 40.3196Z" fill="#FFF7D2"/>
<path d="M72.8931 41.9996H70.2131V26.9596L72.8931 26.5996V41.9996Z" fill="#FFF7D2"/>
<path d="M79.3384 41.9996H76.6584V26.9596L79.3384 26.5996V41.9996Z" fill="#FFF7D2"/>
<path d="M91.9316 42.2796C89.5849 42.2796 88.4116 41.0663 88.4116 38.6396V30.5596H91.0916V38.1996C91.0916 38.8929 91.2249 39.4063 91.4916 39.7396C91.7716 40.0596 92.2316 40.2196 92.8716 40.2196C93.7782 40.2196 94.6382 39.7929 95.4516 38.9396V30.5596H98.1316V41.9996H96.3916L95.6316 40.6196C94.5916 41.7263 93.3582 42.2796 91.9316 42.2796Z" fill="#FFF7D2"/>
<path d="M110.073 38.7996C110.073 41.0796 108.473 42.2196 105.273 42.2196C103.873 42.2196 102.833 41.9196 102.153 41.3196C101.473 40.7063 101.046 39.8196 100.873 38.6596L102.953 38.3396C103.099 39.6196 103.893 40.2596 105.333 40.2596C106.786 40.2596 107.513 39.8063 107.513 38.8996C107.513 38.5263 107.366 38.2463 107.073 38.0596C106.793 37.8729 106.219 37.6796 105.353 37.4796L104.433 37.2596C103.246 36.9796 102.393 36.5729 101.873 36.0396C101.366 35.4929 101.113 34.7063 101.113 33.6796C101.113 31.4129 102.659 30.2796 105.753 30.2796C107.086 30.2796 108.079 30.5863 108.733 31.1996C109.399 31.7996 109.813 32.6796 109.973 33.8396L107.893 34.1396C107.746 32.8729 107.006 32.2396 105.673 32.2396C104.353 32.2396 103.693 32.6929 103.693 33.5996C103.693 33.9729 103.819 34.2596 104.073 34.4596C104.339 34.6463 104.873 34.8329 105.673 35.0196L106.713 35.2796C107.899 35.5729 108.753 35.9863 109.273 36.5196C109.806 37.0396 110.073 37.7996 110.073 38.7996Z" fill="#FFF7D2"/>
<defs>
<clipPath id="clip0_5459_37404">
<rect width="22" height="21.614" fill="white" transform="translate(156 23)"/>
</clipPath>
</defs>
</svg>
