<svg width="224" height="69" viewBox="0 0 224 69" fill="none" xmlns="http://www.w3.org/2000/svg">
<rect x="1.5" y="1.5" width="221" height="66" rx="33" fill="#10454F" stroke="#CA8923" stroke-width="3"/>
<path d="M45 28.3996H52.84V30.4996H47.72V34.5396H52.18V36.6196H47.72V42.9996H45V28.3996Z" fill="#FFF7D2"/>
<path d="M56.4736 40.2196C56.8203 40.8863 57.4869 41.2196 58.4736 41.2196C59.4603 41.2196 60.1269 40.8863 60.4736 40.2196C60.8203 39.5529 60.9936 38.5729 60.9936 37.2796C60.9936 35.9863 60.8203 35.0063 60.4736 34.3396C60.1269 33.6729 59.4603 33.3396 58.4736 33.3396C57.4869 33.3396 56.8203 33.6729 56.4736 34.3396C56.1269 35.0063 55.9536 35.9863 55.9536 37.2796C55.9536 38.5729 56.1269 39.5529 56.4736 40.2196ZM63.6736 37.2796C63.6736 41.2796 61.9403 43.2796 58.4736 43.2796C55.0069 43.2796 53.2736 41.2796 53.2736 37.2796C53.2736 33.2796 55.0069 31.2796 58.4736 31.2796C61.9403 31.2796 63.6736 33.2796 63.6736 37.2796Z" fill="#FFF7D2"/>
<path d="M68.9495 42.9996H66.2695V27.9596L68.9495 27.5996V42.9996Z" fill="#FFF7D2"/>
<path d="M75.3948 42.9996H72.7148V27.9596L75.3948 27.5996V42.9996Z" fill="#FFF7D2"/>
<path d="M81.2002 40.2196C81.5468 40.8863 82.2135 41.2196 83.2002 41.2196C84.1868 41.2196 84.8535 40.8863 85.2002 40.2196C85.5468 39.5529 85.7202 38.5729 85.7202 37.2796C85.7202 35.9863 85.5468 35.0063 85.2002 34.3396C84.8535 33.6729 84.1868 33.3396 83.2002 33.3396C82.2135 33.3396 81.5468 33.6729 81.2002 34.3396C80.8535 35.0063 80.6802 35.9863 80.6802 37.2796C80.6802 38.5729 80.8535 39.5529 81.2002 40.2196ZM88.4002 37.2796C88.4002 41.2796 86.6668 43.2796 83.2002 43.2796C79.7335 43.2796 78.0002 41.2796 78.0002 37.2796C78.0002 33.2796 79.7335 31.2796 83.2002 31.2796C86.6668 31.2796 88.4002 33.2796 88.4002 37.2796Z" fill="#FFF7D2"/>
<path d="M94.7561 42.9996H92.2361L89.2961 31.5596H91.9961L93.6761 39.3996L95.5561 32.5596H97.8161L99.6961 39.3996L101.396 31.5596H104.096L101.176 42.9996H98.6361L96.6961 36.0796L94.7561 42.9996Z" fill="#FFF7D2"/>
<path d="M114.98 43.2796C112.633 43.2796 111.46 42.0663 111.46 39.6396V31.5596H114.14V39.1996C114.14 39.8929 114.273 40.4063 114.54 40.7396C114.82 41.0596 115.28 41.2196 115.92 41.2196C116.827 41.2196 117.687 40.7929 118.5 39.9396V31.5596H121.18V42.9996H119.44L118.68 41.6196C117.64 42.7263 116.407 43.2796 114.98 43.2796Z" fill="#FFF7D2"/>
<path d="M133.121 39.7996C133.121 42.0796 131.521 43.2196 128.321 43.2196C126.921 43.2196 125.881 42.9196 125.201 42.3196C124.521 41.7063 124.095 40.8196 123.921 39.6596L126.001 39.3396C126.148 40.6196 126.941 41.2596 128.381 41.2596C129.835 41.2596 130.561 40.8063 130.561 39.8996C130.561 39.5263 130.415 39.2463 130.121 39.0596C129.841 38.8729 129.268 38.6796 128.401 38.4796L127.481 38.2596C126.295 37.9796 125.441 37.5729 124.921 37.0396C124.415 36.4929 124.161 35.7063 124.161 34.6796C124.161 32.4129 125.708 31.2796 128.801 31.2796C130.135 31.2796 131.128 31.5863 131.781 32.1996C132.448 32.7996 132.861 33.6796 133.021 34.8396L130.941 35.1396C130.795 33.8729 130.055 33.2396 128.721 33.2396C127.401 33.2396 126.741 33.6929 126.741 34.5996C126.741 34.9729 126.868 35.2596 127.121 35.4596C127.388 35.6463 127.921 35.8329 128.721 36.0196L129.761 36.2796C130.948 36.5729 131.801 36.9863 132.321 37.5196C132.855 38.0396 133.121 38.7996 133.121 39.7996Z" fill="#FFF7D2"/>
<path d="M175.526 44.5625H169.058C168.867 44.5625 168.684 44.4868 168.549 44.352C168.415 44.2172 168.339 44.0344 168.339 43.8438V36.6562C168.339 36.4656 168.415 36.2828 168.549 36.148C168.684 36.0132 168.867 35.9375 169.058 35.9375H170.783L171.005 34.5H169.058C168.867 34.5 168.684 34.4243 168.549 34.2895C168.415 34.1547 168.339 33.9719 168.339 33.7812V32.5809C168.332 31.9443 168.546 31.3249 168.943 30.8272C169.145 30.6222 169.387 30.4599 169.654 30.35C169.921 30.2401 170.207 30.1849 170.495 30.1875H171.214V28.75H170.323C169.798 28.7249 169.274 28.8046 168.78 28.9844C168.287 29.1642 167.835 29.4405 167.449 29.7971C167.064 30.1538 166.753 30.5836 166.536 31.0616C166.318 31.5396 166.198 32.0561 166.183 32.5809V33.7812C166.183 33.9719 166.107 34.1547 165.972 34.2895C165.837 34.4243 165.654 34.5 165.464 34.5H164.026V35.9375H165.464C165.654 35.9375 165.837 36.0132 165.972 36.148C166.107 36.2828 166.183 36.4656 166.183 36.6562V43.8438C166.183 44.0344 166.107 44.2172 165.972 44.352C165.837 44.4868 165.654 44.5625 165.464 44.5625H159.714C159.142 44.5625 158.594 44.3353 158.189 43.931C157.785 43.5266 157.558 42.9781 157.558 42.4062V26.5938C157.558 26.0219 157.785 25.4734 158.189 25.0691C158.594 24.6647 159.142 24.4375 159.714 24.4375H175.526C176.098 24.4375 176.647 24.6647 177.051 25.0691C177.455 25.4734 177.683 26.0219 177.683 26.5938V42.4062C177.683 42.9781 177.455 43.5266 177.051 43.931C176.647 44.3353 176.098 44.5625 175.526 44.5625ZM169.776 43.125H175.526C175.717 43.125 175.9 43.0493 176.035 42.9145C176.169 42.7797 176.245 42.5969 176.245 42.4062V26.5938C176.245 26.4031 176.169 26.2203 176.035 26.0855C175.9 25.9507 175.717 25.875 175.526 25.875H159.714C159.523 25.875 159.34 25.9507 159.206 26.0855C159.071 26.2203 158.995 26.4031 158.995 26.5938V42.4062C158.995 42.5969 159.071 42.7797 159.206 42.9145C159.34 43.0493 159.523 43.125 159.714 43.125H164.745V37.375H163.724C163.423 37.375 163.134 37.2554 162.921 37.0424C162.709 36.8294 162.589 36.5406 162.589 36.2394V34.1909C162.591 33.891 162.711 33.604 162.924 33.3926C163.137 33.1812 163.425 33.0625 163.724 33.0625H164.745V32.5881C164.786 31.1506 165.396 29.7882 166.44 28.7993C167.484 27.8104 168.878 27.2758 170.315 27.3125H171.516C171.816 27.3125 172.103 27.4312 172.316 27.6426C172.529 27.854 172.649 28.141 172.651 28.4409V30.4822C172.653 30.6322 172.625 30.7811 172.569 30.9201C172.513 31.0592 172.429 31.1856 172.323 31.292C172.218 31.3984 172.092 31.4827 171.953 31.5398C171.814 31.597 171.666 31.626 171.516 31.625H170.495C170.306 31.6277 170.125 31.7052 169.992 31.8406C169.875 32.0624 169.811 32.3085 169.805 32.5594V33.0625H171.379C171.7 33.0779 172.003 33.214 172.227 33.4434C172.337 33.5623 172.418 33.7038 172.467 33.8578C172.515 34.0118 172.529 34.1747 172.508 34.3347L172.191 36.4119C172.149 36.6873 172.007 36.9376 171.793 37.1152C171.578 37.2928 171.305 37.3853 171.027 37.375H169.776V43.125Z" fill="#FFF6D2"/>
</svg>
