<svg width="313" height="319" viewBox="0 0 313 319" fill="none" xmlns="http://www.w3.org/2000/svg">
<rect x="2.17383" y="2" width="308" height="315" rx="50" fill="#10454F" stroke="#E9993E" stroke-width="4"/>
<path d="M54.5918 209.035L47.9918 204.14C47.0568 203.48 46.6718 202.875 46.6718 201.665V198.035C46.6718 197.1 47.1118 196.66 48.0468 196.66H48.6518C49.5868 196.66 50.0268 197.1 50.0268 198.035V204.36H57.5618V197.32C57.5618 192.535 55.1968 190.17 50.4118 190.17H46.2318C41.4468 190.17 39.0818 192.535 39.0818 197.32V203.425C39.0818 206.175 39.7968 207.77 42.1618 209.475L48.7618 214.37C49.6968 215.03 50.0818 215.635 50.0818 216.845V221.465C50.0818 222.4 49.6418 222.84 48.7068 222.84H47.9918C47.0568 222.84 46.6168 222.4 46.6168 221.465V213.985H39.0818V222.18C39.0818 226.965 41.4468 229.33 46.2318 229.33H50.5218C55.3068 229.33 57.6718 226.965 57.6718 222.18V215.085C57.6718 212.225 56.9568 210.74 54.5918 209.035ZM60.4805 190.5V229H74.8905V222.125H68.1805V212.885H74.5055V206.01H68.1805V197.375H74.7805V190.5H60.4805ZM96.6557 229V190.5H90.0007L90.0557 198.475L90.1657 209.585L85.7107 190.5H77.8457V229H84.5007L84.3907 217.835L84.2807 208.045L89.1757 229H96.6557ZM99.8838 229H110.719C116.274 229 118.969 226.305 118.969 220.75V198.75C118.969 193.195 116.274 190.5 110.719 190.5H99.8838V229ZM107.584 197.1H109.124C110.609 197.1 111.269 197.76 111.269 199.245V220.255C111.269 221.74 110.609 222.4 109.124 222.4H107.584V197.1ZM148.969 190.5H141.269V221.355C141.269 222.29 140.829 222.73 139.894 222.73H139.069C138.134 222.73 137.694 222.29 137.694 221.355V190.5H129.994V222.18C129.994 226.965 132.359 229.33 137.144 229.33H141.819C146.604 229.33 148.969 226.965 148.969 222.18V190.5ZM167.431 209.035L160.831 204.14C159.896 203.48 159.511 202.875 159.511 201.665V198.035C159.511 197.1 159.951 196.66 160.886 196.66H161.491C162.426 196.66 162.866 197.1 162.866 198.035V204.36H170.401V197.32C170.401 192.535 168.036 190.17 163.251 190.17H159.071C154.286 190.17 151.921 192.535 151.921 197.32V203.425C151.921 206.175 152.636 207.77 155.001 209.475L161.601 214.37C162.536 215.03 162.921 215.635 162.921 216.845V221.465C162.921 222.4 162.481 222.84 161.546 222.84H160.831C159.896 222.84 159.456 222.4 159.456 221.465V213.985H151.921V222.18C151.921 226.965 154.286 229.33 159.071 229.33H163.361C168.146 229.33 170.511 226.965 170.511 222.18V215.085C170.511 212.225 169.796 210.74 167.431 209.035ZM181.285 190.5V229H195.695V222.125H188.985V212.885H195.31V206.01H188.985V197.375H195.585V190.5H181.285ZM207.725 229H214.985L217.9 203.81V229H225.49V190.5H214.325L211.96 213.82L209.76 190.5H198.65V229H204.81V203.535L207.725 229ZM248.27 229L243.21 190.5H232.705L227.645 229H234.63L235.18 223.39H240.02L240.625 229H248.27ZM237.6 199.905L239.305 216.68H235.895L237.6 199.905ZM258.162 190.5H250.462V229H258.162V190.5ZM261.488 190.5V229H274.743V222.125H269.188V190.5H261.488Z" fill="#E9993E"/>
<path d="M53.4367 254.11L49.8367 251.44C49.3267 251.08 49.1167 250.75 49.1167 250.09V248.11C49.1167 247.6 49.3567 247.36 49.8667 247.36H50.1967C50.7067 247.36 50.9467 247.6 50.9467 248.11V251.56H55.0567V247.72C55.0567 245.11 53.7667 243.82 51.1567 243.82H48.8767C46.2667 243.82 44.9767 245.11 44.9767 247.72V251.05C44.9767 252.55 45.3667 253.42 46.6567 254.35L50.2567 257.02C50.7667 257.38 50.9767 257.71 50.9767 258.37V260.89C50.9767 261.4 50.7367 261.64 50.2267 261.64H49.8367C49.3267 261.64 49.0867 261.4 49.0867 260.89V256.81H44.9767V261.28C44.9767 263.89 46.2667 265.18 48.8767 265.18H51.2167C53.8267 265.18 55.1167 263.89 55.1167 261.28V257.41C55.1167 255.85 54.7267 255.04 53.4367 254.11ZM67.196 244H62.996V260.83C62.996 261.34 62.756 261.58 62.246 261.58H61.796C61.286 261.58 61.046 261.34 61.046 260.83V244H56.846V261.28C56.846 263.89 58.136 265.18 60.746 265.18H63.296C65.906 265.18 67.196 263.89 67.196 261.28V244ZM73.3533 257.71H75.3033C77.9133 257.71 79.2033 256.42 79.2033 253.81V247.9C79.2033 245.29 77.9133 244 75.3033 244H69.1533V265H73.3533V257.71ZM75.0033 248.35V253.36C75.0033 253.87 74.7633 254.11 74.2533 254.11H73.3533V247.6H74.2533C74.7633 247.6 75.0033 247.84 75.0033 248.35ZM85.074 257.71H87.024C89.634 257.71 90.924 256.42 90.924 253.81V247.9C90.924 245.29 89.634 244 87.024 244H80.874V265H85.074V257.71ZM86.724 248.35V253.36C86.724 253.87 86.484 254.11 85.974 254.11H85.074V247.6H85.974C86.484 247.6 86.724 247.84 86.724 248.35ZM103.035 261.28V247.72C103.035 245.11 101.745 243.82 99.1347 243.82H96.4347C93.8247 243.82 92.5347 245.11 92.5347 247.72V261.28C92.5347 263.89 93.8247 265.18 96.4347 265.18H99.1347C101.745 265.18 103.035 263.89 103.035 261.28ZM98.8347 248.17V260.83C98.8347 261.34 98.5947 261.58 98.0847 261.58H97.4847C96.9747 261.58 96.7347 261.34 96.7347 260.83V248.17C96.7347 247.66 96.9747 247.42 97.4847 247.42H98.0847C98.5947 247.42 98.8347 247.66 98.8347 248.17ZM113.359 255.07C114.499 254.65 115.159 253.75 115.159 251.95V247.9C115.159 245.29 113.869 244 111.259 244H104.989V265H109.189V257.05H110.239C110.749 257.05 110.989 257.29 110.989 257.8V265H115.189V257.77C115.189 256.24 114.649 255.43 113.359 255.07ZM110.959 248.41V252.73C110.959 253.24 110.719 253.48 110.209 253.48H109.189V247.66H110.209C110.719 247.66 110.959 247.9 110.959 248.41ZM123.244 265V247.75H125.794V244H116.494V247.75H119.044V265H123.244ZM138.447 264.19C140.067 264.19 140.787 263.35 140.787 261.64V250.81C140.787 247.3 139.287 245.89 136.107 245.89H132.087C128.907 245.89 127.407 247.3 127.407 250.81V262.33C127.407 265.84 128.907 267.25 132.087 267.25H139.647V266.23H132.087C129.627 266.23 128.487 265.15 128.487 262.33V250.81C128.487 247.99 129.627 246.91 132.087 246.91H136.107C138.567 246.91 139.707 247.99 139.707 250.81V261.64C139.707 262.78 139.287 263.17 138.507 263.17H138.417C137.967 263.17 137.787 262.99 137.787 262.54V251.59C137.787 249.79 136.827 248.89 134.937 248.89H133.347C131.427 248.89 130.437 249.79 130.437 251.59V254.05H133.467V252.13C133.467 251.8 133.617 251.65 133.947 251.65H134.187C134.517 251.65 134.667 251.8 134.667 252.13V254.56L132.267 255.37C130.797 255.88 130.287 256.72 130.287 258.43V261.79C130.287 263.38 131.157 264.22 132.477 264.22C133.467 264.22 134.067 263.86 134.877 263.08C135.327 263.83 136.017 264.19 137.067 264.19H138.447ZM134.007 261.28C133.527 261.28 133.317 261.1 133.317 260.68V258.64C133.317 258.13 133.467 257.83 133.887 257.65L134.667 257.32V261.16C134.457 261.22 134.337 261.28 134.007 261.28ZM142.847 244V265H150.077V261.25H147.047V244H142.847ZM162.346 265L159.586 244H153.856L151.096 265H154.906L155.206 261.94H157.846L158.176 265H162.346ZM156.526 249.13L157.456 258.28H155.596L156.526 249.13ZM169.773 255.73V260.83C169.773 261.34 169.533 261.58 169.023 261.58H168.483C167.973 261.58 167.733 261.34 167.733 260.83V248.17C167.733 247.66 167.973 247.42 168.483 247.42H168.963C169.473 247.42 169.713 247.66 169.713 248.17V252.64H173.853V247.72C173.853 245.11 172.563 243.82 169.953 243.82H167.433C164.823 243.82 163.533 245.11 163.533 247.72V261.28C163.533 263.89 164.823 265.18 167.433 265.18H170.013C172.623 265.18 173.913 263.89 173.913 261.28V255.73H169.773ZM186.315 265L183.555 244H177.825L175.065 265H178.875L179.175 261.94H181.815L182.145 265H186.315ZM180.495 249.13L181.425 258.28H179.565L180.495 249.13ZM197.882 244H193.682V260.83C193.682 261.34 193.442 261.58 192.932 261.58H192.482C191.972 261.58 191.732 261.34 191.732 260.83V244H187.532V261.28C187.532 263.89 188.822 265.18 191.432 265.18H193.982C196.592 265.18 197.882 263.89 197.882 261.28V244ZM208.179 254.11L204.579 251.44C204.069 251.08 203.859 250.75 203.859 250.09V248.11C203.859 247.6 204.099 247.36 204.609 247.36H204.939C205.449 247.36 205.689 247.6 205.689 248.11V251.56H209.799V247.72C209.799 245.11 208.509 243.82 205.899 243.82H203.619C201.009 243.82 199.719 245.11 199.719 247.72V251.05C199.719 252.55 200.109 253.42 201.399 254.35L204.999 257.02C205.509 257.38 205.719 257.71 205.719 258.37V260.89C205.719 261.4 205.479 261.64 204.969 261.64H204.579C204.069 261.64 203.829 261.4 203.829 260.89V256.81H199.719V261.28C199.719 263.89 201.009 265.18 203.619 265.18H205.959C208.569 265.18 209.859 263.89 209.859 261.28V257.41C209.859 255.85 209.469 255.04 208.179 254.11ZM222.122 265L219.362 244H213.632L210.872 265H214.682L214.982 261.94H217.622L217.952 265H222.122ZM216.302 249.13L217.232 258.28H215.372L216.302 249.13ZM227.205 260.38H223.305V265H227.205V260.38ZM235.175 255.73V260.83C235.175 261.34 234.935 261.58 234.425 261.58H233.885C233.375 261.58 233.135 261.34 233.135 260.83V248.17C233.135 247.66 233.375 247.42 233.885 247.42H234.365C234.875 247.42 235.115 247.66 235.115 248.17V252.64H239.255V247.72C239.255 245.11 237.965 243.82 235.355 243.82H232.835C230.225 243.82 228.935 245.11 228.935 247.72V261.28C228.935 263.89 230.225 265.18 232.835 265.18H235.415C238.025 265.18 239.315 263.89 239.315 261.28V255.73H235.175ZM251.654 261.28V247.72C251.654 245.11 250.364 243.82 247.754 243.82H245.054C242.444 243.82 241.154 245.11 241.154 247.72V261.28C241.154 263.89 242.444 265.18 245.054 265.18H247.754C250.364 265.18 251.654 263.89 251.654 261.28ZM247.454 248.17V260.83C247.454 261.34 247.214 261.58 246.704 261.58H246.104C245.594 261.58 245.354 261.34 245.354 260.83V248.17C245.354 247.66 245.594 247.42 246.104 247.42H246.704C247.214 247.42 247.454 247.66 247.454 248.17ZM258.558 265H262.518L264.108 251.26V265H268.248V244H262.158L260.868 256.72L259.668 244H253.608V265H256.968V251.11L258.558 265Z" fill="#FFF6D2"/>
<rect x="102.674" y="56.5" width="108" height="108" rx="54" stroke="#FFF6D2" stroke-width="5"/>
<path fill-rule="evenodd" clip-rule="evenodd" d="M133.049 90.8438C129.787 90.8438 127.143 93.4881 127.143 96.75V128.25C127.143 131.512 129.787 134.156 133.049 134.156H180.299C183.561 134.156 186.205 131.512 186.205 128.25V96.75C186.205 93.4881 183.561 90.8438 180.299 90.8438H133.049ZM131.08 97.2947V128.25C131.08 129.337 131.962 130.219 133.049 130.219H180.299C181.386 130.219 182.268 129.337 182.268 128.25V97.2948L163.369 112.293C163.346 112.311 163.323 112.329 163.299 112.346C159.385 115.176 153.963 115.176 150.049 112.346C150.025 112.329 150.002 112.311 149.979 112.293L131.08 97.2947ZM179.101 94.7812H134.247L152.39 109.18C154.913 110.982 158.434 110.982 160.958 109.18L179.101 94.7812Z" fill="#FFF6D2"/>
</svg>
