<svg width="313" height="319" viewBox="0 0 313 319" fill="none" xmlns="http://www.w3.org/2000/svg">
<rect x="2.17383" y="2" width="308" height="315" rx="50" fill="#10454F" stroke="#E9993E" stroke-width="4"/>
<path d="M106.514 212.005V221.355C106.514 222.29 106.074 222.73 105.139 222.73H104.149C103.214 222.73 102.774 222.29 102.774 221.355V198.145C102.774 197.21 103.214 196.77 104.149 196.77H105.029C105.964 196.77 106.404 197.21 106.404 198.145V206.34H113.994V197.32C113.994 192.535 111.629 190.17 106.844 190.17H102.224C97.4391 190.17 95.0741 192.535 95.0741 197.32V222.18C95.0741 226.965 97.4391 229.33 102.224 229.33H106.954C111.739 229.33 114.104 226.965 114.104 222.18V212.005H106.514ZM136.425 229L131.365 190.5H120.86L115.8 229H122.785L123.335 223.39H128.175L128.78 229H136.425ZM125.755 199.905L127.46 216.68H124.05L125.755 199.905ZM138.562 190.5V229H151.817V222.125H146.262V190.5H138.562ZM154.37 190.5V229H167.625V222.125H162.07V190.5H154.37ZM197.063 190.5H189.363V221.355C189.363 222.29 188.923 222.73 187.988 222.73H187.163C186.228 222.73 185.788 222.29 185.788 221.355V190.5H178.088V222.18C178.088 226.965 180.453 229.33 185.238 229.33H189.913C194.698 229.33 197.063 226.965 197.063 222.18V190.5ZM215.525 209.035L208.925 204.14C207.99 203.48 207.605 202.875 207.605 201.665V198.035C207.605 197.1 208.045 196.66 208.98 196.66H209.585C210.52 196.66 210.96 197.1 210.96 198.035V204.36H218.495V197.32C218.495 192.535 216.13 190.17 211.345 190.17H207.165C202.38 190.17 200.015 192.535 200.015 197.32V203.425C200.015 206.175 200.73 207.77 203.095 209.475L209.695 214.37C210.63 215.03 211.015 215.635 211.015 216.845V221.465C211.015 222.4 210.575 222.84 209.64 222.84H208.925C207.99 222.84 207.55 222.4 207.55 221.465V213.985H200.015V222.18C200.015 226.965 202.38 229.33 207.165 229.33H211.455C216.24 229.33 218.605 226.965 218.605 222.18V215.085C218.605 212.225 217.89 210.74 215.525 209.035Z" fill="#E9993E"/>
<rect x="102.674" y="56.5" width="108" height="108" rx="54" stroke="#FFF6D2" stroke-width="5"/>
<g clip-path="url(#clip0_9421_21777)">
<path d="M141.192 87.6485C140.982 87.3828 140.716 87.164 140.413 87.0067C140.11 86.8495 139.777 86.7574 139.435 86.7365C139.093 86.7157 138.75 86.7665 138.43 86.8858C138.109 87.005 137.818 87.1898 137.576 87.428L133.892 91.0505C132.172 92.7445 131.538 95.142 132.289 97.2455C135.409 105.952 140.484 113.857 147.138 120.374C153.771 126.91 161.817 131.896 170.679 134.962C172.82 135.7 175.26 135.077 176.984 133.387L180.668 129.768C180.91 129.53 181.099 129.244 181.22 128.929C181.341 128.614 181.393 128.278 181.372 127.942C181.351 127.606 181.257 127.278 181.097 126.98C180.937 126.682 180.714 126.422 180.444 126.215L172.225 119.936C171.936 119.716 171.6 119.563 171.242 119.489C170.884 119.415 170.513 119.422 170.159 119.509L162.357 121.424C161.315 121.679 160.224 121.666 159.19 121.384C158.155 121.103 157.213 120.563 156.454 119.817L147.704 111.218C146.945 110.472 146.394 109.546 146.107 108.53C145.82 107.514 145.806 106.441 146.065 105.418L148.018 97.753C148.106 97.4044 148.113 97.0406 148.038 96.6889C147.963 96.3373 147.807 96.007 147.583 95.723L141.192 87.6485ZM134.886 84.789C135.51 84.1764 136.259 83.701 137.083 83.3945C137.908 83.088 138.79 82.9574 139.67 83.0114C140.55 83.0653 141.408 83.3026 142.188 83.7075C142.967 84.1123 143.65 84.6755 144.192 85.3595L150.583 93.4305C151.755 94.911 152.168 96.8395 151.705 98.6595L149.756 106.325C149.655 106.722 149.661 107.137 149.772 107.532C149.883 107.926 150.096 108.285 150.39 108.575L159.143 117.175C159.438 117.464 159.805 117.674 160.207 117.783C160.609 117.892 161.033 117.897 161.438 117.798L169.236 115.883C170.15 115.658 171.104 115.641 172.026 115.832C172.948 116.023 173.814 116.417 174.558 116.986L182.773 123.265C185.727 125.522 185.997 129.81 183.354 132.403L179.67 136.022C177.034 138.612 173.094 139.75 169.421 138.479C160.02 135.229 151.485 129.942 144.448 123.009C137.392 116.097 132.01 107.712 128.702 98.4775C127.412 94.8725 128.57 90.998 131.206 88.408L134.89 84.789H134.886Z" fill="#FFF6D2"/>
</g>
<path d="M97.8491 259.775H100.199V257.225H102.699V255H100.199V252.45H97.8491V255H95.3491V257.225H97.8491V259.775ZM108.66 247.425H106.11L105.81 247.825C105.235 248.575 104.785 248.95 103.81 249.05L103.585 249.075V251.5H105.235V265H108.66V247.425ZM122.688 256.225C122.688 254.475 121.663 253.4 120.038 253.4H119.988C118.863 253.4 118.263 253.775 117.588 254.375L117.638 250.625H122.438V247.5H114.388V257.3H117.563C117.938 256.825 118.213 256.575 118.613 256.575C119.063 256.575 119.238 256.85 119.238 257.3V261.525C119.238 261.95 119.038 262.15 118.613 262.15H118.288C117.863 262.15 117.663 261.95 117.663 261.525V258.725H114.288V261.9C114.288 264.075 115.363 265.15 117.538 265.15H119.438C121.613 265.15 122.688 264.075 122.688 261.9V256.225ZM132.887 261.9V250.6C132.887 248.425 131.812 247.35 129.637 247.35H127.487C125.312 247.35 124.237 248.425 124.237 250.6V261.9C124.237 264.075 125.312 265.15 127.487 265.15H129.637C131.812 265.15 132.887 264.075 132.887 261.9ZM129.412 250.975V261.525C129.412 261.95 129.212 262.15 128.787 262.15H128.337C127.912 262.15 127.712 261.95 127.712 261.525V250.975C127.712 250.55 127.912 250.35 128.337 250.35H128.787C129.212 250.35 129.412 250.55 129.412 250.975ZM137.752 247.35C135.577 247.35 134.502 248.425 134.502 250.6V253.3C134.502 254.8 135.027 255.55 135.952 255.9C134.902 256.2 134.452 256.875 134.452 258.15V261.9C134.452 264.075 135.527 265.15 137.702 265.15H139.702C141.877 265.15 142.952 264.075 142.952 261.9V258.15C142.952 256.875 142.502 256.2 141.452 255.9C142.377 255.55 142.902 254.8 142.902 253.3V250.6C142.902 248.425 141.827 247.35 139.652 247.35H137.752ZM137.877 258.125C137.877 257.7 138.077 257.5 138.502 257.5H138.902C139.327 257.5 139.527 257.7 139.527 258.125V261.575C139.527 262 139.327 262.2 138.902 262.2H138.502C138.077 262.2 137.877 262 137.877 261.575V258.125ZM138.527 254.6C138.102 254.6 137.902 254.4 137.902 253.975V250.925C137.902 250.5 138.102 250.3 138.527 250.3H138.877C139.302 250.3 139.502 250.5 139.502 250.925V253.975C139.502 254.4 139.302 254.6 138.877 254.6H138.527ZM152.767 262.15H152.417C151.992 262.15 151.792 261.95 151.792 261.525V259.7H148.417V261.9C148.417 264.075 149.492 265.15 151.667 265.15H153.617C155.792 265.15 156.867 264.075 156.867 261.9V250.6C156.867 248.425 155.792 247.35 153.617 247.35H151.642C149.467 247.35 148.392 248.425 148.392 250.6V255.625C148.392 257.35 149.442 258.525 151.217 258.525H151.342C152.117 258.525 152.792 258.35 153.392 258.075V261.525C153.392 261.95 153.192 262.15 152.767 262.15ZM153.392 255.35C153.192 255.425 152.842 255.5 152.467 255.5C151.967 255.5 151.842 255.325 151.842 254.925V250.975C151.842 250.55 152.042 250.35 152.467 250.35H152.767C153.192 250.35 153.392 250.55 153.392 250.975V255.35ZM162.862 262.15H162.512C162.087 262.15 161.887 261.95 161.887 261.525V259.7H158.512V261.9C158.512 264.075 159.587 265.15 161.762 265.15H163.712C165.887 265.15 166.962 264.075 166.962 261.9V250.6C166.962 248.425 165.887 247.35 163.712 247.35H161.737C159.562 247.35 158.487 248.425 158.487 250.6V255.625C158.487 257.35 159.537 258.525 161.312 258.525H161.437C162.212 258.525 162.887 258.35 163.487 258.075V261.525C163.487 261.95 163.287 262.15 162.862 262.15ZM163.487 255.35C163.287 255.425 162.937 255.5 162.562 255.5C162.062 255.5 161.937 255.325 161.937 254.925V250.975C161.937 250.55 162.137 250.35 162.562 250.35H162.862C163.287 250.35 163.487 250.55 163.487 250.975V255.35ZM172.957 262.15H172.607C172.182 262.15 171.982 261.95 171.982 261.525V259.7H168.607V261.9C168.607 264.075 169.682 265.15 171.857 265.15H173.807C175.982 265.15 177.057 264.075 177.057 261.9V250.6C177.057 248.425 175.982 247.35 173.807 247.35H171.832C169.657 247.35 168.582 248.425 168.582 250.6V255.625C168.582 257.35 169.632 258.525 171.407 258.525H171.532C172.307 258.525 172.982 258.35 173.582 258.075V261.525C173.582 261.95 173.382 262.15 172.957 262.15ZM173.582 255.35C173.382 255.425 173.032 255.5 172.657 255.5C172.157 255.5 172.032 255.325 172.032 254.925V250.975C172.032 250.55 172.232 250.35 172.657 250.35H172.957C173.382 250.35 173.582 250.55 173.582 250.975V255.35ZM187.22 247.425H184.67L184.37 247.825C183.795 248.575 183.345 248.95 182.37 249.05L182.145 249.075V251.5H183.795V265H187.22V247.425ZM193.604 247.425H191.054L190.754 247.825C190.179 248.575 189.729 248.95 188.754 249.05L188.529 249.075V251.5H190.179V265H193.604V247.425ZM207.906 261.9V250.6C207.906 248.425 206.831 247.35 204.656 247.35H202.506C200.331 247.35 199.256 248.425 199.256 250.6V261.9C199.256 264.075 200.331 265.15 202.506 265.15H204.656C206.831 265.15 207.906 264.075 207.906 261.9ZM204.431 250.975V261.525C204.431 261.95 204.231 262.15 203.806 262.15H203.356C202.931 262.15 202.731 261.95 202.731 261.525V250.975C202.731 250.55 202.931 250.35 203.356 250.35H203.806C204.231 250.35 204.431 250.55 204.431 250.975ZM209.246 262.35H213.746V265H216.896V262.35H218.171V259.325H216.896V247.5H212.121L209.246 258.825V262.35ZM213.746 259.325H211.896L213.746 251.85V259.325ZM70.8918 286.325H70.4168C69.5668 286.325 69.1418 285.9 69.1418 285V282.775H67.2168V285C67.2168 287.2 68.2168 288.15 70.4168 288.15H70.8918C73.0668 288.15 74.1418 287.075 74.1418 284.9V273.6C74.1418 271.425 73.0668 270.35 70.8918 270.35H70.4418C68.2668 270.35 67.1918 271.425 67.1918 273.6V278.175C67.1918 279.9 68.2418 281.075 70.0168 281.075H70.0918C70.8668 281.075 71.5668 280.875 72.1668 280.55V285C72.1668 285.9 71.7418 286.325 70.8918 286.325ZM72.1668 278.85C71.7668 279.05 71.0668 279.225 70.4668 279.225C69.6168 279.225 69.1418 278.8 69.1418 277.8V273.5C69.1418 272.6 69.5668 272.175 70.4168 272.175H70.8918C71.7418 272.175 72.1668 272.6 72.1668 273.5V278.85ZM86.4111 288L83.7111 270.45H81.1611L78.4611 288H80.3861L80.7861 285.075H84.0111L84.4361 288H86.4111ZM82.3861 273.575L83.7611 283.275H81.0361L82.3861 273.575ZM95.3752 270.5L93.1502 284.3L90.9252 270.5H87.7752V288H89.6752V273.525L92.0752 288H94.1252L96.5252 273.525V288H98.4752V270.5H95.3752ZM102.826 280.15V281.85H111.176V280.15H102.826ZM119.134 286.325H118.659C117.809 286.325 117.384 285.9 117.384 285V282.775H115.459V285C115.459 287.2 116.459 288.15 118.659 288.15H119.134C121.309 288.15 122.384 287.075 122.384 284.9V273.6C122.384 271.425 121.309 270.35 119.134 270.35H118.684C116.509 270.35 115.434 271.425 115.434 273.6V278.175C115.434 279.9 116.484 281.075 118.259 281.075H118.334C119.109 281.075 119.809 280.875 120.409 280.55V285C120.409 285.9 119.984 286.325 119.134 286.325ZM120.409 278.85C120.009 279.05 119.309 279.225 118.709 279.225C117.859 279.225 117.384 278.8 117.384 277.8V273.5C117.384 272.6 117.809 272.175 118.659 272.175H119.134C119.984 272.175 120.409 272.6 120.409 273.5V278.85ZM129.228 281.425H130.678C132.853 281.425 133.928 280.35 133.928 278.175V273.75C133.928 271.575 132.853 270.5 130.678 270.5H127.228V288H129.228V281.425ZM131.928 273.65V278.275C131.928 279.175 131.503 279.6 130.603 279.6H129.228V272.325H130.603C131.503 272.325 131.928 272.75 131.928 273.65ZM143.154 270.5L140.929 284.3L138.704 270.5H135.554V288H137.454V273.525L139.854 288H141.904L144.304 273.525V288H146.254V270.5H143.154ZM151.154 270.5V288H156.704V286.15H153.154V279.975H156.529V278.15H153.154V272.35H156.654V270.5H151.154ZM163.606 279.1L161.181 277.35C160.606 276.925 160.281 276.55 160.281 275.675V273.475C160.281 272.575 160.706 272.15 161.606 272.15H161.956C162.856 272.15 163.281 272.575 163.281 273.475V276.7H165.231V273.55C165.231 271.425 164.181 270.35 162.031 270.35H161.531C159.356 270.35 158.281 271.425 158.281 273.6V275.7C158.281 277.125 158.656 278.025 159.956 278.95L162.406 280.725C162.981 281.15 163.281 281.525 163.281 282.4V285.025C163.281 285.925 162.856 286.35 161.956 286.35H161.556C160.656 286.35 160.231 285.925 160.231 285.025V281.275H158.281V284.95C158.281 287.075 159.331 288.15 161.481 288.15H162.031C164.206 288.15 165.281 287.075 165.281 284.9V282.35C165.281 280.85 164.881 280.025 163.606 279.1ZM170.729 288V272.35H173.354V270.5H166.104V272.35H168.729V288H170.729ZM181.646 269.7H179.946L176.696 288.8H178.396L181.646 269.7ZM190.55 285C190.55 285.9 190.125 286.325 189.225 286.325H188.725C187.825 286.325 187.4 285.9 187.4 285V282.175H185.45V284.95C185.45 287.1 186.5 288.15 188.65 288.15H189.3C191.475 288.15 192.55 287.075 192.55 284.9V281.2C192.55 279.925 192.1 279.25 191.05 278.95C191.975 278.6 192.5 277.85 192.5 276.35V273.6C192.5 271.425 191.425 270.35 189.25 270.35H188.75C186.575 270.35 185.5 271.425 185.5 273.6V276H187.45V273.5C187.45 272.6 187.875 272.175 188.725 272.175H189.225C190.075 272.175 190.5 272.6 190.5 273.5V276.85C190.5 277.75 190.075 278.175 189.225 278.175H187.25V280.025H189.275C190.125 280.025 190.55 280.45 190.55 281.35V285ZM196.292 273.5C196.292 272.6 196.717 272.175 197.567 272.175H198.042C198.892 272.175 199.317 272.6 199.317 273.5V275.925H201.242V273.5C201.242 271.325 200.267 270.35 198.092 270.35H197.567C195.392 270.35 194.317 271.425 194.317 273.6V284.9C194.317 287.075 195.392 288.15 197.567 288.15H198.067C200.242 288.15 201.317 287.075 201.317 284.9V280.525C201.317 278.8 200.267 277.625 198.492 277.625H198.367C197.567 277.625 196.892 277.85 196.292 278.175V273.5ZM196.292 279.85C196.692 279.65 197.417 279.475 198.017 279.475C198.917 279.475 199.367 279.9 199.367 280.9V285C199.367 285.9 198.942 286.325 198.092 286.325H197.567C196.717 286.325 196.292 285.9 196.292 285V279.85ZM209.907 279.875C209.907 278.075 208.807 277 207.207 277C206.257 277 205.557 277.35 204.957 277.825L205.007 272.35H209.657V270.5H203.157V279.85H204.832C205.557 279.1 206.107 278.85 206.757 278.85C207.557 278.85 207.907 279.3 207.907 280.25V285C207.907 285.9 207.482 286.325 206.632 286.325H206.282C205.432 286.325 205.007 285.9 205.007 285V281.925H203.057V284.95C203.057 287.1 204.107 288.15 206.207 288.15H206.707C208.832 288.15 209.907 287.075 209.907 284.9V279.875ZM214.679 288H217.979C220.604 288 221.854 286.75 221.854 284.125V274.375C221.854 271.75 220.604 270.5 217.979 270.5H214.679V288ZM216.679 272.325H217.879C219.229 272.325 219.854 273 219.854 274.35V284.15C219.854 285.5 219.229 286.175 217.879 286.175H216.679V272.325ZM230.894 288L228.194 270.45H225.644L222.944 288H224.869L225.269 285.075H228.494L228.919 288H230.894ZM226.869 273.575L228.244 283.275H225.519L226.869 273.575ZM238.304 270.5H236.329L234.479 279.075L232.704 270.5H230.654L233.479 282.025V288H235.479V281.875L238.304 270.5ZM244.514 279.1L242.089 277.35C241.514 276.925 241.189 276.55 241.189 275.675V273.475C241.189 272.575 241.614 272.15 242.514 272.15H242.864C243.764 272.15 244.189 272.575 244.189 273.475V276.7H246.139V273.55C246.139 271.425 245.089 270.35 242.939 270.35H242.439C240.264 270.35 239.189 271.425 239.189 273.6V275.7C239.189 277.125 239.564 278.025 240.864 278.95L243.314 280.725C243.889 281.15 244.189 281.525 244.189 282.4V285.025C244.189 285.925 243.764 286.35 242.864 286.35H242.464C241.564 286.35 241.139 285.925 241.139 285.025V281.275H239.189V284.95C239.189 287.075 240.239 288.15 242.389 288.15H242.939C245.114 288.15 246.189 287.075 246.189 284.9V282.35C246.189 280.85 245.789 280.025 244.514 279.1Z" fill="#FFF6D2"/>
<defs>
<clipPath id="clip0_9421_21777">
<rect width="57" height="56" fill="white" transform="translate(128.174 83)"/>
</clipPath>
</defs>
</svg>
